<?xml version="1.0" encoding="UTF-8"?>
<svg width="3600pt" height="3600pt" version="1.1" viewBox="0 0 3600 3600" xmlns="http://www.w3.org/2000/svg">
 <path d="m1595.8 1875.7h1.8281c230.34-165.66 283.08-486.43 117.84-716.9-165.24-230.47-485.86-283.78-716.62-118.83-230.77 164.81-284.48 485.43-119.95 716.47 164.39 231.05 485.03 285.19 716.22 120.94zm-684-12.656 100.12-175.64c71.578 36.984 150.89 56.25 231.47 56.531 82.266 0 163.27-20.109 235.83-58.781l99.703 174.94v0.14062c-208.27 111.52-458.71 111.52-667.12 0zm684-12.656-99.422-174.94h0.14062c74.812-43.594 137.39-105.47 181.83-180l175.64 100.12c-62.719 105.75-151.59 193.5-258.19 254.81zm268.59-274.64-175.64-99.703c77.766-145.97 79.031-320.91 3.2344-468l176.06-100.12c111.23 209.53 109.83 461.12-3.9375 669.24zm-6.75-687.93-175.36 99.703c-43.172-76.078-105.19-139.78-180-185.06l99.703-175.36v0.14062c106.45 63.141 194.48 153 255.66 260.58zm-275.77-271.83-100.12 176.06c-148.5-79.453-326.95-79.453-475.6 0l-100.12-176.06h0.14063c210.94-114.05 465.34-113.2 675.72 2.25zm-694.4 9 100.12 175.36h-0.14062c-76.359 44.719-139.78 108.7-183.94 185.34l-175.64-99.703c62.156-108.14 151.59-198.14 259.45-261zm-270.42 279.7 174.94 99.703c-77.625 148.64-76.219 326.11 3.6562 473.47l-175.64 100.12-0.14062-0.14062c-115.17-209.25-116.58-462.53-3.9375-673.16zm15.469 691.6 175.36-99.703c44.859 74.672 108 136.55 183.52 180l-99.703 175.36c-107.16-61.312-196.45-149.34-259.17-255.66zm441.29 698.07h2.9531c4.2188 0.14062 8.1562-2.25 10.125-6.1875 2.1094-5.0625 14.766-28.406 75.656-131.06 28.828 2.5312 55.125 3.6562 79.594 3.6562h-0.14063c90.562 0 180.7-13.219 267.47-39.234 44.297 48.938 103.36 112.64 103.36 112.64 3.7969 3.0938 9.1406 3.0938 12.938 0l252-136.83v0.14062c4.7812-2.6719 6.8906-8.2969 5.0625-13.359-3.2344-8.5781-18-63-39.938-146.11v-0.14062c96.469-82.125 174.94-183.52 230.34-297.7h154.12c4.9219-0.14062 9.1406-3.5156 10.406-8.2969l66.234-273.52c1.2656-5.2031-1.2656-10.547-6.1875-12.656-6.1875-2.5312-36-16.594-135.42-72v-37.828h0.14062c-0.14062-101.11-16.875-201.52-49.641-297.28 62.297-61.594 101.81-99.703 108-105.47 4.2188-3.375 5.3438-9.4219 2.5312-14.062l-144-245.53c-2.5312-4.2188-7.5938-6.1875-12.234-5.0625 0 0-84.656 24.891-147.66 44.297-69.047-75.656-150.19-139.36-240.19-188.58 3.9375-87.188 7.1719-141.89 8.5781-150.89h0.14062c1.125-5.4844-2.25-10.828-7.5938-12.234l-270-81c-4.7812-1.2656-9.8438 0.70312-12.234 5.0625 0 0-45 74.812-78.188 131.77-28.406-2.1094-54-3.6562-78.188-3.6562h0.14062c-91.547 0-182.53 13.359-270 39.938-80.578-87.469-97.875-108-101.11-111.94-3.2344-4.3594-9.1406-5.4844-13.781-2.8125l-252 136.83c-4.6406 2.1094-6.8906 7.3125-5.3438 12.234 0 0 21.938 84.656 38.812 148.36v-0.14062c-96.188 82.547-174.38 183.94-229.64 298.12-87.469 0-144 0-151.88-2.1094-5.4844-0.70312-10.688 2.8125-11.953 8.1562l-65.109 276.19c-1.4062 4.7812 0.84375 9.9844 5.3438 12.234 0 0 77.344 41.766 135.7 72h0.14062c0.14063 2.6719 0.14063 5.3438 0 7.875v28.547c0.14063 100.55 16.734 200.53 49.219 295.88-47.531 46.125-109.83 108-109.83 108-3.2344 3.6562-3.2344 9.2812 0 12.938l144 245.53c2.8125 4.5 8.4375 6.4688 13.359 4.6406 5.7656-2.5312 36-12.656 144-45 68.906 75.938 149.91 139.78 239.77 189-3.6562 65.812-7.5938 153-7.5938 153-0.14063 5.0625 3.0938 9.5625 8.0156 10.828zm-501.77-454.64c-2.8125-3.0938-7.1719-4.2188-11.25-2.9531-77.344 23.062-125.3 36-144 44.297l-136.41-230.34c17.297-17.297 69.188-68.344 108-108 3.2344-2.8125 4.3594-7.3125 2.9531-11.25-33.188-94.922-50.344-194.91-50.484-295.59v-42.188 0.14063c0.42188-4.2188-1.8281-8.2969-5.7656-10.125-48.234-25.172-112.64-60.188-134.3-72l65.109-259.88c26.578 0 95.062 0 151.88 1.8281h0.14062c4.0781-0.14062 7.875-2.5312 9.7031-6.1875 55.125-116.02 134.44-218.81 232.59-301.64 3.2344-2.6719 4.5-6.8906 3.2344-10.828-14.062-52.875-32.344-123.19-38.531-146.81l235.12-128.53c13.641 16.172 47.531 53.578 101.11 111.66v-0.14062c2.8125 3.2344 7.1719 4.3594 11.25 2.9531 87.328-26.578 178.31-39.656 269.58-38.953 25.172 0 52.172 0 82.828 4.3594 4.2188 0.28125 8.2969-1.6875 10.406-5.3438l77.344-130.64 256.36 77.062c-2.1094 26.578-5.3438 94.359-8.2969 150.89v-0.14062c0 4.0781 2.25 8.0156 5.7656 10.125 92.25 49.359 175.08 114.61 244.83 192.52 2.8125 3.0938 7.1719 4.2188 11.109 2.9531l146.11-43.875 136.12 230.77c-19.406 18-68.344 65.531-108 105.47v-0.14062c-2.8125 2.9531-3.7969 7.3125-2.3906 11.25 33.469 95.344 50.625 195.75 50.625 297v43.594-0.14063c0 4.2188 2.1094 8.1562 5.7656 10.125 72 38.109 115.88 61.594 134.58 72l-68.344 257.06h-152.3 0.14062c-4.2188 0.14063-7.875 2.3906-9.8438 6.1875-55.125 115.88-134.58 218.67-232.88 301.22-3.2344 2.6719-4.6406 6.8906-3.5156 10.828 11.812 45.422 31.359 118.83 39.656 146.11l-235.12 128.53c-16.594-18-65.531-72-102.23-111.23h-0.14062c-2.6719-3.2344-7.0312-4.5-11.109-3.2344-86.625 26.719-176.77 40.359-267.47 40.359-25.594 0-53.297 0-84.234-4.3594-4.2188-0.5625-8.2969 1.6875-10.125 5.4844-40.641 68.062-66.234 111.94-76.359 130.36l-256.64-77.062c0-24.188 4.6406-96.469 7.5938-150.89 0.14062-4.3594-2.1094-8.2969-5.7656-10.406-92.109-49.359-174.8-114.47-244.41-192.23zm2072.1 68.344c-165.52-0.42187-322.03 76.078-423.57 206.86-101.39 130.92-136.55 301.36-95.062 461.66 41.484 160.31 154.83 292.36 307.12 357.47 152.3 65.25 326.11 56.109 470.66-24.469 139.22-77.062 236.67-212.2 266.06-368.43 29.531-156.38-12.234-317.53-113.77-440.03-101.53-122.34-252.42-193.22-411.48-193.08zm444.24 279-122.77 69.891c-31.219-54.562-75.797-100.27-129.52-132.89l69.891-122.77h-0.14063c75.656 45.422 138.52 109.27 182.53 185.77zm-200.81-195.89-69.891 123.19c-107.72-56.672-236.39-56.672-344.11 0l-69.891-122.77c151.03-81.422 332.86-81.422 483.88 0zm-504 9.7031 71.297 123.19c-54.141 32.203-99.141 77.484-131.06 131.77l-122.77-69.891c44.438-76.359 107.86-140.06 183.94-185.06zm-194.34 203.34 122.77 72-0.14063 0.14063c-55.266 107.58-54.141 235.41 2.9531 342l-122.77 69.891c-81.562-150.19-82.688-331.03-2.9531-482.07zm14.062 500.76 122.34-69.891v0.14062c32.344 52.875 77.344 96.891 130.92 128.25l-69.891 122.77h0.14063c-75.094-44.016-137.81-106.31-182.25-181.12zm202.36 191.53 69.891-122.77-0.14062 0.14062c105.89 54.703 231.75 54.703 337.64 0l69.891 123.19-0.14063-0.14062c-149.2 79.031-327.94 79.031-477.29 0zm496.12-11.812-68.625-122.77c53.016-31.5 97.312-75.516 129.23-128.11l122.34 69.891h0.14062c-44.578 74.531-107.02 136.83-181.83 180.98zm194.2-199.83-122.77-69.891v0.14062c27.984-53.156 42.469-112.36 42.469-172.41 0.14062-57.938-13.641-115.17-39.938-166.78l123.19-69.891-0.14062 0.14062c78.891 150.05 77.766 329.62-2.8125 478.69zm318.66-164.81c-3.2344 0-20.531-9.7031-96.188-50.062v-26.016 0.14062c0-73.547-12.094-146.53-36-216 63.422-62.297 75.656-72 78.188-75.234 4.2188-3.375 5.3438-9.4219 2.5312-14.062l-105.47-180h-0.14062c-2.3906-4.2188-7.4531-6.1875-12.234-4.6406l-105.89 31.641h0.14062c-49.641-54.562-108.14-100.41-172.83-135.7 4.3594-84.938 5.7656-104.06 6.4688-108 0.5625-5.2031-2.5312-10.266-7.5938-11.953l-198-59.766c-4.6406-1.2656-9.7031 0.5625-12.234 4.7812l-55.406 94.641c-20.109 0-36-2.5312-55.125-2.5312-65.953 0-131.48 9.5625-194.77 28.406-41.766-45.703-68.062-74.531-72-79.875-2.9531-4.5-9-5.7656-13.641-2.9531l-182.81 99.422c-4.2188 2.5312-6.4688 7.4531-5.4844 12.234 0 0 15.469 60.188 28.125 108-69.469 59.906-126 133.45-165.94 216h-108c-5.4844-0.84375-10.688 2.5312-11.953 7.875l-50.766 201.23c-1.2656 4.9219 0.98438 9.9844 5.4844 12.234l97.594 51.891v24.891h-0.14062c0.28125 73.406 12.375 146.39 36 216l-80.578 73.406c-3.0938 3.9375-3.0938 9.4219 0 13.359l105.89 180c2.6719 4.5 8.4375 6.3281 13.219 4.2188 3.6562 0 21.656-7.5938 104.06-32.062v0.14062c49.641 54.281 107.72 100.27 172.12 135.98-2.5312 47.531-5.0625 108-5.0625 108-0.28125 4.9219 2.9531 9.4219 7.5938 10.828l196.17 58.359h3.2344c4.2188-0.14062 8.0156-2.6719 9.7031-6.4688 1.8281-3.2344 10.828-20.109 54.422-93.234 20.109 0 38.531 2.5312 56.109 2.5312 65.531 0 130.78-9.4219 193.64-28.125 32.062 36 74.109 80.297 74.109 80.297h0.14062c3.2344 3.6562 8.5781 4.5 12.938 2.1094l182.11-99.422v0.14062c4.7812-2.8125 6.8906-8.5781 5.0625-13.781 0-3.2344-6.8906-21.656-28.406-104.06 69.328-60.047 125.72-133.45 165.94-216h110.11c4.9219 0.28125 9.2812-3.0938 10.547-7.875l50.344-199.41c0.84375-4.6406-1.4062-9.1406-5.3438-11.531zm-63 199.41h-108c-4.2188 0.14062-8.1562 2.5312-10.125 6.1875-39.938 83.953-97.594 158.34-168.89 218.11-2.9531 2.9531-4.0781 7.1719-3.2344 11.109 13.641 52.875 23.062 87.891 28.125 104.06l-167.06 91.125-72-79.172c-2.8125-3.0938-7.1719-4.2188-11.109-2.9531-62.719 19.406-128.11 29.25-193.78 29.25-18.703 0-38.812 0-61.172-3.2344-4.0781-0.28125-8.0156 1.8281-9.9844 5.3438-36 58.359-48.656 82.406-54.422 92.812l-183.66-55.406c0-19.406 3.2344-69.469 5.0625-108 0.5625-4.0781-1.6875-8.1562-5.3438-9.9844-66.375-35.719-125.86-82.547-176.06-138.66-2.8125-3.0938-7.1719-4.2188-11.109-2.8125-65.109 19.406-91.828 27.703-103.36 31.641l-96.891-163.83c14.062-14.062 49.641-49.359 77.344-75.938h0.14062c2.9531-3.0938 3.9375-7.5938 2.5312-11.531-23.906-68.766-36-141.05-36-213.89v-30.656 0.14062c0-4.2188-2.25-8.0156-5.7656-10.125l-96.469-52.172 46.406-184.36h108c4.0781-0.14062 7.875-2.3906 9.7031-6.0469 40.078-83.531 97.734-157.22 168.89-216.42 3.0938-2.6719 4.5-7.0312 3.5156-11.109-10.125-36-22.641-85.359-27.703-104.34l167.06-91.406c13.641 15.891 45.422 50.344 72 79.594v-0.14062c2.9531 2.8125 7.1719 3.9375 11.109 2.8125 63.141-19.547 128.81-29.391 194.77-29.531 18.422 0 36 0 60.188 2.8125v0.14062c4.2188 0.70312 8.2969-1.4062 10.406-5.0625 19.125-33.188 44.578-76.359 54.703-93.234l182.53 53.578c0 12.234-2.8125 39.938-6.1875 108 0.14062 4.2188 2.25 8.0156 5.7656 10.125 66.938 35.578 127.12 82.828 177.61 139.36 2.6719 3.0938 7.0312 4.3594 11.109 3.2344 36-11.531 84.938-25.875 104.06-31.359l96.891 163.83c-12.234 11.531-38.109 36-77.344 75.234h-0.14062c-2.9531 2.9531-3.9375 7.3125-2.5312 11.109 24.047 69.469 36.141 142.59 36 216v31.781c-0.28125 4.2188 1.9688 8.1562 5.7656 9.9844 60.188 32.062 84.938 45 95.766 50.344zm-2033.6-180h-0.14062c-198.84 0-360 161.16-360 360s161.16 360 360 360c61.312 0.14062 121.5-15.609 174.94-45.703 144.42-79.453 216.28-246.8 174.8-406.12-41.625-159.47-186.05-270.28-350.86-269.16zm291.66 188.58-75.797 44.016c-20.531-34.312-48.797-63.422-82.828-84.656l42.891-75.656v0.14062c47.391 28.547 87.047 68.344 115.59 115.88zm-133.73-128.39-43.172 75.938c-35.297-18.281-74.391-27.703-114.19-27.703-39.094 0.14062-77.625 9.2812-112.64 27l-43.172-75.938c48.094-25.031 101.53-38.109 155.81-38.25 54.844 0 108.84 13.359 157.36 38.953zm-331.88 10.125 43.875 75.516c-34.312 21.234-63 50.203-83.812 84.656l-75.656-43.172v-0.14062c28.125-47.812 67.5-87.891 114.89-117zm-127.41 136.12 75.938 43.172v-0.14062c-17.156 34.453-26.016 72.422-26.016 110.95 0 39.938 9.5625 79.312 27.703 114.75l-75.938 43.172v0.14062c-51.609-97.594-52.312-214.17-1.8281-312.19zm12.938 330.89 75.656-43.172-0.14062-0.14062c20.812 33.469 49.219 61.734 82.828 82.406l-43.172 75.656v-0.14062c-47.531-28.125-87.328-67.641-116.02-114.75zm135.42 125.3 43.172-75.938-0.14062-0.28125c70.031 35.016 152.44 35.016 222.47 0l43.172 75.938 0.14062 0.14062c-96.891 50.344-212.2 50.344-308.95 0zm327.94-11.531-43.172-75.656-0.14062-0.14062c33.609-20.531 62.016-48.656 82.828-82.125l75.656 42.891c-28.688 47.25-68.484 86.766-116.02 114.89zm126.98-133.73-75.938-43.172c35.719-70.312 35.719-153.42 0-223.59l75.938-43.172c23.906 47.391 36.281 99.844 36 153 0.98438 54.422-11.391 108.28-36 156.94zm216-108c-2.8125 0-20.812-10.406-61.875-32.062v-14.766c0-48.938-8.0156-97.594-23.766-144l49.641-50.062c4.3594-3.0938 5.4844-9.1406 2.5312-13.641l-72-119.53c-2.5312-4.2188-7.4531-6.1875-12.234-5.0625l-67.641 22.359c-32.625-35.297-70.734-65.25-112.78-88.594 2.8125-56.812 3.6562-67.641 3.9375-69.469 0.84375-5.2031-2.3906-10.266-7.4531-11.812l-132.89-39.938c-4.7812-1.5469-9.8438 0.42188-12.656 4.6406 0 0-20.109 33.891-36 61.172h-36c-43.734-0.14062-87.188 6.1875-129.23 18.703-36-40.359-45-49.641-46.406-51.469-2.9531-4.5-9-5.9062-13.641-3.2344l-119.53 63.422c-4.2188 2.3906-6.3281 7.4531-5.0625 12.234 0 0 9.7031 38.109 18 68.766-44.859 39.516-81.562 87.609-108 141.47h-69.891 0.14062c-5.625-0.70312-10.688 2.8125-11.953 8.2969l-33.891 134.58c-0.98438 4.7812 1.2656 9.7031 5.4844 12.234l63 33.469v14.062c0 48.938 7.875 97.594 23.344 144-22.641 21.938-50.766 50.062-50.766 50.062-3.6562 3.5156-4.3594 9-1.8281 13.219l72 119.53c2.8125 4.7812 8.7188 6.6094 13.781 4.3594 1.8281 0 11.812-4.3594 66.656-20.812h-0.14062c32.766 35.297 70.734 65.391 112.78 89.297l-3.2344 72c-0.28125 4.7812 2.8125 9.2812 7.4531 10.688l128.53 37.125h2.9531c4.0781 0 7.875-2.3906 9.7031-6.1875 0-3.2344 11.531-20.531 36-60.469h36c43.312 0.14062 86.484-6.0469 128.11-18.281l47.812 52.172h0.14062c3.2344 3.9375 8.8594 4.7812 13.219 2.1094l121.64-66.656 0.14062 0.14062c4.6406-2.6719 6.75-8.2969 5.0625-13.359 0 0-3.6562-10.406-18.422-66.938 45-39.516 81.703-87.609 108-141.47h72c4.9219 0 9.2812-3.5156 10.406-8.2969l33.891-134.3c0.70312-4.3594-1.2656-8.7188-5.0625-11.109zm-46.406 133.88h-71.719c-4.0781 0.14062-7.875 2.5312-9.7031 6.1875-26.438 55.547-64.688 104.62-111.94 144-2.9531 2.8125-4.2188 7.0312-3.2344 11.109 8.5781 32.344 14.344 55.125 18 66.938l-108 58.359-46.406-51.188v0.14062c-2.9531-3.375-7.4531-4.5-11.531-2.9531-41.625 12.656-84.797 19.125-128.25 19.125h-40.641c-4.0781-0.5625-8.1562 1.4062-10.406 5.0625-12.656 21.234-27.422 46.406-36 59.766l-116.3-36c0-14.766 2.1094-45.422 3.2344-69.188 0.42188-4.2188-1.6875-8.1562-5.3438-10.125-44.438-23.766-84.234-55.266-117.7-92.812-2.9531-3.0938-7.3125-4.2188-11.25-2.9531l-66.656 20.109-61.875-104.77c10.828-10.125 32.766-32.062 50.062-48.656v0.14062c2.9531-3.0938 3.9375-7.4531 2.5312-11.531-16.172-45.562-24.328-93.516-24.469-141.75v-21.656c0.42188-4.2188-1.9688-8.2969-5.7656-10.125l-61.594-32.766 29.812-118.12h69.469l0.14062 0.14062c4.2188 0 8.0156-2.3906 9.7031-6.1875 26.578-55.406 64.547-104.48 111.66-144 5.9062-1.2656 9.7031-7.0312 8.5781-12.938-6.1875-23.062-14.062-52.875-17.578-67.359l108-58.359c6.4688 7.5938 19.406 21.938 46.406 51.188 2.6719 3.2344 7.1719 4.3594 11.109 2.9531 41.906-13.078 85.5-19.547 129.23-19.547 11.812 0 24.891 0 39.656 2.1094v0.14062c4.2188 0.28125 8.2969-1.8281 10.406-5.4844 11.812-20.531 27.703-47.109 36-59.766l116.3 36c0 9.4219 0 28.828-3.6562 69.188-0.14062 4.2188 2.1094 8.0156 5.7656 10.125 44.297 23.625 84.234 54.984 117.7 92.391 2.9531 3.0938 7.3125 4.2188 11.25 2.9531l62.578-20.531 61.875 104.34-51.047 49.781c-2.9531 2.9531-3.9375 7.1719-2.5312 11.109 16.172 46.266 24.469 94.922 24.469 144v21.234c-0.28125 4.2188 1.9688 8.0156 5.7656 9.7031l61.594 32.766z"/>
</svg>
