<?xml version="1.0" encoding="UTF-8"?>
<svg width="1200pt" height="1200pt" version="1.1" viewBox="0 0 1200 1200" xmlns="http://www.w3.org/2000/svg">
 <path d="m718.14 257.47 1.125 1.1133c0.37891 0.38281 0.74219 0.77734 1.0938 1.1836 6.3711 1.5703 10.754 7.6758 10.262 14.426 0.57812 0.69141 1.1562 1.3984 1.7227 2.1211 0.96094 1.2227 0.96094 1.2227 1.8555 2.375 0.88672 1.125 1.7227 2.2969 2.6328 3.7109 0.8125 1.3047 0.8125 1.3047 1.7578 2.8086 0.68359 1.1094 1.3711 2.2773 2.0703 3.5078 0.5625 0.98828 1.0469 1.8242 1.4102 2.4219 0.39844 0.65234 0.81641 1.3086 1.3047 2.0469 0.75 1.1445 0.75 1.1445 1.5625 2.3711 0.4375 0.66797 0.90234 1.3359 1.4648 2.1211 0.92188 1.3086 0.92188 1.3086 1.875 2.6875 0.89062 1.3008 0.89062 1.3008 1.7383 2.5508 0.67969 0.98828 1.3555 2.0039 2.1445 3.2383 0.89062 1.4414 0.89062 1.4414 1.8047 2.9297 0.73047 1.2148 1.4258 2.4727 1.9844 3.5859 0.62891 1.1914 1.2305 2.4102 1.75 3.5352 0.5625 1.1836 1.1016 2.3633 1.5547 3.4102 0.72656 1.6367 0.72656 1.6367 1.3945 3.1797 0.77734 1.7422 0.77734 1.7422 1.4766 3.3555 0.77344 1.7539 0.77344 1.7539 1.5273 3.5156 0.47656 1.0859 0.97656 2.1836 1.4492 3.1875 0.94531 1.9648 0.94531 1.9648 1.8828 3.957 0.73438 1.5039 1.4531 3.0039 2.0977 4.375 1.0547 2.1797 1.0547 2.1797 2.1172 4.375 0.80078 1.668 1.5898 3.4414 2.3594 5.2812 0.77734 1.8477 1.3711 3.3359 1.7422 4.375 0.46484 1.2188 0.46484 1.2188 0.85156 2.207 0.46484 1.1172 1.0391 2.625 1.7227 4.5273 0.68359 1.8672 1.1953 3.2891 1.543 4.3008 0.28125 0.82031 0.71094 2.0352 1.2852 3.6211 0.61328 1.707 1.0859 3.0391 1.4023 3.957 0.33594 0.97266 0.79297 2.3242 1.3594 4.0469 0.57031 1.7109 1.1406 3.4492 1.707 5.2109 0.60156 1.8555 1.1758 3.7266 1.7031 5.5469 0.50781 1.7227 1.0273 3.4531 1.5312 5.1172 0.62109 1.9922 1.082 3.5703 1.3984 4.8047 0.36328 1.4023 0.36328 1.4023 0.66406 2.5625 0.36328 1.3242 0.36328 1.3242 0.74219 2.6797 0.30469 1.1211 0.58594 2.2344 0.78906 3.1641 0.39453 1.6914 0.39453 1.6914 0.94531 4.1328 0.46875 2.0273 0.8125 3.6367 1.0312 4.8711 0.26172 1.4727 0.26172 1.4727 0.48828 2.7656 0.22266 1.1992 0.41797 2.457 0.56641 3.6367 0.22656 1.6641 0.22656 1.6641 0.44531 3.3281 0.21484 1.7031 0.21484 1.7031 0.42578 3.5156 0.20312 1.7383 0.20312 1.7383 0.37891 3.3086 0.12891 1.1406 0.24609 2.375 0.33984 3.5508 0.17578 1.9062 0.17578 1.9062 0.32031 3.7227 0.14062 1.5391 0.22656 3 0.25391 4.2188 0.054688 1.4609 0.054688 1.4609 0.125 2.8672 0.085938 1.293 0.14844 2.5742 0.19141 3.8594 0.054687 1.6602 0.054687 1.6602 0.11328 3.3672 0.039062 1.5898 0.039062 1.5898 0.089844 3.5039 0.054687 1.9453 0.054687 1.9453 0.089844 3.375 0.058593 1.6133 0.058593 1.6133 0.10937 3.332 0.058594 1.4258 0.085938 2.8359 0.085938 4.2305v37.219c0 1.1875-0.027344 2.4883-0.082031 3.7617-0.039063 1.3359-0.089844 2.707-0.16406 4.2461-0.10547 1.9297-0.10547 1.9297-0.20312 3.9531-0.11719 1.9258-0.11719 1.9258-0.22656 3.4453-0.10938 1.6914-0.10938 1.6914-0.26562 3.7852-0.12109 1.418-0.25391 2.8047-0.40625 4.1719-0.20703 1.8828-0.20703 1.8828-0.41406 3.7305-0.16016 1.5039-0.35156 3.0273-0.59766 4.6914-0.17969 1.168-0.32812 2.2383-0.44141 3.2148-0.16406 1.3945-0.37109 2.8359-0.61719 4.3242-0.22266 1.3477-0.46484 2.7344-0.72656 4.1562-0.23438 1.2578-0.44141 2.4414-0.64453 3.6914-0.19141 1.0977-0.37891 2.25-0.58203 3.5781-0.24219 1.5-0.50781 2.9531-0.76953 4.2227-0.25391 1.3047-0.53516 2.6602-0.80859 3.9102-0.25391 1.2344-0.47656 2.3672-0.66406 3.375-0.32812 1.7773-0.32812 1.7773-0.67578 3.625-0.25 1.3984-0.51172 2.7617-0.74609 3.9258-0.36328 1.9062-0.36328 1.9062-0.73828 3.8398-0.36719 1.8828-0.36719 1.8828-0.74609 3.8125-0.35547 1.7695-0.35547 1.7695-0.69922 3.5234-0.26562 1.3516-0.52734 2.5898-0.75 3.5547-0.23828 1.082-0.52344 2.3047-0.85547 3.6758-0.46484 1.8945-0.46484 1.8945-0.83594 3.3438-0.37891 1.543-0.37891 1.543-0.76172 3.0664-0.28906 1.2188-0.60156 2.4688-0.92969 3.75-0.36328 1.4102-0.75 2.7852-1.1484 4.082-0.47656 1.5859-0.47656 1.5859-0.89062 3-0.31641 1.0742-0.6875 2.2578-1.1016 3.5156-0.58203 1.7852-0.58203 1.7852-1.1641 3.5586-0.46484 1.418-0.96094 2.793-1.4297 3.9805-0.59375 1.5508-0.59375 1.5508-1.1797 3.1211-0.49609 1.3398-0.98828 2.5977-1.5469 3.9102-0.38281 0.875-0.78125 1.8125-1.2148 2.8594-0.58203 1.3984-1.25 2.8242-1.9141 4.1328-0.83594 1.6914-0.83594 1.6914-1.4062 2.8398-0.55078 1.1602-1.1914 2.3906-1.832 3.5391-0.66797 1.2422-1.3672 2.4727-2.1289 3.7578-0.94141 1.5742-0.94141 1.5742-1.9922 3.332-0.98438 1.5898-0.98438 1.5898-1.8398 2.957-0.65234 1.0352-1.3945 2.1367-2.1406 3.1992-0.76953 1.1133-1.582 2.25-2.418 3.3867-0.71094 0.96484-1.3672 1.875-1.9961 2.7617-0.75391 1.0625-1.5547 2.1484-2.3516 3.1875-1.1523 1.5273-1.1523 1.5273-2.2539 2.9609-0.85156 1.1055-1.7461 2.1992-2.6797 3.2812-0.65234 0.75391-1.3203 1.5586-1.9531 2.3516-0.88281 1.1172-1.7422 2.1641-2.582 3.1602-0.81641 0.96094-1.6562 1.9258-2.4531 2.8164-1.2422 1.4102-1.2422 1.4102-2.5703 2.8906-0.96484 1.0742-1.9141 2.0977-2.9219 3.1445-1.1875 1.2188-1.1875 1.2188-2.3008 2.375-1 1.0312-1 1.0312-2.25 2.3438-1.0234 1.0664-2.0625 2.0898-3.0391 3.0078-0.78516 0.75-1.6055 1.5469-2.3945 2.332-1.0312 1.0469-2.0898 2.0781-3.043 2.9844-1.3633 1.3281-1.3633 1.3281-2.6523 2.6016-1.3047 1.2773-1.3047 1.2773-2.7227 2.6523-0.95703 0.91406-1.9648 1.8555-3.1484 2.9492-1.4766 1.3281-1.4766 1.3281-2.8828 2.5781-1.1289 0.97656-1.1289 0.97656-2.4023 2.0898-1.0391 0.92969-2.0039 1.7734-2.8008 2.4492-1.1719 1.0156-2.6719 2.168-4.5391 3.5117-2.2891 1.6602-2.2891 1.6602-3.7656 2.7227-1.2578 0.92578-2.5078 1.7656-3.75 2.5117-1.2422 0.74609-1.2422 0.74609-2.4414 1.4805-1.1719 0.72266-1.1719 0.72266-2.582 1.6094-1.0312 0.63672-2.0547 1.2578-2.9609 1.7891-1.0664 0.64062-2.0898 1.2305-3.1445 1.8125-0.75781 0.41016-1.6719 0.92188-2.7383 1.5273-1.293 0.73438-2.4609 1.3672-3.5117 1.9062-1.3164 0.67578-1.3164 0.67578-2.9648 1.5273-1.2266 0.62109-2.4531 1.2148-3.8047 1.8359-1.7227 0.76562-1.7227 0.76562-3.3789 1.4844-1.5195 0.67969-3.0117 1.2695-4.3516 1.7266-1.2266 0.43359-2.5195 0.86328-3.8398 1.2773-1.4844 0.46875-2.9531 0.88281-4.2695 1.1992-1.3594 0.34375-2.793 0.67188-4.3047 0.97656-1.9531 0.39844-3.9102 0.64453-5.7266 0.73438-1.5312 0.089844-3.0352 0.13672-4.5117 0.13672h-3.6875c-1.3711 0-2.8086-0.019531-4.3125-0.0625-1.4727-0.039062-2.8828-0.09375-4.2344-0.16406-1.3477-0.066407-2.7617-0.15625-4.3633-0.27344-1.5938-0.13281-3.1719-0.30078-4.6133-0.48828-1.5039-0.1875-3.0938-0.41016-4.7461-0.67188-2.2188-0.34766-2.2188-0.34766-4.2188-0.65234-1.5391-0.23047-3.1172-0.50391-4.6367-0.80469-2.0859-0.39062-2.0859-0.39062-4.0234-0.75391-2.0586-0.37109-2.0586-0.37109-4.082-0.74609-1.957-0.37109-1.957-0.37109-4.1367-0.78906l-4.1562-0.83594c-2.0664-0.41797-2.0664-0.41797-4.1836-0.84766-1.2383-0.26172-2.5352-0.52734-3.9102-0.79688-1.4648-0.28906-2.8828-0.57812-4.1406-0.84375-1.3984-0.28125-2.8555-0.58984-4.2422-0.89453-2.2227-0.46484-2.2227-0.46484-4.3711-0.92578-1.6484-0.35156-3.3594-0.76562-5.0312-1.2148-1.6602-0.43359-3.1602-0.83984-4.3555-1.1836-1.4531-0.39844-3.1211-0.90234-4.9688-1.5-1.8906-0.59766-3.6875-1.207-5.3398-1.8086-1.6484-0.58984-3.2734-1.1992-4.9375-1.8555-2.2812-0.90625-2.2812-0.90625-4.6836-1.8633-1.7852-0.71484-3.457-1.418-4.9258-2.0781-1.5547-0.67969-3.125-1.4141-4.7109-2.1914-1.5078-0.73828-3.1016-1.5391-4.7734-2.4023-1.6875-0.87109-3.207-1.6758-4.6953-2.4961-1.8516-1.043-1.8516-1.043-3.6797-2.0742-1.2812-0.72266-2.6719-1.5273-4.1797-2.4102-1.5703-0.92188-3.1094-1.8594-4.543-2.7617-1.4531-0.90625-2.7734-1.7422-4.1094-2.6094-1.7148-1.1445-1.7148-1.1445-3.9453-2.6211-1.5234-1.0234-2.9453-1.9961-4.3203-2.9414-1.3633-0.94922-2.6758-1.8867-4.0156-2.8711-1.1328-0.84375-2.3438-1.7344-3.6289-2.6719-1.5-1.0898-2.9766-2.2188-4.4219-3.3828-1.875-1.5156-1.875-1.5156-3.5938-2.9023-1.2148-0.98438-2.6016-2.1406-4.2148-3.5195-1.5078-1.2969-2.8047-2.4219-4.0234-3.4961-1.1055-0.99609-2.2734-2.0781-3.5117-3.2344-1.2617-1.1875-2.6016-2.4805-3.9844-3.8438-1.3984-1.3672-2.6875-2.6406-3.8086-3.7695-1.4297-1.4141-2.7305-2.8242-3.9727-4.3047-1.3516-1.6328-1.3516-1.6328-2.7227-3.293-1.0898-1.2969-2.1406-2.6016-3.1953-3.9648-1.0703-1.3984-2.0977-2.8281-3.1367-4.3672-0.93359-1.4062-1.918-2.9648-2.9297-4.6445-1.043-1.7188-2.0117-3.3945-2.8867-4.9922-0.82812-1.4961-1.6484-3-2.4609-4.5117-0.91406-1.6992-1.8984-3.668-2.918-5.8203-1.0273-2.1367-1.9531-4.1211-2.8086-6.0312-0.82812-1.875-1.6016-3.7266-2.3281-5.5586-0.67969-1.7227-1.3945-3.5742-2.1445-5.5586l-2.1875-5.7773c-0.74609-1.9648-1.4492-3.8477-2.0898-5.5859-0.67969-1.8281-1.3789-3.7539-2.1016-5.7969-0.67969-1.9297-1.3516-3.8047-2.0352-5.6992-0.69141-1.9609-1.3516-3.8945-1.9414-5.7109-0.62109-1.875-1.2734-3.9023-1.9219-5.9883-0.97656-3.0625-0.97656-3.0625-1.8086-5.7031-0.55469-1.7812-1.1055-3.625-1.6211-5.4414-0.78906-2.7266-0.78906-2.7266-1.6406-5.6719-0.57031-2.0078-1.0938-3.9336-1.582-5.7969-0.67969-2.625-0.67969-2.625-1.3867-5.3281-0.48047-1.8906-0.96094-3.9023-1.4297-6.0234-0.47266-2.1055-0.91406-4.1953-1.3242-6.2852-0.40625-2.0938-0.76562-4.0703-1.0898-6.0312-0.32031-2.0312-0.57812-4.1406-0.78125-6.3359-0.20703-2.2617-0.32422-4.5-0.35156-6.6211-0.039063-1.9453-0.058594-3.8555-0.058594-5.7383v-12.027c0-2.2539 0.035156-4.3867 0.10547-6.4922 0.11719-2.9414 0.11719-2.9414 0.26172-6.6914 0.16406-3.7773 0.16406-3.7773 0.32031-7.1562 0.11719-2.1992 0.26562-4.4844 0.44531-6.8516 0.17578-2.3164 0.34766-4.4531 0.51953-6.5039 0.16797-1.8828 0.35547-4.0977 0.5625-6.6328 0.22266-2.7109 0.44922-5.0625 0.66797-6.9844 0.20313-1.8711 0.44922-4.0312 0.73047-6.4141 0.27344-2.418 0.53906-4.6797 0.78906-6.793 0.26953-2.2383 0.57031-4.4258 0.90625-6.5391 0.29688-1.8945 0.59766-3.8945 0.89453-5.9922 0.33594-2.3516 0.71094-4.6641 1.1289-6.9219 0.39062-2.1523 0.76562-4.1484 1.1406-6.0781 0.37109-1.8633 0.80078-3.9102 1.3008-6.2188 0.52344-2.3516 1.0586-4.5508 1.5859-6.5156 0.51953-1.9961 1.0469-3.8867 1.5742-5.6641 0.52344-1.7578 1.082-3.543 1.6914-5.3906 0.60156-1.8008 1.25-3.6602 1.9492-5.5781 0.67969-1.875 1.3477-3.6523 2.0273-5.4297 0.71484-1.8164 1.4922-3.6641 2.3164-5.5117 0.8125-1.8242 1.6484-3.6367 2.4609-5.3203 0.83203-1.7734 1.6719-3.5156 2.4805-5.1484 0.86328-1.7656 1.793-3.5859 2.8047-5.5 0.97266-1.8203 1.9531-3.6289 2.9492-5.4336 1.0117-1.8359 2.0312-3.6367 3.0391-5.3789 1.4688-2.543 1.4688-2.543 2.9727-5.1328 1.0625-1.8281 2.0977-3.5586 3.1328-5.2305 1.4219-2.2812 1.4219-2.2812 2.8828-4.625 1.0547-1.7109 2.0977-3.3555 3.1641-5 1.0156-1.5391 2.1094-3.1719 3.2578-4.8555 1.1953-1.7734 2.2383-3.2852 3.1914-4.6289 1.3438-1.8555 1.3438-1.8555 2.875-3.9531 1.1328-1.5469 2.2852-3.0625 3.3711-4.4492 1.1875-1.5391 2.332-2.9609 3.543-4.3906 1.0156-1.1719 2.0391-2.3398 3.0781-3.5117 1.4609-1.6445 1.4609-1.6445 2.9375-3.332 1.1602-1.3047 2.3203-2.5391 3.4844-3.7031 1.0391-1.0352 2.1328-2.1016 3.2188-3.1406 1.1914-1.1484 2.3516-2.2305 3.5469-3.3047 1.5859-1.4023 1.5859-1.4023 3.2578-2.8594 1.2578-1.1094 2.4727-2.1367 3.5039-2.9805 1.2656-1.0625 2.7461-2.2148 4.4102-3.4414 1.6211-1.2031 3.0781-2.2461 4.2461-3.0469 1.2344-0.86328 2.6133-1.8047 4.1914-2.8555 1.6133-1.0625 3.2891-2.1211 5.0352-3.1758 1.6953-1.0234 3.3867-2.0117 5.1094-2.9922 1.7578-0.99219 3.3594-1.8555 4.8672-2.6172 1.9844-1 1.9844-1 4.1328-2.082 1.7656-0.91406 3.5352-1.7617 5.1797-2.4961 1.6289-0.74609 3.3438-1.5039 5.2227-2.3047 1.7969-0.75391 3.5977-1.4805 5.3945-2.1797 1.9219-0.74609 3.7812-1.4141 5.582-2 1.4844-0.48047 3.0039-0.99219 4.582-1.5352 1.7188-0.58594 3.5703-1.1953 5.5-1.8125 2.0586-0.66797 3.8281-1.2109 5.3633-1.6484 2.0938-0.58984 2.0938-0.58984 4.4492-1.2578 1.8984-0.55469 3.8008-1.0586 5.6133-1.4922 1.7656-0.4375 3.5664-0.86719 5.4023-1.2891 1.8086-0.41406 3.5469-0.80078 5.3047-1.1875 2.5078-0.52734 2.5078-0.52734 5.2109-1.0781 1.7891-0.35547 3.5391-0.6875 5.2734-1.0078 1.7031-0.30859 3.5547-0.63672 5.5664-0.98828 2.8828-0.49609 2.8828-0.49609 5.5078-0.94922 1.7891-0.29297 3.582-0.55469 5.2734-0.76172 2.4727-0.32812 2.4727-0.32812 5.043-0.67188 1.8516-0.26172 3.7383-0.51172 5.7305-0.76953 1.9844-0.24609 3.8828-0.44922 5.7852-0.62109 1.7188-0.14453 3.5078-0.28516 5.3672-0.41406 2.1055-0.14844 4.2617-0.22266 6.4688-0.22266h15.355c1.8359 0 3.5781 0.011719 5.3359 0.042969 1.7461 0.039062 3.5703 0.11719 5.3711 0.21875 1.9141 0.097656 3.6133 0.21094 4.9883 0.32812 1.6406 0.125 3.3242 0.32031 4.9414 0.56641 1.5078 0.21484 2.9297 0.43359 4.2383 0.64844 1.3398 0.21484 2.707 0.45312 4.0859 0.70703 1.5039 0.27344 2.9102 0.55859 4.1094 0.83203 1.75 0.38672 1.75 0.38672 3.5039 0.78906 1.8477 0.41406 1.8477 0.41406 3.5273 0.8125 1.2891 0.30859 2.9141 0.76172 5.0195 1.3984 2.168 0.66797 4.1797 1.3828 6.0977 2.168 1.8516 0.76953 3.6172 1.5898 5.1719 2.4023 1.707 0.86719 3.2695 1.7461 4.5273 2.5469 3.4102 0.30469 6.5312 1.582 8.9844 4.0078zm-18.398 22.621c-0.65625-0.47656-1.3594-0.97266-2.0312-1.4297-0.70313-0.47656-1.5078-0.99219-2.5664-1.6445-0.65625-0.41797-1.4844-0.88281-2.6016-1.4492-0.98438-0.51172-2.0469-1.0078-3.1367-1.4609-1.1016-0.45312-2.375-0.90234-3.7344-1.3242-1.5859-0.47656-2.7695-0.80859-3.4805-0.98047-1.4258-0.33594-1.4258-0.33594-3.1758-0.73047-1.7227-0.39453-1.7227-0.39453-3.4375-0.77344-0.91797-0.20703-1.9453-0.41406-3.1094-0.62891-1.2227-0.22266-2.4102-0.42969-3.5898-0.62109-1.1406-0.1875-2.3789-0.375-3.8281-0.58203-1.1094-0.16797-2.1602-0.28906-3.2578-0.375-1.1523-0.097656-2.543-0.19141-4.2617-0.27734-1.6133-0.09375-3.1406-0.15625-4.4805-0.1875-1.5078-0.027344-3.1133-0.039062-4.8125-0.039062h-15.355c-1.5977 0-3.1367 0.054687-4.6211 0.16016-1.7461 0.12109-3.418 0.25-4.9219 0.375-1.5273 0.14062-3.1523 0.31641-4.7969 0.51562-1.8164 0.23438-3.6016 0.47656-5.4492 0.73438-2.6641 0.35547-2.6641 0.35547-5.2539 0.69922-1.4609 0.18359-2.9141 0.39063-4.2656 0.61328-2.5117 0.43359-2.5117 0.43359-5.3711 0.92578-1.9336 0.33594-3.7148 0.65625-5.332 0.94922-1.5977 0.29297-3.2344 0.60547-4.832 0.92188-2.5391 0.51953-2.5391 0.51953-4.8516 1.0039-1.5781 0.34375-3.2266 0.71484-4.9531 1.1094-1.6992 0.39062-3.3594 0.78516-5.0703 1.207-1.4844 0.35547-2.9688 0.75-4.5469 1.2109-2.4648 0.69922-2.4648 0.69922-4.5547 1.2891-1.168 0.33203-2.6445 0.78906-4.4727 1.3789-1.8242 0.58203-3.5078 1.1367-5.0234 1.6562-1.6914 0.58203-3.3477 1.1367-4.9805 1.668-1.3125 0.42578-2.7031 0.92578-4.1719 1.4961-1.5859 0.61719-3.1758 1.2578-4.6836 1.8906-1.5898 0.67578-3.0898 1.3398-4.6211 2.0391-1.2969 0.57812-2.6094 1.2109-4.0469 1.9531-2.2734 1.1445-2.2734 1.1445-4.2344 2.1328-1.0859 0.55078-2.3516 1.2305-3.7461 2.0156-1.4805 0.84375-2.9648 1.7148-4.4609 2.6172-1.4414 0.87109-2.8164 1.7383-4.0781 2.5703-1.3594 0.90625-2.5625 1.7227-3.7422 2.5508-0.99219 0.67578-2.168 1.5195-3.5586 2.5547-1.2812 0.94141-2.3242 1.7539-3.2461 2.5273-0.91016 0.74219-1.8711 1.5625-2.9453 2.5039-1.6445 1.4375-1.6445 1.4375-3.0664 2.6914-0.875 0.78516-1.793 1.6445-2.8164 2.6289-1 0.95703-1.9492 1.8789-2.8359 2.7656-0.76562 0.76562-1.5469 1.5938-2.2852 2.4258-1.4883 1.6992-1.4883 1.6992-3.0156 3.4219-0.96094 1.0859-1.9141 2.168-2.7461 3.1289-0.82422 0.97656-1.707 2.0742-2.7305 3.4023-0.98047 1.2422-1.9414 2.5117-2.8867 3.8008-1.4844 2.0312-1.4844 2.0312-2.707 3.7227-0.75781 1.0664-1.6797 2.4023-2.7852 4.0391-1.1016 1.6211-2.1211 3.1406-3.0117 4.4961-0.90625 1.3906-1.8281 2.8516-2.8008 4.4219-1.4883 2.3906-1.4883 2.3906-2.8867 4.6367-0.875 1.4102-1.7812 2.9258-2.7188 4.543-1.4805 2.5508-1.4805 2.5508-2.9414 5.0781-0.92578 1.5977-1.8477 3.2266-2.7656 4.8906-0.93359 1.6914-1.8516 3.3906-2.7461 5.0625-0.85547 1.6133-1.6445 3.1562-2.4023 4.7109-0.76172 1.5352-1.5156 3.0977-2.3164 4.8086-0.74609 1.5469-1.4648 3.1055-2.1797 4.7109-0.66406 1.4844-1.2695 2.9297-1.7852 4.2422-0.58984 1.5312-1.1953 3.1562-1.8242 4.8828-0.60938 1.6758-1.1719 3.2852-1.6758 4.8008-0.51562 1.5547-0.99219 3.0742-1.4336 4.5586-0.43359 1.4648-0.875 3.0469-1.3398 4.832-0.44141 1.6484-0.88281 3.4648-1.3086 5.3672-0.45312 2.1016-0.85156 4.0039-1.1797 5.625-0.33594 1.7305-0.69141 3.625-1.0664 5.6914-0.34766 1.9062-0.66406 3.8516-0.94922 5.832-0.31641 2.2344-0.63672 4.3633-0.95703 6.4102-0.28125 1.7734-0.53516 3.6016-0.76172 5.4805-0.24219 2.0547-0.5 4.2656-0.77734 6.6953-0.27734 2.3672-0.51562 4.4375-0.71484 6.2969-0.19141 1.668-0.39062 3.7266-0.58594 6.1562-0.21484 2.6055-0.41016 4.8906-0.57812 6.7695-0.15625 1.8867-0.32031 3.9531-0.49219 6.207-0.16406 2.1602-0.30078 4.2305-0.40234 6.1289-0.14844 3.2227-0.14844 3.2227-0.30859 6.8828-0.14453 3.7031-0.14453 3.7031-0.25781 6.582-0.054687 1.6836-0.085937 3.5039-0.085937 5.4531v12.027c0 1.6914 0.019531 3.4141 0.054687 5.2656 0.019532 1.4805 0.10156 2.9922 0.23828 4.5234 0.14844 1.5859 0.33203 3.0859 0.53906 4.4023 0.26172 1.582 0.57031 3.293 0.92578 5.1094 0.35937 1.8281 0.74609 3.6758 1.1719 5.5664 0.41406 1.8633 0.82422 3.6016 1.2109 5.1133 0.6875 2.6367 0.6875 2.6367 1.3711 5.2656 0.43359 1.6562 0.91016 3.4062 1.4062 5.1641 0.82422 2.8438 0.82422 2.8438 1.6328 5.6328 0.47266 1.668 0.94922 3.2695 1.4336 4.8086 0.80078 2.5508 0.80078 2.5508 1.7852 5.6367 0.62891 2.0234 1.2266 3.8867 1.8164 5.668 0.54297 1.668 1.125 3.3711 1.7109 5.0312 0.67969 1.8789 1.3711 3.8203 2.0664 5.7891 0.66797 1.8828 1.3164 3.6719 1.9648 5.418 0.62891 1.7031 1.2969 3.4961 2.0117 5.3789l2.1875 5.7773c0.70703 1.8672 1.375 3.5977 2.0078 5.1953 0.58594 1.4883 1.2188 3.0039 1.8672 4.4688 0.71094 1.5898 1.5273 3.3398 2.4961 5.3477 0.86719 1.8359 1.6367 3.3789 2.3047 4.6133 0.76953 1.4297 1.543 2.8516 2.3438 4.3008 0.6875 1.2578 1.4492 2.5703 2.3086 3.9883 0.83984 1.3906 1.6133 2.6172 2.2578 3.5898 0.67188 0.99609 1.375 1.9727 2.0625 2.875 0.79688 1.0234 1.625 2.0508 2.543 3.1484 1.4297 1.7305 1.4297 1.7305 2.7266 3.2969 0.62109 0.74219 1.3555 1.5391 2.2578 2.4336 1.0977 1.0977 2.3086 2.293 3.6719 3.6289 1.2695 1.2539 2.4492 2.3906 3.5352 3.4102 1.1133 1.043 2.1562 2.0039 3 2.7695 1.0078 0.88672 2.2344 1.9531 3.6289 3.1523 1.3945 1.1914 2.6016 2.1992 3.6133 3.0156 1.6992 1.375 1.6992 1.375 3.5625 2.875 1.1016 0.88672 2.2227 1.7461 3.3672 2.582 1.3594 0.98828 2.6484 1.9336 3.7852 2.7812 1.0859 0.79688 2.2188 1.6055 3.3516 2.3984 1.2461 0.85937 2.5938 1.7773 3.9336 2.6797 2.1641 1.4336 2.1641 1.4336 3.8008 2.5234 1.0391 0.67188 2.2148 1.418 3.6055 2.2852 1.2617 0.79688 2.5508 1.582 3.875 2.3555 1.3828 0.8125 2.6484 1.543 3.793 2.1875 1.8164 1.0273 1.8164 1.0273 3.5195 1.9883 1.1484 0.62891 2.4727 1.332 3.9766 2.1094 1.5156 0.78125 2.9414 1.5 4.2734 2.1523 1.2578 0.61719 2.4922 1.1914 3.7969 1.7656 1.2109 0.53906 2.543 1.1016 3.9961 1.6836 2.3906 0.95312 2.3906 0.95312 4.6055 1.8359 1.3594 0.53125 2.7344 1.0508 4.1875 1.5703 1.3555 0.49219 2.8086 0.98438 4.4141 1.4922 1.5547 0.50391 2.8633 0.89844 4.0625 1.2266 1.125 0.32031 2.4141 0.67578 3.9688 1.0781 1.3438 0.35938 2.6133 0.66797 3.832 0.92969 2.082 0.44531 2.082 0.44531 4.3398 0.92188 1.375 0.30078 2.6875 0.57422 4.0547 0.85156 1.2656 0.26562 2.5781 0.53516 3.9141 0.79688 1.4883 0.29297 2.9258 0.58594 4.1836 0.85547 1.9727 0.39844 1.9727 0.39844 4.0234 0.8125 2.0742 0.41797 2.0742 0.41797 4.0391 0.8125 2.0312 0.39062 2.0312 0.39062 3.9258 0.75 1.8867 0.34766 1.8867 0.34766 3.9375 0.71875 2.0664 0.38672 2.0664 0.38672 4.2734 0.80078 1.2344 0.24219 2.4258 0.44922 3.5977 0.625 2.0859 0.32031 2.0859 0.32031 4.3828 0.67969 1.3711 0.21484 2.6523 0.39844 3.9609 0.55859 1.1367 0.14844 2.2891 0.27344 3.3438 0.35938 1.2891 0.09375 2.5078 0.17187 3.6562 0.22656 1.1445 0.058594 2.3555 0.10547 3.625 0.14062 1.2656 0.035156 2.4648 0.054687 3.5898 0.054687h3.6875c0.94922 0 1.9297-0.03125 3.082-0.097656 0.61719-0.03125 1.2578-0.11328 1.9258-0.25 1.1094-0.22266 2.1328-0.45703 3.207-0.72656 0.84766-0.20703 1.7305-0.45312 2.6797-0.75391 1.0664-0.33594 2.0586-0.66406 3.1133-1.0391 0.68359-0.23047 1.4297-0.52734 2.3906-0.95703 1.6602-0.71875 1.6602-0.71875 3.0898-1.3555 0.92187-0.42188 1.8438-0.86719 2.6602-1.2773 1.582-0.82031 1.582-0.82031 2.9648-1.5312 0.67969-0.34766 1.5156-0.80469 2.4961-1.3594 1.2109-0.6875 2.2734-1.2773 3.125-1.7422 0.67188-0.37109 1.4062-0.79297 2.3086-1.332 0.83203-0.49219 1.6758-1 2.4141-1.457 1.4609-0.92188 1.4609-0.92188 2.832-1.7656 1.3008-0.79297 1.3008-0.79297 2.6367-1.5977 0.48828-0.29297 1.0312-0.66016 1.793-1.2188 1.5156-1.0859 1.5156-1.0859 3.8008-2.7461 1.3164-0.94922 2.2383-1.6562 2.7695-2.1133 0.71484-0.61328 1.5195-1.3125 2.4805-2.1719 1.4492-1.2695 1.4492-1.2695 2.5391-2.2109 1.1641-1.0391 1.1641-1.0391 2.4688-2.2109 0.94531-0.875 1.8438-1.7148 2.625-2.457 1.293-1.2578 1.293-1.2578 2.4648-2.4023 1.3359-1.3203 1.3359-1.3203 2.9258-2.8711 0.86719-0.82031 1.7148-1.6484 2.6016-2.5469 1-0.99609 1.9727-1.9453 2.9883-2.9102 0.70703-0.66406 1.4141-1.3594 2.0508-2.0234 1.2969-1.3594 1.2969-1.3594 2.3672-2.4648 1.125-1.168 1.125-1.168 2.3125-2.3906 0.72266-0.75 1.4648-1.5469 2.2305-2.3984 1.2266-1.3711 1.2266-1.3711 2.4297-2.7383 0.71875-0.80078 1.4102-1.5977 2.0664-2.3711 0.62891-0.74219 1.293-1.5547 2.043-2.5039 0.89844-1.1211 1.7852-2.1875 2.668-3.207 0.59766-0.69141 1.1602-1.3867 1.6953-2.0781 1.0078-1.3125 1.0078-1.3125 2.1328-2.8047 0.66406-0.86719 1.2852-1.7109 1.8438-2.4922 0.70313-0.99219 1.4531-2.0312 2.2695-3.1406 0.67969-0.92188 1.3125-1.8125 1.9922-2.793 0.57422-0.82031 1.0586-1.5391 1.4453-2.1523 0.76562-1.2227 0.76562-1.2227 1.582-2.543 0.96875-1.6211 0.96875-1.6211 1.8867-3.1523 0.53906-0.90625 1.0508-1.8125 1.6367-2.8945 0.45313-0.80859 0.8125-1.5039 1.1875-2.2891 0.66406-1.3398 0.66406-1.3398 1.5703-3.1758 0.44141-0.86719 0.8125-1.6641 1.0977-2.3438 0.47656-1.1602 0.94531-2.2617 1.3438-3.1719 0.31641-0.75 0.65234-1.5977 1.0156-2.582 0.64844-1.7344 0.64844-1.7344 1.3398-3.543 0.31641-0.80469 0.625-1.6602 0.92578-2.5703 0.56641-1.7305 0.56641-1.7305 1.1484-3.5156 0.33984-1.0312 0.625-1.9375 0.83594-2.6602 0.45703-1.5547 0.45703-1.5547 0.99219-3.3281 0.28125-0.91406 0.54688-1.8711 0.80469-2.8633 0.28906-1.1289 0.55859-2.2227 0.85547-3.457 0.40234-1.6016 0.40234-1.6016 0.79297-3.1953 0.36328-1.4219 0.36328-1.4219 0.79297-3.1797 0.28516-1.1602 0.51953-2.1641 0.74219-3.1758 0.18359-0.79688 0.37891-1.7227 0.58203-2.7734 0.36719-1.8633 0.36719-1.8633 0.72266-3.6289l0.72656-3.707c0.35938-1.8555 0.35938-1.8555 0.73828-3.8438 0.22656-1.1328 0.44922-2.3047 0.6875-3.6172 0.35938-1.9102 0.35938-1.9102 0.68359-3.668 0.22656-1.2227 0.48438-2.5312 0.80469-4.0859 0.26562-1.207 0.50391-2.3594 0.74609-3.5977 0.20703-1.0039 0.39844-2.0586 0.55469-3.0391 0.21484-1.4062 0.4375-2.7656 0.64062-3.9336 0.21484-1.2969 0.45312-2.6562 0.71484-4.0859 0.23047-1.2617 0.44531-2.4844 0.64453-3.668 0.17188-1.0469 0.3125-2.0391 0.42188-2.9727 0.16016-1.3555 0.35547-2.793 0.57422-4.1836 0.16797-1.1484 0.3125-2.2734 0.44141-3.4961 0.21484-1.9375 0.21484-1.9375 0.41797-3.7734 0.125-1.1289 0.23828-2.2891 0.32812-3.3477 0.13281-1.8008 0.13281-1.8008 0.24219-3.4375 0.10156-1.4414 0.10156-1.4414 0.19922-3.0352 0.097656-1.9883 0.097656-1.9883 0.20312-3.8906 0.058594-1.25 0.10156-2.4648 0.14453-3.7812 0.039063-1.0625 0.0625-1.9922 0.0625-2.7812v-37.219c0-1.0156-0.023437-2.0508-0.070313-3.25-0.054687-1.7695-0.054687-1.7695-0.11328-3.4336-0.039062-1.5625-0.039062-1.5625-0.089843-3.4727-0.054688-1.957-0.054688-1.957-0.089844-3.4336-0.054688-1.5938-0.054688-1.5938-0.11328-3.293-0.03125-0.97656-0.078124-1.9609-0.15234-3.1016-0.09375-1.8125-0.09375-1.8125-0.16406-3.7227-0.019531-0.73828-0.070312-1.582-0.16406-2.6758-0.14453-1.7656-0.14453-1.7656-0.3125-3.6211-0.089844-1.0742-0.17969-2.043-0.27344-2.8828-0.17188-1.5078-0.17188-1.5078-0.36719-3.1914-0.19531-1.6523-0.19531-1.6523-0.38281-3.168-0.19922-1.5273-0.19922-1.5273-0.42969-3.2148-0.10547-0.8125-0.21875-1.5547-0.37109-2.375-0.23438-1.3555-0.23438-1.3555-0.49219-2.7812-0.12109-0.6875-0.37109-1.8633-0.76563-3.5664-0.55078-2.4531-0.55078-2.4531-0.92969-4.0742-0.14844-0.66016-0.3125-1.332-0.48828-1.9609-0.37891-1.3594-0.37891-1.3594-0.80078-2.9023-0.36328-1.3945-0.36328-1.3945-0.73828-2.8477-0.17578-0.69141-0.51953-1.8633-1.0352-3.5273-0.55859-1.8242-1.1016-3.6367-1.6484-5.5-0.46875-1.6133-0.96094-3.2109-1.4727-4.8008-0.54297-1.6836-1.0859-3.3398-1.6406-5.0039-0.53516-1.6172-0.94531-2.8398-1.2422-3.6953-0.28516-0.82422-0.71484-2.0352-1.2852-3.625-0.61328-1.7031-1.0859-3.0352-1.4219-4.0156-0.27344-0.78906-0.72656-2.0508-1.3789-3.8359-0.57422-1.5859-1.0039-2.7266-1.3203-3.4922-0.58203-1.4688-0.58203-1.4688-1.2148-3.1445-0.23828-0.65625-0.67188-1.7422-1.293-3.2188-0.60156-1.4453-1.1953-2.7773-1.7617-3.9531-1.0391-2.1523-1.0391-2.1523-2.1562-4.4609-0.65234-1.3867-1.3164-2.7734-2.0781-4.332-0.97266-2.0586-0.97266-2.0586-1.8984-3.9883-0.64062-1.3555-1.2539-2.7031-1.8867-4.1523-0.73828-1.7148-0.73828-1.7148-1.4844-3.4141-0.66797-1.543-0.66797-1.543-1.4375-3.2734-0.6875-1.582-0.6875-1.582-1.4062-3.1953-0.37891-0.875-0.78125-1.7617-1.2617-2.7773-0.38672-0.83203-0.78516-1.6406-1.293-2.6094-0.35938-0.70312-0.72656-1.3711-1.0625-1.9297-0.81641-1.332-0.81641-1.332-1.5391-2.5078-0.51172-0.80078-1.0234-1.5664-1.582-2.3789-0.875-1.2852-0.875-1.2852-1.7109-2.5078-0.84375-1.2188-0.84375-1.2188-1.5898-2.2852-0.70312-0.97656-1.3789-1.9531-2-2.8945-0.86328-1.3008-0.86328-1.3008-1.6367-2.4844-0.60547-0.91406-1.1875-1.832-1.8047-2.832-0.55078-0.91797-1.1641-1.9688-1.8398-3.1602-0.53906-0.94531-1.0586-1.8281-1.4922-2.5352-0.91016-1.4492-0.91016-1.4492-1.6367-2.6172-0.32422-0.50391-0.66406-0.97656-1.082-1.5078-0.89453-1.1523-0.89453-1.1523-1.7891-2.293-0.49609-0.63281-1-1.2422-1.4258-1.7383-0.73438-0.84375-1.4922-1.7461-2.3438-2.7852-1.0781-1.3555-1.0781-1.3555-2.0469-2.5977-0.65234-0.85156-1.3008-1.7227-1.8516-2.4922-0.51953-0.71094-1.0156-1.4297-1.5078-2.1836-0.86719-0.60156-1.6836-1.1758-2.4688-1.7422z"/>
 <path d="m333.36 1075.7c0 0.03125 0.003906 0.066406 0.007812 0.097656 0-0.007812-0.003906-0.039062-0.007812-0.097656zm1.0781-3.1211h17.691c1.3164 0 2.6602 0.019532 4.1641 0.066406 1.1602 0.042969 2.3516 0.078126 3.7031 0.10547 1.1836 0.03125 2.4102 0.046875 3.6758 0.046875h4.2812c1.5742 0 3.1953 0.019532 4.7539 0.058594 1.668 0.023438 3.3594 0.070312 5.0859 0.13672 1.7617 0.0625 3.5273 0.15625 5.1992 0.26953 1.5664 0.089844 3.1445 0.17188 4.6367 0.23828 1.5625 0.058594 3.1289 0.097657 4.8047 0.12109 1.5625 0.035156 3.125 0.054687 4.6875 0.054687h40.727c0.80469 0 1.6484-0.015624 2.6992-0.050781 1.1562-0.027343 2.2734-0.042969 3.3516-0.042969h3.0156c0.86719 0 1.6836-0.015624 2.6172-0.050781 1.0547-0.027343 2.1289-0.039062 3.2266-0.039062h136.12c1.1367 0 2.3828 0.011719 3.8711 0.042969 1.8594 0.050781 1.8594 0.050781 3.7461 0.089843 1.7539 0.054688 1.7539 0.054688 3.668 0.11719 1.082 0.042969 2.2656 0.074219 3.6719 0.10156 2.0195 0.050781 2.0195 0.050781 4.1055 0.089844 1.9453 0.050781 1.9453 0.050781 3.8711 0.09375 1.7734 0.054687 1.7734 0.054687 3.5195 0.10547 1.9883 0.042968 1.9883 0.042968 3.7773 0.089844 1.2812 0.027343 2.6211 0.066406 3.8984 0.11328 1.2031 0.035156 2.3984 0.050781 3.5859 0.050781 1.4531 0 2.8438 0.019531 4.0234 0.058594 1.8672 0.039062 1.8672 0.039062 3.6797 0.089844 2.0156 0.039062 2.0156 0.039062 4.0039 0.089843 2.125 0.042969 2.125 0.042969 4.1094 0.09375 1.8555 0.058594 1.8555 0.058594 3.6484 0.11328 1.293 0.039063 2.6836 0.097657 4.0508 0.16797 1.2773 0.058594 2.5117 0.097657 3.8398 0.12109 1.8906 0.050781 1.8906 0.050781 3.7852 0.09375 1.3008 0.039063 2.6484 0.097656 4.0352 0.17969 1.1211 0.0625 2.2266 0.10547 3.4453 0.12891 1.8594 0.054687 1.8594 0.054687 3.5742 0.10547 1.3164 0.027343 2.7617 0.074218 4.3398 0.13672 1.5938 0.066406 3.0312 0.13672 4.3125 0.21484 1.0352 0.066406 2.0859 0.11328 3.1562 0.14453 1.2812 0.039063 2.6445 0.089844 4.0781 0.15234 1.4883 0.066406 2.8359 0.14062 4.0391 0.21875 0.92188 0.058594 1.8242 0.10156 2.8594 0.125 1.7773 0.0625 1.7773 0.0625 3.7109 0.15234 1.8594 0.09375 1.8594 0.09375 3.7344 0.18359 1.8164 0.089844 1.8164 0.089844 3.2031 0.15625 1.6094 0.066407 1.6094 0.066407 3.4688 0.15625 1.9258 0.097657 1.9258 0.097657 3.7344 0.19922 1.0352 0.050781 1.9922 0.074219 2.8672 0.074219h34.23c1.0898 0 2.168-0.015625 3.375-0.050781 1.3047-0.027344 2.543-0.039063 3.7188-0.039063 0.91797 0 1.8828-0.015625 2.8906-0.050781 1.7773-0.050781 1.7773-0.050781 3.375-0.089844 1.25-0.039062 2.4453-0.0625 3.582-0.0625 0.87109 0 1.8945-0.011719 2.9297-0.03125 1.3789-0.039062 2.6406-0.058593 3.7891-0.058593h6.293c1.0234 0 1.9922-0.015626 2.7539-0.042969 1.2891-0.054688 2.5234-0.085938 3.7031-0.085938h2.9609c0.93359 0 2.3047-0.011719 4.0078-0.03125 1.918-0.039062 3.4023-0.058593 4.4805-0.058593 0.90625 0 2.2617-0.011719 3.9492-0.035157 1.7773-0.035156 3.5352-0.082031 5.2812-0.14062 1.8555-0.0625 3.6641-0.11328 5.5195-0.15234 1.7578-0.023437 3.1406-0.039062 4.1602-0.039062h15.898c1.2695 0 2.4805 0.015625 3.7969 0.046875 1.7188 0.0625 1.7188 0.0625 3.7266 0.15234 1.1484 0.050781 2.2656 0.078125 3.3477 0.078125h1.8789c-0.17188-1.1289-0.33984-2.0508-0.56641-3.1289-0.21094-1.0508-0.40234-1.9531-0.60938-2.832-0.30078-1.3359-0.30078-1.3359-0.66406-2.957-0.23828-1.1172-0.46484-2.2695-0.66016-3.3516-0.30859-1.5859-0.30859-1.5859-0.61719-3.1055-0.28906-1.3516-0.55469-2.7461-0.81641-4.3125-0.17578-1.1094-0.375-2.2383-0.59766-3.3906-0.36719-1.9062-0.36719-1.9062-0.69922-3.6172-0.37109-1.8086-0.37109-1.8086-0.80469-3.875-0.28516-1.4141-0.57031-2.8789-0.82812-4.2773-0.42188-2.1172-0.42188-2.1172-0.80859-4.0469-0.27344-1.3047-0.55859-2.6211-0.85547-3.9492-0.47656-2.1367-0.47656-2.1367-0.95703-4.3047-0.51562-2.2656-0.51562-2.2656-1.0312-4.543-0.46484-2.1211-0.46484-2.1211-0.97266-4.3906-0.53516-2.4062-0.53516-2.4062-1.0664-4.8672-0.32812-1.5391-0.67969-3.0898-1.0664-4.7461-0.33984-1.5078-0.70312-3-1.1211-4.5977-0.60938-2.4141-0.60938-2.4141-1.2578-4.9531-0.39062-1.5742-0.80469-3.1797-1.2617-4.9023-0.47266-1.8008-0.92188-3.6016-1.3281-5.3164-0.58594-2.3594-0.58594-2.3594-0.97266-3.8828-0.32031-1.1914-0.60547-2.3086-0.83984-3.3164-0.34375-1.4648-0.34375-1.4648-0.71094-3.1172-0.14062-0.6875-0.30078-1.3477-0.46484-1.9375-0.28516-1.0234-0.5625-2.082-0.79297-3.0234-0.34375-1.3125-0.34375-1.3125-0.66797-2.5-0.32422-1.1523-0.32422-1.1523-0.75781-2.6172-0.23047-0.82031-0.46875-1.6016-0.77344-2.5508-0.46875-1.5391-0.46875-1.5391-1.2344-4.0391-0.53516-1.75-0.96484-3.1133-1.2812-4.0742-0.30469-0.93359-0.58984-1.7539-0.84766-2.4688-0.36328-0.98828-0.74219-2.0938-1.1836-3.4414-0.3125-0.98047-0.60156-1.8516-0.86719-2.6172-0.47656-1.3633-0.47656-1.3633-1.0234-2.9297-0.46094-1.3516-0.46094-1.3516-0.83594-2.4102-0.39453-1.0508-0.80078-2.2266-1.1992-3.457-0.34766-1.0469-0.65625-1.9375-0.86328-2.5078-0.42969-1.1289-0.85938-2.4062-1.2578-3.7031-0.30859-0.95312-0.60547-1.7969-0.89062-2.5234-0.49219-1.2578-0.95312-2.5625-1.3828-3.9219-0.29297-0.92969-0.56641-1.7305-0.82812-2.457-0.47656-1.3164-0.47656-1.3164-1.0117-2.7891-0.60937-1.6758-0.60937-1.6758-1.1992-3.332-0.64453-1.7773-0.64453-1.7773-1.1719-3.2773-0.32031-0.88672-0.66406-1.8008-0.98047-2.6133-0.66406-1.6602-0.66406-1.6602-1.2656-3.207-0.64062-1.6055-0.64062-1.6055-1.2422-3.1641-0.27734-0.73047-0.62891-1.6094-1.0547-2.6289-0.44922-1.0703-0.84766-1.9922-1.1875-2.7617-0.61328-1.3789-0.61328-1.3789-1.2617-2.8594-0.65625-1.4766-0.65625-1.4766-1.3633-3.0469-0.71094-1.5586-0.71094-1.5586-1.3633-2.957-0.71484-1.5234-0.71484-1.5234-1.3711-2.9258-0.5625-1.2188-0.5625-1.2188-1.1992-2.5664-0.80078-1.625-0.80078-1.625-1.5156-3.1055-0.71094-1.4805-0.71094-1.4805-1.4883-3.1484-0.34375-0.78516-0.72656-1.6055-1.1484-2.4727-0.42578-0.87891-0.85547-1.7344-1.3828-2.7422-0.58594-1.168-1.1172-2.2891-1.5234-3.2227-0.28516-0.62891-0.65234-1.3828-1.043-2.1406-0.66406-1.2656-1.2422-2.4297-1.707-3.4375-0.3125-0.67578-0.69922-1.4609-1.0625-2.1758-0.82422-1.5742-0.82422-1.5742-1.5312-2.9492-0.37891-0.72656-1.0273-1.8828-1.9375-3.4531-0.90625-1.5703-1.6367-2.8086-2.1875-3.6953-0.67969-1.0977-1.3203-2.1523-1.8477-3.0469-0.86719-1.4453-0.86719-1.4453-1.8086-3.0469-0.39453-0.69922-0.85156-1.457-1.3672-2.2695-0.95312-1.5078-0.95312-1.5078-1.7969-2.8555-0.44531-0.70703-0.91797-1.418-1.4648-2.1992-0.71875-1.0508-1.4609-2.1719-2.2773-3.4648-0.51953-0.83594-0.95703-1.5-1.3867-2.1016-0.85547-1.2344-0.85547-1.2344-1.918-2.793-0.54688-0.82031-1.0508-1.5391-1.4258-2.0469-0.65625-0.875-1.3242-1.7812-1.9258-2.625-0.91406-1.2422-0.91406-1.2422-1.75-2.375-0.85156-1.1484-0.85156-1.1484-1.6445-2.2305-0.87109-1.1523-0.87109-1.1523-1.5859-2.0938-0.66406-0.84375-1.3086-1.6797-1.7695-2.3008-0.83594-1.0742-0.83594-1.0742-1.7344-2.2227-0.85156-1.0742-0.85156-1.0742-1.582-1.9766-0.45703-0.55078-0.91797-1.0742-1.2891-1.4805-1.1484-1.2188-1.1484-1.2188-2.9375-3.1445-1.0977-1.1914-1.9102-2.0469-2.4688-2.5977-0.89844-0.89063-0.89844-0.89063-1.8867-1.8477-0.46094-0.45312-1.3281-1.25-2.5938-2.3789-1.293-1.1641-2.2773-2.0352-3.0117-2.6719-0.59375-0.52344-1.1914-1.0273-1.793-1.5156-1.168-0.95703-1.168-0.95703-2.4062-1.9922-0.95703-0.81641-0.95703-0.81641-1.8555-1.5664-0.61328-0.5-1.2422-0.99609-2-1.5703-1.1094-0.85547-1.1094-0.85547-2.2695-1.7461-0.84766-0.66016-1.707-1.3555-2.5-2.0195-0.57813-0.47266-1.1289-0.89844-1.6484-1.2812-1.0117-0.73438-1.0117-0.73438-2.0977-1.5039-1.1523-0.8125-1.1523-0.8125-2.4023-1.6797-0.6875-0.48438-1.4023-0.97266-2.2188-1.5156-0.71484-0.48047-1.4062-0.93359-1.9492-1.2734-1.2734-0.78516-1.2734-0.78516-2.6953-1.6758-0.73828-0.47656-1.8867-1.1953-3.418-2.1367-1.418-0.87109-2.4727-1.4961-2.9648-1.7656-1-0.53516-2.3477-1.2812-4.0742-2.2656-1.543-0.875-3.0547-1.7148-4.5859-2.543-1.4766-0.80469-2.9688-1.5977-4.5938-2.4375-1.3555-0.71484-2.7148-1.3828-4.0312-1.9844-1.3867-0.625-2.8086-1.2266-4.2383-1.793-1.5195-0.59766-3.0508-1.1641-4.5117-1.6758-1.5352-0.52734-3.1094-1.0352-4.7188-1.5195-2.6758-0.8125-2.6758-0.8125-5.3672-1.6367-1.582-0.5-3.1211-0.96094-4.7148-1.4141-1.5469-0.45312-3.0625-0.87891-4.543-1.2812-1.3047-0.35547-2.6055-0.67188-3.8867-0.9375-1.4141-0.29688-2.8906-0.57812-4.4336-0.83984-1.5977-0.27734-3.125-0.51953-4.5781-0.73438-1.2695-0.1875-2.5703-0.33594-3.9023-0.44922-1.2422-0.10156-2.5312-0.15234-3.8555-0.15234h-5.1016c-1.6016 0-3.2109 0.015625-4.9219 0.054688-1.6172 0.019531-3.2383 0.0625-4.8711 0.11719-1.5469 0.054687-3.1094 0.14453-4.6016 0.25781-1.8086 0.14844-3.6328 0.28906-5.4766 0.42578-2.7227 0.19922-2.7227 0.19922-5.3828 0.38672-1.5195 0.10937-3.0273 0.25-4.5391 0.42969-1.5664 0.1875-3.1133 0.40234-4.7344 0.65625-2.5352 0.38281-2.5352 0.38281-5.1875 0.78906-1.5586 0.23047-3.0742 0.48437-4.6445 0.77344-2.4688 0.44141-2.4688 0.44141-5 0.89453-2.5039 0.44922-2.5039 0.44922-4.9102 0.89453-2.4883 0.48437-2.4883 0.48437-4.8164 0.94922-1.6797 0.34766-3.3594 0.69141-5.0703 1.0312-1.5547 0.30469-3.0391 0.61719-4.5781 0.96094-2.25 0.48438-2.25 0.48438-4.5781 0.99219-1.3789 0.29297-2.7695 0.60547-4.1758 0.94141-2.3594 0.5625-2.3594 0.5625-4.7773 1.1289-1.4258 0.34375-2.7383 0.69531-4.0273 1.082-1.2539 0.36719-2.5664 0.78906-3.9414 1.2578-1.4219 0.48828-2.8867 1.0156-4.3867 1.5859-1.5625 0.58984-3.0469 1.168-4.4531 1.7305-1.3203 0.52734-2.6719 1.1016-4.0977 1.7383-1.5078 0.66797-3.0469 1.3672-4.5547 2.0586-1.7188 0.80469-3.4727 1.6055-5.2539 2.3945-1.6367 0.72656-2.8945 1.293-3.957 1.7852-0.59375 0.26562-1.1602 0.54297-1.832 0.91016-1.418 0.75-1.418 0.75-2.8008 1.4609-0.47266 0.24219-1.0078 0.55859-1.6719 0.99219-1.1328 0.73047-2.2148 1.3984-3.1289 1.9375-0.65234 0.39062-1.3438 0.83594-2.1406 1.3789-0.71875 0.48047-1.5 1.043-2.2773 1.6328-1.1172 0.85547-2.1094 1.6016-2.8672 2.1523-1.1875 0.88281-1.1875 0.88281-2.5391 1.8867-1.4102 1.0508-1.4102 1.0508-2.8047 2.0898-0.86328 0.65234-1.7188 1.3164-2.5625 1.9922-1.2852 1.0312-1.2852 1.0312-2.4023 1.9492-1.0742 0.88281-1.0742 0.88281-2.2734 1.875-1.3711 1.1562-1.3711 1.1562-2.7891 2.3477-1.3672 1.1445-1.3672 1.1445-2.6602 2.2344-0.72656 0.60156-1.4883 1.25-2.2109 1.875-0.73047 0.64453-1.4375 1.293-2.1992 2.0156-0.93359 0.87109-1.8281 1.6797-2.6797 2.4141-0.50781 0.4375-1.1055 0.98828-1.7148 1.5898-1.3125 1.3008-1.3125 1.3008-2.543 2.4883-0.51562 0.48828-1.1523 1.1172-1.8398 1.8203-0.92969 0.96094-1.8047 1.8516-2.5508 2.5938-1.1523 1.168-1.1523 1.168-2.2852 2.3125-1.0977 1.1328-1.0977 1.1328-1.9062 1.9844-0.70312 0.75391-1.4844 1.5742-2.3555 2.4688-0.67188 0.6875-1.3398 1.4062-2.0156 2.1602-1.2383 1.375-1.2383 1.375-2.3047 2.543-0.61719 0.67578-1.25 1.3984-1.7773 2.0039-1.1484 1.375-1.1484 1.375-2.3086 2.7305-0.63281 0.73828-1.1914 1.4062-1.7539 2.1133-0.88281 1.0859-0.88281 1.0859-2.0469 2.543-0.66797 0.82812-1.2031 1.5195-1.625 2.0977-0.87891 1.2109-0.87891 1.2109-1.8516 2.5352-0.625 0.87109-1.2383 1.7383-1.875 2.668-0.55078 0.79688-1.1289 1.6719-1.7305 2.6211-0.60156 0.94141-1.1445 1.8398-1.6602 2.7305-0.92187 1.5781-0.92187 1.5781-1.8711 3.1992-0.98828 1.6992-0.98828 1.6992-1.9219 3.293-0.70312 1.2148-1.4375 2.4414-2.2031 3.6797-0.66016 1.0625-1.3047 2.1172-1.8711 3.0586-0.73047 1.2383-1.457 2.4219-2.1836 3.5547-0.53516 0.83203-1.0664 1.6992-1.5977 2.6055-0.99219 1.6797-0.99219 1.6797-2.0508 3.4492-0.72656 1.2109-1.4375 2.3711-2.1875 3.582-0.59766 0.94141-1.2227 1.9648-1.9297 3.1562-1.0859 1.8086-1.0859 1.8086-2.1367 3.5547-1.0195 1.7031-1.0195 1.7031-2.1055 3.5508-1.1406 1.9336-1.1406 1.9336-2.1445 3.6172-1.0391 1.7656-1.0391 1.7656-2.2539 3.7969-0.6875 1.1211-1.3398 2.2227-1.957 3.3125-1.0547 1.8672-1.0547 1.8672-2.1094 3.7188-0.61328 1.0742-1.2461 2.2266-1.9141 3.5039-1.0977 2.082-1.0977 2.082-2.2148 4.1992-1.0898 2.0469-1.0898 2.0469-2.125 4-0.60547 1.1172-1.2891 2.4258-1.9961 3.8086-1.1523 2.3125-1.1523 2.3125-2.043 4.0742-0.65625 1.3438-1.4336 2.8555-2.332 4.5391-0.77344 1.4492-1.4648 2.7852-2.0312 3.9297-0.70703 1.4492-1.4531 2.9297-2.1719 4.3164-0.6875 1.3555-1.2891 2.5781-1.7891 3.6094-0.86719 1.8203-0.86719 1.8203-1.9609 4.1367-0.73828 1.5547-1.4062 2.9805-2.0352 4.3633-0.60156 1.293-1.1797 2.5664-1.7734 3.9062-0.54688 1.2031-1.0859 2.4414-1.6641 3.8086-0.875 2.043-0.875 2.043-1.6523 3.8711-0.58203 1.418-1.1641 2.7773-1.6719 3.9414-0.8125 1.9062-0.8125 1.9062-1.6172 3.7695-0.80078 1.8867-0.80078 1.8867-1.4609 3.4492-0.71484 1.7266-0.71484 1.7266-1.5195 3.6289-0.55469 1.293-1.1094 2.5547-1.6172 3.6797-0.47266 1.0703-0.95312 2.1953-1.4648 3.4258-0.5 1.1914-0.97266 2.3359-1.4375 3.5039-0.45703 1.1211-0.92969 2.3242-1.4648 3.7031-0.79297 2.0078-0.79297 2.0078-1.5742 3.9922-0.5 1.2773-0.98438 2.5273-1.4336 3.7148-0.52344 1.3945-1.0781 2.8164-1.6875 4.3281-0.52344 1.2773-1.0312 2.5508-1.5586 3.9141-0.76172 1.9414-0.76172 1.9414-1.4492 3.7227-0.53125 1.4141-1.1094 2.8633-1.75 4.3789-0.50391 1.1875-0.95312 2.2891-1.3438 3.3047-0.41797 1.082-0.84375 2.2148-1.2656 3.3594-0.49219 1.3633-0.98438 2.668-1.4961 3.9805-0.41797 1.0508-0.82812 2.1289-1.2383 3.2383-0.64844 1.7695-0.64844 1.7695-1.2305 3.375-0.60547 1.6602-0.60547 1.6602-1.2188 3.3086-0.58203 1.5977-0.58203 1.5977-1.1055 3.082-0.55469 1.6094-0.55469 1.6094-1.0117 2.918-0.44141 1.3242-0.44141 1.3242-0.88672 2.6875-0.50781 1.5664-0.68359 2.082-1.0625 3.168-0.21484 0.60156-0.39844 1.1719-0.59375 1.875-0.44141 1.5039-0.44141 1.5039-1.1016 3.7539-0.47266 1.6094-0.92188 3.1875-1.3555 4.7344-0.41406 1.4727-0.79687 2.918-1.1523 4.3398-0.58203 2.332-0.58203 2.332-1.1641 4.6445-0.21484 0.84375-0.39844 1.625-0.55859 2.3477 0.16016 0.36328 0.30078 0.73047 0.42578 1.1055zm517 4.2305c0.11328-0.007813 0.22656-0.015625 0.33984-0.023437-0.039063 0.003906-0.078125 0.007812-0.11328 0.011718zm-539.55-9.2891c-0.74219 0.64844-1.2656 1.3984-1.8359 2.3203 0.76562-1.2344 1.7031-2.3008 2.7617-3.1914z"/>
 <path d="m192.48 302.84c-3.832 6.7461-12.699 9.2656-19.805 5.625-5.6602-2.9023-9.8008-7.0742-10.586-13.875-0.54688-5.3555 1.5195-10.406 5.5039-14.07 1.6484-1.5195 3.4922-2.8672 5.6289-4.125 1.7852-1.0312 1.7852-1.0312 3.2969-1.8789 1.3008-0.73438 2.6719-1.4297 4.043-2.0547 1.1641-0.53906 2.4062-1.0938 3.793-1.6953 1.6055-0.68359 3.3008-1.3203 5.1758-1.9336 1.6797-0.54297 3.4531-1.0547 5.2969-1.5273 1.9102-0.5 3.9609-0.95313 6.2422-1.3867 2.0547-0.37891 4.1328-0.72266 6.1406-1.0156 2.4766-0.37891 5.0234-0.62109 7.5391-0.73047 2.3125-0.11328 4.7422-0.17188 7.2852-0.17188h4.9531c1.1875 0 2.4648 0.023438 3.668 0.0625 1.6719 0.035156 3.3555 0.14844 5.0352 0.33984 1.6992 0.19141 3.3086 0.44141 4.625 0.71484 1.207 0.23437 2.4258 0.48437 3.4922 0.72266 1.4727 0.3125 2.9375 0.68359 4.3984 1.1094 1.4805 0.42969 1.4805 0.42969 3.0078 0.85547 1.2891 0.36719 2.5664 0.77734 3.7734 1.207 1.3711 0.48438 3.0391 1.1562 5.1406 2.0625 2.0508 0.89453 4.0273 1.8281 5.9297 2.8047 1.7344 0.89453 3.418 1.7891 5.0469 2.6875 1.8008 0.99609 3.6133 2.0781 5.5078 3.3008 1.7695 1.1523 3.4727 2.332 5.0625 3.5039 1.7344 1.2617 3.3516 2.5312 4.9141 3.8672 1.6875 1.4609 3.2969 3.0586 4.8359 4.8008 1.5664 1.7695 2.9688 3.5977 4.1836 5.4531 1.1055 1.6797 2.1055 3.3672 2.9844 5.0156 1.0078 1.8789 1.8984 3.8633 2.6484 5.8828 0.75 1.9922 1.3945 4.0312 1.9531 6.2188 0.46094 1.8516 0.85156 3.6094 1.1914 5.3984 0.30078 1.6797 0.55859 3.4297 0.76172 5.125 0.23438 1.8008 0.41406 3.5742 0.54688 5.4375 0.10156 1.6016 0.17969 3.1797 0.24219 4.8594 0.042968 1.5781 0.066406 3.1914 0.066406 4.8438 0 1.625-0.023438 3.3086-0.066406 5.1602-0.085938 2.5664-0.44922 5.1133-1.0898 7.6484-0.48047 1.8984-1.043 3.8047-1.6602 5.6523-0.67188 2.0352-1.4375 4.0195-2.3242 5.9883-0.89062 1.9609-1.8906 3.8633-2.9727 5.6523-1.0312 1.7266-2.1992 3.4922-3.4688 5.2617-1.3984 1.9688-2.918 3.8633-4.5508 5.6797-1.4727 1.6328-2.6445 2.8789-3.5078 3.7109-0.82812 0.82031-1.7344 1.6719-2.6289 2.4805-1.3164 1.2031-1.3164 1.2031-2.6172 2.3633-1.0117 0.89062-2.1133 1.8047-3.3945 2.8047-1.0703 0.82422-2.5195 1.9141-4.4648 3.3594-2.0508 1.5-4.082 2.8867-6.0938 4.1562-1.832 1.1602-3.2656 2.0508-4.3359 2.6914-1.1328 0.67578-2.5508 1.4766-4.2461 2.3984-1.7227 0.94141-3.3203 1.7852-4.793 2.5273-1.1562 0.58203-2.2891 1.1289-3.3594 1.6211 0.19531 0.48047 0.39453 0.98437 0.59766 1.5039 0.74219 1.8711 0.74219 1.8711 1.3867 3.5273 0.45703 1.1523 0.97266 2.5156 1.5156 3.9883 0.54297 1.4375 1.1406 2.9844 1.7422 4.5234 0.97266 2.4102 0.97266 2.4102 1.7695 4.3906 0.64062 1.6406 0.64062 1.6406 1.2539 3.1875 0.63672 1.5977 0.63672 1.5977 1.3438 3.3945 0.61328 1.6367 0.61328 1.6367 1.3281 3.5352 0.67188 1.832 0.67188 1.832 1.3398 3.6523 0.73828 1.9609 0.73828 1.9609 1.3633 3.6289 0.50391 1.3008 1.0039 2.6406 1.4453 3.8945 0.65625 1.7891 0.65625 1.7891 1.25 3.3828 0.61719 1.6172 0.61719 1.6172 1.2109 3.168 0.48047 1.2422 0.94141 2.4961 1.4375 3.9453 0.29688 0.91406 0.64062 1.8867 1.0898 3.082 0.65625 1.8242 0.65625 1.8242 1.2461 3.5273 0.25 0.75 0.58203 1.6953 1.0234 2.9023 0.5 1.3984 0.94531 2.7227 1.3086 3.8711 0.51172 1.5977 0.51172 1.5977 0.96484 2.9922 0.40625 1.2031 0.78125 2.3984 1.082 3.4258 0.47266 1.5352 0.47266 1.5352 0.95703 3.1055 0.42188 1.3242 0.86328 2.7852 1.3086 4.3594 0.61328 2.1484 0.61328 2.1484 1.2305 4.3047 0.29688 1.0898 0.57422 2.0039 0.83594 2.7812 0.30078 0.90625 0.60938 1.793 0.92188 2.6602l0.52344 1.4531c2.6094 7.2539-1.4609 15.148-9.0977 17.633-7.6406 2.4805-15.949-1.3906-18.562-8.6445l-0.52344-1.4531c-0.38281-1.0703-0.76172-2.1602-1.1133-3.2227-0.42578-1.2578-0.85156-2.6641-1.2344-4.0742-0.57422-2.0039-0.57422-2.0039-1.1953-4.1797-0.37891-1.3281-0.73047-2.5078-1.1016-3.6641-0.53125-1.7305-0.53125-1.7305-1.0625-3.4531-0.24219-0.83203-0.51172-1.6797-0.85156-2.6914-0.51172-1.5781-0.51172-1.5781-1.0703-3.3086-0.27734-0.89062-0.60938-1.875-0.96484-2.8711-0.5-1.3711-0.92188-2.5664-1.207-3.4297-0.45703-1.3125-0.45703-1.3125-1-2.832-0.52734-1.3906-1-2.7383-1.3672-3.8594-0.31641-0.92578-0.64844-1.8398-1.0195-2.793-0.63281-1.6523-0.63281-1.6523-1.2852-3.3672-0.65625-1.7578-0.65625-1.7578-1.3906-3.7695-0.39844-1.1211-0.80078-2.207-1.2734-3.418-0.66797-1.7852-0.66797-1.7852-1.4336-3.8125-0.71875-1.957-0.71875-1.957-1.3516-3.6875-0.67188-1.7891-0.67188-1.7891-1.2188-3.2461-0.61328-1.5586-0.61328-1.5586-1.2266-3.1016-0.64844-1.6367-0.64844-1.6367-1.2734-3.2266-0.73438-1.832-0.73438-1.832-1.75-4.3477-0.69141-1.7617-1.3281-3.4141-1.9531-5.0625-0.51953-1.4102-0.96875-2.5977-1.3672-3.6094-0.62109-1.5977-0.62109-1.5977-1.3594-3.457-0.42578-1.0938-0.79688-2-1.1289-2.7656-0.21875-0.51172-0.48438-1.0664-0.91016-1.8633-0.22656-0.44922-0.48828-0.88672-0.85938-1.4375-2.1016-3.1758-3.1836-6.8047-3.0781-10.75 0.21484-5.3086 2.9336-10.031 7.2734-13.047 1.7109-1.2109 3.5742-2.2617 5.5195-3.1289 1.6641-0.75391 1.6641-0.75391 3.3047-1.4883 1.3477-0.58984 1.3477-0.58984 3.1523-1.4062 1.0039-0.44531 2.0586-0.94531 3.1602-1.5039 1.1562-0.58203 2.4609-1.2695 3.9375-2.0781 1.4102-0.76562 2.5039-1.3828 3.25-1.8281 0.80859-0.48438 2.043-1.25 3.6758-2.2852 1.4531-0.91797 2.9531-1.9414 4.3984-3 1.7227-1.2773 3.0508-2.2773 3.8906-2.9219 0.75781-0.59375 1.4102-1.1328 1.9531-1.6133 1.0898-0.97266 1.0898-0.97266 2.3047-2.082 0.68359-0.61328 1.2812-1.1797 1.8945-1.7852 0.40625-0.39453 1.1914-1.2266 2.2695-2.4258 0.91406-1.0117 1.7578-2.0664 2.5664-3.1992 0.875-1.2227 1.625-2.3594 2.2852-3.4609 0.55469-0.91797 1.0586-1.8711 1.4922-2.8281 0.47266-1.0586 0.90234-2.1602 1.3008-3.375 0.43359-1.3008 0.8125-2.582 1.125-3.8203 0.17188-0.67578 0.26953-1.3438 0.28516-1.9023 0.039062-1.5273 0.058593-2.9922 0.058593-4.3984 0-1.4102-0.019531-2.7812-0.050781-3.9844-0.050781-1.3281-0.11719-2.6836-0.19922-3.9453-0.085937-1.2383-0.21484-2.5117-0.40234-3.9453-0.15625-1.3164-0.33984-2.5508-0.52734-3.5859-0.21875-1.1602-0.5-2.4336-0.82031-3.7188-0.29688-1.1523-0.64453-2.2617-1.0742-3.3984-0.35156-0.94922-0.73828-1.8086-1.1758-2.625-0.49609-0.93359-1.0625-1.8867-1.7227-2.8906-0.48438-0.74219-1.0703-1.5-1.7578-2.2812-0.71484-0.80859-1.4258-1.5156-2.0664-2.0703-0.91406-0.78125-1.9414-1.5898-3.1328-2.457-1.2031-0.88281-2.4648-1.7539-3.7109-2.5703-1.2656-0.8125-2.5-1.5508-3.7031-2.2148-1.375-0.76172-2.8086-1.5234-4.293-2.2852-1.3203-0.67969-2.7148-1.3398-4.1406-1.9609-1.4766-0.63672-2.5625-1.0742-3.2109-1.3047-0.66406-0.23438-1.332-0.44922-1.8281-0.59375-1.6406-0.45312-1.6406-0.45312-3.3711-0.95703-0.71094-0.20703-1.418-0.38672-2.2891-0.57031-0.94141-0.21094-1.8711-0.40234-2.9922-0.62109-0.56641-0.11719-1.2539-0.22266-2.0664-0.31641-0.77344-0.085937-1.5195-0.13672-2.3945-0.15625-1.0547-0.035156-2.0078-0.050781-2.8555-0.050781h-4.9531c-2.0469 0-3.9688 0.046875-5.8594 0.14062-1.5195 0.0625-2.9609 0.20312-4.4219 0.42578-1.7305 0.25391-3.4336 0.53516-5.0312 0.82812-1.5586 0.29688-2.957 0.60547-4.2148 0.93359-1.2969 0.33203-2.4883 0.67578-3.4922 1-1 0.32812-1.8906 0.66406-2.6094 0.96875-0.76562 0.33203-1.4883 0.65234-2.1953 0.97266-0.11719 1.9688-0.67969 3.9492-1.7305 5.8008z"/>
 <path d="m254.99 543.94 0.85156-0.48828c-0.50391 0.17188-0.63281 0.28906-0.85156 0.48828zm24.773 5.4062c4.6484 8.1719 1.8242 18.586-6.3086 23.258l-1.4805 0.84766c-1.4102 0.97266-1.4102 0.97266-7.6016 2.5234-8.0117 0.14062-8.0117 0.14062-17.523-11.059-1.1719-9.6406-1.1719-9.6406 0.25781-12.672 1.1328-2.7305 2.1211-4.0195 4.2969-6.4922 6.1406-6.9727 16.695-7.6914 23.711-1.668 1.8438 1.3672 3.4414 3.1328 4.6484 5.2617z"/>
 <path d="m910.37 275.01c-4.3828 6.1992-13.273 7.875-19.855 3.7422-7.1953-4.5234-11.633-12.262-5.8672-21.059 1.8203-2.8008 4.3359-5.082 7.1602-6.5664 1.4258-0.78125 2.9688-1.5 4.5078-2.1172 1.4297-0.58594 3.0039-1.1758 4.7344-1.7734 1.6406-0.56641 3.3672-1.1289 5.1523-1.6758 1.8594-0.57422 3.793-1.1211 5.9219-1.6797 2.0156-0.50781 3.6367-0.89062 5.0938-1.1875 1.4727-0.28906 1.4727-0.28906 2.9453-0.58203 1.3398-0.26562 2.7148-0.48828 4.1406-0.67188 1.5586-0.19531 1.5586-0.19531 2.8555-0.36719 1.418-0.20703 2.9414-0.36328 4.4141-0.46484 1.8438-0.14453 1.8438-0.14453 3.4336-0.26562 1.2031-0.089844 2.457-0.15625 3.9375-0.20703 1.6055-0.039062 1.6055-0.039062 3.4531-0.09375 1.2852-0.027343 2.5156-0.039062 3.6914-0.039062h6.7227c1.7305 0 3.7969 0.097656 6.3633 0.29297 2.5742 0.20703 4.6211 0.44531 6.457 0.77344 1.3047 0.25 2.6875 0.54297 4.2891 0.91406 1.8945 0.45703 1.8945 0.45703 3.4219 0.83203 1.2656 0.3125 2.6602 0.70312 4.3359 1.2188 1.4688 0.46875 2.7656 0.90234 3.8945 1.3125 1.1055 0.40234 2.2734 0.85547 3.5039 1.3555 1.2656 0.51562 2.5078 1.0547 3.6641 1.5859 1.1758 0.53125 2.2773 1.0508 3.4492 1.6289 1.4688 0.75 1.4688 0.75 2.7109 1.4102 1.375 0.70312 2.7227 1.4961 3.9219 2.2891 1.1836 0.76172 2.6172 1.7773 4.3281 3.0469 1.8477 1.3555 3.2734 2.4688 4.4727 3.5156 0.92578 0.82812 1.8281 1.6797 2.707 2.5508 0.96875 0.96484 1.8906 1.9648 2.8633 3.1094 0.88281 1.0625 1.7617 2.2266 2.6914 3.5664 0.85156 1.2461 1.6016 2.4258 2.2539 3.5547 0.66797 1.1523 1.3125 2.3867 1.875 3.5859 0.63672 1.3086 1.2188 2.6445 1.7305 3.9492 0.49219 1.2422 0.9375 2.4609 1.3438 3.6602 0.49219 1.4688 0.90625 3.0195 1.2344 4.5547 0.30859 1.4102 0.57813 2.7891 0.79688 4.1094 0.21484 1.3047 0.39062 2.5117 0.49609 3.4336 0.17578 1.3242 0.28516 2.7305 0.34375 4.3867 0.027344 1.2148 0.042969 2.3984 0.042969 3.5508v3.3281c0 1.6992-0.14062 3.7539-0.40625 6.2852-0.27344 2.5664-0.57422 4.6172-0.96875 6.332-0.34766 1.4922-0.76172 2.9492-1.2422 4.3633-0.36719 1.082-0.78125 2.2578-1.2695 3.6094-0.47656 1.2891-0.96484 2.582-1.4688 3.8711-0.57031 1.4688-1.1719 2.8789-1.8047 4.2383-0.59375 1.2773-1.2305 2.5703-1.9102 3.875-0.68359 1.3242-1.3398 2.5195-2.043 3.7266-0.8125 1.3633-0.8125 1.3633-1.8438 3.1133-0.80469 1.3672-1.5742 2.6328-2.3516 3.8594-0.75781 1.1875-1.5547 2.3789-2.4414 3.6445-1.1055 1.5625-1.1055 1.5625-2.2422 3.1602-0.84766 1.1641-1.7539 2.3516-2.7383 3.5703-1.207 1.4961-1.207 1.4961-2.3945 2.9922-0.90625 1.1289-1.8164 2.2148-2.7344 3.2539-0.94531 1.0703-1.9766 2.1758-3.0938 3.3164-1.0781 1.0977-2.1836 2.1836-3.3164 3.25-1.0898 1.0273-2.1797 2.0234-3.2617 2.9883-1.1367 1.0156-2.332 2.0352-3.7227 3.1758-1.6484 1.3164-1.6484 1.3164-3.3242 2.6562-1.168 0.92578-2.4062 1.8789-3.793 2.9141-1.3477 0.99219-2.6641 1.9297-3.8711 2.75-1.2422 0.86328-2.5 1.7109-3.7695 2.543-1.668 1.0977-1.668 1.0977-3.1562 2.0781-1.1367 0.73438-2.4219 1.5078-3.875 2.332-1.4258 0.80859-3.082 1.6953-5.0195 2.6836-1.9414 0.98438-3.7773 1.8633-5.5508 2.6523-1.8672 0.82812-3.6758 1.5469-5.3555 2.1328-1.4766 0.51953-2.7852 0.96875-3.9883 1.3594-0.5625 0.17969-1.1406 0.35547-1.7383 0.52344-0.13281 0.64453-0.27344 1.2812-0.42578 1.9414-0.18359 0.75-0.375 1.5898-0.5625 2.4844-0.31641 1.5391-0.31641 1.5391-0.60156 3.0156-0.32812 1.8281-0.32812 1.8281-0.71094 3.9922-0.21875 1.2266-0.40625 2.4922-0.55078 3.6914-0.17969 1.6289-0.33203 2.9336-0.46094 3.9141-0.085938 0.68359-0.15625 1.3594-0.20313 2.0117-0.10547 1.4531-0.10547 1.4531-0.22656 2.9375-0.10547 1.3633-0.10547 1.3633-0.19922 2.8359-0.10938 1.7109-0.10938 1.7109-0.23438 3.3477-0.14062 1.6367-0.14062 1.6367-0.30469 3.3125-0.097657 1.0938-0.18359 2.168-0.24609 3.0664-0.070313 1.2617-0.15234 2.418-0.24219 3.4766-0.12891 1.5234-0.12891 1.5234-0.28516 3.2305-0.14062 1.5781-0.14062 1.5781-0.25391 3.0859-0.09375 1.2695-0.22266 2.6094-0.38672 4.0234-0.13672 1.1562-0.29297 2.6328-0.47266 4.4336-0.19531 1.957-0.40625 3.8203-0.64453 5.6992-0.21484 1.5742-0.41016 3.0859-0.60156 4.6445-0.28516 2.2031-0.28516 2.2031-0.56641 4.3789-0.20312 1.4844-0.41016 2.832-0.62109 4.0469-0.30469 1.7188-0.30469 1.7188-0.64453 3.5117-0.32422 1.6992-0.72266 3.2852-1.1758 4.6562-0.10938 0.67578-0.14062 1.2891-0.14062 2.1094v1.8945c0 7.4531-6.4102 13.492-14.316 13.492-7.9102 0-14.32-6.0391-14.32-13.492v-1.8945c0-1.7344 0.078125-3.3008 0.24219-4.7227 0.19922-1.75 0.57422-3.4766 1.1523-5.2852 0.11719-0.35156 0.24609-0.85938 0.37109-1.5352 0.30859-1.625 0.30859-1.625 0.57422-3.1211 0.15625-0.89062 0.31641-1.9336 0.46484-2.9922 0.26562-2.0898 0.26562-2.0898 0.54297-4.2305 0.19141-1.5742 0.40234-3.2109 0.62109-4.793 0.19531-1.5312 0.37891-3.1602 0.55078-4.8828 0.19141-1.9297 0.36328-3.5469 0.51562-4.8711 0.125-1.0625 0.21875-2.0391 0.28516-2.9258 0.13281-1.7578 0.13281-1.7578 0.29688-3.5664 0.14453-1.6133 0.14453-1.6133 0.26562-3.0156 0.070313-0.82422 0.13281-1.7578 0.20313-2.957 0.085937-1.2266 0.18359-2.4688 0.30859-3.8711 0.16016-1.6094 0.16016-1.6094 0.27344-2.9648 0.10547-1.3594 0.10547-1.3594 0.19922-2.8359 0.10937-1.707 0.10937-1.707 0.23437-3.3438 0.11328-1.3789 0.11328-1.3789 0.21094-2.7148 0.082031-1.1406 0.19922-2.2852 0.34766-3.4609 0.10547-0.80469 0.24219-1.9531 0.41797-3.5273 0.21094-1.793 0.47266-3.5508 0.77734-5.2539 0.38281-2.1602 0.38281-2.1602 0.74219-4.1758 0.35156-1.8164 0.35156-1.8164 0.71484-3.5781 0.25391-1.2109 0.50781-2.3438 0.72266-3.1914 0.16797-0.75 0.35547-1.6406 0.55078-2.668 0.17578-0.92578 0.30469-1.7266 0.36719-2.2109 0.35938-3.2148 1.5664-6.2383 3.3711-8.6914 2.6289-3.7188 6.5977-6.2969 11.133-7.207 0.90234-0.19141 1.9531-0.42188 3.1523-0.69922 0.89453-0.20703 1.6523-0.41406 2.2148-0.59375 0.89844-0.29297 1.9844-0.66406 3.3164-1.1367 0.95703-0.33203 2.0156-0.75 3.125-1.2422 1.2695-0.56641 2.6719-1.2383 4.1602-1.9922 1.543-0.78906 2.832-1.4766 3.8516-2.0586 0.99609-0.5625 1.8125-1.0547 2.3203-1.3828 1.418-0.93359 1.418-0.93359 3.1172-2.0508 1.0664-0.69922 2.125-1.4141 3.2539-2.1953 1-0.68359 2.0352-1.418 3.0312-2.1523 1.1094-0.82812 2.1445-1.625 3.0273-2.3203 1.625-1.3047 1.625-1.3047 3.1641-2.5352 0.95312-0.78125 1.8516-1.543 2.6875-2.2891 0.88672-0.79297 1.7891-1.6211 2.6953-2.4766 0.86328-0.8125 1.707-1.6367 2.5273-2.4766 0.79688-0.8125 1.5-1.5625 2.1055-2.2539 0.63672-0.71875 1.2773-1.4805 1.8672-2.2188 1.2266-1.5391 1.2266-1.5391 2.4961-3.1133 0.6875-0.85547 1.3164-1.6758 1.8203-2.3711 1.043-1.4648 1.043-1.4648 2.082-2.9336 0.63281-0.90234 1.2266-1.793 1.7461-2.6016 0.57812-0.91797 1.2031-1.9453 1.8711-3.0781 1.0703-1.8164 1.0703-1.8164 1.8672-3.1523 0.39453-0.67969 0.84766-1.5 1.3438-2.4609 0.50391-0.97266 0.97266-1.9219 1.4023-2.8477 0.39453-0.84766 0.78125-1.7539 1.1562-2.7148 0.44141-1.1367 0.875-2.2734 1.2656-3.3359 0.40625-1.1289 0.76953-2.1602 1.0859-3.0859 0.19922-0.58984 0.375-1.2148 0.52344-1.8438 0.11328-0.5 0.28516-1.6484 0.45703-3.2812 0.17969-1.7148 0.26562-2.957 0.26562-3.6094v-3.3281c0-0.94922-0.011719-1.9336-0.03125-2.8008-0.027343-0.72656-0.074219-1.3281-0.16016-1.9922-0.078125-0.68359-0.19531-1.4805-0.34766-2.4062-0.14844-0.88281-0.32812-1.8086-0.5625-2.8828-0.15234-0.71484-0.31641-1.3203-0.48047-1.8086-0.25391-0.75781-0.54297-1.5469-0.88672-2.4102-0.28125-0.72656-0.59375-1.4375-0.99219-2.2578-0.32031-0.68359-0.625-1.2695-0.90625-1.7539-0.29297-0.50781-0.68359-1.1211-1.1289-1.7695-0.45703-0.66016-0.86719-1.2031-1.1289-1.5195-0.38281-0.45313-0.78516-0.88672-1.2109-1.3125-0.51562-0.51172-1.0469-1.0117-1.4922-1.4102-0.375-0.32812-1.2383-1.0039-2.5391-1.957-1.3164-0.97656-2.3047-1.6719-3.0039-2.125-0.44141-0.29297-0.87109-0.54688-1.5-0.87109-1.1836-0.625-1.1836-0.625-2.2109-1.1523-0.73438-0.36328-1.5547-0.75-2.5195-1.1875-0.83203-0.37891-1.6797-0.74609-2.5469-1.1016-0.89453-0.36328-1.7148-0.67969-2.4492-0.94922-0.71094-0.25781-1.625-0.5625-2.6055-0.875-1.0312-0.31641-1.8828-0.55859-2.582-0.73047-1.4375-0.35156-1.4375-0.35156-3.1055-0.75781-1.1055-0.25391-2.1172-0.46875-2.8633-0.61328-0.53125-0.09375-1.7188-0.23047-3.3164-0.35938-1.7812-0.13672-3.1328-0.19922-3.9844-0.19922h-6.7227c-0.95703 0-1.9766 0.011719-2.8945 0.027344-1.8203 0.054687-1.8203 0.054687-3.3984 0.09375-0.90234 0.03125-1.7344 0.074219-2.5195 0.13281-1.5195 0.11328-1.5195 0.11328-3.4609 0.26562-0.89062 0.0625-1.6445 0.14062-2.4531 0.25781-1.6016 0.21094-1.6016 0.21094-3.2266 0.41797-0.72656 0.09375-1.418 0.20703-2.0352 0.32812-1.5469 0.30859-1.5469 0.30859-2.957 0.58203-0.76562 0.15625-1.9883 0.44531-3.4844 0.82031-1.5898 0.41797-3.1016 0.84766-4.5625 1.2969-1.1289 0.34766-2.1992 0.69141-3.2188 1.0312-0.37891 0.95703-0.87891 1.8828-1.5078 2.7695zm24.109 131.37c0.035157-0.003906 0.066407-0.011718 0.10156-0.019531-0.035156 0.007813-0.066406 0.015625-0.10156 0.019531z"/>
 <path d="m889.27 569.25c6.2461-6.6641 16.746-7.0352 23.453-0.82031 6.7031 6.2109 7.0742 16.652 0.82812 23.32l-2.8125 3c-6.2461 6.6641-16.746 7.0352-23.453 0.82031-6.7031-6.2109-7.0742-16.652-0.82812-23.32z"/>
 <path d="m103.7 631.68c-5.2188 5.4023-13.789 5.5117-19.137 0.23828-3.6094-3.5586-5.9766-7.2422-6.4453-12.098-0.33984-3.1367 0.0625-6.2539 1.0859-9.1875 0.91797-2.6641 2.3164-5.125 4.0703-7.3281 1.3281-1.6875 2.6602-3.1484 4.0508-4.3906 1.3438-1.2031 2.8086-2.3008 4.5-3.375 1.332-0.82812 2.7617-1.6211 4.1211-2.3008 1.7578-0.90625 3.6641-1.7031 5.7266-2.4102 2.0898-0.71484 4.2773-1.2852 6.6562-1.7344 1.9062-0.34375 3.4531-0.58984 4.8633-0.75781 1.3984-0.14844 3.125-0.23438 5.3203-0.28125 1.9219-0.039063 3.4531-0.058594 4.6172-0.058594 1.2109 0 2.3906 0.023438 3.5312 0.066406 1.9141 0.074219 3.8477 0.35938 5.8203 0.83594 1.5781 0.37891 3.4453 0.94141 5.7188 1.6992 2.3047 0.77734 4.0898 1.4492 5.3047 2.0039 1.2617 0.55078 2.5859 1.1992 3.8242 1.8633 1.3398 0.69141 2.5586 1.3594 3.7383 2.0586 1.0078 0.60547 2.0664 1.2695 3.25 2.043 1.2383 0.81641 2.4766 1.6992 3.7734 2.6953 1.0469 0.81641 2.0273 1.5938 3.1133 2.4805 0.99609 0.83984 1.9844 1.7148 3.0352 2.6953 0.90234 0.85547 1.8398 1.7734 2.8086 2.7539 1.3438 1.3555 2.7578 3.0352 4.3047 5.0625 1.7227 2.2383 3.2031 4.5273 4.3984 6.8008 1.1602 2.1719 2.1641 4.4023 3.0117 6.6914 0.83984 2.2656 1.4336 4.1289 1.7656 5.6719 0.30078 1.3164 0.54297 2.6523 0.73828 4.0391 0.17578 1.2852 0.3125 2.5781 0.41016 3.8867 0.085938 1.1797 0.14844 2.3477 0.19922 3.6719 0.027344 1.0977 0.042969 2.2188 0.042969 3.3633v3.4844c0 1.9102-0.10938 3.6719-0.35938 5.3516-0.21875 1.4766-0.55078 3.0195-0.98438 4.6172-0.375 1.418-0.79688 2.8359-1.2461 4.2148-0.50781 1.5703-1.0547 3.0508-1.5898 4.3047-0.48438 1.168-0.99609 2.3359-1.4766 3.375-0.67969 1.5078-1.4883 3.0273-2.5117 4.7266-0.82422 1.3203-1.6055 2.5-2.2109 3.3438-0.6875 0.98828-1.4609 2.043-2.3281 3.1719-0.83203 1.082-1.6797 2.1445-2.4805 3.1172-0.92188 1.1289-1.8555 2.2109-2.7383 3.1719-0.95703 1.0586-1.9922 2.1406-3.0469 3.1758-1.0508 1.043-2.0781 2.0352-3.0938 2.9727-0.75781 0.69922-1.4258 1.3359-1.9141 1.8203-0.95703 0.96484-2.0195 1.9492-3.1133 2.8828-1.3984 1.2188-1.3984 1.2188-2.7305 2.3633-1.2852 1.1133-1.375 1.1914-2.3164 1.9883 1.375 0.99219 2.582 1.9375 3.7422 2.9141 1.2656 1.0508 2.543 2.207 3.8359 3.4648 1.1406 1.1133 2.25 2.2266 3.4492 3.4688 1.0898 1.1602 2.1953 2.3789 3.3125 3.6641 1.2578 1.4414 2.4648 2.9453 3.6172 4.5156 0.99219 1.3555 1.9258 2.6523 2.7969 3.8984 1.0195 1.4531 1.9805 2.957 2.8008 4.3594 0.87109 1.4414 1.6836 2.8828 2.4648 4.3711 0.65625 1.2578 1.2812 2.4805 1.8711 3.6641 0.61719 1.2305 1.207 2.4492 1.7148 3.5391 0.67188 1.4062 1.2852 2.8203 1.9023 4.418 0.32812 0.88672 0.65625 1.7109 1.0625 2.6562 0.60938 1.4766 0.60938 1.4766 1.2344 3 0.23438 0.59766 0.53906 1.2891 0.90625 2.0664 0.30469 0.64844 0.58594 1.1875 0.75781 1.4766l0.74609 1.2227c3.9141 6.4297 1.9297 14.848-4.4336 18.805-6.3672 3.957-14.699 1.9531-18.617-4.4766l-0.82422-1.3555c-0.71875-1.2109-1.4062-2.5195-2.0703-3.9297-0.60156-1.2773-1.1328-2.4961-1.5312-3.5-0.54297-1.3281-0.54297-1.3281-1.0586-2.5742-0.51953-1.2031-1.0234-2.4688-1.4492-3.6133-0.29297-0.76172-0.625-1.5312-1.0508-2.4258-0.45703-0.97656-0.9375-1.9688-1.4414-2.9727-0.52344-1.0508-1.082-2.1367-1.6445-3.2188-0.50781-0.96875-1.0625-1.9492-1.7461-3.0859-0.53516-0.91406-1.1016-1.7969-1.6992-2.6523-0.74219-1.0625-1.5508-2.1875-2.4219-3.3711-0.70703-0.96484-1.4414-1.8828-2.1992-2.75-0.89453-1.0273-1.7656-1.9883-2.4922-2.7656-0.88672-0.91406-1.8008-1.832-2.7461-2.7539-0.79688-0.77734-1.543-1.4531-2.3086-2.0898-0.71484-0.59766-1.3828-1.1211-2.0742-1.6211-0.66406-0.48438-1.3281-0.9375-2.0625-1.4062-0.57422-0.37109-1.1016-0.67969-1.5742-0.92969-0.60547-0.32031-1.4141-0.71484-2.457-1.1992-1.3594-0.63672-2.6211-1.2578-3.8516-1.9062-3.5039-1.8594-6.3164-4.7227-8.0586-8.4531-2.707-5.8672-1.8008-12.688 2.6602-17.457 0.88281-0.96484 1.8516-1.9336 2.8281-2.8438 0.96094-0.91016 2.0664-1.9023 3.3203-2.9844 1.2227-1.0547 2.6016-2.2031 4.1797-3.4805 1.3438-1.0742 2.3281-1.8789 3.0078-2.457 1.0352-0.875 1.0352-0.875 2.3281-1.9961 1.3203-1.1328 1.3203-1.1328 2.7227-2.3516 0.63672-0.55078 1.1641-1.0391 1.6602-1.5391 0.82031-0.80859 1.7188-1.668 2.6953-2.5703 0.75391-0.69531 1.5391-1.4531 2.418-2.3281 0.74609-0.73438 1.4102-1.4258 2.0625-2.1445 0.59375-0.64844 1.1875-1.3359 1.8398-2.1367 0.65234-0.78906 1.2969-1.5977 1.9336-2.4219 0.59766-0.78125 1.1055-1.4727 1.6562-2.2656 0.36719-0.50781 0.81641-1.1875 1.2383-1.8672 0.39062-0.64453 0.6875-1.207 0.96094-1.8125 0.37891-0.81641 0.73828-1.6328 1.1328-2.582 0.25-0.59375 0.51172-1.3008 0.78906-2.1523 0.30469-0.9375 0.58203-1.8672 0.83594-2.8242 0.17969-0.67188 0.29688-1.1992 0.34375-1.5312 0.03125-0.20703 0.058593-0.65234 0.058593-1.3047v-3.4844c0-0.91406-0.011718-1.8008-0.027343-2.4922-0.03125-0.82812-0.078125-1.668-0.14062-2.5234-0.054688-0.72266-0.12891-1.4375-0.22266-2.1133-0.082032-0.59375-0.1875-1.1641-0.33984-1.8438-0.03125-0.15234-0.27344-0.91406-0.69922-2.0625-0.42188-1.125-0.91797-2.2344-1.5391-3.3984-0.48047-0.91797-1.1133-1.8906-1.9336-2.957-0.92969-1.2188-1.6406-2.0625-2.0391-2.4648-0.76953-0.77734-1.4961-1.4922-2.1055-2.0703-0.64063-0.59766-1.2852-1.168-1.7578-1.5664-0.75-0.60938-1.5703-1.2617-2.3945-1.9023-0.73047-0.5625-1.4492-1.0742-2.082-1.4922-0.84375-0.55078-1.6211-1.043-2.2578-1.4219-0.63281-0.375-1.4023-0.79688-2.4609-1.3477-0.8125-0.42969-1.5117-0.77344-2.293-1.1172-0.39453-0.17969-1.4219-0.56641-2.8945-1.0625-1.5781-0.52734-2.7656-0.88281-3.4766-1.0547-0.31641-0.078126-0.50391-0.10547-0.5625-0.10547-0.78906-0.03125-1.625-0.046875-2.4961-0.046875-0.95312 0-2.3164 0.015625-4.0703 0.054687-1.4844 0.027344-2.5273 0.082031-2.8398 0.11328-0.63281 0.078126-1.6953 0.24609-3.0234 0.48438-1.0469 0.19922-1.9922 0.44531-2.8359 0.73437-0.87109 0.29688-1.5742 0.58984-2.2578 0.94141-0.39844 0.19922-0.77344 0.39844-1.1133 0.58594 1.3438 4.5898 0.25391 9.7578-3.2891 13.43z"/>
 <path d="m221.97 858.22c0.5625 9.168-6.3984 17.062-15.555 17.629l-1.8672 0.11328c-9.25 0.56641-18.738-5.832-18.543-17.508 0.078125-4.6484 1.4805-7.6797 3.8281-11.152 5.1445-7.6055 15.473-9.5938 23.066-4.4414 2.2227 1.5078 3.9648 3.4609 5.1875 5.6562 2.2266 2.6406 3.6523 5.9922 3.8828 9.7031z"/>
 <path d="m376.09 136.66c-3.4141 6.4648-12.605 9.4453-20.523 6.6602-6.4648-2.2773-11.164-5.3711-12.969-11.191-1.6484-5.2539 0.1875-10.469 4.5703-14.391 2.0781-1.832 4.5234-3.3555 7.1992-4.543 1.75-0.78906 3.3945-1.4453 4.8008-1.9219 1.4844-0.51953 3.0312-0.98438 4.5898-1.3867 1.6914-0.44141 3.4102-0.80469 5.1602-1.0859 1.8555-0.30078 3.7422-0.49609 5.4492-0.57813 1.4453-0.085937 2.9023-0.14062 4.1836-0.16406 1.3906-0.042969 2.7969-0.0625 4.2148-0.0625 2.5781 0 5.1602 0.27734 7.6992 0.80078 2.4766 0.50781 4.9102 1.2461 7.1875 2.1562 2.0625 0.80859 4.1016 1.7539 6.1094 2.8242 1.9141 1.0195 3.7305 2.1055 5.3008 3.1562 1.8398 1.2031 3.582 2.5117 5.1641 3.8633 1.7031 1.4453 3.2422 2.9531 4.5508 4.4727 1.3281 1.5234 2.4844 3.0625 3.4883 4.6797 1.082 1.7734 1.9297 3.5977 2.5156 5.4414 0.5625 1.75 0.91797 3.5273 1.0859 5.4844 0.089843 1.2617 0.13281 2.5352 0.13281 3.8203 0 1.8906-0.23828 3.8008-0.73047 5.875-0.45312 1.7891-1.0781 3.5547-1.9492 5.4414-0.58984 1.2383-1.1914 2.4414-1.8594 3.7227-0.76172 1.4141-1.5547 2.7305-2.3164 3.8281-0.81641 1.2227-0.81641 1.2227-1.75 2.6445-0.75391 1.1641-1.5195 2.3008-2.2227 3.3086-0.61328 0.89062-1.1719 1.7305-1.6055 2.4062-0.11328 0.17578-0.20703 0.35547-0.28516 0.54297-0.011719 0.45312-0.003906 0.98828 0.019531 1.5938 0.007813 0.23828 0.054688 0.50781 0.10547 0.69922 0.30859 1.043 0.63281 2.0898 0.95703 3.1094 0.52734 1.6328 0.52734 1.6328 1.0039 3.0781 0.29687 0.86719 0.58203 1.6133 0.82031 2.1836 0.28516 0.67188 0.60547 1.375 0.89062 1.9648l0.66797 1.3359c3.2578 6.5195-0.57812 13.961-8.5625 16.617-7.9883 2.6602-17.102-0.46875-20.359-6.9883l-0.73047-1.4688c-0.51172-1.0508-0.98047-2.082-1.4336-3.1484-0.45703-1.0859-0.90234-2.2695-1.4023-3.7188-0.55078-1.6719-0.55078-1.6719-1.1094-3.3984-0.37891-1.1914-0.74609-2.3828-1.1328-3.6875-0.54297-1.9102-0.85547-3.8281-0.93359-5.7461-0.054687-1.375-0.054687-2.6484 0.007813-3.8438 0.10156-1.9727 0.53906-3.9375 1.2656-5.8906 0.62891-1.6836 1.4375-3.3125 2.4961-4.9922 0.63672-0.99219 1.3242-2.0234 2.1328-3.1992 0.60156-0.85938 1.1992-1.7461 1.8242-2.7109 1.0352-1.582 1.0352-1.582 2.043-3.0859 0.30469-0.44141 0.64453-1 0.94141-1.5586 0.48047-0.91406 0.95312-1.8633 1.3555-2.6992 0.23437-0.51172 0.41016-1.0039 0.49609-1.3398 0.085938-0.36719 0.12109-0.66016 0.12109-0.875 0-0.80078-0.027344-1.5859-0.070313-2.2031-0.015624-0.21484-0.058593-0.42578-0.14062-0.67969-0.035157-0.11328-0.10547-0.26172-0.19141-0.40625-0.23438-0.37891-0.57422-0.82812-1.0703-1.3984-0.41797-0.48438-0.93359-0.98828-1.6133-1.5664-0.67969-0.58203-1.3906-1.1133-2.2773-1.6953-0.83594-0.55859-1.7422-1.1016-2.7266-1.625-0.88672-0.47266-1.7344-0.86719-2.6523-1.2266-0.47656-0.19141-0.85547-0.30469-1.168-0.37109-1.1406-0.03125-2.1719-0.015625-3.3828 0.019531-0.74219 0.011719-1.4805 0.039063-2.3008 0.078125-0.19922 1.0234-0.55859 2.043-1.082 3.0391z"/>
 <path d="m424.4 278.23c-3.9531 8.4922-13.988 12.145-22.41 8.1602l-1.7266-0.81641c-2.2461-0.94922-2.2461-0.94922-7.043-5.5977-4.7891-14.332-4.7891-14.332 3.75-24.41 3.7383-2.6758 6.125-3.1523 10.551-3.5078 9.2773-0.74609 17.398 6.2227 18.141 15.57 0.69141 3.4922 0.33203 7.1797-1.2617 10.602z"/>
 <path d="m678.77 89.797c3.5391-1.3438 5.375-3.5391 5.9688-5.3594-0.52344 1.6016-1.3633 3.0586-2.4453 4.3242-0.30078 0.070312-0.625 0.15234-0.95703 0.24219-0.83984 0.22656-1.6055 0.46094-2.2539 0.68359zm-13.316 3.9609c-8.3281-1.9883-13.199-9.3828-10.879-16.52 1.7188-5.2891 5.4414-9.7109 11.715-12.043 1.7578-0.64062 3.6133-1.2266 5.6641-1.7852 1.9805-0.52734 3.832-0.9375 5.3984-1.2031 1.4336-0.25781 2.9961-0.5 4.6914-0.73047 1.625-0.21875 3.3242-0.42578 5.2383-0.62891 1.7852-0.17969 3.707-0.33984 5.7539-0.48828 2.1875-0.15625 4.3242-0.25781 6.4062-0.30078 1.8906-0.039063 3.6641-0.058594 5.3203-0.058594 2.3984 0 4.7656 0.16406 6.9375 0.48047 2.9727 0.40234 5.8047 1.1562 8.3828 2.2461 2.0781 0.86719 4.0078 1.8672 5.7383 2.9844 1.832 1.1758 3.5508 2.5703 5.1484 4.1172 2.2266 2.1289 3.9805 4.5039 5.1055 6.9883 1.168 2.4961 1.8086 5.125 1.9141 7.9609 0.074218 2.832-0.42969 5.5859-1.7461 8.418-0.85938 1.7617-1.9648 3.4453-3.2305 4.9805-1.1328 1.3945-2.3945 2.7266-3.875 4.0742-1.2031 1.082-2.457 2.1133-3.6641 3.0234-1.2109 0.92969-2.4844 1.8477-3.8281 2.7539-1.3477 0.91016-2.7188 1.7812-4.1445 2.6289-1.3438 0.78906-2.7422 1.5664-4.2461 2.3555-1.0977 0.57031-2.1719 1.1445-3.2266 1.7227-1.7969 0.98828-1.7969 0.98828-3.6328 1.9766-1.6953 0.90234-1.6953 0.90234-3.2305 1.707-1.4375 0.75391-1.5273 0.79688-2.9961 1.5625v6.2852c0 1.5625-0.12891 3.1328-0.41406 4.875l-0.25781 1.4609c-1.2969 7.3203-9.2812 12.355-17.828 11.246-8.5508-1.1133-14.426-7.9531-13.129-15.273l0.23047-1.2969c0.058593-0.36719 0.089843-0.70312 0.089843-1.0117v-8.6641c0-1.9141 0.18359-3.75 0.54297-5.3828 0.69141-3.3203 2.4102-6.3633 5.1953-9.082 1.5742-1.4766 3.332-2.7812 5.3555-3.9453 1.0742-0.60938 2.2891-1.2656 3.6602-1.9766 1.7305-0.90234 1.7305-0.90234 3.207-1.6758 1.4453-0.75781 1.4453-0.75781 2.9922-1.582 1.6289-0.875 1.6289-0.875 3.3008-1.793 1.2734-0.70312 2.5703-1.3945 3.8477-2.0586 0.98438-0.51562 1.9141-1.0312 2.75-1.5273 0.85156-0.50391 1.6953-1.0391 2.5312-1.6055-0.51562-0.125-1.2617-0.11328-2.0352-0.097656-1.4531 0.03125-2.9727 0.10156-4.5586 0.21484-1.7383 0.125-3.3242 0.25781-4.6211 0.38672-1.4453 0.15625-2.8086 0.32031-4.0859 0.49219-1.207 0.16406-2.2617 0.32812-3.3398 0.52344-0.36328 0.058593-0.80859 0.15234-1.3086 0.26953-3.7422 4.375-10.383 6.5352-16.84 4.9961z"/>
 <path d="m654 198c0-9.9414 8.0586-18 18-18s18 8.0586 18 18-8.0586 18-18 18-18-8.0586-18-18z"/>
 <path d="m968.75 644.6c-8.1758-2.3203-14.691-7.8477-11.828-18.512 1.4062-5.5859 5.4414-9.6641 10.441-11.281 1.1875-0.40234 2.3281-0.76172 3.5859-1.1172 1.3398-0.35938 2.7617-0.65625 4.4258-0.91797 1.3633-0.20312 2.7734-0.36328 4.2266-0.48438 1.4766-0.12109 3.0273-0.19922 4.5391-0.22656 1.4727-0.039063 2.9297-0.058594 4.3672-0.058594 1.4297 0 2.8711 0.019531 4.2031 0.058594 2.5938 0.046875 5.1484 0.47656 7.543 1.2539 2.2461 0.71094 4.3867 1.6836 6.2539 2.8281 1.832 1.082 3.582 2.3594 5.2617 3.8242 1.6562 1.4453 3.2148 3.0625 4.668 4.832 1.5508 1.8828 2.9102 3.8906 4.0938 6.0547 1.1719 2.1562 2.1367 4.4492 2.9102 6.8984 0.59766 1.9023 1.0352 3.4219 1.3711 4.8398 0.33984 1.5117 0.58984 3.2852 0.80859 5.5078 0.20703 2.0742 0.33203 4.1641 0.375 6.3711 0.03125 2.1367-0.035157 4.3359-0.19531 6.6016-0.21484 3-0.79297 5.9297-1.7148 8.7148-0.67578 2.0664-1.2539 3.6797-1.8242 5.043-0.57812 1.3477-1.2695 2.7305-2.0391 4.1094-0.67969 1.2305-1.3281 2.3438-2.0234 3.4688-0.76172 1.1992-1.6133 2.3984-2.5039 3.5312-0.83594 1.082-1.7109 2.1484-2.6289 3.207-0.94531 1.0898-1.8984 2.1172-2.8594 3.082-0.96484 0.96875-1.9766 1.9141-3.0156 2.8164-0.94141 0.82031-1.9453 1.6602-3.0039 2.5195-1.2656 1.0273-2.457 1.9102-3.3945 2.5273-0.82031 0.5625-1.7734 1.1992-2.8281 1.8906-1.1172 0.73828-2.1289 1.3906-3.043 1.9609-0.89453 0.5625-1.8633 1.1484-2.8359 1.7266-1.0195 0.61328-2.0352 1.2109-3.1055 1.8281-1.082 0.61719-2.2734 1.2656-3.5781 1.9414-1.3008 0.67969-2.5469 1.3008-3.7422 1.8672-1.5352 0.73047-1.5352 0.73047-3.082 1.4727-1.2344 0.59375-2.5312 1.1836-3.8945 1.7656-1.1172 0.47656-2.2344 0.96484-3.4102 1.4922-1.2891 0.56641-2.5352 1.0977-3.7422 1.5898-1.6133 0.66016-1.6133 0.66016-3.1914 1.3086-1 0.41016-2.3125 0.96094-3.8516 1.6133-1.6055 0.69141-3.0391 1.3242-4.2031 1.8477-1.0117 0.46094-1.8945 0.91016-2.7461 1.3867-0.98438 0.54297-1.8359 1.0234-2.6094 1.4766-0.35156 0.20313-0.76953 0.47656-1.207 0.78516-0.25391 0.66016-0.46875 1.2578-0.625 1.7383-0.20703 0.66797-0.43359 1.4883-0.70312 2.5781-0.26562 1.0469-0.54297 2.2578-0.85547 3.7305-0.32031 1.457-0.62891 2.9336-0.90625 4.3281-0.26562 1.3867-0.44922 2.4453-0.57422 3.3047-0.25 1.6055-0.25 1.6055-0.62109 3.9648-0.25 1.5117-0.43359 2.6875-0.57812 3.6758-0.19922 1.3242-0.19922 1.3242-0.39062 2.6484-0.15234 1.0625-0.32031 2.1562-0.53906 3.4336-0.24609 1.3789-0.24609 1.3789-0.48438 2.8398-0.19531 1.1914-0.40625 2.3516-0.66406 3.6445-0.29297 1.4102-0.29297 1.4102-0.58203 2.8398-0.32812 1.6367-0.32812 1.6367-0.66797 3.3086-0.27344 1.4062-0.65625 3.1055-1.1289 5.0469-0.44922 1.8984-0.80469 3.3555-1.0156 4.1992-0.39062 1.6367-0.39062 1.6367-0.88281 3.6602-0.36719 1.5039-0.75781 3-1.1641 4.4883-0.35938 1.3125-0.67969 2.5195-0.97266 3.6602-0.48438 1.832-0.48438 1.832-0.98047 3.6367-0.48828 1.7148-0.65234 2.2812-0.98047 3.3672-0.4375 1.4531-0.4375 1.4531-0.95312 3.2227-0.26172 0.875-0.44922 1.5859-0.57422 2.1484-0.25 1.1445-0.25 1.1445-0.46875 2.207l-0.25391 1.3555c-1.3711 7.3008-8.2852 12.086-15.441 10.688-7.1562-1.4023-11.844-8.457-10.473-15.762l0.28125-1.4922c0.30859-1.5195 0.30859-1.5195 0.625-2.957 0.26953-1.2344 0.62891-2.5742 1.0312-3.9258 0.52344-1.793 0.52344-1.793 1.0117-3.4258 0.27734-0.91797 0.41406-1.3906 0.82422-2.8242 0.42188-1.5391 0.42188-1.5391 0.83984-3.125 0.32031-1.2422 0.67969-2.582 1.0703-4.0156 0.34375-1.2539 0.67188-2.5156 0.98047-3.7812 0.46875-1.9297 0.46875-1.9297 0.875-3.6211 0.22266-0.89062 0.54688-2.2383 0.99219-4.1094 0.40234-1.6562 0.69922-2.9766 0.90625-4.0273 0.34766-1.707 0.34766-1.707 0.66406-3.293 0.32031-1.5898 0.32031-1.5898 0.60938-2.9766 0.16406-0.82031 0.31641-1.6758 0.46094-2.5391 0.27734-1.6914 0.27734-1.6914 0.54297-3.1836 0.14844-0.88281 0.28125-1.7305 0.39844-2.5469 0.21484-1.4961 0.21484-1.4961 0.41797-2.8203 0.14844-1.0625 0.36328-2.4336 0.63281-4.0391 0.35156-2.2266 0.35156-2.2266 0.56641-3.6016 0.16797-1.1914 0.42188-2.6523 0.78125-4.5352 0.33203-1.668 0.67578-3.3203 1.0156-4.8555 0.36328-1.7188 0.72656-3.2891 1.0586-4.5938 0.36719-1.5078 0.75-2.8867 1.1758-4.2461 0.41016-1.2695 0.88672-2.5859 1.4102-3.9062 0.94141-2.4023 2.2227-4.6172 3.8281-6.5898 1.4297-1.7539 3.0586-3.3086 4.9414-4.6914 1.2695-0.92188 2.5078-1.7344 3.6758-2.4102 0.92969-0.54297 1.9805-1.1367 3.0547-1.7266 1.4023-0.78906 2.918-1.5547 4.6445-2.3477 1.3789-0.62109 2.9258-1.3008 4.7188-2.0742 1.7031-0.72266 3.1055-1.3125 4.2148-1.7656 1.6016-0.65625 1.6016-0.65625 3.2383-1.3281 0.97266-0.39453 1.9922-0.82812 3-1.2734 1.2539-0.5625 2.5117-1.1133 3.7695-1.6484 1.0117-0.43359 1.957-0.85938 2.8281-1.2812 1.6094-0.76953 1.6094-0.76953 3.2031-1.5312 0.89453-0.42188 1.8516-0.90234 2.875-1.4336 1.0234-0.53516 1.9297-1.0234 2.6602-1.4414 0.87109-0.5 1.7422-1.0156 2.6797-1.5781 0.875-0.51953 1.6758-1.0078 2.4023-1.4609 0.71094-0.44531 1.5391-0.98047 2.5156-1.625 0.94531-0.62109 1.75-1.1562 2.6172-1.75 0.35547-0.23438 0.85938-0.60938 1.4883-1.1172 0.82812-0.67188 1.5938-1.3164 2.3125-1.9414 0.57031-0.49609 1.1133-1 1.625-1.5117 0.51562-0.51953 1.0547-1.1016 1.6094-1.7383 0.58594-0.67578 1.1406-1.3516 1.7188-2.1016 0.41016-0.52344 0.74219-0.99219 0.92188-1.2734 0.375-0.60937 0.80859-1.3516 1.3242-2.2812 0.35547-0.64062 0.625-1.1719 0.76172-1.4961 0.19141-0.45312 0.54688-1.4492 1.0273-2.9219 0.22266-0.67578 0.35938-1.3672 0.41406-2.0938 0.10547-1.5 0.14844-2.9258 0.12891-4.1797-0.027344-1.4023-0.10938-2.7812-0.24219-4.1367-0.12109-1.1992-0.23438-2-0.24219-2.0391-0.11328-0.48828-0.39453-1.457-0.80469-2.7656-0.25-0.79688-0.54687-1.4922-0.85156-2.0625-0.34375-0.625-0.75391-1.2266-1.2461-1.8281-0.54688-0.66797-1.0859-1.2266-1.6016-1.6758-0.48438-0.42188-0.94141-0.75391-1.5117-1.0938-0.21484-0.12891-0.4375-0.23047-0.76172-0.33594-1.4531-0.058594-2.6562-0.074218-3.8438-0.074218-1.1992 0-2.4219 0.015624-3.7812 0.054687-0.49219 0.007813-0.96875 0.023437-1.4219 0.042969-3.0664 4.7578-8.8906 7.1758-14.555 5.5703z"/>
 <path d="m901.21 852.93 0.54688 0.070312c-0.36328-0.10547-0.42969-0.09375-0.54688-0.070312zm1.7461 33.832c0.23438-0.03125 0.375-0.050781 0.53125-0.09375-0.18359 0.042969-0.35547 0.070313-0.53125 0.09375zm14.914-14.035c-1.1562 9.5625-9.5117 16.34-18.66 15.129l-2.0117-0.26562c-1.4062-0.10938-1.4062-0.10938-5.8477-1.668-5.5938-2.2344-5.5938-2.2344-9.3477-19.578 6.2617-11.246 6.2617-11.246 9.4805-12.297 2.4492-1.1719 3.8555-1.4492 7.1094-1.8984 7.418-1.0234 14.34 3.2109 17.328 9.9492 1.6562 3.1289 2.4102 6.8125 1.9492 10.629z"/>
</svg>
