<?xml version="1.0" encoding="UTF-8"?>
<svg width="1200pt" height="1200pt" version="1.1" viewBox="0 0 1200 1200" xmlns="http://www.w3.org/2000/svg">
 <path d="m549.28 1075.6c-0.32812-1.7344-1.6406-3.1406-3.3281-3.6094s-3.5625 0.046875-4.7344 1.3594c-1.5 1.6406-3.2344 3.3281-5.1094 5.1094-3.7969 3.6562-7.6406 7.4062-10.266 11.625l-20.297-257.81c-5.4375-69.234-5.3438-139.03 0.28125-208.31l2.2969-0.84375c9.3281-3.3281 18.234-7.4062 26.766-12.188l5.25 10.641c7.4062 14.953 22.594 23.859 38.484 23.859 4.6875 0 9.4688-0.79688 14.109-2.3906l8.3438-2.9062c2.3906-0.84375 3.7031-3.4688 2.9062-5.8594l-3.0938-9.5156c-6.0938-18.75-23.672-30.516-42.703-29.625 2.5312-2.0156 5.0156-4.125 7.4062-6.3281l16.172-2.0625c21.422-2.7656 37.547-21.094 37.453-42.703l-0.046875-8.8594c0-2.5312-2.0625-4.6406-4.5938-4.6875l-9.9844-0.1875c-22.359-0.46875-40.969 15.984-43.406 38.156l-1.4531 13.031c-7.4531 6.75-15.469 12.75-23.906 17.953l-0.14062 0.046875c-0.98438 0.23438-1.875 0.75-2.5312 1.5469-8.3906 4.9219-17.203 9.1406-26.484 12.562 1.9219-21.375 4.3125-42.656 7.2656-63.844l5.6719-40.922c0.46875-3.5156 0.9375-7.0312 1.4062-10.5l20.719-20.156c13.922-13.5 26.859-27.844 38.859-42.844l0.09375 0.60938c3.1875 21 21.281 36.469 42.422 36.469h1.1719l17.203-0.46875c1.4531-0.046875 2.7656-0.75 3.6562-1.875 0.84375-1.1719 1.125-2.625 0.75-4.0312l-4.0312-14.859c-5.8594-21.516-26.812-34.828-48.75-31.031l-0.9375 0.1875c3.2344-4.4062 6.375-8.9062 9.4688-13.406l22.734-6.9375c16.031-4.9219 31.266-12.094 45.234-21.375 0.5625 0.46875 1.2656 0.79688 2.0156 0.98438l8.7188 1.6875c11.906 2.2969 23.766-0.65625 33.094-7.2656 7.2188-5.2031 12.891-12.656 15.844-21.656l5.2969-16.359c0.42188-1.3594 0.23438-2.8594-0.5625-4.0781-0.79688-1.1719-2.1094-1.9688-3.5625-2.0625l-15.375-1.125c-22.219-1.6406-41.766 13.641-45.516 35.625l-0.5625 3.4219-3.375 2.2969c-13.547 9.1406-28.312 16.172-43.969 20.953l-11.953 3.6562c9-14.25 17.203-28.969 24.609-44.25l12.844-2.5312c21.891-4.2656 36.656-24.234 34.453-46.406l-0.98438-9.9375c-0.23438-2.5312-2.4844-4.4062-5.0156-4.2188l-8.8125 0.70312c-21.562 1.6875-38.531 19.266-39.516 40.828l-0.75 16.219c-4.125 8.5781-8.5312 16.969-13.172 25.219-5.3906-18.703-7.4062-37.969-6-57.375l9.375-9.1406c15.984-15.562 17.438-40.359 3.4688-57.703l-6.2812-7.7812c-1.5938-1.9688-4.5-2.3438-6.5156-0.75l-7.0312 5.4375c-17.109 13.219-21.703 37.172-10.734 55.781l8.2969 14.016c-1.5938 22.547 1.1719 44.859 8.25 66.469l0.70312 2.0625c-19.828 33-43.781 63.188-71.578 90.188l-12.328 12c7.875-66.188 10.781-133.26 8.5312-199.78l-1.125-33.047 9.9375 7.2188c10.875 7.875 24.891 7.875 35.766 0s15.188-21.234 11.062-34.031l-5.7188-17.578 14.953-10.875c10.875-7.875 15.188-21.234 11.062-34.031-4.1719-12.75-15.516-21.047-28.922-21.047h-18.469l-5.7188-17.578c-4.1719-12.75-15.516-21.047-28.922-21.047-13.453 0-24.797 8.25-28.922 21.047l-5.7188 17.578h-18.469c-13.406 0-24.797 8.25-28.922 21.047-4.1719 12.75 0.1875 26.109 11.062 34.031l14.953 10.875-5.7188 17.578c-4.1719 12.75 0.1875 26.109 11.062 34.031 5.4375 3.9375 11.672 5.9062 17.906 5.9062s12.469-1.9688 17.906-5.9062l10.547-7.6875 1.125 33.797c2.4844 74.531-1.4531 149.72-11.719 223.6l-3.1875 22.828-12.281-14.906c-24.609-29.906-45.047-62.625-61.078-97.594l0.89062-1.9688c9.4688-20.672 14.672-42.562 15.609-65.109l9.7969-13.031c12.984-17.25 11.062-41.625-4.4531-56.625l-6.375-6.1406c-1.8281-1.7812-4.7344-1.7344-6.5625 0.046875l-7.125 7.0312c-15.844 15.656-17.109 40.5-3 57.703l8.3438 10.125c-0.75 19.453-4.875 38.391-12.328 56.391-3.7031-8.7188-7.125-17.578-10.266-26.531l1.0781-16.172c1.4062-21.562-13.5-40.875-34.734-44.953l-8.7188-1.6875c-2.4844-0.46875-4.9219 1.125-5.4844 3.6094l-2.1094 9.7969c-4.6875 21.797 7.8281 43.266 29.062 49.922l12.469 3.9375c5.6719 15.984 12.188 31.547 19.547 46.688l-11.484-4.9688c-15-6.4688-28.922-15.141-41.344-25.734l-4.3594-3.7031c-0.046875-0.046875-0.09375-0.14062-0.14062-0.1875l-6.2812-7.7812c-13.969-17.344-38.531-21.188-57.094-8.9062l-12.844 8.4844c-1.2188 0.79688-1.9688 2.1094-2.0625 3.5156-0.09375 1.4531 0.42188 2.8594 1.5 3.7969l12.609 11.672c8.2031 7.5938 18.656 11.438 29.203 11.438 9.7969 0 19.641-3.3281 27.609-10.031l3.6094-3.0469 2.2031 1.875c13.172 11.203 27.844 20.344 43.688 27.188l29.719 23.812-0.9375-0.28125c-21.375-6.2344-43.688 4.6875-51.891 25.406l-5.6719 14.344c-0.51562 1.3594-0.42188 2.8594 0.32812 4.0781 0.70312 1.2188 1.9688 2.0625 3.4219 2.2969l17.016 2.3906c1.9688 0.28125 3.9375 0.42188 5.9062 0.42188 19.125 0 36.375-12.844 41.438-31.781l0.14062-0.5625c10.266 16.266 21.516 31.969 33.844 46.922l17.766 21.562-0.75 5.4375c-5.1094 36.703-8.625 73.641-10.641 110.72l-3.2344-1.1719c-9.8906-3.5156-19.312-8.0156-28.219-13.266-0.65625-0.75-1.5-1.3125-2.5312-1.5469l-0.14062-0.046875c-8.4844-5.2031-16.453-11.203-23.906-17.953l-1.4531-13.031c-2.4844-22.125-21.188-38.578-43.406-38.156l-9.9844 0.1875c-2.5312 0.046875-4.5938 2.1094-4.5938 4.6875l-0.046875 8.8594c-0.09375 21.609 16.031 39.984 37.453 42.703l16.172 2.0625c2.4375 2.1562 4.875 4.2656 7.4062 6.3281-19.031-0.89062-36.609 10.875-42.703 29.625l-3.0938 9.5156c-0.79688 2.4375 0.51562 5.0156 2.9062 5.8594l8.3438 2.9062c4.6406 1.6406 9.4219 2.3906 14.109 2.3906 15.938 0 31.125-8.9062 38.484-23.859l5.25-10.641c8.4844 4.7812 17.438 8.8594 26.766 12.188l4.0781 1.4531c0.51562 0.1875 1.0312 0.28125 1.5938 0.28125 0.09375 0 0.1875-0.046875 0.23438-0.046875-2.1094 44.906-1.875 89.906 0.65625 134.76-1.6406-0.65625-3.6094-1.125-5.9531-1.4531-8.7188-1.2188-17.812-0.75-26.344 1.4062l-1.3125 0.32812c-2.625 0.65625-5.0625 1.3125-7.0312 0.89062-1.0312-0.23438-1.9219-1.2188-2.0156-1.5 0.09375-0.32812 0.9375-1.125 1.4062-1.5938 1.3594-1.3125 3.2344-3.1406 3.9375-5.9531 0.98438-4.0312-1.125-8.5312-5.0156-10.688-2.625-1.5-5.9531-1.9219-9.5625-1.2656-6.8438 1.2188-12.234 5.5312-16.969 9.3281-0.75 0.60938-1.5 1.1719-2.25 1.7812-5.9062 4.5938-10.594 6.3281-14.438 5.3906-0.09375 0-0.1875 0-0.28125-0.046875-1.6406-2.625-3.6094-4.9219-5.9531-6.7969-11.953-9.6562-25.359-5.2031-37.219-1.2656-4.5469 1.5-8.8594 2.9531-13.078 3.7031-14.625 2.5312-30.656-4.9219-38.062-17.812-7.8281-13.547-6.5156-30.797-5.25-47.438l0.09375-1.5c1.4062-18.469 2.3438-40.219-1.5-61.219-4.125-22.734-13.406-42.047-26.859-55.969-4.3125-4.4531-12.188-8.6719-23.391-12.562-3.6094-1.2656-7.4062-1.8281-11.156-1.8281 5.7188-6.75 9.7031-14.062 12.375-20.203 5.5781-12.891 8.25-26.672 10.781-40.031 2.1094-0.89062 4.125-2.0625 5.9531-3.5156 6.5156-5.2969 9.8438-13.641 10.172-25.453 0.42188-13.594-8.25-26.391-26.531-39.047-13.5-9.375-33.891-21.234-54.656-16.031-17.391 4.3594-29.484 19.594-38.344 30.75l-72.609 91.312c-6.2812 7.875-13.359 16.828-17.062 27.375-6.4219 18.422-0.9375 39.75 12.797 53.25-19.5 38.812-29.906 81.328-39.938 122.48-7.7812 31.875-15.844 64.828-13.172 98.625 3.0469 38.484 20.859 75.797 48.797 102.42 23.766 22.641 54.984 37.594 87.516 42.234-9.3281 4.9688-18.516 10.688-27.469 16.312-6.9844 4.3594-14.203 8.8594-21.234 12.844-2.6719 1.5-7.125 4.0312-8.5312 8.9531-11.672 4.125-24.328 9.6094-31.781 20.766-4.875 7.3125-7.2188 16.781-6.75 27.469 0.375 9.1406 2.625 17.859 4.8281 26.297 1.7344 6.75 3.75 14.391 8.0625 20.953 5.2031 7.9219 13.125 12.656 21.094 12.656h0.046875c9.1875 0 18.234-6.4688 23.062-16.453 3.3281-6.8906 4.4531-14.297 5.5312-21.469 0.1875-1.2188 0.375-2.4844 0.5625-3.7031l0.14062-0.89062c0.84375-5.2969 1.5938-9.75 3.5156-13.734l13.453 20.906c0.89062 1.3594 2.3906 2.1562 3.9375 2.1562 0.42188 0 0.84375-0.046875 1.2656-0.1875 33.609-9.375 69.375-18.938 103.97-28.219 14.719-3.9375 29.625-7.9219 44.484-11.953-5.9062 18.094-3.375 31.547 7.4531 38.297 14.203 8.9062 31.172 10.359 46.172 11.672l41.672 3.5625c2.1562 0.1875 4.4531 0.32812 6.8438 0.32812 8.7188 0 18.328-1.875 23.109-10.312 3.4219-6.0938 2.8594-14.438-1.4531-21.234-3.6562-5.7656-9.0938-9.7969-13.922-13.078-6.1406-4.2188-12.094-7.875-17.859-11.438-9.0469-5.625-17.156-10.641-24.141-16.453 10.359-3.0938 21.188-7.0312 30.281-14.016 16.031-12.328 24.984-33.844 24.094-56.062 1.3125-13.078 4.875-56.531-0.65625-90.047-1.875-11.484-4.5938-23.484-11.531-33.609-5.5781-8.1562-13.594-13.875-21.984-16.078 3.7969-4.4062 6.9375-9.2812 9.375-14.484 2.9062 1.6406 5.9531 3.0938 9.0938 4.3594 9.75 3.9375 20.297 5.9531 30.938 5.9531 2.7188 0 5.3906-0.14062 8.1094-0.375 11.016-1.0781 23.062-6.9844 31.5-15.469 3.5625-3.6094 6.2812-8.2031 8.6719-12.75v0.046875l14.625 185.76c-0.60938 0.28125-1.2188 0.60938-1.6875 1.125-1.5 1.6406-3.2344 3.3281-5.1094 5.1094-3.8906 3.75-7.9219 7.6406-10.547 12.047-1.9219 3.2344-2.6719 7.5469-2.0625 11.719 0.14062 0.89062 0.375 1.7812 0.79688 2.8125 2.0156 5.1562 6.1875 9.2344 11.391 11.156 1.5469 0.5625 2.9062 0.84375 4.1719 0.84375h0.09375c2.25 0 4.4062-0.60938 6.3281-1.5938l6.4219 81.703c0.1875 2.4375 2.25 4.3125 4.6875 4.3125h0.375c2.5781-0.1875 4.5-2.4375 4.3125-5.0625l-2.5781-32.625c2.1562 2.5781 5.0156 4.5938 8.25 5.8125 1.5469 0.5625 2.9062 0.84375 4.1719 0.84375h0.09375c4.8281-0.046875 9.3281-2.5312 11.766-6.4688 3.2344-5.25 2.0156-11.625 1.3125-15.469l-3.75-19.5zm-50.156-887.58c0-14.438 11.766-26.203 26.203-26.203s26.203 11.766 26.203 26.203-11.766 26.203-26.203 26.203-26.203-11.766-26.203-26.203zm-311.26 350.26c6.5625-7.4531 23.016-4.5469 38.906-1.7344 11.203 1.9688 22.641 3.9844 32.484 2.9531-2.25 11.484-4.7812 23.156-9.375 33.797-4.0312 9.3281-11.531 21.938-24.281 28.969-14.906 8.1562-34.922 5.8594-48.375-5.4375 0-2.2969-0.046875-4.5938-0.09375-6.8906-0.32812-19.875-0.65625-38.672 10.781-51.656zm-91.359 123.42c0.046875 0.046875 0.09375 0.09375 0.14062 0.09375 8.1094 5.25 17.625 7.7812 27.141 7.7812 12.938 0 25.875-4.7344 35.391-13.828 13.875-13.312 17.25-30.094 17.859-47.484 8.6719 5.3438 18.844 8.1562 28.922 8.1562 3.2812 0 6.5625-0.32812 9.7969-0.9375-0.28125 0.51562-0.5625 1.0312-0.79688 1.5938-2.7188 5.9062-5.4375 11.812-8.2031 17.719-7.6875 16.453-15.703 33.516-21.797 51.094-4.125 11.859-7.3594 24-9.75 36.234l-5.3438 4.5c-12.797 10.781-30 14.25-45.984 9.1875l-49.688-15.656h-0.09375c6.0469-20.062 13.219-39.75 22.453-58.5zm-51.234 214.26c-2.5781-32.297 5.2969-64.5 12.938-95.625 4.125-16.969 8.3438-34.125 13.219-51.188l49.641 15.656c5.7656 1.8281 11.672 2.7188 17.531 2.7188 12.188 0 24.188-3.8906 34.219-11.344-4.3594 30.75-3.4688 62.109 2.9062 92.766 2.2031 10.547 5.3906 22.734 12.469 33 5.7656 8.3438 13.922 15.281 24.797 21.094-22.312 33.844-57.188 55.781-93.469 72.516-10.406 4.7812-21 9.2344-31.641 13.5-24.375-24.797-39.844-58.406-42.609-93.094zm174.05 10.172c4.2188 1.9219 8.8125 3.7031 13.781 5.2969 19.781 6.4688 40.594 9.75 61.406 9.75 6.7969 0 13.594-0.375 20.344-1.0781 3.1406 1.6406 6.5625 3.3281 10.219 5.1094-6.7969 11.203-15.234 21.234-25.125 29.859-19.547 17.109-42.281 26.062-63.984 25.219-23.625-0.9375-45.047-14.531-53.484-33.984 5.8125-4.6406 11.438-9.6094 16.688-15 7.5469-7.6875 14.25-16.172 20.156-25.172zm183.52 167.95c-10.078 7.7344-22.828 11.297-35.203 14.719-33.656 9.375-69.422 18.938-104.06 28.219-33.469 8.9531-68.062 18.234-100.73 27.328l-36.656-56.906c-0.84375-1.3125-2.5781-3.9844-2.1562-5.3438 0.32812-1.2656 2.8125-2.6719 4.1719-3.4219 7.2188-4.0781 14.531-8.625 21.609-13.031 11.953-7.4531 24.281-15.141 36.609-20.812l5.1562-2.3438c1.9688-0.89063 3.0938-3.0469 2.625-5.2031-0.42188-2.1562-2.2969-3.7031-4.4531-3.75-35.297-1.0781-70.219-15.328-96.281-39.188 28.266-11.438 56.766-24.234 81.516-42.234 10.453 21.562 34.406 36.516 60.75 37.547 1.0312 0.046876 2.1094 0.046876 3.1406 0.046876 23.109 0 46.922-9.7031 67.359-27.562 10.828-9.4688 20.016-20.484 27.375-32.766 18.516 9.1406 40.219 20.109 52.734 30.703 13.547 11.391 30.703 30.281 35.812 55.312 0.70312 3.375 1.0781 6.7969 1.2188 10.172v0.28125c0.79688 19.219-6.7969 37.734-20.484 48.234zm9.9375-167.02c5.9062 8.625 8.2969 19.453 10.031 29.859 3.0469 18.609 3.1875 40.5 2.5312 58.219-8.25-18.562-21.797-32.812-33-42.234-14.344-12.094-39-24.234-58.781-33.984-0.79688-0.375-1.5938-0.79688-2.3906-1.1719 7.9219-1.5 15.797-3.4219 23.484-5.9062 14.578-4.6406 26.156-10.5 35.156-17.766 8.25-0.46875 17.203 4.5 22.969 12.984zm-21.703-27.047c-8.5781 9.7031-21.422 17.203-39.281 22.922-37.359 11.953-78.469 11.812-115.73-0.42187-19.312-6.3281-32.438-14.812-40.125-25.922-6.1406-8.9062-9-19.922-11.016-29.578-9.5625-45.938-6.4688-93.703 8.9062-138.05 5.9531-17.156 13.828-33.938 21.422-50.203 2.7656-5.9062 5.5312-11.812 8.25-17.766 2.3438-5.1562 6.4219-9.3281 11.438-11.812l-0.65625-1.3125c0.046875-0.046874 0.09375-0.09375 0.1875-0.09375l0.75 1.3125c5.8594-2.9062 12.797-3.3281 19.031-1.1719 9.5156 3.2812 16.547 6.9375 19.734 10.219 12.141 12.562 20.578 30.234 24.328 51.094 3.6094 19.969 2.7188 40.969 1.3594 58.828l-0.09375 1.5c-1.3125 17.25-2.8125 36.797 6.4688 52.875 9.3281 16.125 29.438 25.547 47.812 22.359 4.9219-0.84375 9.75-2.4844 14.438-4.0312 10.922-3.6562 20.391-6.7969 28.359-0.32813 3.9375 3.1875 5.7188 7.6875 6.5156 10.922 4.2188 16.828-0.375 35.484-12.047 48.703zm100.83-39.516-1.875 3.75c-2.7188 5.4844-5.4844 11.156-9.1875 14.859-6.8438 6.8906-16.922 11.906-25.734 12.75-11.812 1.1719-23.766-0.5625-34.594-4.9219-3.1875-1.3125-6.2812-2.8594-9.1875-4.5938 3.1875-10.641 3.6562-22.031 1.0312-32.859 5.1562-0.42188 10.641-2.8594 16.594-7.5469 0.79688-0.60937 1.5469-1.2188 2.3438-1.8281 4.2656-3.4219 8.2969-6.6094 12.797-7.4531 1.4062-0.23437 2.625-0.1875 3.2812 0.23438 0.1875 0.09375 0.32812 0.28125 0.42188 0.42187-0.23438 0.32813-0.84375 0.9375-1.2656 1.3594-1.2656 1.2188-2.8594 2.7656-3.7031 5.1094-0.9375 2.5312-0.65625 5.3438 0.70312 7.875 1.6406 2.9531 4.7344 5.25 8.1094 6 4.125 0.89063 7.9688-0.09375 11.344-0.9375l1.2188-0.32812c7.3594-1.8281 15.234-2.25 22.781-1.2188 3.7031 0.51562 6.2344 1.6875 6.75 3.1406 0.5625 1.6406-0.98438 4.5938-1.7812 6.2344z"/>
 <path d="m542.16 188.02c0-9.2812-7.5469-16.828-16.828-16.828s-16.828 7.5469-16.828 16.828 7.5469 16.828 16.828 16.828 16.828-7.5469 16.828-16.828z"/>
 <path d="m533.68 964.97c-1.9688-0.32812-3.9375 0.60938-4.875 2.3906-0.65625 1.2188-1.6406 2.7188-2.6719 4.3594-2.8594 4.4531-6.0938 9.5156-7.2656 14.625-1.5938 7.2188 0 13.219 4.4062 16.406 1.9219 1.3594 4.2188 2.0625 6.6094 2.0625 3.2812 0 6.7031-1.3125 9.1875-3.7969 3.2344-3.2344 4.875-8.1562 4.5-13.453-0.28125-4.2188-1.6875-8.1562-2.9531-11.578-0.46875-1.3125-1.0781-2.3906-1.5938-3.375-0.70312-1.3125-1.2656-2.3438-1.5-3.75-0.32812-1.9688-1.875-3.4688-3.8438-3.7969z"/>
 <path d="m555.14 1009.6c-0.98438-2.3906-3.7031-3.5625-6.0938-2.5781-1.7344 0.70312-2.8125 2.2969-2.9062 4.0312-0.46875 0.98438-1.8281 3.2812-5.5312 8.625-0.375 0.5625-0.70312 0.98438-0.84375 1.2188l-0.75 1.125c-2.25 3.375-4.5938 6.8438-5.0625 12.234-0.42188 5.2031 1.0312 10.172 4.0312 13.688 2.7656 3.2344 6.8906 5.0625 10.922 5.0625 1.3594 0 2.7188-0.23438 4.0312-0.65625 4.8281-1.6875 8.5312-6.5156 9.4219-12.281 0.70312-4.6406-0.32812-9.1406-1.3594-12.938-1.5938-5.9062-3.5625-11.812-5.8594-17.484z"/>
 <path d="m493.4 1067.4c-0.32812-1.7344-1.6406-3.1406-3.3281-3.6094s-3.5625 0.046875-4.7344 1.3594c-1.5 1.6406-3.2344 3.3281-5.1094 5.1094-3.8906 3.75-7.9219 7.6406-10.547 12.047-1.9219 3.2344-2.6719 7.5469-2.0625 11.719 0.14062 0.89062 0.375 1.7812 0.79688 2.8125 2.0156 5.1562 6.1875 9.2344 11.391 11.156 1.5469 0.5625 2.9062 0.84375 4.1719 0.84375h0.09375c4.8281-0.046875 9.3281-2.5312 11.766-6.4688 3.2344-5.25 2.0156-11.625 1.3125-15.469z"/>
 <path d="m1099.1 726.98c0.046875 13.172 0.09375 26.766 5.7188 39.234 5.3906 11.906 17.906 22.078 31.125 22.078 2.9062 0 5.8125-0.46875 8.7188-1.5469 9.2812-3.4219 16.453-12.281 19.219-23.719 2.3438-9.6562 1.4531-19.734 0.65625-28.594l-19.453-217.36c0.28125-0.46875 0.60938-0.89062 0.84375-1.3594 5.2969-9.75 4.2188-21.234 2.6719-30.141-7.1719-41.625-30.609-80.156-64.312-105.7-32.203-24.422-75.609-36.75-116.81-33.375-0.89062-3.375-0.46875-7.5469 1.4062-11.672 1.875-4.2188 4.7344-7.9688 7.7812-12 0.1875-0.28125 0.42188-0.5625 0.60938-0.84375 38.859-9.4688 70.688-41.719 79.266-80.484 4.3594-19.734 2.25-38.625-6-53.203-7.8281-13.828-20.812-23.531-32.297-32.109l-27.656-20.672c-14.391-10.781-30.703-23.016-50.25-26.719-17.578-3.375-36.703 0.98438-51.141 11.578s-24.281 27.562-26.344 45.328c-2.9531 25.406 9.1875 49.781 18.938 69.375 0.14062 0.32812 0.32812 0.60938 0.5625 0.84375-2.1094 17.25-4.2188 36.609 0.46875 54.938 5.2031 20.297 18.938 36 35.578 41.109l0.09375 14.625c-29.625-1.6875-61.828 10.359-89.25 33.516-26.766 22.641-46.453 52.922-64.312 81.984-6 9.75-12.141 21.141-9.5156 33 2.0156 9.0938 8.8594 15.891 13.781 20.203 1.4062 1.2188 3.1406 2.5312 5.0625 3.8438-16.922 58.828-37.031 117.38-59.812 174.19-4.6875 11.672-10.078 23.391-20.297 27.844-1.3125 0.5625-2.7656 1.0781-4.3125 1.5938-4.5938 1.5469-9.8438 3.2812-13.172 8.0625-2.2969 3.3281-3.0938 7.5469-2.1562 11.859 0.65625 3 2.1094 5.8594 4.0781 8.2969-1.2188 0.42187-2.3906 0.89062-3.5625 1.5l-6.6094 3.6094c-2.3906-2.0625-4.8281-4.0781-7.3125-6-3.7969-3-8.3438-6.2344-13.875-7.0312-5.625-0.79687-9.8906 1.2656-13.219 4.5l-14.062 3.375c-19.875 4.7812-36.844 16.922-47.812 34.125-12.094 18.938-15.469 42.188-9.2812 63.797l1.3594 4.8281c-1.6406 2.9531-2.2031 6.4219-1.5469 9.7969 0.84375 4.3125 3.5625 7.9688 7.4062 10.031l3.9844 2.1562-33.516 62.531c-0.65625 1.2188-0.75 2.625-0.23438 3.9375 0.51562 1.2656 1.5469 2.25 2.8125 2.7188l16.922 5.9062c0.51562 0.1875 1.0312 0.28125 1.5469 0.28125 1.1719 0 2.3438-0.42188 3.1875-1.2656 20.344-19.031 46.781-30.891 74.531-33.375l9.0938-0.79687c4.125 2.1562 9.5625 4.8281 15.469 4.8281 1.2188 0 2.4375-0.09375 3.7031-0.375 6.75-1.3594 11.484-6.1875 15.281-10.781 8.0156-9.7031 15.375-19.5 21.516-27.797l1.9219-2.5781c7.8281-10.5 16.688-22.406 17.344-36.609 0.14062-3.5156-0.23438-6.9375-0.98438-10.266l4.2188-11.719c20.625-12.516 38.109-33.141 50.766-59.953 11.531-24.422 17.906-50.812 24.047-76.359l34.5-142.64c1.0312 0.046875 2.0156 0.09375 3.0469 0.09375 1.4531 0 2.8594-0.09375 4.2656-0.1875l-9.1875 33.797c-3.5156 12.984-5.7188 26.344 1.4062 36.562l-87 477.24c-0.23438 1.2656 0.046875 2.5312 0.79688 3.5625s1.875 1.7344 3.1406 1.9219l39.141 5.6719-24.562 24.094c-11.297 11.062-11.578 29.391-0.65625 40.875 5.4844 5.7188 13.125 9 21.047 9h56.484c15.891 0 29.672-10.219 34.266-25.453l10.406-34.406 11.391 1.6406c0.23438 0.046874 0.46875 0.046874 0.65625 0.046874 2.25 0 4.2656-1.6406 4.6406-3.9844l59.109-378.52 36.328 378.24c0.23438 2.3906 2.25 4.2188 4.6875 4.2188h21.609l9.8906 32.719c4.5938 15.234 18.375 25.453 34.266 25.453h56.484c7.9219 0 15.562-3.2812 21.047-9 10.922-11.438 10.641-29.766-0.65625-40.875l-8.4375-8.2969h5.4844c1.3594 0 2.6719-0.60938 3.5625-1.6406s1.2656-2.4375 1.0312-3.7969l-81.656-491.34c3.1875-4.5938 4.6875-10.406 3.7031-16.359l-3.0938-18.984c19.5 43.641 29.953 91.172 30.328 139.03v4.3125zm-473.9 34.781c-0.79687 1.6875-1.5 3.2812-2.2031 4.5469-6.0938 11.156-12.609 22.219-19.453 32.906-9.9375 15.562-20.766 30.656-32.25 45.141-4.6875-18.469-1.5938-38.109 8.6719-54.234 9.6562-15.188 24.609-25.828 42.141-30.047l4.3594-1.0312c-0.46875 0.9375-0.89063 1.875-1.2656 2.7188zm266.68-473.26c-4.0781-15.984-2.4844-32.906-0.51562-49.406 17.25-0.42187 35.25 0 52.688 0.32813 8.7656 0.1875 17.531 0.375 26.25 0.46875 7.125 0.09375 13.688 3.375 18.047 9 4.4062 5.7188 5.9531 13.031 4.1719 20.109-4.0781 16.266-11.391 31.828-21.141 45.094-0.75 0.98438-1.5 2.0156-2.25 3-3.2344 4.2656-6.5625 8.6719-8.8594 13.875-2.3906 5.4375-3.1875 10.922-2.3438 15.844-4.7812 0.046876-9.4688 0.046876-14.062 0-2.625 0-5.2969-0.046874-8.0156-0.046874-2.625 0-5.25 0-7.9688 0.046874l-0.14062-18.609c0-2.2031-1.5938-4.125-3.75-4.5469-18-3.7031-28.547-21.281-32.109-35.203zm-166.03 506.72-6.8438 18.984c-0.89062 0.9375-1.3594 2.25-1.2656 3.5156l-0.14062 0.375c-1.1719-2.3438-2.3906-4.6406-3.6094-6.7969-10.125-17.859-23.156-34.359-38.203-48.562l3.7031-2.0156c4.0312-2.2031 8.9062-1.9688 12.75 0.60938l28.922 19.547c4.6406 3.1406 6.5625 9.0469 4.6875 14.297zm66.703-113.53c-6.0469 25.078-12.328 51-23.438 74.578-9.6094 20.438-22.172 36.984-36.75 48.656l2.3438-6.5625c3.3281-9.3281-0.046875-19.688-8.25-25.266l-19.453-13.172h0.28125c2.5781-0.046875 4.6875-2.1562 4.6406-4.7344s-2.1094-4.6406-4.6875-4.6406h-0.046875c-7.5 0.09375-13.594-0.09375-18.422-2.9531-2.4844-1.4531-4.4531-4.2188-5.0625-6.9844-0.28125-1.2188-0.375-3.0469 0.70312-4.5469 1.5469-2.25 4.7344-3.2812 8.4375-4.5 1.6875-0.5625 3.4219-1.125 5.1094-1.875 13.5-5.8594 20.109-20.062 25.266-32.953 22.547-56.25 42.516-114.28 59.391-172.55 12.141 6.7969 28.641 13.453 44.156 15.984l-34.219 141.47zm347.11 424.69h-129.89l-39.469-411c-0.23438-2.3438-2.1562-4.1719-4.5469-4.2188-2.3438-0.046875-4.4062 1.6406-4.7812 3.9375l-64.172 410.68-138.14-20.062 85.031-466.69c4.5 2.6719 9.6562 4.2656 14.344 5.5312 34.312 9.2344 69.75 13.875 105.23 13.875 30.75 0 61.5-3.4688 91.547-10.453 1.7344-0.42188 3.375-1.0312 4.875-1.7812l79.828 480.19zm-75-552.19c-0.09375-0.14062-0.14062-0.28125-0.23438-0.46875-0.1875-0.32812-0.42188-0.60938-0.65625-0.89062l-16.781-103.5c-0.42188-2.5781-2.8125-4.3125-5.3906-3.8906s-4.3125 2.8125-3.8906 5.3906l24.844 153.24c1.0781 6.75-3.1875 13.219-9.75 14.719-63.281 14.672-129.74 13.5-192.24-3.375-6.2812-1.6875-12.703-3.7031-16.406-8.1562-6-7.125-3.9844-18.562-0.89062-29.906l32.766-120.74c0.65625-2.4844-0.79688-5.0625-3.2812-5.7656-2.4844-0.65625-5.0625 0.79688-5.7656 3.2812l-20.953 77.203c-17.625 3.0469-45.328-7.2188-61.594-16.922-0.51562-1.3594-1.5938-2.4375-3.0938-2.8594-0.5625-0.14063-1.0781-0.1875-1.6406-0.14063-1.6406-1.125-3.0938-2.25-4.3125-3.2812-3.9375-3.4688-9.375-8.7656-10.828-15.188-1.875-8.4844 3.0938-17.531 8.3438-26.062 18.188-29.578 36.656-57.938 62.391-79.734 27.047-22.875 58.922-34.125 87.375-30.938h0.23438c0.09375 0 0.1875 0.046874 0.28125 0.046874h0.14062c6.9375-0.1875 13.828-0.14062 20.438-0.14062 6.7031 0.046874 13.641 0.09375 20.766-0.14063h0.32812c39.938-4.125 82.453 7.5938 113.72 31.266 31.828 24.094 53.953 60.516 60.75 99.844 1.2656 7.4062 2.25 16.875-1.6406 24.094-3.4219 6.2812-9.9375 10.359-18.094 15l-1.7812 1.0312c-16.031 9.1406-32.578 18.562-53.156 26.953zm57.797-18.797 1.7812-1.0312c3.8906-2.2031 8.25-4.7344 12.234-7.875l18.703 208.78c0.75 8.5781 1.5469 17.391-0.42188 25.547-1.5938 6.4688-5.9062 14.391-13.359 17.156-10.734 3.9375-23.203-4.875-28.078-15.609-4.8281-10.594-4.875-23.203-4.875-35.391v-4.4062c-0.46875-55.547-14.062-110.62-39.375-160.03 20.719-8.5312 37.312-17.953 53.391-27.141z"/>
</svg>
