<?xml version="1.0" encoding="UTF-8"?>
<svg width="100pt" height="100pt" version="1.1" viewBox="0 0 100 100" xmlns="http://www.w3.org/2000/svg">
 <path d="m50.262 46.051c5.4219 0 10.312-3.2695 12.387-8.2773 2.0781-5.0117 0.92969-10.781-2.9062-14.617-3.8359-3.832-9.6016-4.9805-14.613-2.9062-5.0117 2.0781-8.2773 6.9648-8.2773 12.391 0.003907 7.4023 6.0039 13.402 13.41 13.41zm0-26.219v-0.003906c5.1797 0 9.8516 3.1211 11.832 7.9102 1.9844 4.7852 0.88672 10.297-2.7773 13.961-3.6602 3.6641-9.1719 4.7578-13.957 2.7773-4.7891-1.9844-7.9102-6.6562-7.9102-11.836 0.007812-7.0742 5.7383-12.805 12.812-12.812zm12 41.41c0.35938 1.2305 3.5 12.078 3.3281 13.699-0.003906 0.11328-0.003906 0.22656 0 0.33984-0.10938 1.6992-0.33984 5.4883-11.328 5.4883-1.0664 0-2.2461-0.039062-3.5391-0.12109h-0.003906c-0.039062-0.089844-0.12891-0.15234-0.23047-0.15234-0.097656 0-0.1875 0.0625-0.22656 0.15234-1.293 0.078124-2.4727 0.12109-3.5391 0.12109-11 0-11.219-3.7891-11.328-5.4883h-0.003906c0.003906-0.11328 0.003906-0.22656 0-0.33984-0.17188-1.6211 3-12.469 3.3281-13.699v-0.003907c0.050781-0.15625 0.21094-0.24609 0.37109-0.20703 0.16016 0.050781 0.25 0.21484 0.21094 0.37891-1 3.3086-3.4492 12.199-3.3203 13.469 0.003906 0.12109 0.003906 0.24219 0 0.35938 0.10938 1.6914 0.35156 5.6484 14.238 4.8086v0.003906c0.0625 0.082031 0.15625 0.13281 0.26172 0.13281 0.10156 0 0.19922-0.050782 0.25781-0.13281 13.879 0.83984 14.129-3.1211 14.238-4.8086l0.003907-0.003907c-0.007813-0.11719-0.007813-0.23828 0-0.35938 0.12891-1.2695-2.3516-10.16-3.3203-13.469-0.039062-0.16406 0.050782-0.32812 0.21094-0.37891 0.082031-0.035156 0.17578-0.03125 0.25781 0.007812 0.078125 0.039063 0.14062 0.11328 0.16016 0.19922zm8.2617 10.809c0 2.2109-2.4883 3-3.7695 3.1016l-0.003906-0.003906c-0.078125 0.011718-0.15625-0.015626-0.21875-0.066407-0.058594-0.050781-0.097656-0.125-0.10156-0.20312-0.007813-0.078125 0.015624-0.16016 0.066406-0.21875 0.050781-0.0625 0.125-0.10156 0.20312-0.10938 0 0 3.1992-0.28906 3.3008-2.5508 0-0.21875 0.26953-22.051-19.23-23.422h-0.46094c-19.527 1.4219-19.309 23.23-19.258 23.422 0.050781 2.2305 3.1914 2.5195 3.2188 2.5195 0.082031 0.007813 0.15234 0.046875 0.20312 0.10938 0.050782 0.0625 0.074219 0.14062 0.066406 0.22266-0.015624 0.15234-0.14453 0.26953-0.30078 0.26953-1.2812-0.10938-3.7188-0.89062-3.7695-3.1016 0-0.23047-0.28125-22.629 19.781-24h0.51172c20.066 1.4023 19.797 23.801 19.789 24.031zm-30.262 3.8711c0.92969 0.66016 11.078 1.8789 17.121 0.66016 1.8516-0.37109 3.0586-1 3.5117-1.6797l-0.003906-0.003906c1.3086-2.0039 1.7656-4.4453 1.2695-6.7891-0.035156-0.078125-0.035156-0.16797 0-0.24609s0.10547-0.14062 0.1875-0.16406c0.082032-0.023438 0.17188-0.011719 0.24609 0.035156s0.12109 0.12109 0.13672 0.20703c0.56641 2.5039 0.085937 5.1367-1.332 7.2773-0.53906 0.87891-1.8594 1.5391-3.8984 2-2.1719 0.37891-4.375 0.55469-6.5781 0.51953-5 0-10.121-0.64844-11-1.2812-1.5508-1.0898-1.8398-3.7305-1.8516-3.8398v0.003906c-0.011718-0.16406 0.10547-0.30859 0.26953-0.33203 0.078125-0.007812 0.16016 0.015626 0.22266 0.066407s0.10156 0.125 0.10938 0.20312c0 0 0.26953 2.4414 1.5898 3.3633zm-14.934-31.633c3.5898-0.003906 6.8203-2.168 8.1914-5.4805 1.3672-3.3164 0.60547-7.1289-1.9297-9.6641-2.5391-2.5352-6.3516-3.293-9.668-1.918-3.3125 1.375-5.4727 4.6055-5.4727 8.1953 0.007812 4.8984 3.9805 8.8672 8.8789 8.8672zm0-17.141c3.3477 0.003906 6.3594 2.0234 7.6367 5.1133 1.2773 3.0898 0.56641 6.6445-1.8008 9.0078-2.3672 2.3633-5.9219 3.0703-9.0117 1.7891s-5.1016-4.293-5.1016-7.6367c0.003907-4.5703 3.7109-8.2734 8.2773-8.2734zm0.30078 42.289v0.003906c0.007813 0.16797-0.12109 0.30859-0.28906 0.32031-1 0.058593-1.8398 0.078125-2.6484 0.078125-6.8086 0-7.9219-2-8-4v-0.23828c-0.12891-1.1719 2.1211-8.9219 2.3789-9.8008 0.046876-0.15625 0.21094-0.25 0.37109-0.21094 0.074219 0.019531 0.14062 0.070312 0.17969 0.14062 0.035156 0.070312 0.042968 0.15234 0.019531 0.23047-1 3.4219-2.4414 8.7812-2.3594 9.5781 0.003906 0.085938 0.003906 0.17578 0 0.26172 0.078125 1.1914 0.25 4 10.07 3.3594 0.15234 0.003906 0.27344 0.12891 0.27734 0.28125zm-11.43-3.8789c-0.015625 0.15625-0.14453 0.27344-0.30078 0.26953-0.94141-0.078125-2.7305-0.66016-2.7695-2.3008 0-0.16016-0.19922-16.219 14.191-17.23h0.37109v0.003906c3.5898 0.125 6.9922 1.625 9.5078 4.1875 0.058593 0.058594 0.089843 0.13672 0.089843 0.21484 0 0.082031-0.03125 0.16016-0.089843 0.21875-0.11719 0.11328-0.30078 0.11328-0.41797 0-2.4102-2.4531-5.668-3.8828-9.1016-4h-0.32031c-13.82 1-13.629 16.461-13.621 16.621 0 1.5117 2.1289 1.6992 2.2188 1.7109l0.003907-0.003906c0.14062 0.035156 0.24219 0.16406 0.23828 0.30859zm6.5-11.441c-1.5195 2.3711-2.1484 5.75-1.3984 7.5312 0.66016 1.6367 2.2891 2.6719 4.0508 2.5703h4.2695c0.27344 0.027344 0.54688 0.027344 0.82031 0 0.082032-0.019531 0.17188-0.007812 0.24219 0.042969 0.070312 0.046875 0.11719 0.12109 0.12891 0.20703s-0.011719 0.17188-0.070312 0.23828c-0.054688 0.0625-0.13672 0.10156-0.22266 0.10156-0.22266 0.015625-0.44531 0.015625-0.66797 0h-4.4727c-2.0117 0.10938-3.8711-1.0703-4.6289-2.9375-0.82812-2-0.19922-5.5195 1.4414-8.0781v-0.003907c1.0781-1.9531 3.0703-3.2305 5.2969-3.3984 3.5312 0.10938 5.7383 3.3203 6.6406 6.2891 0.039063 0.16016-0.050781 0.32031-0.20703 0.37109-0.078125 0.023438-0.16016 0.015625-0.23047-0.019531-0.070312-0.039062-0.12109-0.10547-0.14062-0.17969-0.83984-2.7617-2.8711-5.7617-6.0586-5.8594l-0.003907-0.003907c-2.0156 0.17969-3.8125 1.3555-4.7891 3.1328zm5.5898 13.23v0.003906c0 0.16406-0.13281 0.29688-0.30078 0.29688h-0.14062c-3.3711 0-7.2812-0.46094-8-0.92969h0.003906c-0.77344-0.74219-1.2539-1.7422-1.3516-2.8086-0.015625-0.16406 0.10547-0.3125 0.26953-0.33203 0.16797-0.015625 0.3125 0.10547 0.33203 0.27344 0.078126 0.89453 0.46875 1.7344 1.0977 2.3789 0.41016 0.28906 3.7891 0.82031 7.5781 0.82031h0.22266c0.16016 0.003907 0.28906 0.13672 0.28906 0.30078zm48-23.059c3.5859-0.003906 6.8203-2.168 8.1875-5.4805 1.3711-3.3164 0.60938-7.1289-1.9297-9.6641-2.5352-2.5352-6.3516-3.293-9.6641-1.918s-5.4727 4.6055-5.4727 8.1953c0.003906 2.3594 0.94531 4.6211 2.6172 6.2852 1.6758 1.6641 3.9414 2.5938 6.3008 2.582zm0-17.141c3.3438 0.003906 6.3555 2.0234 7.6328 5.1133 1.2773 3.0898 0.56641 6.6445-1.7969 9.0078-2.3672 2.3633-5.9219 3.0703-9.0117 1.7891-3.0898-1.2812-5.1016-4.293-5.1016-7.6367 0-2.2031 0.87891-4.3125 2.4414-5.8633 1.5625-1.5547 3.6758-2.418 5.875-2.4102zm-34 4c0-4.6914 4.4688-8.5 10-8.5s10 3.8086 10 8.5c0 4.6914-4.4688 8.5-10 8.5-5.5273 0-10-3.7969-10-8.4766zm0.85938 38.52c-1.1484-2.668-0.26953-7.668 2.0117-11.199 1.8789-2.9414 4.4805-4.6211 7.3281-4.7109 2.8711 0.089844 5.4688 1.7695 7.3516 4.7109 2.2812 3.5312 3.1602 8.5312 2.0117 11.223-1.0703 2.5508-3.6289 4.1523-6.3906 4h-6.2227c-2.6562 0.039063-5.0703-1.5469-6.0898-4zm-22.449-35.207c0-3.1211 3-5.6602 6.6289-5.6602 3.6328 0 6.6719 2.5391 6.6719 5.6602 0 3.1211-3 5.6602-6.6211 5.6602-3.6172 0-6.6797-2.543-6.6797-5.6602zm49 0c0-3.1211 3-5.6602 6.6289-5.6602 3.6328 0 6.6719 2.5391 6.6719 5.6602 0 3.1211-3 5.6602-6.6211 5.6602-3.6172 0-6.6797-2.543-6.6797-5.6602zm15.301 21.34c0.26172 0.87891 2.5117 8.6289 2.3789 9.8008v0.23828c-0.12891 2-1.25 4-8 4-0.80859 0-1.6914 0-2.6484-0.078125-0.16797-0.011719-0.29688-0.15234-0.28906-0.32031-0.003906-0.082031 0.03125-0.16016 0.09375-0.21484 0.0625-0.054687 0.14453-0.078124 0.22656-0.066406 9.8203 0.58984 10-2.1719 10.07-3.3594h-0.003906c-0.003906-0.085937-0.003906-0.17578 0-0.26172 0.078125-0.80078-1.3711-6.1602-2.3594-9.5781-0.023438-0.078126-0.015625-0.16016 0.023438-0.23047 0.035156-0.070313 0.10156-0.12109 0.17969-0.14062 0.14453-0.019532 0.28516 0.066406 0.32812 0.21094zm5.8984 7.7305c0 1.6406-1.8281 2.2188-2.7695 2.3008v-0.003906c-0.15234 0.003906-0.28516-0.11328-0.30078-0.26953-0.011719-0.16406 0.10938-0.30859 0.27344-0.32812 0.089844 0 2.1914-0.19922 2.2188-1.7109 0-0.16016 0.19922-15.648-13.641-16.621h-0.32031c-3.7773 0.125-7.3203 1.8555-9.7383 4.7617-0.11719 0.11328-0.30469 0.11328-0.42188 0-0.058594-0.054687-0.089844-0.12891-0.089844-0.21094 0-0.078125 0.03125-0.15625 0.089844-0.21094 2.5156-3.0508 6.2266-4.8711 10.18-5h0.35938c14.352 1.0703 14.16 17.133 14.152 17.293zm-12.301 1.2891h-4 0.003906c-0.16797 0-0.30078-0.13281-0.30078-0.30078 0.003907-0.16406 0.13672-0.29297 0.30078-0.30078h4c1.7734 0.12109 3.4219-0.91797 4.0781-2.5703 0.75-1.7812 0.12109-5.1602-1.3984-7.5312v0.003906c-0.98047-1.7734-2.7734-2.9414-4.793-3.1211-3.3711 0.10938-5.0781 3.3906-5.6602 4.8008-0.0625 0.15234-0.23828 0.22656-0.39453 0.16406-0.15234-0.0625-0.22656-0.23828-0.16406-0.39453 1.3203-3.1992 3.5898-5.0781 6.2188-5.1719 2.2344 0.16406 4.2344 1.4453 5.3203 3.4023 1.6406 2.5586 2.2695 6.1094 1.4414 8.0781-0.73438 1.8008-2.4961 2.9727-4.4414 2.9492zm-1.7969 2.8281h-1.8203c-0.082031-0.003907-0.15625-0.039063-0.20703-0.10156-0.050782-0.058594-0.078126-0.13672-0.074219-0.21875-0.015625-0.085937 0.011719-0.17188 0.070312-0.23828 0.058594-0.0625 0.14453-0.097656 0.23047-0.089844 4.75 0.19922 8.1406-0.37109 8.8281-1.4883 0.91406-1.4141 1.2383-3.125 0.90234-4.7734-0.023438-0.074219-0.019531-0.15625 0.019531-0.22656 0.039062-0.070313 0.10156-0.12109 0.17969-0.14062 0.074218-0.027344 0.16016-0.019532 0.22656 0.019531 0.070312 0.039063 0.12109 0.10156 0.14453 0.17969 0.39453 1.8164 0.035157 3.7148-1 5.2578-0.89062 1.5312-4.7422 1.8203-7.5 1.8203z"/>
</svg>
