<?xml version="1.0" encoding="UTF-8"?>
<svg width="3600pt" height="3600pt" version="1.1" viewBox="0 0 3600 3600" xmlns="http://www.w3.org/2000/svg">
 <path d="m1809.4 1657.8c195.19 0 371.23-117.7 445.93-297.98 74.812-180.42 33.469-388.12-104.62-526.21-138.09-137.95-345.66-179.3-526.07-104.62-180.42 74.812-297.98 250.73-297.98 446.07 0.14062 266.48 216.14 482.47 482.76 482.76zm0-943.88v-0.14062c186.47 0 354.66 112.36 425.95 284.77 71.438 172.27 31.922 370.69-99.984 502.6-131.77 131.91-330.19 171.28-502.45 99.984-172.41-71.438-284.77-239.62-284.77-426.1 0.28125-254.67 206.58-460.98 461.23-461.23zm432 1490.8c12.938 44.297 126 434.81 119.81 493.16-0.14062 4.0781-0.14062 8.1562 0 12.234-3.9375 61.172-12.234 197.58-407.81 197.58-38.391 0-80.859-1.4062-127.41-4.3594h-0.14062c-1.4062-3.2344-4.6406-5.4844-8.2969-5.4844-3.5156 0-6.75 2.25-8.1562 5.4844-46.547 2.8125-89.016 4.3594-127.41 4.3594-396 0-403.88-136.41-407.81-197.58h-0.14062c0.14062-4.0781 0.14062-8.1562 0-12.234-6.1875-58.359 108-448.88 119.81-493.16v-0.14062c1.8281-5.625 7.5938-8.8594 13.359-7.4531 5.7656 1.8281 9 7.7344 7.5938 13.641-36 119.11-124.17 439.16-119.53 484.88 0.14062 4.3594 0.14062 8.7188 0 12.938 3.9375 60.891 12.656 203.34 512.57 173.11v0.14062c2.25 2.9531 5.625 4.7812 9.4219 4.7812 3.6562 0 7.1719-1.8281 9.2812-4.7812 499.64 30.234 508.64-112.36 512.57-173.11l0.14062-0.14062c-0.28125-4.2188-0.28125-8.5781 0-12.938 4.6406-45.703-84.656-365.76-119.53-484.88-1.4062-5.9062 1.8281-11.812 7.5938-13.641 2.9531-1.2656 6.3281-1.125 9.2812 0.28125 2.8125 1.4062 5.0625 4.0781 5.7656 7.1719zm297.42 389.12c0 79.594-89.578 108-135.7 111.66l-0.14062-0.14062c-2.8125 0.42188-5.625-0.5625-7.875-2.3906-2.1094-1.8281-3.5156-4.5-3.6562-7.3125-0.28125-2.8125 0.5625-5.7656 2.3906-7.875 1.8281-2.25 4.5-3.6562 7.3125-3.9375 0 0 115.17-10.406 118.83-91.828 0-7.875 9.7031-793.84-692.28-843.19h-16.594c-702.97 51.188-695.12 836.28-693.29 843.19 1.8281 80.297 114.89 90.703 115.88 90.703 2.9531 0.28125 5.4844 1.6875 7.3125 3.9375s2.6719 5.0625 2.3906 8.0156c-0.5625 5.4844-5.2031 9.7031-10.828 9.7031-46.125-3.9375-133.88-32.062-135.7-111.66 0-8.2969-10.125-814.64 712.12-864h18.422c722.38 50.484 712.69 856.84 712.4 865.12zm-1089.4 139.36c33.469 23.766 398.81 67.641 616.36 23.766 66.656-13.359 110.11-36 126.42-60.469l-0.14062-0.14062c47.109-72.141 63.562-160.03 45.703-244.41-1.2656-2.8125-1.2656-6.0469 0-8.8594s3.7969-5.0625 6.75-5.9062 6.1875-0.42188 8.8594 1.2656 4.3594 4.3594 4.9219 7.4531c20.391 90.141 3.0938 184.92-47.953 261.98-19.406 31.641-66.938 55.406-140.34 72-78.188 13.641-157.5 19.969-236.81 18.703-180 0-364.36-23.344-396-46.125-55.828-39.234-66.234-134.3-66.656-138.23v0.14062c-0.42188-5.9062 3.7969-11.109 9.7031-11.953 2.8125-0.28125 5.7656 0.5625 8.0156 2.3906s3.6562 4.5 3.9375 7.3125c0 0 9.7031 87.891 57.234 121.08zm-537.62-1138.8c129.23-0.14062 245.53-78.047 294.89-197.3 49.219-119.39 21.797-256.64-69.469-347.91-91.406-91.266-228.66-118.55-348.05-69.047-119.25 49.5-197.02 165.8-197.02 295.03 0.28125 176.34 143.3 319.22 319.64 319.22zm0-617.07c120.52 0.14062 228.94 72.844 274.92 184.08 45.984 111.23 20.391 239.2-64.828 324.28-85.219 85.078-213.19 110.53-324.42 64.406s-183.66-154.55-183.66-274.92c0.14062-164.53 133.59-297.84 297.98-297.84zm10.828 1522.4v0.14062c0.28125 6.0469-4.3594 11.109-10.406 11.531-36 2.1094-66.234 2.8125-95.344 2.8125-245.11 0-285.19-72-288-144v-8.5781c-4.6406-42.188 76.359-321.19 85.641-352.83 1.6875-5.625 7.5938-9 13.359-7.5938 2.6719 0.70312 5.0625 2.5312 6.4688 5.0625 1.2656 2.5312 1.5469 5.4844 0.70312 8.2969-36 123.19-87.891 316.12-84.938 344.81 0.14062 3.0938 0.14062 6.3281 0 9.4219 2.8125 42.891 9 144 362.52 120.94 5.4844 0.14062 9.8438 4.6406 9.9844 10.125zm-411.48-139.64c-0.5625 5.625-5.2031 9.8438-10.828 9.7031-33.891-2.8125-98.297-23.766-99.703-82.828 0-5.7656-7.1719-583.88 510.88-620.28h13.359v0.14062c129.23 4.5 251.72 58.5 342.28 150.75 2.1094 2.1094 3.2344 4.9219 3.2344 7.7344 0 2.9531-1.125 5.7656-3.2344 7.875-4.2188 4.0781-10.828 4.0781-15.047 0-86.766-88.312-204.05-139.78-327.66-144h-11.531c-497.52 36-490.64 592.6-490.36 598.36 0 54.422 76.641 61.172 79.875 61.594l0.14063-0.14062c5.0625 1.2656 8.7188 5.9062 8.5781 11.109zm234-411.88c-54.703 85.359-77.344 207-50.344 271.12 23.766 58.922 82.406 96.188 145.83 92.531h153.7c9.8438 0.98438 19.688 0.98438 29.531 0 2.9531-0.70312 6.1875-0.28125 8.7188 1.5469 2.5312 1.6875 4.2188 4.3594 4.6406 7.4531s-0.42188 6.1875-2.5312 8.5781c-1.9688 2.25-4.9219 3.6562-8.0156 3.6562-8.0156 0.5625-16.031 0.5625-24.047 0h-161.02c-72.422 3.9375-139.36-38.531-166.64-105.75-29.812-72-7.1719-198.7 51.891-290.81v-0.14062c38.812-70.312 110.53-116.3 190.69-122.34 127.12 3.9375 206.58 119.53 239.06 226.41 1.4062 5.7656-1.8281 11.531-7.4531 13.359-2.8125 0.84375-5.7656 0.5625-8.2969-0.70312-2.5312-1.4062-4.3594-3.7969-5.0625-6.4688-30.234-99.422-103.36-207.42-218.11-210.94l-0.14062-0.14062c-72.562 6.4688-137.25 48.797-172.41 112.78zm201.23 476.28v0.14062c0 5.9062-4.7812 10.688-10.828 10.688h-5.0625c-121.36 0-262.12-16.594-288-33.469h0.14062c-27.844-26.719-45.141-62.719-48.656-101.11-0.5625-5.9062 3.7969-11.25 9.7031-11.953 6.0469-0.5625 11.25 3.7969 11.953 9.8438 2.8125 32.203 16.875 62.438 39.516 85.641 14.766 10.406 136.41 29.531 272.81 29.531h8.0156c5.7656 0.14062 10.406 4.9219 10.406 10.828zm1728-830.12c129.09-0.14062 245.53-78.047 294.75-197.3 49.359-119.39 21.938-256.64-69.469-347.91-91.266-91.266-228.66-118.55-347.91-69.047s-197.02 165.8-197.02 295.03c0.14062 84.938 34.031 166.36 94.219 226.27 60.328 59.906 141.89 93.375 226.83 92.953zm0-617.07c120.38 0.14062 228.8 72.844 274.78 184.08 45.984 111.23 20.391 239.2-64.688 324.28-85.219 85.078-213.19 110.53-324.42 64.406s-183.66-154.55-183.66-274.92c0-79.312 31.641-155.25 87.891-211.08 56.25-55.969 132.33-87.047 211.5-86.766zm-1224 144c0-168.89 160.88-306 360-306s360 137.11 360 306c0 168.89-160.88 306-360 306-198.98 0-360-136.69-360-305.16zm30.938 1386.7c-41.344-96.047-9.7031-276.05 72.422-403.16 67.641-105.89 161.3-166.36 263.81-169.59 103.36 3.2344 196.88 63.703 264.66 169.59 82.125 127.12 113.77 307.12 72.422 404.03-38.531 91.828-130.64 149.48-230.06 144h-224.02c-95.625 1.4062-182.53-55.688-219.23-144zm-808.16-1267.5c0-112.36 108-203.77 238.64-203.77 130.78 0 240.19 91.406 240.19 203.77 0 112.36-108 203.77-238.36 203.77-130.22 0-240.47-91.547-240.47-203.77zm1764 0c0-112.36 108-203.77 238.64-203.77 130.78 0 240.19 91.406 240.19 203.77 0 112.36-108 203.77-238.36 203.77-130.22 0-240.47-91.547-240.47-203.77zm550.84 768.24c9.4219 31.641 90.422 310.64 85.641 352.83v8.5781c-4.6406 72-45 144-288 144-29.109 0-60.891 0-95.344-2.8125-6.0469-0.42188-10.688-5.4844-10.406-11.531-0.14062-2.9531 1.125-5.7656 3.375-7.7344s5.2031-2.8125 8.1562-2.3906c353.53 21.234 360-78.188 362.52-120.94h-0.14063c-0.14062-3.0938-0.14062-6.3281 0-9.4219 2.8125-28.828-49.359-221.77-84.938-344.81-0.84375-2.8125-0.5625-5.7656 0.84375-8.2969 1.2656-2.5312 3.6562-4.3594 6.4688-5.0625 5.2031-0.70312 10.266 2.3906 11.812 7.5938zm212.34 278.3c0 59.062-65.812 79.875-99.703 82.828v-0.14062c-5.4844 0.14062-10.266-4.0781-10.828-9.7031-0.42188-5.9062 3.9375-11.109 9.8438-11.812 3.2344 0 78.891-7.1719 79.875-61.594 0-5.7656 7.1719-563.33-491.07-598.36h-11.531c-135.98 4.5-263.53 66.797-350.58 171.42-4.2188 4.0781-10.969 4.0781-15.188 0-2.1094-1.9688-3.2344-4.6406-3.2344-7.5938 0-2.8125 1.125-5.625 3.2344-7.5938 90.562-109.83 224.16-175.36 366.48-180h12.938c516.67 38.531 509.76 616.79 509.47 622.55zm-442.84 46.406h-144 0.14062c-6.0469 0-10.828-4.7812-10.828-10.828 0.14062-5.9062 4.9219-10.547 10.828-10.828h144c63.844 4.3594 123.19-33.047 146.81-92.531 27-64.125 4.3594-185.77-50.344-271.12v0.14062c-35.297-63.844-99.844-105.89-172.55-112.36-121.36 3.9375-182.81 122.06-203.77 172.83-2.25 5.4844-8.5781 8.1562-14.203 5.9062-5.4844-2.25-8.1562-8.5781-5.9062-14.203 47.531-115.17 129.23-182.81 223.88-186.19 80.438 5.9062 152.44 52.031 191.53 122.48 59.062 92.109 81.703 219.94 51.891 290.81-26.438 64.828-89.859 107.02-159.89 106.17zm-64.688 101.81h-65.531c-2.9531-0.14062-5.625-1.4062-7.4531-3.6562-1.8281-2.1094-2.8125-4.9219-2.6719-7.875-0.5625-3.0938 0.42188-6.1875 2.5312-8.5781 2.1094-2.25 5.2031-3.5156 8.2969-3.2344 171 7.1719 293.06-13.359 317.81-53.578 32.906-50.906 44.578-112.5 32.484-171.84-0.84375-2.6719-0.70312-5.625 0.70312-8.1562s3.6562-4.3594 6.4688-5.0625c2.6719-0.98438 5.7656-0.70312 8.1562 0.70312 2.5312 1.4062 4.3594 3.6562 5.2031 6.4688 14.203 65.391 1.2656 133.73-36 189.28-32.062 55.125-170.72 65.531-270 65.531z"/>
</svg>
