<svg xmlns="http://www.w3.org/2000/svg" viewBox="0 0 120 120" role="img" aria-labelledby="title desc">
  <title id="title">Research and Conservation icon</title>
  <desc id="desc">Stylized flask with a leaf inside and sparkles around it.</desc>
  <rect width="120" height="120" rx="18" fill="#f6fff6" />
  <path d="M46 18h28" stroke="#2f6f31" stroke-width="5" stroke-linecap="round" />
  <path d="M52 18v18l-18 28c-6 10 2 22 14 22h32c12 0 20-12 14-22L76 36V18" fill="#ffffff" stroke="#3c8d40" stroke-width="4" stroke-linejoin="round" />
  <path d="M60 50c-6 8-6 16-2 22 6-3 12-8 14-14 1-4-1-8-6-8-2 0-4 0-6 0z" fill="#8dd695" stroke="#2f6f31" stroke-width="3" stroke-linejoin="round" />
  <circle cx="44" cy="46" r="3" fill="#3c8d40" />
  <circle cx="82" cy="46" r="3" fill="#3c8d40" />
  <circle cx="50" cy="34" r="2.5" fill="#2f6f31" />
  <circle cx="70" cy="32" r="2.5" fill="#2f6f31" />
</svg>
