<?xml version="1.0" encoding="UTF-8"?>
<svg width="1200pt" height="1200pt" version="1.1" viewBox="0 0 1200 1200" xmlns="http://www.w3.org/2000/svg">
 <path d="m574.56 1076.6s-0.11719 0 0 0v16.199c4.4414 0 8.0391-3.6016 8.0391-8.0391 0.003906-4.4414-3.7188-8.1602-8.0391-8.1602z"/>
 <path d="m574.56 1002.2s-0.11719 0 0 0v16.199c4.4414 0 8.0391-3.6016 8.0391-8.0391 0.003906-4.4375-3.7188-8.1602-8.0391-8.1602z"/>
 <path d="m574.56 890.76s-0.11719 0 0 0v16.199c4.4414 0 8.0391-3.6016 8.0391-8.1602 0.003906-4.4414-3.7188-8.0391-8.0391-8.0391z"/>
 <path d="m574.56 965.04s-0.11719 0.12109 0 0v16.199c4.4414 0 8.0391-3.6016 8.0391-8.1602 0.003906-4.3164-3.7188-8.0391-8.0391-8.0391z"/>
 <path d="m574.56 927.96s-0.11719 0 0 0v16.199c4.4414 0 8.0391-3.6016 8.0391-8.1602 0.003906-4.4414-3.7188-8.0391-8.0391-8.0391z"/>
 <path d="m574.56 1039.4s-0.11719 0 0 0v16.199c4.4414 0 8.0391-3.6016 8.0391-8.0391 0.003906-4.4414-3.7188-8.1602-8.0391-8.1602z"/>
 <path d="m622.08 1039.4c-4.5586 0-8.1602 3.6016-8.1602 8.1602 0 4.4414 3.6016 8.0391 8.1602 8.0391 4.4414 0 8.0391-3.6016 8.0391-8.0391 0.003906-4.4414-3.5977-8.1602-8.0391-8.1602z"/>
 <path d="m622.08 1076.6c-4.5586 0-8.1602 3.6016-8.1602 8.1602 0 4.4414 3.6016 8.0391 8.1602 8.0391 4.4414 0 8.0391-3.6016 8.0391-8.0391 0.003906-4.4414-3.5977-8.1602-8.0391-8.1602z"/>
 <path d="m622.08 927.96c-0.12109 0-0.23828 0.12109-0.48047 0.12109-4.3203 0.23828-7.6797 3.7188-7.6797 7.9219 0 4.5586 3.6016 8.1602 8.1602 8.1602 2.5195 0 4.6797-1.1992 6.1211-3.1211 1.0781-1.4414 1.9219-3.1211 1.9219-5.0391 0-4.4453-3.6016-8.043-8.043-8.043z"/>
 <path d="m622.08 1002.2c-4.5586 0-8.1602 3.6016-8.1602 8.1602 0 4.4414 3.6016 8.0391 8.1602 8.0391 4.4414 0 8.0391-3.6016 8.0391-8.0391 0.003906-4.4375-3.5977-8.1602-8.0391-8.1602z"/>
 <path d="m622.08 965.04c-4.5586 0-8.1602 3.6016-8.1602 8.0391 0 4.5586 3.6016 8.1602 8.1602 8.1602 4.4414 0 8.0391-3.6016 8.0391-8.1602 0.003906-4.3164-3.5977-8.0391-8.0391-8.0391z"/>
 <path d="m669.6 1076.6c-4.5586 0-8.1602 3.6016-8.1602 8.1602 0 4.4414 3.6016 8.0391 8.1602 8.0391 4.4414 0 8.0391-3.6016 8.0391-8.0391 0-4.4414-3.6016-8.1602-8.0391-8.1602z"/>
 <path d="m669.6 1002.2c-3.6016 0-6.4805 2.2812-7.6797 5.5195-0.23828 0.83984-0.48047 1.6797-0.48047 2.6406 0 3.6016 2.3984 6.4805 5.7617 7.5586 0.83984 0.23828 1.5586 0.48047 2.3984 0.48047 4.4414 0 8.0391-3.6016 8.0391-8.0391s-3.6016-8.1602-8.0391-8.1602z"/>
 <path d="m669.6 1039.4c-4.5586 0-8.1602 3.6016-8.1602 8.1602 0 4.4414 3.6016 8.0391 8.1602 8.0391 4.4414 0 8.0391-3.6016 8.0391-8.0391 0-4.4414-3.6016-8.1602-8.0391-8.1602z"/>
 <path d="m598.08 872.04c-1.5586 0-2.8789 0.48047-4.1992 1.3203-2.3984 1.4414-3.9609 3.8398-3.9609 6.7188 0 4.4414 3.6016 8.0391 8.1602 8.0391 1.0781 0 2.0391-0.23828 3-0.60156 2.8789-1.1992 5.0391-4.0781 5.0391-7.4414 0.003906-4.4336-3.5977-8.0352-8.0391-8.0352z"/>
 <path d="m598.08 909.24c-4.5586 0-8.1602 3.4805-8.1602 8.0391s3.6016 8.1602 8.1602 8.1602c4.4414 0 8.0391-3.6016 8.0391-8.1602 0.003906-4.5586-3.5977-8.0391-8.0391-8.0391z"/>
 <path d="m598.08 983.64c-4.5586 0-8.1602 3.6016-8.1602 8.0391 0 4.5586 3.6016 8.1602 8.1602 8.1602 4.4414 0 8.0391-3.6016 8.0391-8.1602 0.003906-4.4414-3.5977-8.0391-8.0391-8.0391z"/>
 <path d="m598.08 946.44c-4.5586 0-8.1602 3.6016-8.1602 8.0391 0 4.5586 3.6016 8.1602 8.1602 8.1602 4.4414 0 8.0391-3.6016 8.0391-8.1602 0.003906-4.4414-3.5977-8.0391-8.0391-8.0391z"/>
 <path d="m598.08 1020.8c-4.5586 0-8.1602 3.6016-8.1602 8.0391 0 4.5586 3.6016 8.1602 8.1602 8.1602 4.4414 0 8.0391-3.6016 8.0391-8.1602 0.003906-4.4375-3.5977-8.0391-8.0391-8.0391z"/>
 <path d="m598.08 1095.2c-4.5586 0-8.1602 3.6016-8.1602 8.1602 0 0.71875 0.23828 1.4414 0.48047 2.1602h15.359c0.23828-0.71875 0.48047-1.3203 0.48047-2.1602-0.11719-4.5586-3.7188-8.1602-8.1602-8.1602z"/>
 <path d="m598.08 1058c-4.5586 0-8.1602 3.6016-8.1602 8.1602 0 4.4414 3.6016 8.0391 8.1602 8.0391 4.4414 0 8.0391-3.6016 8.0391-8.0391 0.003906-4.5586-3.5977-8.1602-8.0391-8.1602z"/>
 <path d="m645.6 1095.2c-4.5586 0-8.1602 3.6016-8.1602 8.1602 0 0.71875 0.23828 1.4414 0.48047 2.1602h15.359c0.23828-0.71875 0.48047-1.3203 0.48047-2.1602-0.12109-4.5586-3.7227-8.1602-8.1602-8.1602z"/>
 <path d="m645.6 1058c-4.5586 0-8.1602 3.6016-8.1602 8.1602 0 4.4414 3.6016 8.0391 8.1602 8.0391 4.4414 0 8.0391-3.6016 8.0391-8.0391 0-4.5586-3.6016-8.1602-8.0391-8.1602z"/>
 <path d="m645.6 1020.8c-4.5586 0-8.1602 3.6016-8.1602 8.0391 0 4.5586 3.6016 8.1602 8.1602 8.1602 4.4414 0 8.0391-3.6016 8.0391-8.1602 0-4.4375-3.6016-8.0391-8.0391-8.0391z"/>
 <path d="m693.24 1095.2c-4.5586 0-8.1602 3.6016-8.1602 8.1602 0 0.71875 0.23828 1.4414 0.48047 2.1602h15.359c0.23828-0.71875 0.48047-1.3203 0.48047-2.1602-0.11719-4.5586-3.7188-8.1602-8.1602-8.1602z"/>
 <path d="m526.92 1076.6c-4.5586 0-8.1602 3.6016-8.1602 8.1602 0 4.4414 3.6016 8.0391 8.1602 8.0391 4.4414 0 8.0391-3.6016 8.0391-8.0391 0-4.4414-3.6016-8.1602-8.0391-8.1602z"/>
 <path d="m566.52 1010.4c0 4.4414 3.4805 8.0391 8.0391 8.0391v-16.199c-4.5586 0.12109-8.0391 3.7227-8.0391 8.1602z"/>
 <path d="m566.52 973.08c0 4.5586 3.4805 8.1602 8.0391 8.1602v-16.199c-4.5586 0.12109-8.0391 3.7227-8.0391 8.0391z"/>
 <path d="m566.52 1084.8c0 4.4414 3.4805 8.0391 8.0391 8.0391v-16.199c-4.5586 0-8.0391 3.7188-8.0391 8.1602z"/>
 <path d="m566.52 935.88c0 4.5586 3.4805 8.1602 8.0391 8.1602v-16.199c-4.5586 0.12109-8.0391 3.7188-8.0391 8.0391z"/>
 <path d="m566.52 1047.6c0 4.4414 3.4805 8.0391 8.0391 8.0391v-16.199c-4.5586 0-8.0391 3.7188-8.0391 8.1602z"/>
 <path d="m550.56 1020.8c-4.5586 0-8.1602 3.6016-8.1602 8.0391 0 4.5586 3.6016 8.1602 8.1602 8.1602 4.4414 0 8.0391-3.6016 8.0391-8.1602 0.003906-4.4375-3.7188-8.0391-8.0391-8.0391z"/>
 <path d="m550.56 1058c-4.5586 0-8.1602 3.6016-8.1602 8.1602 0 4.4414 3.6016 8.0391 8.1602 8.0391 4.4414 0 8.0391-3.6016 8.0391-8.0391 0.003906-4.5586-3.7188-8.1602-8.0391-8.1602z"/>
 <path d="m550.56 1095.2c-4.5586 0-8.1602 3.6016-8.1602 8.1602 0 0.71875 0.23828 1.4414 0.48047 2.1602h15.359c0.23828-0.71875 0.48047-1.3203 0.48047-2.1602-0.11719-4.5586-3.8398-8.1602-8.1602-8.1602z"/>
 <path d="m550.56 983.64c-4.5586 0-8.1602 3.6016-8.1602 8.0391 0 4.5586 3.6016 8.1602 8.1602 8.1602 4.4414 0 8.0391-3.6016 8.0391-8.1602 0.003906-4.4414-3.7188-8.0391-8.0391-8.0391z"/>
 <path d="m553.8 947.16c-0.96094-0.48047-2.0391-0.71875-3.2383-0.71875-4.5586 0-8.1602 3.6016-8.1602 8.0391 0 4.0781 3 7.3203 6.9609 7.9219 0.35938 0.12109 0.83984 0.23828 1.1992 0.23828 4.4414 0 8.0391-3.6016 8.0391-8.1602 0-3.2422-2.043-6-4.8008-7.3203z"/>
 <path d="m693.24 814.32c4.4414 0 8.0391-3.6016 8.0391-8.1602 0-4.4414-3.6016-8.0391-8.0391-8.0391-4.5586 0-8.1602 3.6016-8.1602 8.0391 0 4.5586 3.6016 8.1602 8.1602 8.1602z"/>
 <path d="m622.08 890.76c-4.5586 0-8.1602 3.6016-8.1602 8.0391 0 4.5586 3.6016 8.1602 8.1602 8.1602 4.4414 0 8.0391-3.6016 8.0391-8.1602 0.003906-4.4414-3.5977-8.0391-8.0391-8.0391z"/>
 <path d="m630 824.4v0c-0.35938-4.1992-3.7188-7.5586-7.9219-7.5586-4.3203 0-7.6797 3.3594-8.0391 7.5586h-0.12109c0 4.4414 3.6016 8.0391 8.1602 8.0391 4.4414 0 8.0391-3.6016 8.0391-8.0391z"/>
 <path d="m622.08 853.44c-4.5586 0-8.1602 3.6016-8.1602 8.1602 0 4.5586 3.6016 8.1602 8.1602 8.1602 4.4414 0 8.0391-3.6016 8.0391-8.1602 0.003906-4.5625-3.5977-8.1602-8.0391-8.1602z"/>
 <path d="m669.6 890.76c-4.5586 0-8.1602 3.6016-8.1602 8.0391 0 4.5586 3.6016 8.1602 8.1602 8.1602 4.4414 0 8.0391-3.6016 8.0391-8.1602 0-4.4414-3.6016-8.0391-8.0391-8.0391z"/>
 <path d="m669.6 965.04c-4.5586 0-8.1602 3.6016-8.1602 8.0391 0 4.5586 3.6016 8.1602 8.1602 8.1602 4.4414 0 8.0391-3.6016 8.0391-8.1602 0-4.3164-3.6016-8.0391-8.0391-8.0391z"/>
 <path d="m669.6 927.96c-4.5586 0-8.1602 3.6016-8.1602 8.0391 0 4.5586 3.6016 8.1602 8.1602 8.1602 4.4414 0 8.0391-3.6016 8.0391-8.1602 0-4.4414-3.6016-8.0391-8.0391-8.0391z"/>
 <path d="m677.52 824.4v0c-0.35938-4.1992-3.7188-7.5586-7.9219-7.5586-4.3203 0-7.6797 3.3594-8.0391 7.5586h-0.12109c0 4.4414 3.6016 8.0391 8.1602 8.0391 4.4414 0 8.0391-3.6016 8.0391-8.0391z"/>
 <path d="m669.6 853.44c-4.5586 0-8.1602 3.6016-8.1602 8.1602 0 4.5586 3.6016 8.1602 8.1602 8.1602 4.4414 0 8.0391-3.6016 8.0391-8.1602 0-4.5625-3.6016-8.1602-8.0391-8.1602z"/>
 <path d="m717.24 869.76c4.4414 0 8.0391-3.6016 8.0391-8.1602 0-4.5586-3.6016-8.1602-8.0391-8.1602-4.5586 0-8.1602 3.6016-8.1602 8.1602 0 4.4375 3.6016 8.1602 8.1602 8.1602z"/>
 <path d="m717.24 832.44c4.4414 0 8.0391-3.6016 8.0391-8.0391h-0.12109c-0.35938-4.1992-3.7188-7.5586-7.9219-7.5586-4.3203 0-7.6797 3.3594-8.0391 7.5586h-0.12109c0.003906 4.3164 3.6055 8.0391 8.1641 8.0391z"/>
 <path d="m598.08 834.72c-4.5586 0-8.1602 3.6016-8.1602 8.1602 0 4.4414 3.6016 8.0391 8.1602 8.0391 4.4414 0 8.0391-3.6016 8.0391-8.0391 0.003906-4.5586-3.5977-8.1602-8.0391-8.1602z"/>
 <path d="m650.76 985.68c-1.4414-1.1992-3.1211-2.0391-5.1602-2.0391-4.5586 0-8.1602 3.6016-8.1602 8.0391 0 4.5586 3.6016 8.1602 8.1602 8.1602 4.4414 0 8.0391-3.6016 8.0391-8.1602 0-0.23828-0.12109-0.35938-0.12109-0.48047-0.12109-2.2773-1.0781-4.1992-2.7578-5.5195z"/>
 <path d="m645.6 834.72c-4.5586 0-8.1602 3.6016-8.1602 8.1602 0 4.4414 3.6016 8.0391 8.1602 8.0391 4.4414 0 8.0391-3.6016 8.0391-8.0391 0-4.5586-3.6016-8.1602-8.0391-8.1602z"/>
 <path d="m645.6 909.24c-4.5586 0-8.1602 3.4805-8.1602 8.0391s3.6016 8.1602 8.1602 8.1602c4.4414 0 8.0391-3.6016 8.0391-8.1602s-3.6016-8.0391-8.0391-8.0391z"/>
 <path d="m645.6 872.04c-4.5586 0-8.1602 3.6016-8.1602 8.0391 0 4.4414 3.6016 8.0391 8.1602 8.0391 4.4414 0 8.0391-3.6016 8.0391-8.0391s-3.6016-8.0391-8.0391-8.0391z"/>
 <path d="m645.6 946.44c-4.5586 0-8.1602 3.6016-8.1602 8.0391 0 4.5586 3.6016 8.1602 8.1602 8.1602 4.4414 0 8.0391-3.6016 8.0391-8.1602 0-4.4414-3.6016-8.0391-8.0391-8.0391z"/>
 <path d="m693.24 850.92c4.4414 0 8.0391-3.6016 8.0391-8.0391 0-4.5586-3.6016-8.1602-8.0391-8.1602-4.5586 0-8.1602 3.6016-8.1602 8.1602 0 4.4375 3.6016 8.0391 8.1602 8.0391z"/>
 <path d="m693.24 888.12c4.4414 0 8.0391-3.6016 8.0391-8.0391 0-4.4414-3.6016-8.0391-8.0391-8.0391-4.5586 0-8.1602 3.6016-8.1602 8.0391s3.6016 8.0391 8.1602 8.0391z"/>
 <path d="m693.24 925.44c4.4414 0 8.0391-3.6016 8.0391-8.1602s-3.6016-8.0391-8.0391-8.0391c-4.5586 0-8.1602 3.4805-8.1602 8.0391s3.6016 8.1602 8.1602 8.1602z"/>
 <path d="m942.84 326.16v-31.801l-18.121 10.922c-50.641 30.48-101.76 15.121-156-0.96094-54.84-16.32-111.48-33.121-168.96-1.9219-57.602-30.961-114.24-14.039-169.08 2.3984-54.121 16.32-105.24 31.801-156 1.4414l-18.238-10.922v31.801l-53.52-4.8008 0.48047 446.16 204.84 18.602c0.12109 22.801 3.2383 45.121 11.52 64.922 23.281 55.922 67.078 94.559 82.559 106.92-2.0391 22.922-8.7617 99.48-9.4805 146.52h24c0.23828-11.281 0.71875-24.238 1.4414-37.922 0.23828-5.5195 0.60156-11.16 0.96094-16.801 0.60156 1.4414 1.6797 2.3984 3 3.3594 1.3203 0.83984 2.7617 1.5586 4.5586 1.5586 4.4414 0 8.0391-3.6016 8.0391-8.0391 0-4.5586-3.6016-8.1602-8.0391-8.1602h-0.23828c-3 0.12109-5.3984 1.6797-6.8398 4.1992 0.60156-9.2383 1.1992-18.359 1.9219-27.121 1.4414 1.0781 3.1211 1.9219 5.0391 1.9219 3.2383 0 6.1211-2.0391 7.4414-4.9219v-0.12109c0.35938-0.96094 0.60156-1.9219 0.60156-3 0-4.5586-3.6016-8.1602-8.0391-8.1602-1.5586 0-2.8789 0.48047-4.0781 1.1992 0.60156-8.2812 1.3203-15.961 1.8008-22.68 0.71875 0.23828 1.4414 0.48047 2.2812 0.48047 4.4414 0 8.0391-3.6016 8.0391-8.1602 0-4.4414-3.6016-8.0391-8.0391-8.0391-0.35937 0-0.60156 0.12109-0.83984 0.12109 0.60156-6.4805 0.96094-10.441 0.96094-10.559 0.35938-4.1992-1.4414-8.3984-4.9219-10.801-0.23828-0.12109-9.3594-6.9609-21.84-18.961 0.83984 0.35937 1.8008 0.60156 2.7617 0.60156 4.4414 0 8.0391-3.6016 8.0391-8.1602s-3.6016-8.0391-8.0391-8.0391c-4.5586 0-8.1602 3.4805-8.1602 8.0391 0 0.96094 0.23828 1.9219 0.60156 2.7617-4.0781-4.0781-8.3984-8.7617-12.84-13.801 2.8789-1.1992 4.9219-4.0781 4.9219-7.5586 0-4.4414-3.4805-8.0391-8.0391-8.0391-2.8789 0-5.1602 1.5586-6.7188 3.6016-3.2383-4.0781-6.3594-8.5195-9.4805-13.078 0.12109-0.35937 0.23828-0.71875 0.23828-1.1992 0-3.7188-2.5195-6.7188-6-7.5586-5.6406-9.2383-11.039-19.078-15.359-29.641-1.8008-4.1992-3.1211-8.5195-4.4414-13.078 1.3203-1.4414 2.1602-3.3594 2.1602-5.3984h-0.12109c-0.23828-3.1211-2.1602-5.7617-4.8008-6.9609-1.1992-7.0781-2.0391-14.281-2.3984-21.719 4.0781-0.35938 7.3203-3.7188 7.3203-7.9219 0-4.3203-3.3594-7.8008-7.5586-8.0391 0.23828-7.0781 0.71875-14.281 1.4414-21.48 3.4805-0.96094 6-3.9609 6-7.6797 0-3.1211-1.8008-5.6406-4.1992-7.0781 4.1992-28.922 11.641-56.762 18-78.359 0.60156 0.12109 1.0781 0.35938 1.6797 0.35938 4.4414 0 8.0391-3.6016 8.0391-8.1602 0-3.3594-2.1602-6.2383-5.1602-7.4414 0.12109-0.23828 0.23828-0.60156 0.23828-0.96094 1.5586-5.0391 2.8789-9.6016 3.9609-13.32 5.8789-20.52 22.441-26.398 35.16-23.039 0.48047 0.12109 0.96094 0.35938 1.4414 0.48047-2.5195 1.4414-4.3203 3.9609-4.3203 7.0781 0 4.4414 3.6016 8.0391 8.1602 8.0391 4.0781 0 7.3203-3.1211 7.8008-6.9609 4.9219 6.3594 7.4414 15.961 4.1992 29.879-3.2383 13.922-5.6406 26.16-7.3203 37.199-1.3203-0.96094-2.8789-1.6797-4.6797-1.6797-4.5586 0-8.1602 3.6016-8.1602 8.0391 0 4.5586 3.6016 8.1602 8.1602 8.1602 0.96094 0 1.8008-0.23828 2.6406-0.48047-1.0781 8.1602-1.8008 15.359-2.2812 21.602h-0.23828c-4.5586 0-8.1602 3.6016-8.1602 8.0391 0 4.1992 3.2383 7.5586 7.3203 8.0391-0.35938 6.1211-0.71875 10.922-1.1992 13.441-0.60156 2.7617 0 5.5195 1.1992 7.8008-4.0781 0.48047-7.1992 3.7188-7.1992 7.8008 0 4.5586 3.6016 8.1602 8.1602 8.1602 4.4414 0 8.0391-3.6016 8.0391-8.1602 0-0.48047-0.23828-0.83984-0.23828-1.1992 34.199 8.3984 54.602 33.238 63.719 47.281 0.48047 0.71875 0.96094 1.4414 1.3203 2.0391-0.48047-0.12109-0.83984-0.23828-1.3203-0.23828v15.598c3.3594 0 6.2383-2.1602 7.4414-5.1602 1.5586 1.9219 3.4805 3.2383 5.7617 3.9609 2.6406 0.83984 5.5195 0.83984 8.2812-0.48047 2.8789-1.3203 4.9219-3.6016 6.1211-6.3594 1.1992-3 1.3203-6.3594-0.12109-9.4805-0.12109-0.12109-0.35938-0.60156-0.60156-1.3203 2.7617-1.3203 4.6797-4.0781 4.6797-7.4414 0-0.35937-0.12109-0.71875-0.23828-1.0781l6.3594 0.60156v-2.1602l27.48-2.5195c-1.3203 1.4414-2.1602 3.2383-2.1602 5.3984 0 4.5586 3.6016 8.1602 8.1602 8.1602 4.4414 0 8.0391-3.6016 8.0391-8.1602 0-2.6406-1.4414-4.9219-3.3594-6.3594l61.922-5.7617c1.3203 1.0781 3 1.8008 4.9219 1.8008 2.3984 0 4.4414-1.0781 6-2.7617l22.078-2.0391c-0.12109 2.6406-0.35938 5.5195-0.60156 8.2812-1.1992-0.60156-2.3984-1.0781-3.8398-1.0781-4.5586 0-8.1602 3.6016-8.1602 8.0391 0 4.5586 3.6016 8.1602 8.1602 8.1602 0.83984 0 1.5586-0.23828 2.2812-0.48047-0.35938 3.3594-0.83984 6.9609-1.3203 10.441-0.48047 3.4805-0.96094 6.8398-1.5586 10.441-4.3203 0.23828-7.5586 3.7188-7.5586 8.0391 0 3.2383 1.9219 6 4.8008 7.3203-0.23828 1.1992-0.35938 2.3984-0.71875 3.6016-3.1211 15.121-7.6797 28.922-12.719 41.039-1.4414-2.3984-3.8398-4.0781-6.8398-4.0781-4.5586 0-8.1602 3.6016-8.1602 8.0391 0 4.5586 3.6016 8.1602 8.1602 8.1602 0.48047 0 0.96094-0.23828 1.5586-0.35938-9.4805 19.559-19.559 33.602-24.602 40.078-0.35938 0-0.60156-0.23828-0.96094-0.23828-4.5586 0-8.1602 3.6016-8.1602 8.0391 0 2.5195 1.1992 4.6797 2.8789 6.1211 0.12109 0.48047 1.5586 9.4805 3.4805 23.398-3.7188 0.83984-6.4805 3.8398-6.4805 7.6797 0 4.5586 3.6016 8.1602 8.1602 8.1602 0.12109 0 0.35938-0.12109 0.48047-0.12109 0.96094 6.8398 1.9219 14.16 2.7617 21.84-0.96094-0.48047-2.1602-0.71875-3.2383-0.71875-4.5586 0-8.1602 3.6016-8.1602 8.0391 0 4.5586 3.6016 8.1602 8.1602 8.1602 1.9219 0 3.4805-0.71875 4.9219-1.8008 1.1992 10.199 2.2812 20.641 3.1211 30.961 0-4.5586-3.6016-8.0391-8.0391-8.0391-1.9219 0-3.4805 0.71875-4.9219 1.8008-1.9219 1.4414-3.2383 3.7188-3.2383 6.3594 0 4.4414 3.6016 8.0391 8.1602 8.0391 0.71875 0 1.4414-0.23828 2.1602-0.48047 3.3594-0.96094 5.8789-3.9609 5.8789-7.5586 0.60156 7.5586 1.1992 15 1.5586 22.32 0.35938 5.8789 0.60156 11.52 0.71875 17.039h24c-1.0781-50.762-11.879-123-15.121-143.4 9.9609-12.602 36.84-50.16 47.762-103.44 5.5195-26.879 8.0391-50.641 9.2383-69.961l227.4-21.359-0.48047-446.16zm-412.56 372.84c1.8008-12 4.3203-26.039 8.1602-42.359 8.7617-37.68-11.762-61.199-34.68-67.199-23.879-6.2383-54.359 5.5195-64.199 39.602-1.0781 3.7188-2.3984 8.0391-3.9609 13.078-6.1211 20.039-15 49.32-21 81.602-46.078 13.441-90 22.922-133.56-0.23828l-0.35938-387.24c53.52 22.922 106.08 6.9609 157.08-8.3984 52.078-15.719 101.4-30.602 150.12-4.8008l0.11719 303.95 0.12109 83.281c-19.441-8.2812-38.762-11.402-57.84-11.281zm238.92 19.199c-32.398-9.7188-65.398-19.559-99-19.559-19.199 0-38.641 3.2383-58.078 11.641l-0.35938-387.24c48.719-26.039 98.039-11.281 150.12 4.1992 51 15.238 103.56 30.961 157.08 7.9219l0.35937 387.24c-48.719 26.039-98.039 11.277-150.12-4.2031z"/>
 <path d="m574.56 853.44s-0.11719 0 0 0v16.32c0.71875 0 1.4414-0.23828 2.0391-0.48047 3.3594-0.96094 6-3.9609 6-7.6797 0-2.1602-0.83984-3.9609-2.1602-5.3984-1.4375-1.6836-3.5977-2.7617-5.8789-2.7617z"/>
 <path d="m479.4 779.64c-4.5586 0-8.1602 3.6016-8.1602 8.1602 0 4.4414 3.6016 8.0391 8.1602 8.0391 4.5586 0 8.0391-3.6016 8.0391-8.0391 0.003906-4.5625-3.4766-8.1602-8.0391-8.1602z"/>
 <path d="m479.4 742.44c-4.5586 0-8.1602 3.6016-8.1602 8.1602 0 4.4414 3.6016 8.0391 8.1602 8.0391 4.5586 0 8.0391-3.6016 8.0391-8.0391 0.003906-4.5625-3.4766-8.1602-8.0391-8.1602z"/>
 <path d="m479.4 668.04c-4.5586 0-8.1602 3.6016-8.1602 8.0391 0 4.5586 3.6016 8.1602 8.1602 8.1602 4.5586 0 8.0391-3.6016 8.0391-8.1602 0.003906-4.4375-3.4766-8.0391-8.0391-8.0391z"/>
 <path d="m479.4 630.84c-4.5586 0-8.1602 3.4805-8.1602 8.0391s3.6016 8.1602 8.1602 8.1602c4.5586 0 8.0391-3.6016 8.0391-8.1602 0.003906-4.5586-3.4766-8.0391-8.0391-8.0391z"/>
 <path d="m479.4 705.24c-4.5586 0-8.1602 3.6016-8.1602 8.0391 0 4.5586 3.6016 8.1602 8.1602 8.1602 4.5586 0 8.0391-3.6016 8.0391-8.1602 0.003906-4.4375-3.4766-8.0391-8.0391-8.0391z"/>
 <path d="m534.84 824.4v0c-0.35938-4.1992-3.7188-7.5586-7.9219-7.5586-4.3203 0-7.6797 3.3594-8.0391 7.5586h-0.12109c0 4.4414 3.6016 8.0391 8.1602 8.0391 4.4414 0 8.0391-3.6016 8.0391-8.0391z"/>
 <path d="m526.92 779.64c-4.5586 0-8.1602 3.6016-8.1602 8.1602 0 4.4414 3.6016 8.0391 8.1602 8.0391 4.4414 0 8.0391-3.6016 8.0391-8.0391 0-4.5625-3.6016-8.1602-8.0391-8.1602z"/>
 <path d="m566.64 824.28v0h-0.12109c0 4.4414 3.4805 8.0391 8.0391 8.0391v-15.48c-4.4375 0-7.6797 3.2383-7.918 7.4414z"/>
 <path d="m455.4 798.12c-4.5586 0-8.1602 3.6016-8.1602 8.0391 0 4.5586 3.6016 8.1602 8.1602 8.1602 4.4414 0 8.0391-3.6016 8.0391-8.1602 0.003906-4.4414-3.5977-8.0391-8.0391-8.0391z"/>
 <path d="m455.4 760.92c-4.5586 0-8.1602 3.6016-8.1602 8.0391 0 4.5586 3.6016 8.1602 8.1602 8.1602 4.4414 0 8.0391-3.6016 8.0391-8.1602 0.003906-4.4414-3.5977-8.0391-8.0391-8.0391z"/>
 <path d="m455.4 686.52c-4.5586 0-8.1602 3.6016-8.1602 8.0391 0 4.5586 3.6016 8.1602 8.1602 8.1602 4.4414 0 8.0391-3.6016 8.0391-8.1602 0.003906-4.4375-3.5977-8.0391-8.0391-8.0391z"/>
 <path d="m455.4 723.72c-4.5586 0-8.1602 3.6016-8.1602 8.0391 0 4.5586 3.6016 8.1602 8.1602 8.1602 4.4414 0 8.0391-3.6016 8.0391-8.1602 0.003906-4.4375-3.5977-8.0391-8.0391-8.0391z"/>
 <path d="m502.92 798.12c-4.5586 0-8.1602 3.6016-8.1602 8.0391 0 4.5586 3.6016 8.1602 8.1602 8.1602 4.4414 0 8.0391-3.6016 8.0391-8.1602 0-4.4414-3.6016-8.0391-8.0391-8.0391z"/>
 <path d="m502.92 665.52c4.4414 0 8.0391-3.6016 8.0391-8.1602 0-4.4414-3.6016-8.0391-8.0391-8.0391-4.5586 0-8.1602 3.6016-8.1602 8.0391 0 4.5625 3.7188 8.1602 8.1602 8.1602z"/>
 <path d="m550.56 798.12c-4.5586 0-8.1602 3.6016-8.1602 8.0391 0 4.5586 3.6016 8.1602 8.1602 8.1602 4.4414 0 8.0391-3.6016 8.0391-8.1602 0.003906-4.4414-3.7188-8.0391-8.0391-8.0391z"/>
 <path d="m479.4 853.44c-4.5586 0-8.1602 3.6016-8.1602 8.1602 0 4.5586 3.6016 8.1602 8.1602 8.1602 4.5586 0 8.0391-3.6016 8.0391-8.1602 0.003906-4.5625-3.4766-8.1602-8.0391-8.1602z"/>
 <path d="m487.44 824.4c-0.12109 0-0.12109-0.11719 0 0-0.48047-4.1992-3.7188-7.5586-8.0391-7.5586-4.3203 0-7.6797 3.3594-8.0391 7.5586h-0.12109c0 4.4414 3.6016 8.0391 8.1602 8.0391 4.5586 0.003906 8.0391-3.7188 8.0391-8.0391z"/>
 <path d="m526.92 890.76c-4.5586 0-8.1602 3.6016-8.1602 8.0391 0 4.5586 3.6016 8.1602 8.1602 8.1602 4.4414 0 8.0391-3.6016 8.0391-8.1602 0-4.4414-3.6016-8.0391-8.0391-8.0391z"/>
 <path d="m526.92 853.44c-4.5586 0-8.1602 3.6016-8.1602 8.1602 0 4.5586 3.6016 8.1602 8.1602 8.1602 4.4414 0 8.0391-3.6016 8.0391-8.1602 0-4.5625-3.6016-8.1602-8.0391-8.1602z"/>
 <path d="m526.92 927.96c-4.5586 0-8.1602 3.6016-8.1602 8.0391 0 4.5586 3.6016 8.1602 8.1602 8.1602 4.4414 0 8.0391-3.6016 8.0391-8.1602 0-4.4414-3.6016-8.0391-8.0391-8.0391z"/>
 <path d="m566.52 898.8c0 1.0781 0.23828 2.1602 0.60156 3.1211 1.1992 3 3.9609 5.0391 7.4414 5.1602v-16.199c-1.8008 0-3.3594 0.71875-4.6797 1.6797-2.043 1.3164-3.3633 3.4766-3.3633 6.2383z"/>
 <path d="m566.52 861.6c0 4.5586 3.4805 8.1602 8.0391 8.1602v-16.32c-4.5586 0-8.0391 3.5977-8.0391 8.1602z"/>
 <path d="m455.4 834.72c-4.5586 0-8.1602 3.6016-8.1602 8.1602 0 4.4414 3.6016 8.0391 8.1602 8.0391 4.4414 0 8.0391-3.6016 8.0391-8.0391 0.003906-4.5586-3.5977-8.1602-8.0391-8.1602z"/>
 <path d="m502.92 872.04c-4.5586 0-8.1602 3.6016-8.1602 8.0391 0 4.4414 3.6016 8.0391 8.1602 8.0391 4.4414 0 8.0391-3.6016 8.0391-8.0391s-3.6016-8.0391-8.0391-8.0391z"/>
 <path d="m502.92 834.72c-4.5586 0-8.1602 3.6016-8.1602 8.1602 0 4.4414 3.6016 8.0391 8.1602 8.0391 4.4414 0 8.0391-3.6016 8.0391-8.0391 0-4.5586-3.6016-8.1602-8.0391-8.1602z"/>
 <path d="m550.56 909.24c-4.5586 0-8.1602 3.4805-8.1602 8.0391s3.6016 8.1602 8.1602 8.1602c4.4414 0 8.0391-3.6016 8.0391-8.1602 0.003906-4.5586-3.7188-8.0391-8.0391-8.0391z"/>
 <path d="m550.56 834.72c-4.5586 0-8.1602 3.6016-8.1602 8.1602 0 4.4414 3.6016 8.0391 8.1602 8.0391 4.4414 0 8.0391-3.6016 8.0391-8.0391 0.003906-4.5586-3.7188-8.1602-8.0391-8.1602z"/>
 <path d="m550.56 872.04c-4.5586 0-8.1602 3.6016-8.1602 8.0391 0 4.4414 3.6016 8.0391 8.1602 8.0391 4.4414 0 8.0391-3.6016 8.0391-8.0391 0.003906-4.4375-3.7188-8.0391-8.0391-8.0391z"/>
</svg>
