<?xml version="1.0" encoding="UTF-8"?>
<svg width="1200pt" height="1200pt" version="1.1" viewBox="0 0 1200 1200" xmlns="http://www.w3.org/2000/svg">
 <path d="m124.68 535.32c4.4414 0 8.0391-3.6016 8.0391-8.0391 0-4.5586-3.6016-8.1602-8.0391-8.1602-4.5586 0-8.1602 3.6016-8.1602 8.1602 0 4.4375 3.6016 8.0391 8.1602 8.0391z"/>
 <path d="m124.68 647.04c4.4414 0 8.0391-3.6016 8.0391-8.1602s-3.6016-8.0391-8.0391-8.0391c-4.5586 0-8.1602 3.4805-8.1602 8.0391 0 4.5625 3.6016 8.1602 8.1602 8.1602z"/>
 <path d="m124.68 572.52c4.4414 0 8.0391-3.6016 8.0391-8.0391 0-4.5586-3.6016-8.1602-8.0391-8.1602-4.5586 0-8.1602 3.6016-8.1602 8.1602 0 4.4414 3.6016 8.0391 8.1602 8.0391z"/>
 <path d="m124.68 609.84c4.4414 0 8.0391-3.7188 8.0391-8.1602 0-4.5586-3.6016-8.0391-8.0391-8.0391-4.5586 0-8.1602 3.4805-8.1602 8.0391 0 4.4414 3.6016 8.1602 8.1602 8.1602z"/>
 <path d="m124.68 498.12c4.4414 0 8.0391-3.6016 8.0391-8.0391 0-4.5586-3.6016-8.1602-8.0391-8.1602-4.5586 0-8.1602 3.6016-8.1602 8.1602 0 4.4375 3.6016 8.0391 8.1602 8.0391z"/>
 <path d="m172.2 572.52c4.4414 0 8.0391-3.6016 8.0391-8.0391 0-4.5586-3.6016-8.1602-8.0391-8.1602-4.5586 0-8.1602 3.6016-8.1602 8.1602 0 4.4414 3.6016 8.0391 8.1602 8.0391z"/>
 <path d="m172.2 498.12c2.6406 0 4.9219-1.4414 6.3594-3.3594 0.96094-1.3203 1.6797-2.8789 1.6797-4.6797 0-4.5586-3.6016-8.1602-8.0391-8.1602-4.3203 0-7.8008 3.3594-8.0391 7.6797 0 0.23828-0.12109 0.35938-0.12109 0.60156 0 4.3164 3.6016 7.918 8.1602 7.918z"/>
 <path d="m172.2 535.32c4.4414 0 8.0391-3.6016 8.0391-8.0391 0-4.5586-3.6016-8.1602-8.0391-8.1602-4.5586 0-8.1602 3.6016-8.1602 8.1602 0 4.4375 3.6016 8.0391 8.1602 8.0391z"/>
 <path d="m172.2 609.84c4.4414 0 8.0391-3.7188 8.0391-8.1602 0-4.5586-3.6016-8.0391-8.0391-8.0391-4.5586 0-8.1602 3.4805-8.1602 8.0391 0 4.4414 3.6016 8.1602 8.1602 8.1602z"/>
 <path d="m171.12 646.8c0.35938 0 0.71875 0.23828 1.1992 0.23828 2.7617 0 5.1602-1.5586 6.6016-3.7188 0.83984-1.3203 1.4414-2.7617 1.4414-4.4414 0-4.5586-3.6016-8.0391-8.0391-8.0391-4.5586 0-8.1602 3.4805-8.1602 8.0391-0.125 4.082 2.9961 7.3203 6.957 7.9219z"/>
 <path d="m219.84 609.84c4.4414 0 8.0391-3.7188 8.0391-8.1602 0-4.5586-3.6016-8.0391-8.0391-8.0391-4.5586 0-8.1602 3.4805-8.1602 8.0391 0 4.4414 3.6016 8.1602 8.1602 8.1602z"/>
 <path d="m219.84 535.32c4.4414 0 8.0391-3.6016 8.0391-8.0391 0-4.5586-3.6016-8.1602-8.0391-8.1602-4.5586 0-8.1602 3.6016-8.1602 8.1602 0 4.4375 3.6016 8.0391 8.1602 8.0391z"/>
 <path d="m219.84 572.52c4.4414 0 8.0391-3.6016 8.0391-8.0391 0-4.5586-3.6016-8.1602-8.0391-8.1602-4.5586 0-8.1602 3.6016-8.1602 8.1602 0 4.4414 3.6016 8.0391 8.1602 8.0391z"/>
 <path d="m267.36 572.52c4.4414 0 8.0391-3.6016 8.0391-8.0391 0-4.5586-3.6016-8.1602-8.0391-8.1602-4.5586 0-8.1602 3.6016-8.1602 8.1602 0 4.4414 3.6016 8.0391 8.1602 8.0391z"/>
 <path d="m267.36 535.32c3.7188 0 6.7188-2.6406 7.6797-6.1211 0.12109-0.60156 0.35938-1.1992 0.35938-1.9219 0-4.5586-3.6016-8.1602-8.0391-8.1602-3.2383 0-6 1.9219-7.3203 4.6797-0.48047 1.0781-0.83984 2.1602-0.83984 3.4805 0 4.4414 3.6016 8.043 8.1602 8.043z"/>
 <path d="m260.52 605.76c1.4414 2.2812 3.8398 3.9609 6.8398 3.9609 4.4414 0 8.0391-3.7188 8.0391-8.1602 0-0.83984-0.23828-1.6797-0.48047-2.3984-1.0781-3.2383-3.9609-5.6406-7.5586-5.6406-4.5586 0-8.1602 3.4805-8.1602 8.0391 0 1.6758 0.60156 2.9961 1.3203 4.1992z"/>
 <path d="m314.88 572.52c4.4414 0 8.0391-3.6016 8.0391-8.0391 0-4.5586-3.6016-8.1602-8.0391-8.1602-4.5586 0-8.1602 3.6016-8.1602 8.1602 0 4.4414 3.6016 8.0391 8.1602 8.0391z"/>
 <path d="m100.68 516.6c4.4414 0 8.0391-3.6016 8.0391-8.0391 0-4.5586-3.6016-8.1602-8.0391-8.1602-4.5586 0-8.1602 3.6016-8.1602 8.1602 0 4.4375 3.6016 8.0391 8.1602 8.0391z"/>
 <path d="m100.68 553.8c4.4414 0 8.0391-3.6016 8.0391-8.0391 0-4.5586-3.6016-8.1602-8.0391-8.1602-4.5586 0-8.1602 3.6016-8.1602 8.1602 0 4.4375 3.6016 8.0391 8.1602 8.0391z"/>
 <path d="m100.68 665.52c4.4414 0 8.0391-3.6016 8.0391-8.1602 0-4.4414-3.6016-8.0391-8.0391-8.0391-4.5586 0-8.1602 3.6016-8.1602 8.0391 0 4.5625 3.6016 8.1602 8.1602 8.1602z"/>
 <path d="m100.68 628.2c4.4414 0 8.0391-3.6016 8.0391-8.0391 0-4.5586-3.6016-8.1602-8.0391-8.1602-4.5586 0-8.1602 3.6016-8.1602 8.1602 0 4.4414 3.6016 8.0391 8.1602 8.0391z"/>
 <path d="m100.68 591c4.4414 0 8.0391-3.6016 8.0391-8.0391 0-4.5586-3.6016-8.1602-8.0391-8.1602-4.5586 0-8.1602 3.6016-8.1602 8.1602 0 4.4375 3.6016 8.0391 8.1602 8.0391z"/>
 <path d="m148.2 516.6c4.4414 0 8.0391-3.6016 8.0391-8.0391 0-4.5586-3.6016-8.1602-8.0391-8.1602-4.5586 0-8.1602 3.6016-8.1602 8.1602 0 4.4375 3.7227 8.0391 8.1602 8.0391z"/>
 <path d="m148.2 628.2c4.4414 0 8.0391-3.6016 8.0391-8.0391 0-4.5586-3.6016-8.1602-8.0391-8.1602-4.5586 0-8.1602 3.6016-8.1602 8.1602 0 4.4414 3.7227 8.0391 8.1602 8.0391z"/>
 <path d="m148.2 553.8c4.4414 0 8.0391-3.6016 8.0391-8.0391 0-4.5586-3.6016-8.1602-8.0391-8.1602-4.5586 0-8.1602 3.6016-8.1602 8.1602 0 4.4375 3.7227 8.0391 8.1602 8.0391z"/>
 <path d="m140.76 660.72c1.1992 2.8789 4.0781 4.9219 7.4414 4.9219 4.4414 0 8.0391-3.6016 8.0391-8.1602 0-1.1992-0.35938-2.3984-0.83984-3.4805-1.3203-2.6406-4.0781-4.5586-7.1992-4.5586-4.5586 0-8.1602 3.6016-8.1602 8.0391-0.003907 1.0781 0.35547 2.1602 0.71875 3.2383z"/>
 <path d="m148.2 591c4.4414 0 8.0391-3.6016 8.0391-8.0391 0-4.5586-3.6016-8.1602-8.0391-8.1602-4.5586 0-8.1602 3.6016-8.1602 8.1602 0 4.4375 3.7227 8.0391 8.1602 8.0391z"/>
 <path d="m195.84 553.8c4.4414 0 8.0391-3.6016 8.0391-8.0391 0-4.5586-3.6016-8.1602-8.0391-8.1602-4.5586 0-8.1602 3.6016-8.1602 8.1602 0 4.4375 3.6016 8.0391 8.1602 8.0391z"/>
 <path d="m195.84 628.2c4.4414 0 8.0391-3.6016 8.0391-8.0391 0-4.5586-3.6016-8.1602-8.0391-8.1602-4.5586 0-8.1602 3.6016-8.1602 8.1602 0 4.4414 3.6016 8.0391 8.1602 8.0391z"/>
 <path d="m195.84 591c4.4414 0 8.0391-3.6016 8.0391-8.0391 0-4.5586-3.6016-8.1602-8.0391-8.1602-4.5586 0-8.1602 3.6016-8.1602 8.1602 0 4.4375 3.6016 8.0391 8.1602 8.0391z"/>
 <path d="m195.84 516.6c4.4414 0 8.0391-3.6016 8.0391-8.0391 0-2.2812-0.83984-4.1992-2.2812-5.7617-1.4414-1.5586-3.4805-2.5195-5.7617-2.5195-0.23828 0-0.48047 0.12109-0.71875 0.12109-4.1992 0.35938-7.4414 3.7188-7.4414 8.0391 0.003907 4.5586 3.6055 8.1602 8.1641 8.1602z"/>
 <path d="m243.36 591c4.4414 0 8.0391-3.6016 8.0391-8.0391 0-4.5586-3.6016-8.1602-8.0391-8.1602-4.5586 0-8.1602 3.6016-8.1602 8.1602 0 4.4375 3.6016 8.0391 8.1602 8.0391z"/>
 <path d="m243.36 553.8c4.4414 0 8.0391-3.6016 8.0391-8.0391 0-4.5586-3.6016-8.1602-8.0391-8.1602-4.5586 0-8.1602 3.6016-8.1602 8.1602 0 4.4375 3.6016 8.0391 8.1602 8.0391z"/>
 <path d="m290.88 591c4.4414 0 8.0391-3.6016 8.0391-8.0391 0-4.5586-3.6016-8.1602-8.0391-8.1602-4.5586 0-8.1602 3.6016-8.1602 8.1602 0 4.4375 3.7227 8.0391 8.1602 8.0391z"/>
 <path d="m290.88 553.8c4.4414 0 8.0391-3.6016 8.0391-8.0391 0-4.5586-3.6016-8.1602-8.0391-8.1602-4.5586 0-8.1602 3.6016-8.1602 8.1602 0 4.4375 3.7227 8.0391 8.1602 8.0391z"/>
 <path d="m552.72 647.04c4.4414 0 8.0391-3.6016 8.0391-8.1602s-3.6016-8.0391-8.0391-8.0391c-4.5586 0-8.1602 3.4805-8.1602 8.0391 0 4.5625 3.6016 8.1602 8.1602 8.1602z"/>
 <path d="m600.36 684.24c4.4414 0 8.0391-3.6016 8.0391-8.1602 0-4.4414-3.6016-8.0391-8.0391-8.0391-4.5586 0-8.1602 3.6016-8.1602 8.0391 0 4.5625 3.6016 8.1602 8.1602 8.1602z"/>
 <path d="m647.88 684.24c4.4414 0 8.0391-3.6016 8.0391-8.1602 0-4.4414-3.6016-8.0391-8.0391-8.0391-4.5586 0-8.1602 3.6016-8.1602 8.0391 0 4.5625 3.6016 8.1602 8.1602 8.1602z"/>
 <path d="m647.88 721.44c4.4414 0 8.0391-3.6016 8.0391-8.1602 0-4.4414-3.6016-8.0391-8.0391-8.0391-4.5586 0-8.1602 3.6016-8.1602 8.0391s3.6016 8.1602 8.1602 8.1602z"/>
 <path d="m647.88 758.64c1.9219 0 3.6016-0.71875 4.9219-1.9219l2.5195-3.1211c0.35938-0.96094 0.60156-1.9219 0.60156-3 0-4.5586-3.6016-8.1602-8.0391-8.1602-4.5586 0-8.1602 3.6016-8.1602 8.1602-0.003906 4.3242 3.5977 8.043 8.1562 8.043z"/>
 <path d="m528.72 628.2c3.4805 0 6.4805-2.3984 7.5586-5.5195 0.23828-0.83984 0.48047-1.5586 0.48047-2.5195 0-4.5586-3.6016-8.1602-8.0391-8.1602-3.4805 0-6.3594 2.1602-7.5586 5.2812-0.35938 0.96094-0.60156 1.9219-0.60156 2.8789 0 4.4414 3.7227 8.0391 8.1602 8.0391z"/>
 <path d="m576.36 665.52c4.4414 0 8.0391-3.6016 8.0391-8.1602 0-4.4414-3.6016-8.0391-8.0391-8.0391-4.5586 0-8.1602 3.6016-8.1602 8.0391 0 4.5625 3.6016 8.1602 8.1602 8.1602z"/>
 <path d="m623.88 702.72c4.4414 0 8.0391-3.6016 8.0391-8.1602 0-4.4414-3.6016-8.0391-8.0391-8.0391-4.5586 0-8.1602 3.6016-8.1602 8.0391 0 4.5625 3.6016 8.1602 8.1602 8.1602z"/>
 <path d="m623.88 739.92c4.4414 0 8.0391-3.6016 8.0391-8.1602 0-4.4414-3.6016-8.0391-8.0391-8.0391-4.5586 0-8.1602 3.6016-8.1602 8.0391 0 4.5586 3.6016 8.1602 8.1602 8.1602z"/>
 <path d="m623.88 665.52c4.4414 0 8.0391-3.6016 8.0391-8.1602 0-0.23828-0.12109-0.35938-0.12109-0.48047-0.23828-4.1992-3.7188-7.5586-7.9219-7.5586-2.3984 0-4.4414 0.96094-5.8789 2.5195-1.3203 1.4414-2.2812 3.3594-2.2812 5.5195 0.003906 4.5625 3.6055 8.1602 8.1641 8.1602z"/>
 <path d="m671.4 702.72c4.4414 0 8.0391-3.6016 8.0391-8.1602 0-4.4414-3.6016-8.0391-8.0391-8.0391-4.5586 0-8.1602 3.6016-8.1602 8.0391 0 4.5625 3.7227 8.1602 8.1602 8.1602z"/>
 <path d="m219.84 647.04c4.4414 0 8.0391-3.6016 8.0391-8.1602s-3.6016-8.0391-8.0391-8.0391c-4.5586 0-8.1602 3.4805-8.1602 8.0391 0 4.5625 3.6016 8.1602 8.1602 8.1602z"/>
 <path d="m267.36 684.24c4.4414 0 8.0391-3.6016 8.0391-8.1602 0-4.4414-3.6016-8.0391-8.0391-8.0391-4.5586 0-8.1602 3.6016-8.1602 8.0391 0 4.5625 3.6016 8.1602 8.1602 8.1602z"/>
 <path d="m267.36 647.04c4.4414 0 8.0391-3.6016 8.0391-8.1602s-3.6016-8.0391-8.0391-8.0391c-4.5586 0-8.1602 3.4805-8.1602 8.0391 0 4.5625 3.6016 8.1602 8.1602 8.1602z"/>
 <path d="m314.88 684.24c4.4414 0 8.0391-3.6016 8.0391-8.1602 0-4.4414-3.6016-8.0391-8.0391-8.0391-4.5586 0-8.1602 3.6016-8.1602 8.0391 0 4.5625 3.6016 8.1602 8.1602 8.1602z"/>
 <path d="m314.88 647.04c4.4414 0 8.0391-3.6016 8.0391-8.1602s-3.6016-8.0391-8.0391-8.0391c-4.5586 0-8.1602 3.4805-8.1602 8.0391 0 4.5625 3.6016 8.1602 8.1602 8.1602z"/>
 <path d="m314.88 609.84c4.4414 0 8.0391-3.7188 8.0391-8.1602 0-4.5586-3.6016-8.0391-8.0391-8.0391-4.5586 0-8.1602 3.4805-8.1602 8.0391 0 4.4414 3.6016 8.1602 8.1602 8.1602z"/>
 <path d="m362.52 647.04c4.5586 0 8.0391-3.6016 8.0391-8.1602s-3.4805-8.0391-8.0391-8.0391c-4.5586 0-8.1602 3.4805-8.1602 8.0391 0 4.5625 3.6016 8.1602 8.1602 8.1602z"/>
 <path d="m362.52 572.52c4.5586 0 8.0391-3.6016 8.0391-8.0391 0-0.35938-0.12109-0.71875-0.23828-1.1992-0.60156-3.9609-3.7188-6.9609-7.8008-6.9609-2.1602 0-4.0781 0.83984-5.5195 2.1602-1.1992 1.0781-1.9219 2.5195-2.2812 4.0781-0.12109 0.60156-0.35938 1.1992-0.35938 1.8008 0 4.5625 3.6016 8.1602 8.1602 8.1602z"/>
 <path d="m362.52 609.84c4.5586 0 8.0391-3.7188 8.0391-8.1602 0-4.5586-3.4805-8.0391-8.0391-8.0391-4.5586 0-8.1602 3.4805-8.1602 8.0391 0 4.4414 3.6016 8.1602 8.1602 8.1602z"/>
 <path d="m410.04 609.84c4.4414 0 8.0391-3.7188 8.0391-8.1602 0-4.5586-3.6016-8.0391-8.0391-8.0391-4.5586 0-8.1602 3.4805-8.1602 8.0391 0 4.4414 3.6016 8.1602 8.1602 8.1602z"/>
 <path d="m457.56 609.84v-16.078c-0.60156 0-1.0781 0.23828-1.6797 0.35938-3.7188 0.71875-6.3594 3.7188-6.3594 7.6797 0 4.1992 3.6016 8.0391 8.0391 8.0391z"/>
 <path d="m195.84 665.52c4.4414 0 8.0391-3.6016 8.0391-8.1602 0-4.4414-3.6016-8.0391-8.0391-8.0391-4.5586 0-8.1602 3.6016-8.1602 8.0391 0 4.5625 3.6016 8.1602 8.1602 8.1602z"/>
 <path d="m243.36 665.52c4.4414 0 8.0391-3.6016 8.0391-8.1602 0-4.4414-3.6016-8.0391-8.0391-8.0391-4.5586 0-8.1602 3.6016-8.1602 8.0391 0 4.5625 3.6016 8.1602 8.1602 8.1602z"/>
 <path d="m243.36 628.2c4.4414 0 8.0391-3.6016 8.0391-8.0391 0-3.6016-2.3984-6.6016-5.6406-7.6797-0.83984-0.23828-1.5586-0.48047-2.3984-0.48047-3.4805 0-6.3594 2.0391-7.5586 5.0391-0.35938 0.96094-0.60156 2.0391-0.60156 3.1211 0 4.4414 3.6016 8.0391 8.1602 8.0391z"/>
 <path d="m290.88 665.52c4.4414 0 8.0391-3.6016 8.0391-8.1602 0-4.4414-3.6016-8.0391-8.0391-8.0391-4.5586 0-8.1602 3.6016-8.1602 8.0391 0 4.5625 3.7227 8.1602 8.1602 8.1602z"/>
 <path d="m290.88 628.2c4.4414 0 8.0391-3.6016 8.0391-8.0391 0-4.5586-3.6016-8.1602-8.0391-8.1602-4.5586 0-8.1602 3.6016-8.1602 8.1602 0 4.4414 3.7227 8.0391 8.1602 8.0391z"/>
 <path d="m338.52 665.52c4.4414 0 8.0391-3.6016 8.0391-8.1602 0-4.4414-3.6016-8.0391-8.0391-8.0391-4.5586 0-8.1602 3.6016-8.1602 8.0391 0 4.5625 3.6016 8.1602 8.1602 8.1602z"/>
 <path d="m338.52 702.72c4.4414 0 8.0391-3.6016 8.0391-8.1602 0-4.4414-3.6016-8.0391-8.0391-8.0391-4.5586 0-8.1602 3.6016-8.1602 8.0391 0 4.5625 3.6016 8.1602 8.1602 8.1602z"/>
 <path d="m338.52 628.2c4.4414 0 8.0391-3.6016 8.0391-8.0391 0-4.5586-3.6016-8.1602-8.0391-8.1602-4.5586 0-8.1602 3.6016-8.1602 8.1602 0 4.4414 3.6016 8.0391 8.1602 8.0391z"/>
 <path d="m338.52 591c4.4414 0 8.0391-3.6016 8.0391-8.0391 0-4.5586-3.6016-8.1602-8.0391-8.1602-4.5586 0-8.1602 3.6016-8.1602 8.1602 0 4.4375 3.6016 8.0391 8.1602 8.0391z"/>
 <path d="m386.04 628.2c4.4414 0 8.0391-3.6016 8.0391-8.0391 0-4.5586-3.6016-8.1602-8.0391-8.1602-4.5586 0-8.1602 3.6016-8.1602 8.1602 0 4.4414 3.6016 8.0391 8.1602 8.0391z"/>
 <path d="m386.04 591c4.4414 0 8.0391-3.6016 8.0391-8.0391 0-4.5586-3.6016-8.1602-8.0391-8.1602-4.5586 0-8.1602 3.6016-8.1602 8.1602 0 4.4375 3.6016 8.0391 8.1602 8.0391z"/>
 <path d="m838.08 556.32v16.199c4.4414 0 8.0391-3.6016 8.0391-8.0391 0.003906-4.5586-3.5977-8.1602-8.0391-8.1602z"/>
 <path d="m838.08 630.84v16.199c4.4414 0 8.0391-3.6016 8.0391-8.1602 0.003906-4.5586-3.5977-8.0391-8.0391-8.0391z"/>
 <path d="m838.08 593.64v16.199c4.4414 0 8.0391-3.7188 8.0391-8.1602 0.003906-4.5586-3.5977-8.0391-8.0391-8.0391z"/>
 <path d="m885.72 593.64c-4.5586 0-8.1602 3.4805-8.1602 8.0391 0 4.4414 3.6016 8.1602 8.1602 8.1602 4.4414 0 8.0391-3.7188 8.0391-8.1602 0.003907-4.5586-3.5977-8.0391-8.0391-8.0391z"/>
 <path d="m885.72 630.84c-4.5586 0-8.1602 3.4805-8.1602 8.0391s3.6016 8.1602 8.1602 8.1602c4.4414 0 8.0391-3.6016 8.0391-8.1602 0.003907-4.5586-3.5977-8.0391-8.0391-8.0391z"/>
 <path d="m891.48 521.76c-1.4414-1.5586-3.4805-2.6406-5.8789-2.6406-3.3594 0-6.1211 2.0391-7.4414 4.8008-0.48047 0.96094-0.71875 2.1602-0.71875 3.3594 0 4.4414 3.6016 8.0391 8.1602 8.0391 4.4414 0 8.0391-3.6016 8.0391-8.0391 0.12109-2.1602-0.71875-4.082-2.1602-5.5195z"/>
 <path d="m885.72 556.32c-4.5586 0-8.1602 3.6016-8.1602 8.1602 0 4.4414 3.6016 8.0391 8.1602 8.0391 4.4414 0 8.0391-3.6016 8.0391-8.0391 0.003907-4.5586-3.5977-8.1602-8.0391-8.1602z"/>
 <path d="m885.72 668.04c-4.5586 0-8.1602 3.6016-8.1602 8.0391 0 4.5586 3.6016 8.1602 8.1602 8.1602 4.4414 0 8.0391-3.6016 8.0391-8.1602 0.003907-4.4375-3.5977-8.0391-8.0391-8.0391z"/>
 <path d="m933.24 668.04c-4.5586 0-8.1602 3.6016-8.1602 8.0391 0 4.5586 3.6016 8.1602 8.1602 8.1602 4.4414 0 8.0391-3.6016 8.0391-8.1602 0.003906-4.4375-3.5977-8.0391-8.0391-8.0391z"/>
 <path d="m933.24 593.64c-4.5586 0-8.1602 3.4805-8.1602 8.0391 0 4.4414 3.6016 8.1602 8.1602 8.1602 4.4414 0 8.0391-3.7188 8.0391-8.1602 0.003906-4.5586-3.5977-8.0391-8.0391-8.0391z"/>
 <path d="m933.24 630.84c-4.5586 0-8.1602 3.4805-8.1602 8.0391s3.6016 8.1602 8.1602 8.1602c4.4414 0 8.0391-3.6016 8.0391-8.1602 0.003906-4.5586-3.5977-8.0391-8.0391-8.0391z"/>
 <path d="m933.24 519.12c-4.5586 0-8.1602 3.6016-8.1602 8.1602 0 4.4414 3.6016 8.0391 8.1602 8.0391 4.4414 0 8.0391-3.6016 8.0391-8.0391 0.003906-4.5625-3.5977-8.1602-8.0391-8.1602z"/>
 <path d="m933.24 556.32c-4.5586 0-8.1602 3.6016-8.1602 8.1602 0 4.4414 3.6016 8.0391 8.1602 8.0391 4.4414 0 8.0391-3.6016 8.0391-8.0391 0.003906-4.5586-3.5977-8.1602-8.0391-8.1602z"/>
 <path d="m980.88 593.64c-4.5586 0-8.1602 3.4805-8.1602 8.0391 0 4.4414 3.6016 8.1602 8.1602 8.1602 4.4414 0 8.0391-3.7188 8.0391-8.1602-0.11719-4.5586-3.7188-8.0391-8.0391-8.0391z"/>
 <path d="m980.88 668.04c-4.5586 0-8.1602 3.6016-8.1602 8.0391 0 4.5586 3.6016 8.1602 8.1602 8.1602 4.4414 0 8.0391-3.6016 8.0391-8.1602-0.11719-4.4375-3.7188-8.0391-8.0391-8.0391z"/>
 <path d="m980.88 630.84c-4.5586 0-8.1602 3.4805-8.1602 8.0391s3.6016 8.1602 8.1602 8.1602c4.4414 0 8.0391-3.6016 8.0391-8.1602-0.11719-4.5586-3.7188-8.0391-8.0391-8.0391z"/>
 <path d="m980.88 519.12c-4.5586 0-8.1602 3.6016-8.1602 8.1602 0 4.4414 3.6016 8.0391 8.1602 8.0391 4.4414 0 8.0391-3.6016 8.0391-8.0391-0.11719-4.5625-3.7188-8.1602-8.0391-8.1602z"/>
 <path d="m980.88 556.32c-4.5586 0-8.1602 3.6016-8.1602 8.1602 0 4.4414 3.6016 8.0391 8.1602 8.0391 4.4414 0 8.0391-3.6016 8.0391-8.0391-0.11719-4.5586-3.7188-8.1602-8.0391-8.1602z"/>
 <path d="m1028.4 519.12c-4.5586 0-8.1602 3.6016-8.1602 8.1602 0 4.4414 3.6016 8.0391 8.1602 8.0391 4.4414 0 8.0391-3.6016 8.0391-8.0391 0.003906-4.5625-3.5977-8.1602-8.0391-8.1602z"/>
 <path d="m1028.4 593.64c-4.5586 0-8.1602 3.4805-8.1602 8.0391 0 4.4414 3.6016 8.1602 8.1602 8.1602 4.4414 0 8.0391-3.7188 8.0391-8.1602 0.003906-4.5586-3.5977-8.0391-8.0391-8.0391z"/>
 <path d="m1028.4 556.32c-4.5586 0-8.1602 3.6016-8.1602 8.1602 0 4.4414 3.6016 8.0391 8.1602 8.0391 4.4414 0 8.0391-3.6016 8.0391-8.0391 0.003906-4.5586-3.5977-8.1602-8.0391-8.1602z"/>
 <path d="m1028.4 668.04c-4.5586 0-8.1602 3.6016-8.1602 8.0391 0 4.5586 3.6016 8.1602 8.1602 8.1602 4.4414 0 8.0391-3.6016 8.0391-8.1602 0.003906-4.4375-3.5977-8.0391-8.0391-8.0391z"/>
 <path d="m1028.4 630.84c-4.5586 0-8.1602 3.4805-8.1602 8.0391s3.6016 8.1602 8.1602 8.1602c4.4414 0 8.0391-3.6016 8.0391-8.1602 0.003906-4.5586-3.5977-8.0391-8.0391-8.0391z"/>
 <path d="m1075.9 519.12c-4.5586 0-8.1602 3.6016-8.1602 8.1602 0 4.4414 3.6016 8.0391 8.1602 8.0391 4.4414 0 8.0391-3.6016 8.0391-8.0391 0-4.5625-3.6016-8.1602-8.0391-8.1602z"/>
 <path d="m1075.9 668.04c-4.5586 0-8.1602 3.6016-8.1602 8.0391 0 4.5586 3.6016 8.1602 8.1602 8.1602 4.4414 0 8.0391-3.6016 8.0391-8.1602 0-4.4375-3.6016-8.0391-8.0391-8.0391z"/>
 <path d="m1075.9 556.32c-4.5586 0-8.1602 3.6016-8.1602 8.1602 0 4.4414 3.6016 8.0391 8.1602 8.0391 4.4414 0 8.0391-3.6016 8.0391-8.0391 0-4.5586-3.6016-8.1602-8.0391-8.1602z"/>
 <path d="m1075.9 630.84c-4.5586 0-8.1602 3.4805-8.1602 8.0391s3.6016 8.1602 8.1602 8.1602c4.4414 0 8.0391-3.6016 8.0391-8.1602s-3.6016-8.0391-8.0391-8.0391z"/>
 <path d="m1075.9 593.64c-4.5586 0-8.1602 3.4805-8.1602 8.0391 0 4.4414 3.6016 8.1602 8.1602 8.1602 4.4414 0 8.0391-3.7188 8.0391-8.1602 0-4.5586-3.6016-8.0391-8.0391-8.0391z"/>
 <path d="m861.72 649.32c-4.5586 0-8.1602 3.6016-8.1602 8.0391 0 4.5586 3.6016 8.1602 8.1602 8.1602 4.4414 0 8.0391-3.6016 8.0391-8.1602 0.003907-4.4375-3.5977-8.0391-8.0391-8.0391z"/>
 <path d="m861.72 537.6c-4.5586 0-8.1602 3.6016-8.1602 8.1602 0 4.4414 3.6016 8.0391 8.1602 8.0391 4.4414 0 8.0391-3.6016 8.0391-8.0391 0.003907-4.4414-3.5977-8.1602-8.0391-8.1602z"/>
 <path d="m861.72 574.8c-4.5586 0-8.1602 3.6016-8.1602 8.1602 0 4.4414 3.6016 8.0391 8.1602 8.0391 4.4414 0 8.0391-3.6016 8.0391-8.0391 0.003907-4.5625-3.5977-8.1602-8.0391-8.1602z"/>
 <path d="m861.72 612c-4.5586 0-8.1602 3.6016-8.1602 8.1602 0 4.4414 3.6016 8.0391 8.1602 8.0391 4.4414 0 8.0391-3.6016 8.0391-8.0391 0.003907-4.5586-3.5977-8.1602-8.0391-8.1602z"/>
 <path d="m909.24 612c-4.5586 0-8.1602 3.6016-8.1602 8.1602 0 4.4414 3.6016 8.0391 8.1602 8.0391 4.4414 0 8.0391-3.6016 8.0391-8.0391 0.003906-4.5586-3.5977-8.1602-8.0391-8.1602z"/>
 <path d="m909.24 649.32c-4.5586 0-8.1602 3.6016-8.1602 8.0391 0 4.5586 3.6016 8.1602 8.1602 8.1602 4.4414 0 8.0391-3.6016 8.0391-8.1602 0.003906-4.4375-3.5977-8.0391-8.0391-8.0391z"/>
 <path d="m909.24 537.6c-4.5586 0-8.1602 3.6016-8.1602 8.1602 0 4.4414 3.6016 8.0391 8.1602 8.0391 4.4414 0 8.0391-3.6016 8.0391-8.0391 0.003906-4.4414-3.5977-8.1602-8.0391-8.1602z"/>
 <path d="m909.24 574.8c-4.5586 0-8.1602 3.6016-8.1602 8.1602 0 4.4414 3.6016 8.0391 8.1602 8.0391 4.4414 0 8.0391-3.6016 8.0391-8.0391 0.003906-4.5625-3.5977-8.1602-8.0391-8.1602z"/>
 <path d="m956.88 612c-4.5586 0-8.1602 3.6016-8.1602 8.1602 0 4.4414 3.6016 8.0391 8.1602 8.0391 4.4414 0 8.0391-3.6016 8.0391-8.0391 0.003906-4.5586-3.7188-8.1602-8.0391-8.1602z"/>
 <path d="m956.88 649.32c-4.5586 0-8.1602 3.6016-8.1602 8.0391 0 4.5586 3.6016 8.1602 8.1602 8.1602 4.4414 0 8.0391-3.6016 8.0391-8.1602 0.003906-4.4375-3.7188-8.0391-8.0391-8.0391z"/>
 <path d="m956.88 574.8c-4.5586 0-8.1602 3.6016-8.1602 8.1602 0 4.4414 3.6016 8.0391 8.1602 8.0391 4.4414 0 8.0391-3.6016 8.0391-8.0391 0.003906-4.5625-3.7188-8.1602-8.0391-8.1602z"/>
 <path d="m956.88 537.6c-4.5586 0-8.1602 3.6016-8.1602 8.1602 0 4.4414 3.6016 8.0391 8.1602 8.0391 4.4414 0 8.0391-3.6016 8.0391-8.0391 0.003906-4.4414-3.7188-8.1602-8.0391-8.1602z"/>
 <path d="m1004.4 649.32c-4.5586 0-8.1602 3.6016-8.1602 8.0391 0 4.5586 3.6016 8.1602 8.1602 8.1602 4.4414 0 8.0391-3.6016 8.0391-8.1602 0.003906-4.4375-3.5977-8.0391-8.0391-8.0391z"/>
 <path d="m1004.4 612c-4.5586 0-8.1602 3.6016-8.1602 8.1602 0 4.4414 3.6016 8.0391 8.1602 8.0391 4.4414 0 8.0391-3.6016 8.0391-8.0391 0.003906-4.5586-3.5977-8.1602-8.0391-8.1602z"/>
 <path d="m1004.4 574.8c-4.5586 0-8.1602 3.6016-8.1602 8.1602 0 4.4414 3.6016 8.0391 8.1602 8.0391 4.4414 0 8.0391-3.6016 8.0391-8.0391 0.003906-4.5625-3.5977-8.1602-8.0391-8.1602z"/>
 <path d="m1009.2 502.2c-1.3203-1.0781-3-1.8008-4.8008-1.8008-2.8789 0-5.1602 1.4414-6.6016 3.6016-0.83984 1.3203-1.5586 2.7617-1.5586 4.5586 0 4.4414 3.6016 8.0391 8.1602 8.0391 4.4414 0 8.0391-3.6016 8.0391-8.0391 0.003906-2.6367-1.3164-4.918-3.2383-6.3594z"/>
 <path d="m1004.4 537.6c-4.5586 0-8.1602 3.6016-8.1602 8.1602 0 4.4414 3.6016 8.0391 8.1602 8.0391 4.4414 0 8.0391-3.6016 8.0391-8.0391 0.003906-4.4414-3.5977-8.1602-8.0391-8.1602z"/>
 <path d="m1051.9 574.8c-4.5586 0-8.1602 3.6016-8.1602 8.1602 0 4.4414 3.6016 8.0391 8.1602 8.0391 4.4414 0 8.0391-3.6016 8.0391-8.0391 0-4.5625-3.6016-8.1602-8.0391-8.1602z"/>
 <path d="m1051.9 500.4c-4.5586 0-8.1602 3.6016-8.1602 8.1602 0 4.4414 3.6016 8.0391 8.1602 8.0391 4.4414 0 8.0391-3.6016 8.0391-8.0391s-3.6016-8.1602-8.0391-8.1602z"/>
 <path d="m1051.9 537.6c-4.5586 0-8.1602 3.6016-8.1602 8.1602 0 4.4414 3.6016 8.0391 8.1602 8.0391 4.4414 0 8.0391-3.6016 8.0391-8.0391 0-4.4414-3.6016-8.1602-8.0391-8.1602z"/>
 <path d="m1051.9 649.32c-4.5586 0-8.1602 3.6016-8.1602 8.0391 0 4.5586 3.6016 8.1602 8.1602 8.1602 4.4414 0 8.0391-3.6016 8.0391-8.1602 0-4.4375-3.6016-8.0391-8.0391-8.0391z"/>
 <path d="m1051.9 612c-4.5586 0-8.1602 3.6016-8.1602 8.1602 0 4.4414 3.6016 8.0391 8.1602 8.0391 4.4414 0 8.0391-3.6016 8.0391-8.0391 0-4.5586-3.6016-8.1602-8.0391-8.1602z"/>
 <path d="m1099.6 612c-4.5586 0-8.1602 3.6016-8.1602 8.1602 0 4.4414 3.6016 8.0391 8.1602 8.0391 4.4414 0 8.0391-3.6016 8.0391-8.0391 0.003906-4.5586-3.5977-8.1602-8.0391-8.1602z"/>
 <path d="m1099.6 500.4c-4.5586 0-8.1602 3.6016-8.1602 8.1602 0 4.4414 3.6016 8.0391 8.1602 8.0391 4.4414 0 8.0391-3.6016 8.0391-8.0391 0.003906-4.4375-3.5977-8.1602-8.0391-8.1602z"/>
 <path d="m1099.6 537.6c-4.5586 0-8.1602 3.6016-8.1602 8.1602 0 4.4414 3.6016 8.0391 8.1602 8.0391 4.4414 0 8.0391-3.6016 8.0391-8.0391 0.003906-4.4414-3.5977-8.1602-8.0391-8.1602z"/>
 <path d="m1099.6 649.32c-4.5586 0-8.1602 3.6016-8.1602 8.0391 0 4.5586 3.6016 8.1602 8.1602 8.1602 4.4414 0 8.0391-3.6016 8.0391-8.1602 0.003906-4.4375-3.5977-8.0391-8.0391-8.0391z"/>
 <path d="m1099.6 574.8c-4.5586 0-8.1602 3.6016-8.1602 8.1602 0 4.4414 3.6016 8.0391 8.1602 8.0391 4.4414 0 8.0391-3.6016 8.0391-8.0391 0.003906-4.5625-3.5977-8.1602-8.0391-8.1602z"/>
 <path d="m790.56 556.32c-4.5586 0-8.1602 3.6016-8.1602 8.1602 0 4.4414 3.6016 8.0391 8.1602 8.0391 4.4414 0 8.0391-3.6016 8.0391-8.0391 0.003906-4.5586-3.5977-8.1602-8.0391-8.1602z"/>
 <path d="m790.56 593.64c-4.5586 0-8.1602 3.4805-8.1602 8.0391 0 4.4414 3.6016 8.1602 8.1602 8.1602 4.4414 0 8.0391-3.7188 8.0391-8.1602 0.003906-4.5586-3.5977-8.0391-8.0391-8.0391z"/>
 <path d="m838.08 530.64v-11.52c-4.5586 0-8.0391 3.6016-8.0391 8.1602 0 1.6797 0.60156 3.1211 1.4414 4.4414 1.4414 2.1602 3.7188 3.6016 6.4805 3.6016v-4.6836z"/>
 <path d="m838.08 593.64c-4.5586 0-8.0391 3.4805-8.0391 8.0391 0 4.4414 3.4805 8.1602 8.0391 8.1602z"/>
 <path d="m838.08 556.32c-4.5586 0-8.0391 3.6016-8.0391 8.1602 0 4.4414 3.4805 8.0391 8.0391 8.0391z"/>
 <path d="m830.04 638.88c0 4.5586 3.4805 8.1602 8.0391 8.1602v-16.199c-4.4375 0-8.0391 3.4805-8.0391 8.0391z"/>
 <path d="m766.56 574.8c-4.5586 0-8.1602 3.6016-8.1602 8.1602 0 4.4414 3.6016 8.0391 8.1602 8.0391 4.4414 0 8.0391-3.6016 8.0391-8.0391 0.003906-4.5625-3.5977-8.1602-8.0391-8.1602z"/>
 <path d="m773.16 541.44c-1.4414-2.2812-3.8398-3.8398-6.6016-3.8398-3.8398 0-6.8398 2.6406-7.8008 6.1211-0.12109 0.60156-0.35937 1.3203-0.35937 2.0391 0 4.4414 3.6016 8.0391 8.1602 8.0391 4.4414 0 8.0391-3.6016 8.0391-8.0391 0.003906-1.5625-0.59766-3.1211-1.4375-4.3203z"/>
 <path d="m814.2 574.8c-4.5586 0-8.1602 3.6016-8.1602 8.1602 0 4.4414 3.6016 8.0391 8.1602 8.0391 4.4414 0 8.0391-3.6016 8.0391-8.0391 0-4.5625-3.7188-8.1602-8.0391-8.1602z"/>
 <path d="m814.2 537.6c-4.5586 0-8.1602 3.6016-8.1602 8.1602 0 4.4414 3.6016 8.0391 8.1602 8.0391 4.4414 0 8.0391-3.6016 8.0391-8.0391 0-4.4414-3.7188-8.1602-8.0391-8.1602z"/>
 <path d="m814.2 612c-4.5586 0-8.1602 3.6016-8.1602 8.1602 0 4.4414 3.6016 8.0391 8.1602 8.0391 4.4414 0 8.0391-3.6016 8.0391-8.0391 0-4.5586-3.7188-8.1602-8.0391-8.1602z"/>
 <path d="m465.6 452.88c0-4.5586-3.6016-8.1602-8.0391-8.1602v16.199c4.4375 0.003906 8.0391-3.5977 8.0391-8.0391z"/>
 <path d="m457.56 498.12c4.4414 0 8.0391-3.6016 8.0391-8.0391 0-4.5586-3.6016-8.1602-8.0391-8.1602z"/>
 <path d="m457.56 535.32c4.4414 0 8.0391-3.6016 8.0391-8.0391 0-4.5586-3.6016-8.1602-8.0391-8.1602z"/>
 <path d="m457.56 572.52c4.4414 0 8.0391-3.6016 8.0391-8.0391 0-4.5586-3.6016-8.1602-8.0391-8.1602z"/>
 <path d="m457.56 594.48v15.238c4.4414 0 8.0391-3.7188 8.0391-8.1602 0-1.9219-0.71875-3.6016-1.8008-4.9219-1.4414-1.9219-3.7188-3.1211-6.2383-3.1211z"/>
 <path d="m505.2 609.84c4.4414 0 8.0391-3.7188 8.0391-8.1602 0-4.5586-3.6016-8.0391-8.0391-8.0391-4.5586 0-8.1602 3.4805-8.1602 8.0391 0 4.4414 3.6016 8.1602 8.1602 8.1602z"/>
 <path d="m552.72 609.84c4.4414 0 8.0391-3.7188 8.0391-8.1602 0-4.5586-3.6016-8.0391-8.0391-8.0391-4.5586 0-8.1602 3.4805-8.1602 8.0391 0 4.4414 3.6016 8.1602 8.1602 8.1602z"/>
 <path d="m600.36 609.84c4.4414 0 8.0391-3.7188 8.0391-8.1602 0-4.5586-3.6016-8.0391-8.0391-8.0391-4.5586 0-8.1602 3.4805-8.1602 8.0391 0 4.4414 3.6016 8.1602 8.1602 8.1602z"/>
 <path d="m593.52 643.2c1.4414 2.2812 3.8398 3.8398 6.7188 3.8398 0.96094 0 1.6797-0.23828 2.5195-0.48047 3.1211-1.0781 5.5195-4.0781 5.5195-7.6797 0-4.5586-3.6016-8.0391-8.0391-8.0391-4.5586 0-8.1602 3.4805-8.1602 8.0391 0.12109 1.5625 0.60156 3 1.4414 4.3203z"/>
 <path d="m647.88 647.04c4.4414 0 8.0391-3.6016 8.0391-8.1602s-3.6016-8.0391-8.0391-8.0391c-4.5586 0-8.1602 3.4805-8.1602 8.0391 0 4.5625 3.6016 8.1602 8.1602 8.1602z"/>
 <path d="m647.88 609.84c4.4414 0 8.0391-3.7188 8.0391-8.1602 0-4.5586-3.6016-8.0391-8.0391-8.0391-4.5586 0-8.1602 3.4805-8.1602 8.0391 0 4.4414 3.6016 8.1602 8.1602 8.1602z"/>
 <path d="m687.36 676.8c0.35938 4.1992 3.7188 7.4414 8.0391 7.4414 2.2812 0 4.3203-0.96094 5.7617-2.5195 1.4414-1.4414 2.2812-3.4805 2.2812-5.6406 0-4.4414-3.6016-8.0391-8.0391-8.0391-4.5586 0-8.1602 3.6016-8.1602 8.0391-0.003907 0.23828 0.11719 0.47656 0.11719 0.71875z"/>
 <path d="m695.4 647.04c4.4414 0 8.0391-3.6016 8.0391-8.1602s-3.6016-8.0391-8.0391-8.0391c-4.5586 0-8.1602 3.4805-8.1602 8.0391 0 4.5625 3.6016 8.1602 8.1602 8.1602z"/>
 <path d="m695.4 609.84c4.4414 0 8.0391-3.7188 8.0391-8.1602 0-4.5586-3.6016-8.0391-8.0391-8.0391-4.5586 0-8.1602 3.4805-8.1602 8.0391 0 4.4414 3.6016 8.1602 8.1602 8.1602z"/>
 <path d="m740.04 646.44c0.96094 0.35938 1.9219 0.60156 3 0.60156 4.5586 0 8.0391-3.6016 8.0391-8.1602 0-1.6797-0.60156-3.2383-1.5586-4.4414-1.4414-2.1602-3.7188-3.4805-6.4805-3.4805-4.5586 0-8.1602 3.4805-8.1602 8.0391 0 3.3594 2.043 6.2383 5.1602 7.4414z"/>
 <path d="m481.2 479.4c4.4414 0 8.0391-3.6016 8.0391-8.0391 0-4.5586-3.6016-8.1602-8.0391-8.1602-4.5586 0-8.1602 3.6016-8.1602 8.1602 0 4.4414 3.6016 8.0391 8.1602 8.0391z"/>
 <path d="m481.2 591c4.4414 0 8.0391-3.6016 8.0391-8.0391 0-4.5586-3.6016-8.1602-8.0391-8.1602-4.5586 0-8.1602 3.6016-8.1602 8.1602 0 4.4375 3.6016 8.0391 8.1602 8.0391z"/>
 <path d="m481.2 553.8c4.4414 0 8.0391-3.6016 8.0391-8.0391 0-4.5586-3.6016-8.1602-8.0391-8.1602-4.5586 0-8.1602 3.6016-8.1602 8.1602 0 4.4375 3.6016 8.0391 8.1602 8.0391z"/>
 <path d="m528.72 591c4.4414 0 8.0391-3.6016 8.0391-8.0391 0-4.5586-3.6016-8.1602-8.0391-8.1602-4.5586 0-8.1602 3.6016-8.1602 8.1602 0 4.4375 3.7227 8.0391 8.1602 8.0391z"/>
 <path d="m576.36 591c4.4414 0 8.0391-3.6016 8.0391-8.0391 0-4.5586-3.6016-8.1602-8.0391-8.1602-4.5586 0-8.1602 3.6016-8.1602 8.1602 0 4.4375 3.6016 8.0391 8.1602 8.0391z"/>
 <path d="m576.36 628.2c4.4414 0 8.0391-3.6016 8.0391-8.0391 0-4.5586-3.6016-8.1602-8.0391-8.1602-4.5586 0-8.1602 3.6016-8.1602 8.1602 0 4.4414 3.6016 8.0391 8.1602 8.0391z"/>
 <path d="m623.88 591c4.4414 0 8.0391-3.6016 8.0391-8.0391 0-4.5586-3.6016-8.1602-8.0391-8.1602-4.5586 0-8.1602 3.6016-8.1602 8.1602 0 4.4375 3.6016 8.0391 8.1602 8.0391z"/>
 <path d="m623.88 628.2c4.4414 0 8.0391-3.6016 8.0391-8.0391 0-4.5586-3.6016-8.1602-8.0391-8.1602-4.5586 0-8.1602 3.6016-8.1602 8.1602 0 4.4414 3.6016 8.0391 8.1602 8.0391z"/>
 <path d="m671.4 628.2c4.4414 0 8.0391-3.6016 8.0391-8.0391 0-4.5586-3.6016-8.1602-8.0391-8.1602-4.5586 0-8.1602 3.6016-8.1602 8.1602 0 4.4414 3.7227 8.0391 8.1602 8.0391z"/>
 <path d="m671.4 665.52c4.4414 0 8.0391-3.6016 8.0391-8.1602 0-4.4414-3.6016-8.0391-8.0391-8.0391-4.5586 0-8.1602 3.6016-8.1602 8.0391 0 4.5625 3.7227 8.1602 8.1602 8.1602z"/>
 <path d="m671.4 591c4.4414 0 8.0391-3.6016 8.0391-8.0391 0-4.5586-3.6016-8.1602-8.0391-8.1602-4.5586 0-8.1602 3.6016-8.1602 8.1602 0 4.4375 3.7227 8.0391 8.1602 8.0391z"/>
 <path d="m719.04 665.52c4.4414 0 8.0391-3.6016 8.0391-8.1602 0-4.4414-3.6016-8.0391-8.0391-8.0391-4.5586 0-8.1602 3.6016-8.1602 8.0391 0 4.5625 3.6016 8.1602 8.1602 8.1602z"/>
 <path d="m719.04 628.2c4.4414 0 8.0391-3.6016 8.0391-8.0391 0-4.5586-3.6016-8.1602-8.0391-8.1602-4.5586 0-8.1602 3.6016-8.1602 8.1602 0 4.4414 3.6016 8.0391 8.1602 8.0391z"/>
 <path d="m219.84 498.12c4.4414 0 8.0391-3.6016 8.0391-8.0391 0-4.5586-3.6016-8.1602-8.0391-8.1602-4.5586 0-8.1602 3.6016-8.1602 8.1602 0 4.4375 3.6016 8.0391 8.1602 8.0391z"/>
 <path d="m267.36 498.12c4.4414 0 8.0391-3.6016 8.0391-8.0391 0-4.5586-3.6016-8.1602-8.0391-8.1602-4.5586 0-8.1602 3.6016-8.1602 8.1602 0 4.4375 3.6016 8.0391 8.1602 8.0391z"/>
 <path d="m314.88 535.32c4.4414 0 8.0391-3.6016 8.0391-8.0391 0-4.5586-3.6016-8.1602-8.0391-8.1602-4.5586 0-8.1602 3.6016-8.1602 8.1602 0 4.4375 3.6016 8.0391 8.1602 8.0391z"/>
 <path d="m314.88 498.12c4.4414 0 8.0391-3.6016 8.0391-8.0391 0-4.5586-3.6016-8.1602-8.0391-8.1602-4.5586 0-8.1602 3.6016-8.1602 8.1602 0 4.4375 3.6016 8.0391 8.1602 8.0391z"/>
 <path d="m362.52 498.12c4.5586 0 8.0391-3.6016 8.0391-8.0391 0-4.5586-3.4805-8.1602-8.0391-8.1602-4.5586 0-8.1602 3.6016-8.1602 8.1602 0 4.4375 3.6016 8.0391 8.1602 8.0391z"/>
 <path d="m362.52 535.32c4.5586 0 8.0391-3.6016 8.0391-8.0391 0-4.5586-3.4805-8.1602-8.0391-8.1602-4.5586 0-8.1602 3.6016-8.1602 8.1602 0 4.4375 3.6016 8.0391 8.1602 8.0391z"/>
 <path d="m410.04 498.12c4.4414 0 8.0391-3.6016 8.0391-8.0391 0-4.5586-3.6016-8.1602-8.0391-8.1602-4.5586 0-8.1602 3.6016-8.1602 8.1602 0 4.4375 3.6016 8.0391 8.1602 8.0391z"/>
 <path d="m410.04 535.32c4.4414 0 8.0391-3.6016 8.0391-8.0391 0-4.5586-3.6016-8.1602-8.0391-8.1602-4.5586 0-8.1602 3.6016-8.1602 8.1602 0 4.4375 3.6016 8.0391 8.1602 8.0391z"/>
 <path d="m410.04 572.52c4.4414 0 8.0391-3.6016 8.0391-8.0391 0-4.5586-3.6016-8.1602-8.0391-8.1602-4.5586 0-8.1602 3.6016-8.1602 8.1602 0 4.4414 3.6016 8.0391 8.1602 8.0391z"/>
 <path d="m457.56 460.92v-16.199c-4.5586 0-8.0391 3.6016-8.0391 8.1602 0 4.4375 3.6016 8.0391 8.0391 8.0391z"/>
 <path d="m457.56 498.12v-16.199c-4.5586 0-8.0391 3.6016-8.0391 8.1602 0 4.4375 3.6016 8.0391 8.0391 8.0391z"/>
 <path d="m457.56 535.32v-16.199c-4.5586 0-8.0391 3.6016-8.0391 8.1602 0 4.4375 3.6016 8.0391 8.0391 8.0391z"/>
 <path d="m457.56 572.52v-16.199c-4.5586 0-8.0391 3.6016-8.0391 8.1602 0 4.4414 3.6016 8.0391 8.0391 8.0391z"/>
 <path d="m243.36 516.6c4.4414 0 8.0391-3.6016 8.0391-8.0391 0-4.5586-3.6016-8.1602-8.0391-8.1602-4.5586 0-8.1602 3.6016-8.1602 8.1602 0 4.4375 3.6016 8.0391 8.1602 8.0391z"/>
 <path d="m290.88 516.6c4.4414 0 8.0391-3.6016 8.0391-8.0391 0-4.5586-3.6016-8.1602-8.0391-8.1602-4.5586 0-8.1602 3.6016-8.1602 8.1602 0 4.4375 3.7227 8.0391 8.1602 8.0391z"/>
 <path d="m338.52 516.6c4.4414 0 8.0391-3.6016 8.0391-8.0391 0-4.5586-3.6016-8.1602-8.0391-8.1602-4.5586 0-8.1602 3.6016-8.1602 8.1602 0 4.4375 3.6016 8.0391 8.1602 8.0391z"/>
 <path d="m331.2 549.36c1.3203 2.6406 4.0781 4.5586 7.1992 4.5586 1.1992 0 2.2812-0.23828 3.2383-0.71875 2.7617-1.3203 4.8008-4.0781 4.8008-7.3203 0-4.5586-3.6016-8.1602-8.0391-8.1602-4.5586 0-8.1602 3.6016-8.1602 8.1602 0.12109 1.1992 0.48047 2.4023 0.96094 3.4805z"/>
 <path d="m386.04 479.4c4.4414 0 8.0391-3.6016 8.0391-8.0391 0-4.5586-3.6016-8.1602-8.0391-8.1602-4.5586 0-8.1602 3.6016-8.1602 8.1602 0 4.4414 3.6016 8.0391 8.1602 8.0391z"/>
 <path d="m386.04 516.6c4.4414 0 8.0391-3.6016 8.0391-8.0391 0-4.5586-3.6016-8.1602-8.0391-8.1602-4.5586 0-8.1602 3.6016-8.1602 8.1602 0 4.4375 3.6016 8.0391 8.1602 8.0391z"/>
 <path d="m386.04 553.8c4.4414 0 8.0391-3.6016 8.0391-8.0391 0-4.5586-3.6016-8.1602-8.0391-8.1602-4.5586 0-8.1602 3.6016-8.1602 8.1602 0 4.4375 3.6016 8.0391 8.1602 8.0391z"/>
 <path d="m433.68 516.6c4.4414 0 8.0391-3.6016 8.0391-8.0391 0-4.5586-3.6016-8.1602-8.0391-8.1602-4.5586 0-8.1602 3.6016-8.1602 8.1602 0 4.4375 3.6016 8.0391 8.1602 8.0391z"/>
 <path d="m433.68 479.4c4.4414 0 8.0391-3.6016 8.0391-8.0391 0-4.5586-3.6016-8.1602-8.0391-8.1602-4.5586 0-8.1602 3.6016-8.1602 8.1602 0 4.4414 3.6016 8.0391 8.1602 8.0391z"/>
 <path d="m425.52 583.08c0 4.4414 3.6016 8.0391 8.1602 8.0391 2.3984 0 4.5586-1.1992 6-2.8789 1.1992-1.4414 2.0391-3.1211 2.0391-5.1602 0-4.5586-3.6016-8.1602-8.0391-8.1602-4.5586-0.11719-8.1602 3.4805-8.1602 8.1602v0z"/>
 <path d="m433.68 553.8c4.4414 0 8.0391-3.6016 8.0391-8.0391 0-4.5586-3.6016-8.1602-8.0391-8.1602-4.5586 0-8.1602 3.6016-8.1602 8.1602 0 4.4375 3.6016 8.0391 8.1602 8.0391z"/>
 <path d="m695.4 721.44c4.4414 0 8.0391-3.6016 8.0391-8.1602 0-4.4414-3.6016-8.0391-8.0391-8.0391-0.83984 0-1.5586 0.23828-2.2812 0.48047-3.3594 0.96094-5.7617 3.8398-5.8789 7.4414v0.12109c0 4.4336 3.6016 8.1562 8.1602 8.1562z"/>
 <path d="m743.04 758.64c4.5586 0 8.0391-3.6016 8.0391-8.0391 0-4.5586-3.4805-8.1602-8.0391-8.1602-4.5586 0-8.1602 3.6016-8.1602 8.1602 0 4.3203 3.6016 8.0391 8.1602 8.0391z"/>
 <path d="m743.04 684.24c4.5586 0 8.0391-3.6016 8.0391-8.1602 0-4.4414-3.4805-8.0391-8.0391-8.0391-4.5586 0-8.1602 3.6016-8.1602 8.0391 0 4.5625 3.6016 8.1602 8.1602 8.1602z"/>
 <path d="m794.4 720.24c2.5195-1.4414 4.1992-3.9609 4.1992-7.0781 0-4.4414-3.6016-8.0391-8.0391-8.0391-0.35938 0-0.71875 0.12109-1.1992 0.23828-3.9609 0.60156-6.9609 3.8398-6.9609 7.8008 0 4.5586 3.6016 8.1602 8.1602 8.1602 1.4414 0.12109 2.6406-0.35937 3.8398-1.082z"/>
 <path d="m719.04 739.92c4.4414 0 8.0391-3.6016 8.0391-8.1602 0-4.4414-3.6016-8.0391-8.0391-8.0391-4.5586 0-8.1602 3.6016-8.1602 8.0391 0 4.5586 3.6016 8.1602 8.1602 8.1602z"/>
 <path d="m766.56 702.72c4.4414 0 8.0391-3.6016 8.0391-8.1602 0-4.4414-3.6016-8.0391-8.0391-8.0391-4.5586 0-8.1602 3.6016-8.1602 8.0391 0 4.5625 3.6016 8.1602 8.1602 8.1602z"/>
 <path d="m766.56 665.52c3.4805 0 6.4805-2.3984 7.5586-5.6406 0.23828-0.83984 0.48047-1.6797 0.48047-2.5195 0-2.7617-1.4414-5.0391-3.4805-6.4805-1.3203-0.96094-2.7617-1.5586-4.5586-1.5586-4.5586 0-8.1602 3.6016-8.1602 8.0391 0 4.5625 3.6016 8.1602 8.1602 8.1602z"/>
 <path d="m647.88 853.44c-4.5586 0-8.1602 3.6016-8.1602 8.1602 0 4.5586 3.6016 8.1602 8.1602 8.1602 4.4414 0 8.0391-3.6016 8.0391-8.1602 0.003906-4.5625-3.5977-8.1602-8.0391-8.1602z"/>
 <path d="m703.44 824.4h-0.12109c-0.35937-4.1992-3.7188-7.5586-7.9219-7.5586-4.3203 0-7.6797 3.3594-8.0391 7.5586h-0.12109c0 4.4414 3.6016 8.0391 8.1602 8.0391 4.4414 0.003906 8.043-3.7188 8.043-8.0391z"/>
 <path d="m623.88 834.72c-4.5586 0-8.1602 3.6016-8.1602 8.1602 0 4.4414 3.6016 8.0391 8.1602 8.0391 4.4414 0 8.0391-3.6016 8.0391-8.0391 0.003906-4.5586-3.5977-8.1602-8.0391-8.1602z"/>
 <path d="m814.2 739.92c4.4414 0 8.0391-3.6016 8.0391-8.1602 0-4.4414-3.6016-8.0391-8.0391-8.0391-4.5586 0-8.1602 3.6016-8.1602 8.0391 0 4.5586 3.6016 8.1602 8.1602 8.1602z"/>
 <path d="m386.04 723.72c-4.5586 0-8.1602 3.6016-8.1602 8.0391 0 4.5586 3.6016 8.1602 8.1602 8.1602 4.4414 0 8.0391-3.6016 8.0391-8.1602 0-4.4375-3.5977-8.0391-8.0391-8.0391z"/>
 <path d="m433.68 760.92c-4.5586 0-8.1602 3.6016-8.1602 8.0391 0 4.5586 3.6016 8.1602 8.1602 8.1602 4.4414 0 8.0391-3.6016 8.0391-8.1602 0-4.4414-3.7188-8.0391-8.0391-8.0391z"/>
 <path d="m505.2 779.64c-4.5586 0-8.1602 3.6016-8.1602 8.1602 0 4.4414 3.6016 8.0391 8.1602 8.0391 4.4414 0 8.0391-3.6016 8.0391-8.0391 0-4.5625-3.5977-8.1602-8.0391-8.1602z"/>
 <path d="m481.2 798.12c-4.5586 0-8.1602 3.6016-8.1602 8.0391 0 4.5586 3.6016 8.1602 8.1602 8.1602 4.4414 0 8.0391-3.6016 8.0391-8.1602 0-4.4414-3.5977-8.0391-8.0391-8.0391z"/>
 <path d="m536.76 768.96c0-4.4414-3.6016-8.0391-8.0391-8.0391-4.5586 0-8.1602 3.6016-8.1602 8.0391 0 4.5586 3.6016 8.1602 8.1602 8.1602 4.4375 0 8.0391-3.6016 8.0391-8.1602z"/>
 <path d="m576.36 814.32c4.4414 0 8.0391-3.6016 8.0391-8.1602 0-4.4414-3.6016-8.0391-8.0391-8.0391-4.5586 0-8.1602 3.6016-8.1602 8.0391 0 4.5586 3.6016 8.1602 8.1602 8.1602z"/>
 <path d="m552.72 853.44c-4.5586 0-8.1602 3.6016-8.1602 8.1602 0 4.5586 3.6016 8.1602 8.1602 8.1602 4.4414 0 8.0391-3.6016 8.0391-8.1602 0.003907-4.5625-3.5977-8.1602-8.0391-8.1602z"/>
 <path d="m560.64 824.4v0c-0.35938-4.1992-3.7188-7.5586-7.9219-7.5586-4.3203 0-7.6797 3.3594-8.0391 7.5586h-0.12109c0 4.4414 3.6016 8.0391 8.1602 8.0391 4.4414 0 8.0391-3.6016 8.0391-8.0391z"/>
 <path d="m528.72 834.72c-4.5586 0-8.1602 3.6016-8.1602 8.1602 0 4.4414 3.6016 8.0391 8.1602 8.0391 4.4414 0 8.0391-3.6016 8.0391-8.0391 0.003907-4.5586-3.5977-8.1602-8.0391-8.1602z"/>
 <path d="m528.72 872.04c-4.5586 0-8.1602 3.6016-8.1602 8.0391 0 4.4414 3.6016 8.0391 8.1602 8.0391 4.4414 0 8.0391-3.6016 8.0391-8.0391 0.003907-4.4375-3.5977-8.0391-8.0391-8.0391z"/>
 <path d="m576.36 872.04c-4.5586 0-8.1602 3.6016-8.1602 8.0391 0 4.4414 3.6016 8.0391 8.1602 8.0391 4.4414 0 8.0391-3.6016 8.0391-8.0391s-3.7188-8.0391-8.0391-8.0391z"/>
 <path d="m838.08 519.12v16.199c3.7188 0 6.7188-2.5195 7.5586-6 0.23828-0.71875 0.48047-1.3203 0.48047-2.0391 0.003906-4.5625-3.5977-8.1602-8.0391-8.1602z"/>
 <path d="m838.08 481.92v-7.9219 7.9219c-4.5586 0-8.0391 3.6016-8.0391 8.1602 0 4.4414 3.4805 8.0391 8.0391 8.0391v-0.12109 0.12109c4.4414 0 8.0391-3.6016 8.0391-8.0391 0.003906-4.5625-3.5977-8.1602-8.0391-8.1602z"/>
 <path d="m861.72 500.4c-4.5586 0-8.1602 3.6016-8.1602 8.1602 0 4.4414 3.6016 8.0391 8.1602 8.0391 4.4414 0 8.0391-3.6016 8.0391-8.0391 0.003907-4.4375-3.5977-8.1602-8.0391-8.1602z"/>
 <path d="m909.24 500.4c-4.5586 0-8.1602 3.6016-8.1602 8.1602 0 4.4414 3.6016 8.0391 8.1602 8.0391 4.4414 0 8.0391-3.6016 8.0391-8.0391 0.003906-4.4375-3.5977-8.1602-8.0391-8.1602z"/>
 <path d="m956.88 500.4c-4.5586 0-8.1602 3.6016-8.1602 8.1602 0 1.3203 0.35938 2.3984 0.83984 3.4805 1.3203 2.6406 4.0781 4.5586 7.3203 4.5586 4.0781 0 7.3203-3.1211 7.8008-7.0781 0-0.35938 0.23828-0.60156 0.23828-0.96094 0.003906-4.4375-3.7188-8.1602-8.0391-8.1602z"/>
 <path d="m552.72 519.12c-4.5586 0-8.1602 3.6016-8.1602 8.1602 0 4.4414 3.6016 8.0391 8.1602 8.0391 4.4414 0 8.0391-3.6016 8.0391-8.0391 0.003907-4.5625-3.5977-8.1602-8.0391-8.1602z"/>
 <path d="m592.2 490.08c0 4.4414 3.6016 8.0391 8.1602 8.0391 4.4414 0 8.0391-3.6016 8.0391-8.0391 0-4.5586-3.6016-8.1602-8.0391-8.1602-4.5586 0.003906-8.1602 3.6016-8.1602 8.1602z"/>
 <path d="m647.88 481.92c-4.5586 0-8.1602 3.6016-8.1602 8.1602 0 4.4414 3.6016 8.0391 8.1602 8.0391 4.4414 0 8.0391-3.6016 8.0391-8.0391 0.003906-4.5625-3.5977-8.1602-8.0391-8.1602z"/>
 <path d="m695.4 444.72c-4.5586 0-8.1602 3.6016-8.1602 8.1602 0 4.4414 3.6016 8.0391 8.1602 8.0391 4.4414 0 8.0391-3.6016 8.0391-8.0391 0.003906-4.5586-3.5977-8.1602-8.0391-8.1602z"/>
 <path d="m695.4 519.12c-4.5586 0-8.1602 3.6016-8.1602 8.1602 0 4.4414 3.6016 8.0391 8.1602 8.0391 4.4414 0 8.0391-3.6016 8.0391-8.0391 0.003906-4.5625-3.5977-8.1602-8.0391-8.1602z"/>
 <path d="m695.4 481.92c-4.5586 0-8.1602 3.6016-8.1602 8.1602 0 4.4414 3.6016 8.0391 8.1602 8.0391 4.4414 0 8.0391-3.6016 8.0391-8.0391 0.003906-4.5625-3.5977-8.1602-8.0391-8.1602z"/>
 <path d="m743.04 444.72c-4.5586 0-8.1602 3.6016-8.1602 8.1602 0 4.4414 3.6016 8.0391 8.1602 8.0391 4.5586 0 8.0391-3.6016 8.0391-8.0391 0-4.5586-3.5977-8.1602-8.0391-8.1602z"/>
 <path d="m743.04 519.12c-4.5586 0-8.1602 3.6016-8.1602 8.1602 0 4.4414 3.6016 8.0391 8.1602 8.0391 4.5586 0 8.0391-3.6016 8.0391-8.0391 0-4.5625-3.5977-8.1602-8.0391-8.1602z"/>
 <path d="m743.04 481.92c-4.5586 0-8.1602 3.6016-8.1602 8.1602 0 4.4414 3.6016 8.0391 8.1602 8.0391 4.5586 0 8.0391-3.6016 8.0391-8.0391 0-4.5625-3.5977-8.1602-8.0391-8.1602z"/>
 <path d="m790.56 444.72c-4.5586 0-8.1602 3.6016-8.1602 8.1602 0 4.4414 3.6016 8.0391 8.1602 8.0391 4.4414 0 8.0391-3.6016 8.0391-8.0391 0.003906-4.5586-3.5977-8.1602-8.0391-8.1602z"/>
 <path d="m790.56 519.12c-4.5586 0-8.1602 3.6016-8.1602 8.1602 0 4.4414 3.6016 8.0391 8.1602 8.0391 4.4414 0 8.0391-3.6016 8.0391-8.0391 0.003906-4.5625-3.5977-8.1602-8.0391-8.1602z"/>
 <path d="m790.56 481.92c-4.5586 0-8.1602 3.6016-8.1602 8.1602 0 4.4414 3.6016 8.0391 8.1602 8.0391 4.4414 0 8.0391-3.6016 8.0391-8.0391 0.003906-4.5625-3.5977-8.1602-8.0391-8.1602z"/>
 <path d="m576.36 500.4c-4.5586 0-8.1602 3.6016-8.1602 8.1602 0 4.4414 3.6016 8.0391 8.1602 8.0391 4.4414 0 8.0391-3.6016 8.0391-8.0391s-3.7188-8.1602-8.0391-8.1602z"/>
 <path d="m623.88 463.2c-4.5586 0-8.1602 3.6016-8.1602 8.1602 0 4.4414 3.6016 8.0391 8.1602 8.0391 4.4414 0 8.0391-3.6016 8.0391-8.0391 0.003906-4.4375-3.5977-8.1602-8.0391-8.1602z"/>
 <path d="m623.88 500.4c-4.5586 0-8.1602 3.6016-8.1602 8.1602 0 4.4414 3.6016 8.0391 8.1602 8.0391 4.4414 0 8.0391-3.6016 8.0391-8.0391 0.003906-4.4375-3.5977-8.1602-8.0391-8.1602z"/>
 <path d="m671.4 463.2c-4.5586 0-8.1602 3.6016-8.1602 8.1602 0 4.4414 3.6016 8.0391 8.1602 8.0391 4.4414 0 8.0391-3.6016 8.0391-8.0391 0.003906-4.4375-3.5977-8.1602-8.0391-8.1602z"/>
 <path d="m671.4 500.4c-4.5586 0-8.1602 3.6016-8.1602 8.1602 0 4.4414 3.6016 8.0391 8.1602 8.0391 4.4414 0 8.0391-3.6016 8.0391-8.0391 0.003906-4.4375-3.5977-8.1602-8.0391-8.1602z"/>
 <path d="m719.04 500.4c-4.5586 0-8.1602 3.6016-8.1602 8.1602 0 4.4414 3.6016 8.0391 8.1602 8.0391 4.4414 0 8.0391-3.6016 8.0391-8.0391s-3.5977-8.1602-8.0391-8.1602z"/>
 <path d="m719.04 463.2c-4.5586 0-8.1602 3.6016-8.1602 8.1602 0 4.4414 3.6016 8.0391 8.1602 8.0391 4.4414 0 8.0391-3.6016 8.0391-8.0391s-3.5977-8.1602-8.0391-8.1602z"/>
 <path d="m766.56 500.4c-4.5586 0-8.1602 3.6016-8.1602 8.1602 0 4.4414 3.6016 8.0391 8.1602 8.0391 4.4414 0 8.0391-3.6016 8.0391-8.0391 0.003906-4.4375-3.5977-8.1602-8.0391-8.1602z"/>
 <path d="m766.56 463.2c-4.5586 0-8.1602 3.6016-8.1602 8.1602 0 4.4414 3.6016 8.0391 8.1602 8.0391 4.4414 0 8.0391-3.6016 8.0391-8.0391 0.003906-4.4375-3.5977-8.1602-8.0391-8.1602z"/>
 <path d="m814.2 463.2c-4.5586 0-8.1602 3.6016-8.1602 8.1602 0 4.4414 3.6016 8.0391 8.1602 8.0391 4.4414 0 8.0391-3.6016 8.0391-8.0391s-3.7188-8.1602-8.0391-8.1602z"/>
 <path d="m814.2 500.4c-4.5586 0-8.1602 3.6016-8.1602 8.1602 0 4.4414 3.6016 8.0391 8.1602 8.0391 4.4414 0 8.0391-3.6016 8.0391-8.0391s-3.7188-8.1602-8.0391-8.1602z"/>
 <path d="m916.44 471.12c-12-1.9219-22.078-8.6406-34.68-17.281-28.801-19.441-68.281-46.199-168.36-46.441h-0.23828c-31.559 0-82.559 17.039-109.2 28.441-9.1211 3.9609-18.48 8.2812-27.602 12.84-37.199-21.48-85.32-38.879-133.8-27.84-20.281 4.5586-38.52 9-54.84 12.961-20.641 5.0391-38.398 9.2383-52.078 12-59.398 11.762-198.24 3.9609-244.32 0.83984v24.121c0.48047 0 0.96094 0.12109 1.4414 0.12109 0 0.12109-0.12109 0.35938-0.12109 0.48047 0 4.4414 3.6016 8.0391 8.1602 8.0391 4.1992 0 7.6797-3.3594 7.9219-7.5586 2.3984 0.12109 4.9219 0.23828 7.5586 0.48047 7.4414 0.48047 15.602 0.83984 24.359 1.3203 0.96094 3.3594 3.9609 5.7617 7.6797 5.7617 3.3594 0 6.2383-2.1602 7.4414-5.1602 10.559 0.48047 21.719 0.83984 33.238 1.1992 1.4414 2.2812 3.8398 3.9609 6.8398 3.9609 2.7617 0 5.0391-1.5586 6.4805-3.6016 11.52 0.23828 23.16 0.35937 34.68 0.35937 1.4414 1.9219 3.7188 3.2383 6.3594 3.2383s4.9219-1.3203 6.3594-3.3594c11.762-0.12109 23.16-0.35938 34.199-0.96094 1.4414 2.5195 3.9609 4.1992 7.0781 4.1992 3.3594 0 6.2383-2.1602 7.4414-5.0391 11.641-0.83984 22.441-1.9219 32.039-3.3594 0 0.12109-0.12109 0.23828-0.12109 0.35938 0 4.4414 3.6016 8.0391 8.1602 8.0391 4.4414 0 8.0391-3.6016 8.0391-8.0391 0-1.0781-0.23828-2.1602-0.60156-3.2383 13.199-2.7617 29.16-6.6016 47.398-11.039 2.8789-0.71875 6-1.4414 9-2.1602 0.96094 3.3594 3.9609 5.8789 7.6797 5.8789 4.4414 0 8.0391-3.6016 8.0391-8.0391 0-0.60156-0.23828-1.0781-0.35938-1.5586 9.4805-2.2812 19.441-4.5586 30-7.0781 3.2383-0.71875 6.4805-1.0781 9.8398-1.4414 7.0781-0.96094 14.16-1.4414 21.121-1.0781 0.83984 0.23828 1.5586 0.48047 2.3984 0.48047 0.48047 0 0.83984-0.23828 1.3203-0.23828 6.9609 0.48047 13.801 1.6797 20.52 3.1211-3.4805 0.96094-6.1211 3.9609-6.1211 7.8008 0 4.4414 3.6016 8.0391 8.1602 8.0391 4.4414 0 8.0391-3.6016 8.0391-8.0391 0-2.3984-1.0781-4.5586-2.7617-6 14.039 3.7188 27.602 9.3594 40.199 15.719-4.8008 2.7617-9.4805 5.5195-13.922 8.2812-0.35937-4.1992-3.7188-7.5586-7.9219-7.5586-4.5586 0-8.1602 3.6016-8.1602 8.1602 0 3.1211 1.8008 5.6406 4.4414 7.0781-4.3203 3-8.5195 6-12.359 8.8789-1.0781-3.1211-4.0781-5.3984-7.4414-5.3984-4.5586 0-8.1602 3.6016-8.1602 8.1602 0 3 1.6797 5.5195 4.1992 6.8398-5.6406 5.1602-9.8398 10.078-12.48 14.52 0.35938-0.83984 0.60156-1.8008 0.60156-2.8789 0-4.5586-3.6016-8.1602-8.0391-8.1602-4.5586 0-8.1602 3.6016-8.1602 8.1602 0 4.4414 3.6016 8.0391 8.1602 8.0391 2.7617 0 5.0391-1.4414 6.4805-3.6016-0.71875 1.3203-1.3203 2.6406-1.6797 3.9609-1.0781 3.9609-0.96094 7.9219 0.60156 11.398 2.7617 11.281 9.2383 20.879 18.602 27.961h-0.12109c-4.5586 0-8.1602 3.6016-8.1602 8.1602 0 4.4414 3.6016 8.0391 8.1602 8.0391 4.4414 0 8.0391-3.6016 8.0391-8.0391 0-1.5586-0.48047-2.8789-1.1992-4.0781 1.4414 0.83984 2.7617 1.8008 4.3203 2.5195 8.8789 4.0781 19.199 6.2383 30.238 6.6016 1.4414 1.8008 3.7188 3 6.2383 3 2.6406 0 4.9219-1.4414 6.3594-3.4805 10.68-0.71875 21.84-2.8789 33.359-6.6016-0.12109 0.60156-0.35938 1.3203-0.35938 1.9219 0 4.4414 3.6016 8.0391 8.1602 8.0391 4.4414 0 8.0391-3.6016 8.0391-8.0391 0-2.6406-1.1992-4.8008-3.1211-6.2383 4.5586-1.8008 9-4.0781 13.559-6.2383 1.4414 1.0781 3.1211 1.9219 5.0391 1.9219 2.3984 0 4.5586-1.0781 6-2.8789 5.0391 2.2812 10.199 4.1992 15.359 5.8789-3.2383 1.0781-5.5195 4.0781-5.5195 7.6797 0 4.4414 3.6016 8.0391 8.1602 8.0391 4.4414 0 8.0391-3.6016 8.0391-8.0391 0-2.0391-0.83984-3.8398-2.0391-5.2812 8.5195 2.0391 16.922 3.2383 24.961 3.9609l72.719 64.801 1.3203 2.0391 0.35937-0.48047c2.7617 2.5195 5.6406 5.3984 8.8789 8.5195 2.1602 2.1602 4.5586 4.5586 6.9609 6.8398 7.3203 7.3203 15.238 15.238 23.16 23.398-0.60156-0.12109-1.0781-0.35938-1.6797-0.35938-4.5586 0-8.1602 3.6016-8.1602 8.0391 0 4.5586 3.6016 8.1602 8.1602 8.1602 4.4414 0 8.0391-3.6016 8.0391-8.1602 0-0.60156-0.23828-1.0781-0.35938-1.5586 4.1992 4.3203 8.3984 8.6406 12.602 12.84-2.8789 1.1992-4.9219 4.0781-4.9219 7.3203 0 4.5586 3.6016 8.1602 8.1602 8.1602 3.2383 0 6-1.9219 7.1992-4.8008 6.1211 6.7188 9.6016 23.52 4.9219 37.68-3.3594 9.9609-9.6016 15.84-18.84 17.16-0.71875 0.12109-1.3203 0.48047-2.0391 0.71875l-0.23828-0.83984h-7.0781c0.23828-0.71875 0.48047-1.4414 0.48047-2.1602 0-4.5586-3.6016-8.1602-8.0391-8.1602-1.5586 0-2.8789 0.48047-4.0781 1.1992l-11.879-11.879c0-4.3203-3.6016-7.9219-7.9219-7.9219l-41.398-41.398c-3.1211-3.1211-7.4414-3.9609-11.398-3-2.0391 0.48047-3.9609 1.3203-5.6406 3-0.48047 0.48047-0.71875 1.0781-1.0781 1.5586-1.5586 2.1602-2.5195 4.5586-2.5195 6.9609 0 3 1.1992 6.1211 3.4805 8.3984l63.84 63.961c-1.4414-1.4414-3.4805-2.3984-5.6406-2.3984-4.5586 0-8.1602 3.6016-8.1602 8.0391 0 4.5586 3.6016 8.1602 8.1602 8.1602 4.4414 0 8.0391-3.6016 8.0391-8.1602 0-2.1602-0.83984-4.1992-2.2812-5.6406l10.922 10.922c-1.1992 9.7188-5.1602 19.32-12.84 24.961-1.0781-0.60156-2.3984-1.0781-3.7188-1.0781-3.7188 0-6.7188 2.5195-7.6797 5.7617h-10.441l-8.2812-8.6406c0.83984 0.35938 1.8008 0.60156 2.7617 0.60156 4.5586 0 8.0391-3.6016 8.0391-8.0391 0-4.5586-3.4805-8.1602-8.0391-8.1602-4.5586 0-8.1602 3.6016-8.1602 8.1602 0 0.83984 0.23828 1.5586 0.48047 2.3984l-13.078-13.68c2.7617-1.3203 4.8008-4.0781 4.8008-7.4414 0-4.4414-3.6016-8.0391-8.0391-8.0391-3.2383 0-5.8789 1.9219-7.1992 4.4414l-9.8398-10.32c0.96094-1.3203 1.5586-2.7617 1.5586-4.4414 0-4.5586-3.6016-8.1602-8.0391-8.1602-1.5586 0-3 0.60156-4.1992 1.3203l-10.801-11.398c-0.23828-0.23828-0.60156-0.35938-0.83984-0.60156 0-2.2812-0.96094-4.1992-2.3984-5.7617-1.4414-1.4414-3.4805-2.2812-5.6406-2.2812-4.5586 0-8.1602 3.6016-8.1602 8.0391v0.23828c-3.9609 3.7188-4.5586 9.4805-2.1602 14.16 0.48047 0.96094 0.96094 1.9219 1.8008 2.7617l12.84 13.441c-1.3203-0.83984-2.6406-1.4414-4.3203-1.4414-4.5586 0-8.1602 3.6016-8.1602 8.0391 0 4.5586 3.6016 8.1602 8.1602 8.1602 4.4414 0 8.0391-3.6016 8.0391-8.1602 0-1.4414-0.48047-2.7617-1.1992-3.9609l14.398 15.121c-3.1211 1.0781-5.3984 4.0781-5.3984 7.5586 0 4.4414 3.6016 8.0391 8.1602 8.0391 3.3594 0 6.2383-2.0391 7.4414-4.9219l9.8398 10.441c-1.0781 1.3203-1.9219 3-1.9219 4.9219 0 4.5586 3.6016 8.1602 8.1602 8.1602 1.8008 0 3.2383-0.71875 4.5586-1.6797l10.68 11.16c0 0.12109-0.12109 0.35938-0.12109 0.48047-1.5586 6-4.0781 11.52-7.5586 15.961-1.0781-3.2383-3.9609-5.6406-7.5586-5.6406-4.5586 0-8.1602 3.6016-8.1602 8.1602 0 2.3984 1.0781 4.4414 2.7617 5.8789-0.83984 0.12109-1.5586 0.48047-2.3984 0.48047-2.0391 0.12109-3.6016 0.12109-4.6797 0.12109-0.35938-0.60156-0.60156-1.3203-1.1992-1.8008l-22.078-23.16-9.8398-10.441c3.4805-0.83984 6.1211-3.9609 6.1211-7.8008 0-4.4414-3.6016-8.0391-8.0391-8.0391-3.7188 0-6.7188 2.5195-7.6797 5.7617l-10.078-10.68c1.3203-1.4414 2.2812-3.3594 2.2812-5.5195 0-4.5586-3.6016-8.1602-8.0391-8.1602-2.0391 0-3.8398 0.83984-5.2812 2.0391l-2.2812-2.3984c-0.83984-0.96094-1.9219-1.5586-3.1211-2.1602v-0.60156c-0.71875-13.441-8.2812-25.922-21.121-33.961-5.5195-3.3594-11.281-5.5195-17.039-6.6016-0.23828-5.7617-1.5586-11.281-3.9609-16.559 1.4414 1.1992 3.2383 2.0391 5.2812 2.0391 4.4414 0 8.0391-3.6016 8.0391-8.1602 0-4.4414-3.6016-8.0391-8.0391-8.0391-4.5586 0-8.1602 3.6016-8.1602 8.0391 0 0.35938 0.12109 0.60156 0.23828 0.96094-3-4.8008-7.0781-9.1211-11.879-12.719 2.2812-1.4414 3.9609-3.8398 3.9609-6.8398 0-4.4414-3.6016-8.0391-8.0391-8.0391-4.4414 0-7.9219 3.4805-8.0391 7.6797-4.3203-1.8008-8.6406-2.8789-13.078-3.4805 0-2.2812-0.23828-4.5586-0.71875-6.8398 3.6016-0.83984 6.2383-3.9609 6.2383-7.8008 0-4.4414-3.6016-8.0391-8.0391-8.0391-1.4414 0-2.6406 0.48047-3.8398 1.0781-3.1211-5.0391-7.3203-9.3594-12.359-13.199-0.71875-3.7188-3.8398-6.4805-7.6797-6.4805-0.83984 0-1.6797 0.23828-2.3984 0.48047-5.5195-2.5195-11.16-3.8398-16.801-4.3203 2.1602-1.4414 3.6016-3.8398 3.6016-6.6016 0-4.5586-3.6016-8.0391-8.0391-8.0391-4.5586 0-8.1602 3.4805-8.1602 8.0391 0 3 1.6797 5.3984 3.9609 6.8398-3.1211 0.35938-6.1211 1.0781-9.1211 2.0391-1.6797-7.3203-5.6406-14.039-11.398-19.68 0.23828 0 0.48047 0.12109 0.71875 0.12109 4.4414 0 8.0391-3.6016 8.0391-8.0391 0-4.5586-3.6016-8.1602-8.0391-8.1602-4.5586 0-8.1602 3.6016-8.1602 8.1602 0 0.71875 0.23828 1.4414 0.48047 2.1602-0.35938-0.23828-0.60156-0.48047-0.96094-0.71875-4.8008-3-9.8398-4.9219-14.879-6.1211-6-1.3203-12-1.4414-17.762-0.23828-1.457-1.8164-3.6172-3.1367-6.1367-3.1367-4.5586 0-8.1602 3.6016-8.1602 8.1602 0 0.48047 0.23828 0.83984 0.23828 1.1992-1.4414 0.96094-2.7617 2.0391-4.0781 3.1211-2.3984 2.1602-5.0391 4.8008-7.6797 7.3203-1.1992-0.71875-2.5195-1.1992-3.9609-1.1992-4.5586 0-8.1602 3.4805-8.1602 8.0391 0 1.4414 0.48047 2.7617 1.0781 3.8398l-10.32 10.32c-1.4414-2.1602-3.8398-3.7188-6.6016-3.7188-4.5586 0-8.1602 3.6016-8.1602 8.0391 0 2.8789 1.5586 5.2812 3.8398 6.8398-1.9219 2.0391-3.9609 3.9609-5.8789 6-1.8008 1.9219-3.6016 3.7188-5.3984 5.5195-0.23828-4.1992-3.6016-7.6797-7.9219-7.6797-4.5586 0-8.1602 3.6016-8.1602 8.0391 0 4.4414 3.4805 7.9219 7.8008 8.0391-3.2383 3.2383-6.4805 6.6016-9.6016 9.6016-3 3-5.5195 6.8398-7.6797 10.922-13.68-3.6016-29.16-7.1992-46.078-10.922-0.35938-4.0781-3.7188-7.3203-7.9219-7.3203-3.1211 0-5.6406 1.6797-7.0781 4.1992-5.1602-1.0781-10.32-2.0391-15.602-3.1211-13.32-2.6406-27.48-4.6797-42.359-6.3594 1.1992-1.4414 1.9219-3.2383 1.9219-5.1602 0-4.4414-3.6016-8.0391-8.0391-8.0391-4.5586 0-8.1602 3.6016-8.1602 8.0391 0 1.4414 0.48047 2.7617 1.1992 3.9609-10.68-0.96094-21.48-1.8008-32.879-2.2812 0.12109-0.60156 0.35938-1.0781 0.35938-1.6797 0-4.4414-3.6016-8.0391-8.0391-8.0391-4.5586 0-8.1602 3.6016-8.1602 8.0391 0 0.48047 0.12109 0.83984 0.23828 1.1992-10.32-0.23828-20.879-0.35938-31.801-0.35938 0-0.23828 0.12109-0.60156 0.12109-0.83984 0-4.4414-3.6016-7.9219-7.9219-8.0391h-0.12109c-2.5195 0-4.6797 1.1992-6.1211 2.8789-1.1992 1.4414-2.0391 3.2383-2.0391 5.1602 0 0.35938 0.12109 0.71875 0.23828 1.1992-4.1992 0.12109-8.2812 0.12109-12.602 0.23828-4.1992 0.12109-8.6406 0.35938-12.961 0.60156v24c67.441-3 125.52 0 172.44 9.1211 28.441 5.5195 54 11.281 74.762 16.68-0.96094 9.4805-0.12109 19.441 3 28.68 6.1211 18.48 20.039 30.719 38.039 33.359 0.60156 0.12109 1.1992 0.12109 1.8008 0.12109h2.2812c0.60156 4.9219 1.4414 9.7188 3 14.281 6.7188 20.398 21.961 33.84 41.879 36.719 0.60156 0.12109 1.1992 0.12109 1.8008 0.12109h2.0391c0.60156 2.5195 1.0781 5.1602 1.9219 7.5586 6.9609 20.879 22.559 34.559 42.84 37.559l13.441 2.0391c7.4414 14.039 19.922 23.281 35.52 25.68 10.199 1.5586 19.922 2.2812 29.16 2.2812 30.238 0 55.078-8.1602 73.32-24 7.9219 2.6406 16.559 4.1992 26.16 4.1992 4.5586 0 9.2383-0.35938 14.281-1.0781 15.719-2.3984 27.961-10.078 35.281-22.078 3.2383 0.23828 6.2383 0 8.2812 0 24.602-1.1992 40.559-22.32 45.602-45.359h2.2812c0.60156 0 1.1992 0 1.8008-0.12109 27.961-4.1992 42-27 45-51.121h2.1602c0.60156 0 1.1992 0 1.8008-0.12109 18-2.6406 31.922-14.879 38.039-33.359 1.9219-5.6406 2.8789-11.52 3.2383-17.52 23.039-6.3594 51.359-12.48 84-12.48 53.281 0 137.64 2.5195 172.44 3.7188v-24h-1.5586c-0.83984-3.4805-3.8398-6.2383-7.6797-6.2383-3.7188 0-6.7188 2.3984-7.6797 5.7617-9.4805-0.23828-20.641-0.60156-32.52-0.96094-1.1992-2.7617-4.0781-4.8008-7.3203-4.8008-3.1211 0-5.8789 1.8008-7.1992 4.4414-10.922-0.23828-22.441-0.60156-33.84-0.83984-1.4414-2.1602-3.7188-3.6016-6.4805-3.6016s-4.9219 1.3203-6.4805 3.3594c-12-0.23828-23.879-0.48047-35.16-0.60156-1.4414-1.6797-3.6016-2.7617-6-2.7617s-4.5586 1.0781-6 2.6406h-14.52c-7.0781 0-14.039 0.35938-20.641 0.83984-1.4414-2.0391-3.7188-3.4805-6.3594-3.4805-3.3594 0-6.1211 1.9219-7.3203 4.6797-11.641 1.3203-22.441 3.3594-32.641 5.5195 0.23828-0.71875 0.48047-1.4414 0.48047-2.1602 0-4.4414-3.6016-8.0391-8.0391-8.0391-4.5586 0-8.1602 3.6016-8.1602 8.0391 0 2.1602 0.83984 3.9609 2.1602 5.3984-2.0391 0.48047-4.0781 1.0781-6 1.5586-2.0391-6.8398-5.1602-12.961-9.1211-17.879 3.2383-1.0781 5.5195-4.0781 5.5195-7.6797 0-4.4414-3.6016-8.0391-8.0391-8.0391v12.719-12.719c-3.4805 0-6.3594 2.1602-7.4414 5.1602-3.4805-3.4805-6.8398-6.9609-10.441-10.559 1.1992-1.4414 1.9219-3.1211 1.9219-5.1602 0-4.4414-3.6016-8.0391-8.0391-8.0391-1.9219 0-3.6016 0.71875-5.0391 1.9219-1.6797-1.6797-3.2383-3.3594-4.9219-5.0391-1.0781-1.1992-2.2812-2.2812-3.3594-3.4805l-2.5195-2.5195c0.12109-0.48047 0.23828-0.96094 0.23828-1.4414 0-4.5586-3.6016-8.0391-8.0391-8.0391-0.48047 0-0.96094 0.23828-1.3203 0.23828-2.1602-2.1602-4.1992-4.1992-6.2383-6.1211-3.6016-3.6016-6.9609-6.8398-10.078-9.8398-0.12109-0.12109-0.23828-0.23828-0.35938-0.35938l-0.71875-0.71875c-0.96094-0.83984-2.0391-1.9219-2.8789-2.7617h-0.12109l-0.12109-0.12109-54.121-48.238c11.398-1.0781 18.961-2.7617 19.922-2.8789 0.96094-0.23828 1.8008-0.71875 2.6406-1.1992-1.4414 1.4414-2.2812 3.4805-2.2812 5.6406 0 4.4414 3.6016 8.0391 8.1602 8.0391 4.5586 0 8.0391-3.6016 8.0391-8.0391 0-4.5586-3.4805-8.1602-8.0391-8.1602-1.0781 0-2.1602 0.23828-3.1211 0.60156 2.8789-2.6406 4.3203-6.4805 3.6016-10.559v-0.71875c-1.4414-6.4805-7.9219-10.559-14.398-9-0.12109 0-3.2383 0.71875-8.2812 1.4414-0.60156-0.12109-1.1992-0.35938-1.8008-0.35938-1.4414 0-2.6406 0.48047-3.8398 1.0781-9.9609 1.0781-24.48 1.8008-40.078-0.12109-1.0781-0.60156-2.2812-0.96094-3.6016-0.96094-0.48047 0-0.96094 0.23828-1.4414 0.23828-5.8789-0.96094-11.879-2.2812-17.762-4.0781 2.1602-1.4414 3.7188-3.8398 3.7188-6.6016 0-4.5586-3.6016-8.1602-8.0391-8.1602-4.5586 0-8.1602 3.6016-8.1602 8.1602 0 0.71875 0.23828 1.4414 0.48047 2.0391-3-1.3203-6-2.7617-8.8789-4.4414-3.7188-2.1602-8.1602-2.1602-11.879 0-4.1992 2.3984-8.1602 4.3203-12.121 6.1211 0.60156-1.1992 1.0781-2.3984 1.0781-3.7188 0-4.5586-3.6016-8.1602-8.0391-8.1602-4.5586 0-8.1602 3.6016-8.1602 8.1602 0 3.7188 2.6406 6.8398 6.2383 7.6797-5.5195 2.2812-10.922 4.1992-16.078 5.6406-1.4414-1.8008-3.6016-3-6.1211-3-3.8398 0-6.9609 2.6406-7.8008 6.2383-12.602 2.1602-23.398 2.0391-32.039 0.23828-0.83984-3.7188-3.8398-6.4805-7.6797-6.4805-1.9219 0-3.7188 0.71875-5.1602 1.9219-4.8008-2.6406-8.5195-6-10.922-10.199 0.23828-0.71875 0.48047-1.4414 0.48047-2.1602 0-2.3984-0.96094-4.4414-2.6406-5.8789 1.9219-2.5195 5.5195-6 10.559-10.199 1.0781 3.1211 4.0781 5.3984 7.6797 5.3984 4.4414 0 8.0391-3.6016 8.0391-8.0391 0-2.7617-1.4414-5.1602-3.6016-6.6016 3.7188-2.6406 7.8008-5.3984 12.359-8.2812 1.3203 2.5195 3.9609 4.4414 7.1992 4.4414 4.4414 0 8.0391-3.6016 8.0391-8.0391 0-1.8008-0.71875-3.3594-1.6797-4.6797 4.0781-2.3984 8.3984-4.8008 12.84-7.3203 1.3203 0.83984 2.6406 1.4414 4.3203 1.4414 4.3203 0 7.9219-3.6016 8.0391-7.9219 9.1211-4.6797 18.84-9.2383 29.039-13.559 8.6406-3.7188 18.602-7.4414 28.922-10.922-1.5586 1.4414-2.5195 3.6016-2.5195 5.8789 0 4.4414 3.6016 8.0391 8.1602 8.0391 4.4414 0 8.0391-3.6016 8.0391-8.0391 0-4.1992-3.2383-7.5586-7.3203-8.0391 5.6406-1.8008 11.281-3.6016 16.922-5.1602 1.4414 1.5586 3.4805 2.5195 5.8789 2.5195 3.6016 0 6.6016-2.5195 7.5586-5.8789 12.359-2.8789 23.641-4.6797 32.398-4.8008-0.23828 0.83984-0.48047 1.6797-0.48047 2.6406 0 4.5586 3.6016 8.1602 8.1602 8.1602 4.4414 0 8.0391-3.6016 8.0391-8.1602 0-0.83984-0.23828-1.6797-0.48047-2.3984 11.52 0.35938 22.199 0.96094 31.922 2.0391 0 0.12109-0.12109 0.23828-0.12109 0.35938 0 4.5586 3.6016 8.1602 8.1602 8.1602 3.8398 0 6.9609-2.7617 7.6797-6.4805 23.641 3.7188 41.52 9.3594 56.039 15.961-0.12109 0.35938-0.23828 0.71875-0.23828 1.1992 0 4.4414 3.4805 8.0391 8.0391 8.0391v-5.5195 5.5195c2.2812 0 4.3203-0.96094 5.7617-2.5195 4.3203 2.3984 8.2812 4.8008 12.121 7.1992-1.4414 1.4414-2.3984 3.4805-2.3984 5.7617 0 4.4414 3.6016 8.0391 8.1602 8.0391 3.3594 0 6.2383-2.1602 7.4414-5.0391 4.3203 3 8.6406 5.7617 13.078 8.3984-2.7617 1.3203-4.6797 4.0781-4.6797 7.3203 0 4.4414 3.6016 8.0391 8.1602 8.0391 4.4414 0 8.0391-3.6016 8.0391-8.0391 0-0.48047-0.23828-0.96094-0.23828-1.4414 6 2.7617 12.238 5.0391 19.199 6.1211 4.3203 0.71875 9.7188 1.1992 15.961 1.6797 1.3203 0.96094 2.8789 1.6797 4.6797 1.6797 1.4414 0 2.6406-0.48047 3.8398-1.0781 12.602 0.60156 27.48 0.96094 43.441 1.0781h0.23828 0.23828c14.762 0.12109 30.359 0 45.602-0.23828 0.60156 0.12109 1.0781 0.35938 1.6797 0.35938 0.71875 0 1.3203-0.23828 1.9219-0.35938 2.1602 0 4.3203-0.12109 6.4805-0.12109 12.238-0.23828 24-0.48047 34.922-0.83984 1.1992 0.71875 2.6406 1.3203 4.1992 1.3203 1.6797 0 3.2383-0.71875 4.5586-1.5586 11.039-0.35938 20.762-0.71875 28.32-0.96094v-24.48l-172.68 1.8008c-7.9219-0.47656-14.641-1.0781-19.68-1.7969zm-517.68 263.76c-6.4805 6.4805-11.039 15.84-13.559 26.281-2.6406 0.23828-4.8008 1.8008-6 3.8398-4.6797-1.5586-8.3984-4.3203-11.281-8.5195 1.5586-1.4414 2.6406-3.4805 2.6406-5.8789 0-4.4414-3.3594-8.0391-7.8008-8.1602-1.1992-7.5586-0.48047-15.121 1.3203-21.359 3.7188-0.71875 6.4805-3.8398 6.4805-7.8008 0-0.96094-0.23828-1.9219-0.60156-2.8789 3.2383-3.2383 6.7188-6.7188 10.199-10.199 1.4414 1.5586 3.6016 2.6406 6 2.6406 4.4414 0 8.0391-3.6016 8.0391-8.1602 0-2.3984-1.0781-4.4414-2.7617-5.8789 0.60156-0.60156 1.0781-1.0781 1.6797-1.6797 3-3.1211 6.1211-6.2383 9.1211-9.3594 0.71875 3.7188 3.8398 6.6016 7.8008 6.6016 4.4414 0 8.0391-3.6016 8.0391-8.1602 0-3.9609-2.8789-7.0781-6.6016-7.8008 5.6406-5.6406 11.039-11.16 16.078-15.961-1.1992 1.4414-2.0391 3.1211-2.0391 5.0391 0 4.5586 3.6016 8.1602 8.1602 8.1602 4.4414 0 8.0391-3.6016 8.0391-8.1602 0-4.4414-3.6016-8.0391-8.0391-8.0391-2.0391 0-3.8398 0.83984-5.1602 1.9219 3.4805-3.3594 6.7188-6.4805 9.6016-9.1211 3.2383-3 7.4414-3.8398 11.641-3.4805v0.23828c0 4.5586 3.4805 8.1602 8.0391 8.1602v-6 6c2.1602 0 4.1992-0.83984 5.6406-2.3984 3.4805 3.1211 7.3203 8.6406 5.0391 16.441-0.35937 1.4414-0.48047 2.7617-0.35937 4.1992-1.5586 1.5586-3.2383 3.1211-4.9219 4.8008-1.4414-1.3203-3.2383-2.1602-5.2812-2.1602v7.3203-7.3203c-4.5586 0-8.0391 3.6016-8.0391 8.0391 0 2.0391 0.83984 3.8398 2.0391 5.2812-3.3594 3.4805-6.9609 6.9609-10.441 10.559-1.0781-3.1211-4.0781-5.3984-7.4414-5.3984-4.5586 0-8.1602 3.6016-8.1602 8.0391 0 3.6016 2.2812 6.4805 5.5195 7.6797-1.9219 1.9219-3.7188 3.8398-5.6406 5.7617-2.6406 2.6406-5.1602 5.2812-7.8008 7.9219 0.23828-0.83984 0.48047-1.6797 0.48047-2.6406 0-4.4414-3.6016-8.0391-8.0391-8.0391-4.5586 0-8.1602 3.6016-8.1602 8.0391 0 4.5586 3.6016 8.1602 8.1602 8.1602 0.96094 0 1.8008-0.23828 2.6406-0.48047-5.1523 4.6719-9.832 9.4727-14.27 13.91zm48 42.723c-5.2812 5.3984-9.3594 12.602-12.121 20.641-0.35938 0-0.60156-0.23828-0.96094-0.23828-4.5586 0-8.1602 3.6016-8.1602 8.0391 0 3.6016 2.3984 6.6016 5.6406 7.6797-0.12109 1.0781-0.23828 2.1602-0.35938 3.2383-10.32-2.0391-17.52-8.7617-21.359-20.281-0.12109-0.35938-0.12109-0.71875-0.23828-1.1992 0.35938 0 0.60156 0.23828 0.96094 0.23828 4.4414 0 8.0391-3.6016 8.0391-8.0391 0-4.5586-3.6016-8.1602-8.0391-8.1602-1.0781 0-2.1602 0.23828-3.1211 0.60156 0-8.2812 1.8008-16.078 4.5586-21.961 3.7188-0.71875 6.6016-3.8398 6.6016-7.6797 0-0.35938-0.12109-0.60156-0.12109-0.83984 3.6016-3.7188 7.3203-7.4414 11.16-11.281 1.3203 0.96094 2.8789 1.5586 4.5586 1.5586 4.4414 0 8.0391-3.6016 8.0391-8.1602 0-1.6797-0.71875-3.2383-1.5586-4.5586 0.83984-0.83984 1.5586-1.6797 2.3984-2.5195 2.6406-2.6406 5.2812-5.3984 7.9219-8.0391 1.3203 2.7617 3.9609 4.6797 7.1992 4.6797v-12 12c4.4414 0 8.0391-3.6016 8.0391-8.1602 0-3.2383-1.9219-6-4.6797-7.1992 4.1992-4.3203 8.2812-8.3984 12.238-12.359 0 0.35938-0.23828 0.60156-0.23828 0.96094 0 4.5586 3.6016 8.1602 8.1602 8.1602 4.4414 0 8.0391-3.6016 8.0391-8.1602 0-4.4414-3.6016-8.0391-8.0391-8.0391-0.35937 0-0.60156 0.12109-0.96094 0.23828 4.8008-4.6797 9.3594-9.1211 13.32-12.719 1.8008-1.6797 3.7188-2.7617 5.8789-3.4805-1.4414 1.4414-2.2812 3.3594-2.2812 5.5195 0 4.5586 3.6016 8.1602 8.1602 8.1602 4.4414 0 8.0391-3.6016 8.0391-8.1602 0-2.6406-1.3203-4.8008-3.2383-6.2383 3.7188 0.60156 7.3203 2.0391 10.199 3.8398 2.3984 1.5586 8.5195 6 10.441 13.32-0.60156-0.12109-1.1992-0.35938-1.9219-0.35938-4.5586 0-8.1602 3.6016-8.1602 8.0391 0 1.8008 0.71875 3.2383 1.5586 4.5586-0.96094 0.71875-2.0391 1.4414-3 2.2812-2.3984 2.2812-4.9219 4.8008-7.5586 7.3203-1.4414-2.1602-3.7188-3.6016-6.4805-3.6016-4.5586 0-8.1602 3.6016-8.1602 8.0391 0 2.8789 1.5586 5.2812 3.7188 6.7188-3.8398 3.9609-7.6797 8.2812-11.762 12.602 0-0.23828 0.12109-0.48047 0.12109-0.71875 0-4.4414-3.6016-8.0391-8.0391-8.0391-4.5586 0-8.1602 3.6016-8.1602 8.0391 0 4.5586 3.6016 8.1602 8.1602 8.1602 0.48047 0 0.83984-0.23828 1.3203-0.23828-0.35938 0.35937-0.71875 0.71875-1.0781 1.1992-7.8008 8.3984-15.719 17.039-23.879 25.559v-7.6797c4.4414 0 8.0391-3.6016 8.0391-8.0391 0-4.5586-3.6016-8.1602-8.0391-8.1602v12.48-12.48c-4.5586 0-8.0391 3.6016-8.0391 8.1602 0 4.4414 3.4805 8.0391 8.0391 8.0391v7.6797c-3.5977 3.5977-7.1992 7.4375-10.797 11.039zm44.039 46.68v0c-2.0391 3.7188-3.7188 7.6797-4.9219 12.121-1.3203-0.96094-2.8789-1.6797-4.6797-1.6797-4.5586 0-8.1602 3.6016-8.1602 8.1602 0 4.4414 3.6016 8.0391 8.1602 8.0391 0.71875 0 1.4414-0.23828 2.1602-0.48047-0.35938 4.1992-0.35938 8.3984 0 12.602l-2.7617-0.35938c-11.039-1.6797-18.719-8.5195-22.922-20.039-0.23828-0.48047-0.48047-0.83984-0.60156-1.3203-0.96094-3-1.5586-6.2383-2.0391-9.3594 0.83984 0.23828 1.6797 0.48047 2.6406 0.48047v8.3984-8.3984c4.4414 0 8.0391-3.6016 8.0391-8.0391h-0.12109c-0.35938-4.1992-3.7188-7.5586-7.9219-7.5586v0.83984-0.83984c-0.96094 0-1.9219 0.23828-2.7617 0.60156 0.48047-4.3203 1.4414-8.3984 2.7617-12 1.5586-4.4414 3.7188-8.2812 6.1211-10.68 5.7617-5.7617 11.398-11.641 16.922-17.52 0.23828 0 0.35938 0.12109 0.60156 0.12109 4.4414 0 8.0391-3.6016 8.0391-8.1602 0-0.35938-0.12109-0.60156-0.23828-0.96094 3.3594-3.6016 6.8398-7.3203 10.078-10.922 0.23828-0.23828 0.35938-0.35938 0.60156-0.60156 1.4414 1.3203 3.3594 2.1602 5.5195 2.1602 4.4414 0 8.0391-3.6016 8.0391-8.0391 0-2.3984-1.0781-4.4414-2.6406-6 3.6016-3.8398 6.9609-7.4414 10.32-11.039 0.83984 3.6016 3.9609 6.3594 7.8008 6.3594 4.4414 0 8.0391-3.6016 8.0391-8.1602 0-3.8398-2.7617-6.9609-6.3594-7.6797 1.6797-1.6797 3.4805-3.4805 5.1602-5.0391 2.7617-2.5195 5.8789-3.8398 9.2383-4.4414 0.71875 3.8398 3.8398 6.8398 7.9219 6.8398 3.1211 0 5.8789-1.9219 7.1992-4.5586 1.3203 0.60156 2.5195 1.1992 3.6016 1.9219 1.6797 1.0781 4.9219 3.4805 7.6797 7.0781-1.8008 1.4414-3 3.6016-3 6 0 3.3594 1.9219 6.1211 4.8008 7.4414-3.4805 1.6797-6.7188 3.7188-9.6016 6.3594-0.96094 0.96094-2.0391 1.9219-3 2.8789-0.96094-3.4805-3.9609-6.1211-7.5586-6.1211-4.5586 0-8.1602 3.6016-8.1602 8.1602 0 3.7188 2.6406 6.7188 6.1211 7.5586-6.8398 7.0781-13.922 14.762-21.238 22.801-10.078 11.039-20.52 22.441-31.32 33.238-3.1211 2.5156-5.5195 6.1133-7.5586 9.8359zm66.48 68.039c-1.3203-0.96094-2.7617-1.5586-4.4414-1.5586-1.6797 0-3.1211 0.60156-4.3203 1.4414-6.6016-0.23828-12.961-0.96094-18.84-1.8008-9.8398-1.4414-16.68-7.6797-20.281-18.48-0.35938-0.96094-0.48047-1.9219-0.71875-3 2.7617-1.3203 4.6797-4.0781 4.6797-7.3203 0-3.8398-2.6406-6.8398-6.1211-7.8008 0.60156-9.7188 3.7188-18.48 7.9219-22.68 2.1602-2.1602 4.3203-4.4414 6.4805-6.7188 3.4805-3.4805 6.8398-7.0781 10.199-10.559 2.1602-0.83984 3.7188-2.6406 4.4414-4.8008 3.6016-3.9609 7.3203-7.8008 10.801-11.641 0.71875-0.71875 1.4414-1.5586 2.0391-2.2812 1.0781 0.48047 2.2812 0.83984 3.6016 0.83984 4.4414 0 8.0391-3.6016 8.0391-8.0391 0-1.5586-0.48047-2.8789-1.1992-4.0781 3.3594-3.7188 6.7188-7.1992 9.9609-10.441 1.4414 2.2812 3.8398 3.9609 6.8398 3.9609 4.4414 0 8.0391-3.6016 8.0391-8.1602 0-2.7617-1.4414-5.0391-3.6016-6.4805 2.8789-2.2812 6.2383-3.3594 9.8398-3.3594 4.5586 0 9.2383 1.5586 12.84 3.8398 2.8789 1.8008 11.52 8.0391 9.6016 18.602l-4.8008 5.7617c-0.23828-4.3203-3.7188-7.6797-7.9219-7.6797-4.5586 0-8.1602 3.6016-8.1602 8.1602 0 4.4414 3.6016 8.0391 8.1602 8.0391 0.35938 0 0.60156-0.12109 0.96094-0.23828l-24.121 28.68-11.281 13.441c-4.1992 5.0391-3.6016 12.602 1.4414 16.922 3.2383 2.7617 7.5586 3.4805 11.281 2.2812 9.4805 10.32 18.719 18 26.16 23.16-14.16 8.6289-31.199 11.746-47.52 11.988zm108-20.641c-30.238 4.4414-47.762-9.6016-69.719-32.039l6.3594-7.5586c3.4805-0.83984 6.2383-3.8398 6.3594-7.5586l0.12109-0.12109 10.078-12.121c1.4414 1.1992 3.2383 2.0391 5.2812 2.0391 4.4414 0 8.0391-3.6016 8.0391-8.1602 0-0.35938-0.12109-0.71875-0.23828-1.1992l12.238 12.84c-2.2812 1.3203-3.9609 3.6016-4.0781 6.4805h-0.12109c0 4.4414 3.6016 8.0391 8.1602 8.0391 2.7617 0 5.0391-1.4414 6.4805-3.6016l9.8398 10.441c-0.60156 1.0781-0.96094 2.2812-0.96094 3.7188 0 4.4414 3.6016 8.0391 8.1602 8.0391 1.1992 0 2.2812-0.23828 3.2383-0.71875l9.2383 9.7188c-3.4766 6.4805-9.3594 10.441-18.477 11.762z"/>
</svg>
