<?xml version="1.0" encoding="UTF-8"?>
<svg width="1200pt" height="1200pt" version="1.1" viewBox="0 0 1200 1200" xmlns="http://www.w3.org/2000/svg">
 <path d="m738.96 370.32c-4.5586 0-8.1602 3.6016-8.1602 8.0391 0 4.5586 3.6016 8.1602 8.1602 8.1602 4.4414 0 8.0391-3.6016 8.0391-8.1602 0-4.4375-3.6016-8.0391-8.0391-8.0391z"/>
 <path d="m738.96 333.12c-4.5586 0-8.1602 3.6016-8.1602 8.0391 0 4.5586 3.6016 8.1602 8.1602 8.1602 4.4414 0 8.0391-3.6016 8.0391-8.1602 0-4.4414-3.6016-8.0391-8.0391-8.0391z"/>
 <path d="m691.44 386.52v15.961-15.961c4.4414 0 8.0391-3.6016 8.0391-8.1602 0-4.4414-3.6016-8.0391-8.0391-8.0391v-9.6016 9.6016c-4.5586 0-8.0391 3.6016-8.0391 8.0391-0.003906 4.5625 3.4766 8.1602 8.0391 8.1602z"/>
 <path d="m619.8 351.6c-4.5586 0-8.1602 3.6016-8.1602 8.0391 0 4.5586 3.6016 8.1602 8.1602 8.1602 4.4414 0 8.0391-3.6016 8.0391-8.1602 0-4.3203-3.6016-8.0391-8.0391-8.0391z"/>
 <path d="m358.44 237.6c4.4414 0 8.0391-3.6016 8.0391-8.0391h-0.12109c-0.35938-4.1992-3.7188-7.5586-7.9219-7.5586-4.3203 0-7.6797 3.3594-8.0391 7.5586h-0.12109c0.003906 4.4375 3.6016 8.0391 8.1641 8.0391z"/>
 <path d="m334.44 219.6c4.4414 0 8.0391-3.6016 8.0391-8.1602 0-4.4414-3.6016-8.0391-8.0391-8.0391-4.5586 0-8.1602 3.6016-8.1602 8.0391s3.5977 8.1602 8.1602 8.1602z"/>
 <path d="m382.08 219.6c4.4414 0 8.0391-3.6016 8.0391-8.1602 0-4.4414-3.6016-8.0391-8.0391-8.0391-4.5586 0-8.1602 3.6016-8.1602 8.0391 0.003906 4.4375 3.6016 8.1602 8.1602 8.1602z"/>
 <path d="m310.92 312.12c4.4414 0 8.0391-3.6016 8.0391-8.1602 0-4.4414-3.6016-8.0391-8.0391-8.0391z"/>
 <path d="m310.92 274.92c4.4414 0 8.0391-3.6016 8.0391-8.1602 0-4.5586-3.6016-8.1602-8.0391-8.1602z"/>
 <path d="m318.96 229.56h-0.12109c-0.35938-4.1992-3.7188-7.5586-7.9219-7.5586v15.598c4.3203 0.003906 8.043-3.5977 8.043-8.0391z"/>
 <path d="m358.44 312.12c4.4414 0 8.0391-3.6016 8.0391-8.1602 0-4.4414-3.6016-8.0391-8.0391-8.0391-4.5586 0-8.1602 3.6016-8.1602 8.0391 0 4.5586 3.5977 8.1602 8.1602 8.1602z"/>
 <path d="m358.44 274.92c4.4414 0 8.0391-3.6016 8.0391-8.1602 0-4.5586-3.6016-8.1602-8.0391-8.1602-4.5586 0-8.1602 3.6016-8.1602 8.1602 0 4.5586 3.5977 8.1602 8.1602 8.1602z"/>
 <path d="m405.96 274.92c4.4414 0 8.0391-3.6016 8.0391-8.1602 0-4.5586-3.6016-8.1602-8.0391-8.1602-4.5586 0-8.1602 3.6016-8.1602 8.1602 0 4.5586 3.7188 8.1602 8.1602 8.1602z"/>
 <path d="m405.96 312.12c4.4414 0 8.0391-3.6016 8.0391-8.1602 0-4.4414-3.6016-8.0391-8.0391-8.0391-4.5586 0-8.1602 3.6016-8.1602 8.0391 0 4.5586 3.7188 8.1602 8.1602 8.1602z"/>
 <path d="m453.6 312.12c4.4414 0 8.0391-3.6016 8.0391-8.1602 0-4.4414-3.6016-8.0391-8.0391-8.0391-4.5586 0-8.1602 3.6016-8.1602 8.0391 0 4.5586 3.5977 8.1602 8.1602 8.1602z"/>
 <path d="m453.6 274.92c4.4414 0 8.0391-3.6016 8.0391-8.1602 0-4.5586-3.6016-8.1602-8.0391-8.1602-4.5586 0-8.1602 3.6016-8.1602 8.1602 0 4.5586 3.5977 8.1602 8.1602 8.1602z"/>
 <path d="m501.12 312.12c4.4414 0 8.0391-3.6016 8.0391-8.1602 0-4.4414-3.6016-8.0391-8.0391-8.0391-4.5586 0-8.1602 3.6016-8.1602 8.0391 0 4.5586 3.5977 8.1602 8.1602 8.1602z"/>
 <path d="m334.44 293.28c4.4414 0 8.0391-3.6016 8.0391-8.0391 0-4.4414-3.6016-8.0391-8.0391-8.0391-4.5586 0-8.1602 3.6016-8.1602 8.0391s3.5977 8.0391 8.1602 8.0391z"/>
 <path d="m334.44 256.2c4.4414 0 8.0391-3.6016 8.0391-8.0391 0-4.5586-3.6016-8.1602-8.0391-8.1602-4.5586 0-8.1602 3.6016-8.1602 8.1602 0 4.3203 3.5977 8.0391 8.1602 8.0391z"/>
 <path d="m382.08 330.72c4.4414 0 8.0391-3.6016 8.0391-8.1602s-3.6016-8.0391-8.0391-8.0391c-4.5586 0-8.1602 3.4805-8.1602 8.0391 0.003906 4.5625 3.6016 8.1602 8.1602 8.1602z"/>
 <path d="m382.08 293.28c4.4414 0 8.0391-3.6016 8.0391-8.0391 0-4.4414-3.6016-8.0391-8.0391-8.0391-4.5586 0-8.1602 3.6016-8.1602 8.0391 0.003906 4.4375 3.6016 8.0391 8.1602 8.0391z"/>
 <path d="m382.08 256.2c4.4414 0 8.0391-3.6016 8.0391-8.0391 0-4.5586-3.6016-8.1602-8.0391-8.1602-4.5586 0-8.1602 3.6016-8.1602 8.1602 0.003906 4.3203 3.6016 8.0391 8.1602 8.0391z"/>
 <path d="m429.6 256.2c4.4414 0 8.0391-3.6016 8.0391-8.0391 0-4.5586-3.6016-8.1602-8.0391-8.1602-4.5586 0-8.1602 3.6016-8.1602 8.1602 0 4.3203 3.5977 8.0391 8.1602 8.0391z"/>
 <path d="m429.6 293.28c4.4414 0 8.0391-3.6016 8.0391-8.0391 0-4.4414-3.6016-8.0391-8.0391-8.0391-4.5586 0-8.1602 3.6016-8.1602 8.0391s3.5977 8.0391 8.1602 8.0391z"/>
 <path d="m477.12 293.28c4.4414 0 8.0391-3.6016 8.0391-8.0391 0-4.4414-3.6016-8.0391-8.0391-8.0391-4.5586 0-8.1602 3.6016-8.1602 8.0391s3.7188 8.0391 8.1602 8.0391z"/>
 <path d="m405.96 237.6c4.4414 0 8.0391-3.6016 8.0391-8.0391h-0.12109c-0.35938-4.1992-3.7188-7.5586-7.9219-7.5586-4.3203 0-7.6797 3.3594-8.0391 7.5586h-0.12109c0.003906 4.4375 3.7227 8.0391 8.1641 8.0391z"/>
 <path d="m120.6 201c4.4414 0 8.0391-3.6016 8.0391-8.0391 0-4.5586-3.6016-8.1602-8.0391-8.1602-4.5586 0-8.1602 3.6016-8.1602 8.1602 0 4.4375 3.5977 8.0391 8.1602 8.0391z"/>
 <path d="m168.24 237.6c4.4414 0 8.0391-3.6016 8.0391-8.0391h-0.12109c-0.35938-4.1992-3.7188-7.5586-7.9219-7.5586-4.3203 0-7.6797 3.3594-8.0391 7.5586h-0.12109c0.003906 4.4375 3.6055 8.0391 8.1641 8.0391z"/>
 <path d="m215.76 237.6c4.5586 0 8.0391-3.6016 8.0391-8.0391h-0.12109c-0.35938-4.1992-3.6016-7.5586-7.9219-7.5586-4.3203 0-7.6797 3.3594-8.0391 7.5586l-0.11719-0.003906c0 4.4414 3.5977 8.043 8.1602 8.043z"/>
 <path d="m263.28 237.6c4.4414 0 8.0391-3.6016 8.0391-8.0391l-0.12109-0.003906c-0.35938-4.1992-3.7188-7.5586-7.9219-7.5586-4.3203 0-7.6797 3.3594-8.0391 7.5586h-0.12109c0.003906 4.4414 3.6016 8.043 8.1641 8.043z"/>
 <path d="m104.64 211.44c0-4.4414-3.6016-8.0391-8.0391-8.0391-2.0391 0-3.7188 0.83984-5.1602 1.9219v12.359c1.4414 1.1992 3.1211 1.9219 5.1602 1.9219 4.4375-0.003907 8.0391-3.7266 8.0391-8.1641z"/>
 <path d="m144.24 219.6c4.4414 0 8.0391-3.6016 8.0391-8.1602 0-4.4414-3.6016-8.0391-8.0391-8.0391-4.5586 0-8.1602 3.6016-8.1602 8.0391s3.6016 8.1602 8.1602 8.1602z"/>
 <path d="m191.76 219.6c4.4414 0 8.0391-3.6016 8.0391-8.1602 0-4.4414-3.6016-8.0391-8.0391-8.0391-4.5586 0-8.1602 3.6016-8.1602 8.0391s3.5977 8.1602 8.1602 8.1602z"/>
 <path d="m239.28 219.6c4.4414 0 8.0391-3.6016 8.0391-8.1602 0-4.4414-3.6016-8.0391-8.0391-8.0391-4.5586 0-8.1602 3.6016-8.1602 8.0391s3.7188 8.1602 8.1602 8.1602z"/>
 <path d="m286.92 219.6c4.4414 0 8.0391-3.6016 8.0391-8.1602 0-4.4414-3.6016-8.0391-8.0391-8.0391-4.5586 0-8.1602 3.6016-8.1602 8.0391s3.5977 8.1602 8.1602 8.1602z"/>
 <path d="m120.6 312.12c4.4414 0 8.0391-3.6016 8.0391-8.1602 0-4.4414-3.6016-8.0391-8.0391-8.0391-4.5586 0-8.1602 3.6016-8.1602 8.0391 0 4.5586 3.5977 8.1602 8.1602 8.1602z"/>
 <path d="m120.6 237.6c4.4414 0 8.0391-3.6016 8.0391-8.0391h-0.12109c-0.35938-4.1992-3.7188-7.5586-7.9219-7.5586-4.3203 0-7.6797 3.3594-8.0391 7.5586l-0.11719-0.003906c0 4.4414 3.5977 8.043 8.1602 8.043z"/>
 <path d="m120.6 274.92c4.4414 0 8.0391-3.6016 8.0391-8.1602 0-4.5586-3.6016-8.1602-8.0391-8.1602-4.5586 0-8.1602 3.6016-8.1602 8.1602 0 4.5586 3.5977 8.1602 8.1602 8.1602z"/>
 <path d="m168.24 312.12c4.4414 0 8.0391-3.6016 8.0391-8.1602 0-4.4414-3.6016-8.0391-8.0391-8.0391-4.5586 0-8.1602 3.6016-8.1602 8.0391 0 4.5586 3.6016 8.1602 8.1602 8.1602z"/>
 <path d="m168.24 274.92c4.4414 0 8.0391-3.6016 8.0391-8.1602 0-4.5586-3.6016-8.1602-8.0391-8.1602-4.5586 0-8.1602 3.6016-8.1602 8.1602 0 4.5586 3.6016 8.1602 8.1602 8.1602z"/>
 <path d="m215.76 312.12c4.5586 0 8.0391-3.6016 8.0391-8.1602 0-4.4414-3.4805-8.0391-8.0391-8.0391-4.5586 0-8.1602 3.6016-8.1602 8.0391 0 4.5586 3.5977 8.1602 8.1602 8.1602z"/>
 <path d="m215.76 274.92c4.5586 0 8.0391-3.6016 8.0391-8.1602 0-4.5586-3.4805-8.1602-8.0391-8.1602-4.5586 0-8.1602 3.6016-8.1602 8.1602 0 4.5586 3.5977 8.1602 8.1602 8.1602z"/>
 <path d="m263.28 274.92c4.4414 0 8.0391-3.6016 8.0391-8.1602 0-4.5586-3.6016-8.1602-8.0391-8.1602-4.5586 0-8.1602 3.6016-8.1602 8.1602 0 4.5586 3.5977 8.1602 8.1602 8.1602z"/>
 <path d="m263.28 312.12c4.4414 0 8.0391-3.6016 8.0391-8.1602 0-4.4414-3.6016-8.0391-8.0391-8.0391-4.5586 0-8.1602 3.6016-8.1602 8.0391 0 4.5586 3.5977 8.1602 8.1602 8.1602z"/>
 <path d="m310.92 274.92v-16.32c-4.5586 0-8.0391 3.6016-8.0391 8.1602-0.003906 4.5586 3.4766 8.1602 8.0391 8.1602z"/>
 <path d="m310.92 237.6v-15.602c-4.3203 0-7.5586 3.3594-7.9219 7.5586h-0.12109c0 4.4414 3.4805 8.043 8.043 8.043z"/>
 <path d="m310.92 312.12v-16.199c-4.5586 0-8.0391 3.6016-8.0391 8.0391-0.003906 4.5586 3.4766 8.1602 8.0391 8.1602z"/>
 <path d="m104.64 248.16c0-4.5586-3.6016-8.1602-8.0391-8.1602-2.0391 0-3.7188 0.83984-5.1602 1.9219v12.359c1.4414 1.1992 3.1211 1.9219 5.1602 1.9219 4.4375-0.003906 8.0391-3.7227 8.0391-8.043z"/>
 <path d="m104.64 285.36c0-4.4414-3.6016-8.0391-8.0391-8.0391-2.0391 0-3.7188 0.83984-5.1602 1.9219v12.238c1.4414 1.1992 3.1211 1.9219 5.1602 1.9219 4.4375-0.12109 8.0391-3.7227 8.0391-8.043z"/>
 <path d="m144.24 256.2c4.4414 0 8.0391-3.6016 8.0391-8.0391 0-4.5586-3.6016-8.1602-8.0391-8.1602-4.5586 0-8.1602 3.6016-8.1602 8.1602 0 4.3203 3.6016 8.0391 8.1602 8.0391z"/>
 <path d="m144.24 293.28c4.4414 0 8.0391-3.6016 8.0391-8.0391 0-4.4414-3.6016-8.0391-8.0391-8.0391-4.5586 0-8.1602 3.6016-8.1602 8.0391s3.6016 8.0391 8.1602 8.0391z"/>
 <path d="m191.76 293.28c4.4414 0 8.0391-3.6016 8.0391-8.0391 0-4.4414-3.6016-8.0391-8.0391-8.0391-4.5586 0-8.1602 3.6016-8.1602 8.0391s3.5977 8.0391 8.1602 8.0391z"/>
 <path d="m191.76 256.2c4.4414 0 8.0391-3.6016 8.0391-8.0391 0-4.5586-3.6016-8.1602-8.0391-8.1602-4.5586 0-8.1602 3.6016-8.1602 8.1602 0 4.3203 3.5977 8.0391 8.1602 8.0391z"/>
 <path d="m239.28 293.28c4.4414 0 8.0391-3.6016 8.0391-8.0391 0-4.4414-3.6016-8.0391-8.0391-8.0391-4.5586 0-8.1602 3.6016-8.1602 8.0391s3.7188 8.0391 8.1602 8.0391z"/>
 <path d="m239.28 256.2c4.4414 0 8.0391-3.6016 8.0391-8.0391 0-4.5586-3.6016-8.1602-8.0391-8.1602-4.5586 0-8.1602 3.6016-8.1602 8.1602 0 4.3203 3.7188 8.0391 8.1602 8.0391z"/>
 <path d="m286.92 293.28c4.4414 0 8.0391-3.6016 8.0391-8.0391 0-4.4414-3.6016-8.0391-8.0391-8.0391-4.5586 0-8.1602 3.6016-8.1602 8.0391s3.5977 8.0391 8.1602 8.0391z"/>
 <path d="m286.92 256.2c4.4414 0 8.0391-3.6016 8.0391-8.0391 0-4.5586-3.6016-8.1602-8.0391-8.1602-4.5586 0-8.1602 3.6016-8.1602 8.1602 0 4.3203 3.5977 8.0391 8.1602 8.0391z"/>
 <path d="m453.6 237.6c4.4414 0 8.0391-3.6016 8.0391-8.0391h-0.12109c-0.35938-4.1992-3.7188-7.5586-7.9219-7.5586-4.3203 0-7.6797 3.3594-8.0391 7.5586h-0.12109c0.003906 4.4375 3.6016 8.0391 8.1641 8.0391z"/>
 <path d="m501.12 237.6c4.4414 0 8.0391-3.6016 8.0391-8.0391h-0.12109c-0.35937-4.1992-3.7188-7.5586-7.9219-7.5586-4.3203 0-7.6797 3.3594-8.0391 7.5586h-0.12109c0.003907 4.4375 3.6016 8.0391 8.1641 8.0391z"/>
 <path d="m548.76 237.6c4.4414 0 8.0391-3.6016 8.0391-8.0391h-0.12109c-0.35938-4.1992-3.7188-7.5586-7.9219-7.5586-4.3203 0-7.6797 3.3594-8.0391 7.5586h-0.12109c-0.11719 4.4375 3.6016 8.0391 8.1641 8.0391z"/>
 <path d="m596.28 237.6c4.5586 0 8.0391-3.6016 8.0391-8.0391h-0.12109c-0.35938-4.1992-3.6016-7.5586-7.9219-7.5586-4.3203 0-7.6797 3.3594-8.0391 7.5586h-0.12109c0.003906 4.4375 3.6016 8.0391 8.1641 8.0391z"/>
 <path d="m643.8 237.6c4.4414 0 8.0391-3.6016 8.0391-8.0391h-0.12109c-0.35938-4.1992-3.7188-7.5586-7.9219-7.5586-4.3203 0-7.6797 3.3594-8.0391 7.5586h-0.12109c0.003906 4.4375 3.6016 8.0391 8.1641 8.0391z"/>
 <path d="m429.6 219.6c4.4414 0 8.0391-3.6016 8.0391-8.1602 0-4.4414-3.6016-8.0391-8.0391-8.0391-4.5586 0-8.1602 3.6016-8.1602 8.0391s3.5977 8.1602 8.1602 8.1602z"/>
 <path d="m477.12 219.6c4.4414 0 8.0391-3.6016 8.0391-8.1602 0-4.4414-3.6016-8.0391-8.0391-8.0391-4.5586 0-8.1602 3.6016-8.1602 8.0391s3.7188 8.1602 8.1602 8.1602z"/>
 <path d="m524.76 219.6c4.4414 0 8.0391-3.6016 8.0391-8.1602 0-4.4414-3.6016-8.0391-8.0391-8.0391-4.5586 0-8.1602 3.6016-8.1602 8.0391s3.5977 8.1602 8.1602 8.1602z"/>
 <path d="m572.28 219.6c4.4414 0 8.0391-3.6016 8.0391-8.1602 0-4.4414-3.6016-8.0391-8.0391-8.0391-4.5586 0-8.1602 3.6016-8.1602 8.0391s3.5977 8.1602 8.1602 8.1602z"/>
 <path d="m619.8 219.6c4.4414 0 8.0391-3.6016 8.0391-8.1602 0-4.4414-3.6016-8.0391-8.0391-8.0391-4.5586 0-8.1602 3.6016-8.1602 8.0391s3.7188 8.1602 8.1602 8.1602z"/>
 <path d="m501.12 274.92c4.4414 0 8.0391-3.6016 8.0391-8.1602 0-4.5586-3.6016-8.1602-8.0391-8.1602-4.5586 0-8.1602 3.6016-8.1602 8.1602 0 4.5586 3.5977 8.1602 8.1602 8.1602z"/>
 <path d="m548.76 312.12c4.4414 0 8.0391-3.6016 8.0391-8.1602 0-4.4414-3.6016-8.0391-8.0391-8.0391-4.5586 0-8.1602 3.6016-8.1602 8.0391-0.12109 4.5586 3.5977 8.1602 8.1602 8.1602z"/>
 <path d="m548.76 274.92c4.4414 0 8.0391-3.6016 8.0391-8.1602 0-4.5586-3.6016-8.1602-8.0391-8.1602-4.5586 0-8.1602 3.6016-8.1602 8.1602 0 4.5586 3.5977 8.1602 8.1602 8.1602z"/>
 <path d="m596.28 274.92c4.5586 0 8.0391-3.6016 8.0391-8.1602 0-4.5586-3.4805-8.1602-8.0391-8.1602s-8.1602 3.6016-8.1602 8.1602c0 4.5586 3.5977 8.1602 8.1602 8.1602z"/>
 <path d="m643.8 274.92c4.4414 0 8.0391-3.6016 8.0391-8.1602 0-4.5586-3.6016-8.1602-8.0391-8.1602-4.5586 0-8.1602 3.6016-8.1602 8.1602 0 4.5586 3.5977 8.1602 8.1602 8.1602z"/>
 <path d="m643.8 444.72c-4.5586 0-8.1602 3.6016-8.1602 8.1602 0 4.4414 3.6016 8.0391 8.1602 8.0391 4.4414 0 8.0391-3.6016 8.0391-8.0391 0-4.5586-3.6016-8.1602-8.0391-8.1602z"/>
 <path d="m643.8 312.12c4.4414 0 8.0391-3.6016 8.0391-8.1602 0-4.4414-3.6016-8.0391-8.0391-8.0391-4.5586 0-8.1602 3.6016-8.1602 8.0391 0 4.5586 3.5977 8.1602 8.1602 8.1602z"/>
 <path d="m691.44 349.32v-16.199c-4.5586 0-8.0391 3.6016-8.0391 8.0391-0.003906 4.5586 3.4766 8.1602 8.0391 8.1602z"/>
 <path d="m477.12 256.2c4.4414 0 8.0391-3.6016 8.0391-8.0391 0-4.5586-3.6016-8.1602-8.0391-8.1602-4.5586 0-8.1602 3.6016-8.1602 8.1602 0 4.3203 3.7188 8.0391 8.1602 8.0391z"/>
 <path d="m524.76 293.28c4.4414 0 8.0391-3.6016 8.0391-8.0391 0-4.4414-3.6016-8.0391-8.0391-8.0391-4.5586 0-8.1602 3.6016-8.1602 8.0391s3.5977 8.0391 8.1602 8.0391z"/>
 <path d="m524.76 256.2c4.4414 0 8.0391-3.6016 8.0391-8.0391 0-4.5586-3.6016-8.1602-8.0391-8.1602-4.5586 0-8.1602 3.6016-8.1602 8.1602 0 4.3203 3.5977 8.0391 8.1602 8.0391z"/>
 <path d="m572.28 256.2c4.4414 0 8.0391-3.6016 8.0391-8.0391 0-4.5586-3.6016-8.1602-8.0391-8.1602-4.5586 0-8.1602 3.6016-8.1602 8.1602 0 4.3203 3.5977 8.0391 8.1602 8.0391z"/>
 <path d="m572.28 293.28c4.4414 0 8.0391-3.6016 8.0391-8.0391 0-4.4414-3.6016-8.0391-8.0391-8.0391-4.5586 0-8.1602 3.6016-8.1602 8.0391s3.5977 8.0391 8.1602 8.0391z"/>
 <path d="m619.8 256.2c4.4414 0 8.0391-3.6016 8.0391-8.0391 0-4.5586-3.6016-8.1602-8.0391-8.1602-4.5586 0-8.1602 3.6016-8.1602 8.1602 0 4.3203 3.7188 8.0391 8.1602 8.0391z"/>
 <path d="m619.8 293.28c4.4414 0 8.0391-3.6016 8.0391-8.0391 0-4.4414-3.6016-8.0391-8.0391-8.0391-4.5586 0-8.1602 3.6016-8.1602 8.0391s3.7188 8.0391 8.1602 8.0391z"/>
 <path d="m667.44 293.28c4.4414 0 8.0391-3.6016 8.0391-8.0391 0-4.4414-3.6016-8.0391-8.0391-8.0391-4.5586 0-8.1602 3.6016-8.1602 8.0391s3.5977 8.0391 8.1602 8.0391z"/>
 <path d="m667.44 330.72c4.4414 0 8.0391-3.6016 8.0391-8.1602s-3.6016-8.0391-8.0391-8.0391c-4.5586 0-8.1602 3.4805-8.1602 8.0391 0 4.5625 3.5977 8.1602 8.1602 8.1602z"/>
 <path d="m667.44 367.8c4.4414 0 8.0391-3.6016 8.0391-8.1602 0-4.4414-3.6016-8.0391-8.0391-8.0391-4.5586 0-8.1602 3.6016-8.1602 8.0391 0 4.5586 3.5977 8.1602 8.1602 8.1602z"/>
 <path d="m667.44 405c4.4414 0 8.0391-3.6016 8.0391-8.1602 0-4.4414-3.6016-8.0391-8.0391-8.0391-4.5586 0-8.1602 3.6016-8.1602 8.0391 0 4.5586 3.5977 8.1602 8.1602 8.1602z"/>
 <path d="m324.6 731.04h-22.68c-7.8008 0-13.441 5.8789-14.281 12.84-0.71875 6.9609-6.4805 56.281-7.5586 63.719-1.3203 9.7188 6.1211 14.762 14.039 14.762h4.8008s8.5195 72.359 9.2383 77.398c1.0781 8.6406 5.0391 12.602 13.078 12.602h6.4805c7.3203 0 12.238-3.9609 13.441-12.602 0.71875-5.1602 9.2383-77.398 9.2383-77.398h4.6797c7.9219 0 15.238-5.1602 14.039-14.762-0.96094-7.4414-6.7188-56.762-7.5586-63.719-0.71875-6.9609-6.3594-12.84-14.16-12.84z"/>
 <path d="m349.08 692.52c0 13.52-10.957 24.48-24.477 24.48-13.523 0-24.48-10.961-24.48-24.48s10.957-24.48 24.48-24.48c13.52 0 24.477 10.961 24.477 24.48z"/>
 <path d="m862.92 578.4v19.922c-26.039 3.7188-44.039 21.238-44.039 42.602 0 24.359 14.879 40.078 44.039 46.922v38.039c-14.398-4.3203-23.762-14.641-28.441-31.559l-0.48047-1.6797-27.121 15.121-0.96094 0.60156 0.35938 1.0781c9.3594 26.039 28.922 41.879 56.641 46.078v20.16h26.16v-19.68c30.359-3.6016 49.078-21.48 49.078-46.801 0-24.48-14.641-38.16-49.078-45.359v-35.52c7.9219 3.6016 13.32 10.559 16.68 21.238l0.48047 1.5586 26.762-14.039-0.35938-1.0781c-6.8398-19.801-22.32-32.879-43.559-36.961v-20.398l-26.16-0.003906zm0 78.723c-9.3594-4.0781-13.441-8.8789-13.441-15.961 0-7.1992 5.0391-12.719 13.441-14.879zm44.277 53.758c0 7.9219-6.9609 13.922-18.121 15.961v-33.602c15 4.4414 18.121 10.203 18.121 17.641z"/>
 <path d="m353.76 341.16c0 4.5586 3.6016 8.1602 8.1602 8.1602 4.4414 0 8.0391-3.6016 8.0391-8.1602 0-4.4414-3.6016-8.0391-8.0391-8.0391-4.4414 0-8.1602 3.5977-8.1602 8.0391z"/>
 <path d="m409.56 333.12c-4.5586 0-8.1602 3.6016-8.1602 8.0391 0 4.5586 3.6016 8.1602 8.1602 8.1602 4.4414 0 8.0391-3.6016 8.0391-8.1602 0.003906-4.4414-3.5977-8.0391-8.0391-8.0391z"/>
 <path d="m409.56 370.32c-4.5586 0-8.1602 3.6016-8.1602 8.0391 0 4.5586 3.6016 8.1602 8.1602 8.1602 4.4414 0 8.0391-3.6016 8.0391-8.1602 0.003906-4.4375-3.5977-8.0391-8.0391-8.0391z"/>
 <path d="m457.08 333.12c-4.5586 0-8.1602 3.6016-8.1602 8.0391 0 4.5586 3.6016 8.1602 8.1602 8.1602 4.4414 0 8.0391-3.6016 8.0391-8.1602 0.003906-4.4414-3.5977-8.0391-8.0391-8.0391z"/>
 <path d="m457.08 370.32c-4.5586 0-8.1602 3.6016-8.1602 8.0391 0 4.5586 3.6016 8.1602 8.1602 8.1602 4.4414 0 8.0391-3.6016 8.0391-8.1602 0.003906-4.4375-3.5977-8.0391-8.0391-8.0391z"/>
 <path d="m504.72 407.52c-4.5586 0-8.1602 3.6016-8.1602 8.1602 0 4.4414 3.6016 8.0391 8.1602 8.0391 4.4414 0 8.0391-3.6016 8.0391-8.0391-0.11719-4.5586-3.7188-8.1602-8.0391-8.1602z"/>
 <path d="m504.72 370.32c-4.5586 0-8.1602 3.6016-8.1602 8.0391 0 4.5586 3.6016 8.1602 8.1602 8.1602 4.4414 0 8.0391-3.6016 8.0391-8.1602-0.11719-4.4375-3.7188-8.0391-8.0391-8.0391z"/>
 <path d="m504.72 333.12c-4.5586 0-8.1602 3.6016-8.1602 8.0391 0 4.5586 3.6016 8.1602 8.1602 8.1602 4.4414 0 8.0391-3.6016 8.0391-8.1602-0.11719-4.4414-3.7188-8.0391-8.0391-8.0391z"/>
 <path d="m552.24 423.72c4.4414 0 8.0391-3.6016 8.0391-8.0391 0-4.5586-3.6016-8.1602-8.0391-8.1602-4.5586 0-8.1602 3.6016-8.1602 8.1602 0 4.4414 3.6016 8.0391 8.1602 8.0391z"/>
 <path d="m552.24 460.92c4.4414 0 8.0391-3.6016 8.0391-8.0391 0-4.5586-3.6016-8.1602-8.0391-8.1602-4.5586 0-8.1602 3.6016-8.1602 8.1602 0 4.4375 3.6016 8.0391 8.1602 8.0391z"/>
 <path d="m599.76 498.12c4.5586 0 8.0391-3.6016 8.0391-8.0391 0-4.5586-3.4805-8.1602-8.0391-8.1602-4.5586 0-8.1602 3.6016-8.1602 8.1602 0 4.4375 3.5977 8.0391 8.1602 8.0391z"/>
 <path d="m377.4 359.64c0 4.5586 3.6016 8.1602 8.1602 8.1602 4.4414 0 8.0391-3.6016 8.0391-8.1602 0-4.4414-3.6016-8.0391-8.0391-8.0391-4.5586 0-8.1602 3.7188-8.1602 8.0391z"/>
 <path d="m424.92 359.64c0 4.5586 3.6016 8.1602 8.1602 8.1602 4.4414 0 8.0391-3.6016 8.0391-8.1602 0-4.4414-3.6016-8.0391-8.0391-8.0391-4.4414 0-8.1602 3.7188-8.1602 8.0391z"/>
 <path d="m426.36 330 3.3594-0.12109c0.96094 0.48047 2.1602 0.71875 3.3594 0.71875s2.3984-0.35938 3.4805-0.83984l-3.6016 0.12109c2.7617-1.3203 4.6797-4.0781 4.6797-7.3203 0-4.5586-3.6016-8.0391-8.0391-8.0391-4.5586 0-8.1602 3.4805-8.1602 8.0391 0.003906 3.3633 2.043 6.2422 4.9219 7.4414z"/>
 <path d="m472.32 328.92 3.3594-0.12109c1.3203 1.0781 3 1.8008 4.9219 1.8008 1.9219 0 3.7188-0.83984 5.1602-2.0391l-3.6016 0.12109c1.8008-1.4414 3-3.7188 3-6.2383 0-4.5586-3.6016-8.0391-8.0391-8.0391-4.5586 0-8.1602 3.4805-8.1602 8.0391 0 2.7539 1.4375 5.0352 3.3594 6.4766z"/>
 <path d="m480.72 351.6c-4.5586 0-8.1602 3.6016-8.1602 8.0391 0 4.5586 3.6016 8.1602 8.1602 8.1602 4.4414 0 8.0391-3.6016 8.0391-8.1602 0.003907-4.3203-3.7188-8.0391-8.0391-8.0391z"/>
 <path d="m480.72 388.8c-4.5586 0-8.1602 3.6016-8.1602 8.0391 0 4.5586 3.6016 8.1602 8.1602 8.1602 4.4414 0 8.0391-3.6016 8.0391-8.1602 0.003907-4.3203-3.7188-8.0391-8.0391-8.0391z"/>
 <path d="m528.24 426c-4.5586 0-8.1602 3.6016-8.1602 8.0391 0 4.5586 3.6016 8.1602 8.1602 8.1602 4.4414 0 8.0391-3.6016 8.0391-8.1602 0.003906-4.3203-3.5977-8.0391-8.0391-8.0391z"/>
 <path d="m518.64 327.84 3.4805-0.12109c1.4414 1.6797 3.6016 2.8789 6.1211 2.8789 2.5195 0 4.6797-1.3203 6.2383-3.1211l-3.6016 0.12109c1.0781-1.4414 1.9219-3.1211 1.9219-5.0391 0-4.5586-3.6016-8.0391-8.0391-8.0391-4.5586 0-8.1602 3.4805-8.1602 8.0391 0 2.043 0.83984 3.8398 2.0391 5.2812z"/>
 <path d="m528.24 388.8c-4.5586 0-8.1602 3.6016-8.1602 8.0391 0 4.5586 3.6016 8.1602 8.1602 8.1602 4.4414 0 8.0391-3.6016 8.0391-8.1602 0.003906-4.3203-3.5977-8.0391-8.0391-8.0391z"/>
 <path d="m583.8 471.36c0-4.5586-3.6016-8.1602-8.0391-8.1602-4.5586 0-8.1602 3.6016-8.1602 8.1602 0 4.4414 3.6016 8.0391 8.1602 8.0391 4.4375 0 8.0391-3.5977 8.0391-8.0391z"/>
 <path d="m623.4 516.6c4.4414 0 8.0391-3.6016 8.0391-8.0391 0-4.5586-3.6016-8.1602-8.0391-8.1602-4.5586 0-8.1602 3.6016-8.1602 8.1602 0 4.4375 3.6016 8.0391 8.1602 8.0391z"/>
 <path d="m895.08 387.96 39.48-8.7617c6.4805-1.4414 10.559-7.8008 9.1211-14.281-1.4414-6.4805-7.9219-10.559-14.281-9.1211l-41.879 9.3594-0.23828-0.71875c-1.6797-4.9219-6.2383-8.1602-11.398-8.1602-5.1602 0-9.7188 3.2383-11.398 8.1602l-2.1602 6.2383-89.398 19.922c0.96094-1.9219 1.8008-3.6016 2.2812-4.6797 7.8008-15.84 13.32-30.602 3.4805-52.441-6.1211-13.441-51.121-56.641-82.078-85.559-2.2812-7.6797-4.0781-13.922-4.9219-17.52-6.2383-26.16-36.961-48.719-60.121-51.48-1.8008-0.23828-5.7617-0.48047-11.16-0.71875h-0.12109-1.0781c-51.719-2.0391-236.4-3.8398-260.64-4.0781l-267.12-13.68v22.32l72 3.7188c-2.0391 1.4414-3.4805 3.7188-3.4805 6.4805 0 4.4414 3.6016 8.0391 8.1602 8.0391 4.4414 0 8.0391-3.6016 8.0391-8.0391 0-2.3984-1.0781-4.5586-2.6406-6l35.398 1.8008c-0.71875 1.1992-1.3203 2.6406-1.3203 4.1992 0 4.4414 3.6016 8.0391 8.1602 8.0391 4.5586 0 8.0391-3.6016 8.0391-8.0391 0-1.1992-0.35938-2.3984-0.83984-3.4805l32.52 1.6797c-0.12109 0.60156-0.35937 1.1992-0.35937 1.8008 0 4.4414 3.6016 8.0391 8.1602 8.0391 4.4414 0 8.0391-3.6016 8.0391-8.0391 0-0.35938-0.12109-0.60156-0.23828-0.96094l31.801 1.6797c0.35938 4.0781 3.6016 7.3203 7.9219 7.3203v-6.9609 6.9609c3.8398 0 6.9609-2.8789 7.6797-6.6016l32.281 1.6797c1.1992 2.8789 4.0781 4.9219 7.5586 4.9219 3.1211 0 5.7617-1.8008 7.0781-4.4414l8.8789 0.12109-0.12109-0.12109c7.5586 0.12109 15.84 0.12109 24.84 0.23828 1.4414 2.3984 3.9609 4.0781 6.9609 4.0781 2.8789 0 5.2812-1.6797 6.7188-3.9609 10.922 0.12109 22.441 0.23828 34.199 0.35938 1.4414 2.0391 3.8398 3.6016 6.6016 3.6016 2.6406 0 4.9219-1.4414 6.3594-3.3594 11.641 0.12109 23.398 0.35938 35.039 0.48047 1.4414 1.8008 3.6016 2.8789 6.1211 2.8789 2.3984 0 4.4414-1.0781 5.8789-2.7617 12.359 0.23828 24.602 0.35938 36.121 0.60156 1.4414 1.3203 3.3594 2.1602 5.5195 2.1602 1.9219 0 3.7188-0.83984 5.1602-2.0391 14.16 0.23828 27.238 0.48047 38.281 0.71875 1.1992 0.71875 2.5195 1.1992 4.0781 1.1992 1.4414 0 2.6406-0.48047 3.8398-1.0781 15.238 0.35938 25.68 0.71875 28.801 1.1992 14.879 1.8008 37.32 18.48 41.16 34.559 0.35937 1.4414 0.83984 3.3594 1.4414 5.5195-1.1992-0.71875-2.5195-1.3203-4.0781-1.3203-4.5586 0-8.1602 3.6016-8.1602 8.1602 0 4.4414 3.6016 8.0391 8.1602 8.0391 3.1211 0 5.6406-1.8008 7.0781-4.4414 0.83984 2.8789 1.8008 6 2.7617 9.3594 3 10.32 6.7188 22.922 10.32 35.879-2.5195 1.3203-4.1992 3.9609-4.1992 6.9609 0 4.5586 3.4805 8.1602 8.0391 8.1602v-0.96094 0.96094h0.23828c2.1602 8.1602 4.0781 16.199 5.8789 24-1.4414-1.8008-3.6016-2.8789-6-2.8789v16.199c3.6016 0 6.6016-2.5195 7.5586-6 0.60156 2.7617 1.0781 5.3984 1.5586 8.0391 2.3984 13.922 3.2383 22.199 0.60156 29.039-1.5586 4.1992-5.2812 14.52-9.8398 26.879 0 0.12109 0 0.12109-0.12109 0.23828-2.3984 0-4.4414 1.0781-5.8789 2.6406l-34.078 7.5586c0.23828-0.71875 0.48047-1.3203 0.48047-2.1602 0-4.5586-3.6016-8.1602-8.0391-8.1602-0.48047 0-0.83984 0.23828-1.3203 0.23828l13.199-37.199c0.96094-2.6406 0.83984-5.6406-0.35938-8.2812l-6.6016-14.879c1.8008-1.4414 3.1211-3.7188 3.1211-6.2383 0-4.4414-3.6016-8.0391-8.0391-8.0391-0.48047 0-0.83984 0.23828-1.3203 0.23828l-8.6406-19.199c-2.1602-5.0391-6.9609-8.5195-14.879-10.441-3.9609-0.96094-9.2383-1.5586-15.121-1.6797-0.83984-3.4805-3.8398-6-7.6797-6-4.1992 0-7.4414 3.1211-7.9219 7.0781-12.359 1.9219-25.559 6.4805-36.121 15.238-2.2812 1.9219-3.6016 4.6797-3.9609 7.4414-5.7617 6.2383-12.48 14.879-15.359 22.559-0.48047 1.4414-0.83984 2.8789-1.0781 4.3203-1.0781-0.60156-2.2812-0.96094-3.6016-0.96094-4.5586 0-8.1602 3.6016-8.1602 8.0391 0 4.5586 3.6016 8.1602 8.1602 8.1602 2.0391 0 3.8398-0.83984 5.2812-2.0391 4.9219 15.238 20.16 34.801 43.559 60.48-0.35938-0.12109-0.71875-0.23828-1.1992-0.23828-4.5586 0-8.1602 3.6016-8.1602 8.0391 0 4.5586 3.6016 8.1602 8.1602 8.1602 4.4414 0 8.0391-3.6016 8.0391-8.1602 0-0.12109-0.12109-0.23828-0.12109-0.35938 3.7188 3.9609 7.5586 8.1602 11.641 12.48-2.2812 1.4414-3.8398 3.8398-3.8398 6.7188 0 4.4414 3.6016 8.0391 8.1602 8.0391 2.7617 0 4.9219-1.4414 6.3594-3.3594 2.0391 2.1602 3.9609 4.1992 6.1211 6.3594l3.8398 3.9609c-0.48047 1.0781-0.83984 2.2812-0.83984 3.4805 0 4.4414 3.6016 8.0391 8.1602 8.0391 1.0781 0 2.0391-0.23828 3-0.60156 13.801 15.238 16.68 30.48 14.16 44.16-0.83984 1.1992-1.3203 2.6406-1.3203 4.1992 0 0.23828 0.12109 0.60156 0.12109 0.83984-1.8008 6.3594-4.6797 12.238-7.9219 17.641 0-4.4414-3.6016-8.0391-8.0391-8.0391-3.7188 0-6.7188 2.3984-7.6797 5.7617-3.1211-3.1211-6.6016-6.6016-10.441-10.32 1.5586-1.4414 2.5195-3.4805 2.5195-5.7617 0-4.5586-3.4805-8.1602-8.0391-8.1602-2.3984 0-4.4414 1.0781-6 2.6406-3.3594-3.3594-6.9609-6.8398-10.559-10.441 0.35937-0.83984 0.60156-1.6797 0.60156-2.6406 0-4.5586-3.6016-8.1602-8.0391-8.1602-1.0781 0-2.0391 0.23828-2.8789 0.60156-4.3203-4.1992-8.6406-8.5195-12.961-12.84-0.71875-3.1211-3.1211-5.3984-6.1211-6-21.602-21.121-43.441-42.121-59.16-56.641-1.1992-1.1992-2.7617-2.0391-4.3203-2.5195-8.8789-2.6406-17.281-5.5195-25.32-8.5195-0.60156-3.9609-3.8398-7.0781-7.8008-7.0781-2.0391 0-3.8398 0.83984-5.2812 2.0391-4.9219-2.0391-9.6016-4.0781-14.16-6.1211 2.0391-1.4414 3.4805-3.8398 3.4805-6.6016 0-4.4414-3.6016-8.0391-8.0391-8.0391-4.5586 0-8.1602 3.6016-8.1602 8.0391 0 0.12109 0.12109 0.35938 0.12109 0.48047-57.48-28.68-88.32-61.68-93.359-67.32 0.83984 0.35938 1.8008 0.60156 2.7617 0.60156 4.4414 0 8.0391-3.6016 8.0391-8.1602 0-4.5586-3.6016-8.0391-8.0391-8.0391-4.5586 0-8.1602 3.4805-8.1602 8.0391 0 1.5586 0.60156 2.8789 1.3203 4.1992-1.5586-0.83984-3.3594-1.4414-5.1602-1.4414h-0.12109s-4.1992 0-11.52 0.12109c-4.4414 0-9.9609 0.12109-16.559 0.12109 0.35938-0.96094 0.60156-1.9219 0.60156-2.8789 0-4.5586-3.6016-8.0391-8.0391-8.0391-4.5586 0-8.1602 3.4805-8.1602 8.0391 0 1.0781 0.23828 2.0391 0.60156 3-9.8398 0.12109-20.879 0.12109-32.641 0.23828 0.35938-0.96094 0.60156-2.0391 0.60156-3.2383 0-4.5586-3.6016-8.0391-8.0391-8.0391-4.5586 0-8.1602 3.4805-8.1602 8.0391 0 1.1992 0.23828 2.2812 0.71875 3.3594-10.68 0.12109-21.719 0.12109-32.879 0.23828 0.48047-1.0781 0.83984-2.2812 0.83984-3.4805 0-4.5586-3.6016-8.0391-8.0391-8.0391-4.5586 0-8.1602 3.4805-8.1602 8.0391 0 1.3203 0.35938 2.5195 0.96094 3.6016-11.281 0.12109-22.441 0.12109-33.359 0.23828 0.60156-1.1992 1.0781-2.3984 1.0781-3.8398 0-4.5586-3.6016-8.0391-8.0391-8.0391-4.5586 0-8.1602 3.4805-8.1602 8.0391 0 1.4414 0.48047 2.7617 1.0781 3.8398-12.121 0.12109-23.52 0.12109-33.719 0.23828 0.71875-1.1992 1.1992-2.5195 1.1992-4.0781 0-4.5586-3.6016-8.0391-8.0391-8.0391-2.0391 0-3.7188 0.71875-5.1602 1.9219v10.32h-0.35938v22.32c63.602-0.35938 198.48-1.1992 226.2-1.3203 13.801 15 67.078 66.719 164.04 96.121 3.2383 3 6.7188 6.2383 10.441 9.7188l-153.84 34.32-1.5586-4.8008c-1.6797-4.9219-6.2383-8.1602-11.398-8.1602s-9.7188 3.2383-11.398 8.1602l-3.7188 11.039-44.051 9.9805c-6.4805 1.4414-10.559 7.8008-9.1211 14.281 1.1992 5.6406 6.2383 9.3594 11.762 9.3594 0.83984 0 1.8008-0.12109 2.6406-0.23828l30.359-6.7188-137.52 409.2-20.398 0.12109 13.801 23.879c34.441 59.879 98.398 96.961 167.16 96.961h1.3203c69.359-0.48047 133.32-38.52 167.16-99.238l13.441-24.121-20.281 0.12109-140.05-417 167.04-37.32c33.961 32.762 74.281 72.84 93.719 92.281 6.1211 6.1211 13.199 9.3594 20.281 9.3594h1.5586c6.3594-0.48047 12.121-3.6016 16.078-9 13.441-17.762 19.801-36 19.32-53.762 1.3203-0.60156 2.7617-1.1992 3.9609-1.9219 0.71875-0.35938 1.4414-0.83984 2.0391-1.1992 2.0391-1.1992 3.9609-2.6406 5.6406-4.1992 0.12109-0.12109 0.12109-0.12109 0.23828-0.23828 0.35938-0.35937 0.71875-0.83984 1.1992-1.1992 4.1992 1.1992 8.6406 1.9219 13.078 1.9219 3.7188 0 7.3203-0.35938 10.922-1.1992 12-2.6406 21.48-9.8398 26.039-19.441 0 0 18.238-37.441 32.52-66.719l93.961-21-139.08 414-20.398 0.12109 13.801 23.879c34.441 59.879 98.398 96.961 167.16 96.961h1.3203c69.359-0.48047 133.32-38.52 167.16-99.359l13.441-24.121-20.281 0.12109zm-332.04-61.082m-9.1172 29.16c2.1602-5.8789 11.281-16.441 16.32-20.641l-1.3203-1.5586c0.96094-0.71875 1.9219-1.4414 3-2.0391 0.48047-0.23828 0.83984-0.60156 1.3203-0.83984 1.5586-0.83984 3.1211-1.5586 4.6797-2.1602l16.078 82.922c-22.078-24.121-41.398-47.645-40.078-55.684zm-93.48 571.68-271.44 1.9219 136.08-405.12zm156.48-514.44-1.9219-10.078c1.3203 1.0781 3 1.8008 4.9219 1.8008zm8.0391-22.441c-1.4414-1.1992-3.1211-1.9219-5.0391-1.9219-3 0-5.5195 1.6797-6.9609 3.9609l-9.3594-48.359c0.48047-1.0781 0.71875-2.1602 0.71875-3.3594 0-2.2812-0.96094-4.3203-2.5195-5.7617l-2.1602-11.16h1.4414 4.9219 0.35938c2.2812 0.12109 4.1992 0.35938 5.7617 0.71875 0.71875 2.2812 2.2812 4.0781 4.4414 4.9219l16.68 37.32zm45.84 73.199c-1.0781-0.48047-2.1602-0.83984-3.3594-0.83984-4.5586 0-8.1602 3.6016-8.1602 8.1602 0 3.7188 2.6406 6.7188 6.1211 7.6797-1.0781 3.1211-1.8008 5.0391-1.8008 5.0391-0.71875 2.1602-2.5195 3.9609-4.6797 5.5195-3.7188-9.6016-9.3594-18.84-17.641-27.48l-12.84-13.559c-0.12109-0.12109-0.23828-0.23828-0.23828-0.23828l0.23828-0.71875 33.48-7.4414c1.4414 1.3203 3.3594 2.1602 5.5195 2.1602 3.3594 0 6.2383-2.1602 7.4414-5.0391l6.2383-1.4414c-3.7227 10.082-7.3203 20.039-10.32 28.199zm41.641-0.23828c-3.2383 1.0781-5.6406 4.0781-5.6406 7.6797 0 0.96094 0.23828 1.8008 0.60156 2.6406-0.35938 0.71875-0.60156 1.1992-0.60156 1.1992-1.6797 3.4805-5.6406 6.1211-10.922 7.3203-0.35938 0.12109-0.71875 0.12109-1.0781 0.12109-1.0781-0.48047-2.1602-0.83984-3.4805-0.83984v1.3203-1.3203c-1.4414 0-2.6406 0.48047-3.7188 1.0781 1.0781-2.8789 2.2812-6.3594 3.7188-10.32 1.4414-4.0781 3.1211-8.6406 4.9219-13.559 1.8008-1.4414 3.1211-3.6016 3.1211-6.2383 0-0.60156-0.23828-1.0781-0.35938-1.5586 2.5195-6.9609 5.1602-14.16 7.6797-21.238l1.4414-0.35938c-0.83984 1.3203-1.5586 2.7617-1.5586 4.4414 0 4.5586 3.6016 8.1602 8.1602 8.1602 4.4414 0 8.0391-3.6016 8.0391-8.1602 0-2.8789-1.6797-5.3984-3.9609-6.8398l12.602-2.7617c-7.0859 14.754-14.168 29.395-18.965 39.234zm42-104.16c0 3.3594 2.0391 6.1211 4.8008 7.4414-1.0781 2.7617-2.3984 5.6406-4.0781 9-1.6797 3.4805-5.3984 11.16-10.199 20.762l-24.121 5.3984c1.3203-1.4414 2.1602-3.2383 2.1602-5.3984 0-2.0391-0.83984-3.9609-2.1602-5.3984 0.48047-1.3203 0.96094-2.5195 1.1992-3.3594 4.6797-12.719 3-25.922 0.35938-40.559-0.96094-5.6406-2.2812-11.762-3.7188-18 2.3984-1.4414 4.1992-3.9609 4.1992-7.0781 0-4.4414-3.4805-7.8008-7.8008-8.0391-2.0391-8.0391-4.1992-16.078-6.3594-24l0.96094 0.96094c25.68 24.719 45.719 45.48 48.48 51.359 1.5586 3.3594 2.3984 6.2383 2.8789 9.1211-3.7227 0.70703-6.6016 3.8281-6.6016 7.7891zm-14.762 451.44 136.08-405.12 135.36 403.2z"/>
</svg>
