<?xml version="1.0" encoding="UTF-8"?>
<svg width="100pt" height="100pt" version="1.1" viewBox="0 0 100 100" xmlns="http://www.w3.org/2000/svg">
 <path d="m6.1133 88.336h87.785c0.79687 0 1.4297-0.64453 1.4297-1.4297v-49.211c0-0.050781 0-0.09375-0.011719-0.14453 0-0.03125-0.011718-0.070312-0.019531-0.10156 0-0.011719 0-0.019531-0.011719-0.03125-0.011718-0.039063-0.019531-0.082031-0.03125-0.12109v-0.011719c-0.011718-0.039062-0.03125-0.082031-0.039062-0.12109v-0.011718c-0.019532-0.039063-0.03125-0.070313-0.050782-0.11328 0-0.011718-0.011718-0.011718-0.011718-0.019531-0.019532-0.03125-0.039063-0.0625-0.0625-0.09375-0.011719-0.011719-0.011719-0.019531-0.019532-0.03125-0.019531-0.03125-0.039062-0.050781-0.0625-0.082031-0.011718-0.011719-0.011718-0.019531-0.019531-0.03125-0.03125-0.03125-0.050781-0.0625-0.082031-0.09375l-0.011719-0.011719-12.293-12.289-12.305-12.305c-0.26562-0.26562-0.63281-0.41797-1.0117-0.41797h-38.57c-0.050782 0-0.09375 0-0.14453 0.011719-0.019531 0-0.039062 0.011719-0.0625 0.011719-0.03125 0-0.050781 0.011719-0.082031 0.011719-0.019531 0-0.039062 0.011719-0.070312 0.019531-0.019531 0.011719-0.050781 0.011719-0.070313 0.019531-0.019531 0.011719-0.039062 0.011719-0.0625 0.019531-0.019531 0.011719-0.039062 0.019532-0.070312 0.019532-0.019532 0.011718-0.039063 0.019531-0.0625 0.03125-0.019532 0.011718-0.050782 0.019531-0.070313 0.03125-0.019531 0.011718-0.039062 0.019531-0.050781 0.03125-0.019531 0.011718-0.039062 0.03125-0.070312 0.039062-0.019532 0.011719-0.039063 0.03125-0.050782 0.039063-0.019531 0.011719-0.039062 0.03125-0.0625 0.039062-0.03125 0.03125-0.0625 0.050781-0.09375 0.082031l-0.011718 0.011719-24.586 24.602c-0.039062 0.039062-0.082031 0.09375-0.12109 0.14453-0.011718 0.011719-0.019531 0.019531-0.03125 0.03125-0.039062 0.050781-0.070312 0.10156-0.10156 0.16406 0 0 0 0.011718-0.011719 0.011718-0.03125 0.050782-0.050781 0.10156-0.070313 0.16406 0 0.011719-0.011718 0.019531-0.011718 0.03125-0.019532 0.0625-0.039063 0.12109-0.050782 0.18359v0.011719c-0.011718 0.0625-0.019531 0.11328-0.019531 0.17188v49.316c-0.003906 0.78906 0.64062 1.4219 1.4375 1.4219zm43.293-73.805 9.4375 9.4375h-15.23l-9.4375-9.4375zm41.023 21.734h-15.227l-9.4375-9.4297h15.223zm-47.41-8.8477 8.8477 8.8359h-17.695zm-10.875 6.8164v-17.684l8.8477 8.8477zm0 4.8984h21.746v21.746h-7.7969v-6.8984c0-0.79688-0.64453-1.4297-1.4297-1.4297h-12.52zm13.949 24.602h7.7969v21.734h-7.7969zm10.66 0h16.418v21.734h-16.418zm0-2.8672v-21.734h16.418v21.746h-16.418zm19.285-21.734h16.418v21.746h-16.418zm-4.8945-2.8672h-15.227l-9.4375-9.4297h15.234zm-41.859-2.0312-8.8359-8.8359 8.8359-8.8359zm0 18.305h-12.52c-0.79688 0-1.4297 0.64453-1.4297 1.4297v6.8867h-7.7969v-21.723h21.734l0.003906 13.406zm-21.746 11.195h7.7852v21.734h-7.7852zm24.605 21.734v-3c0.66406 0.16406 1.3477 0.25391 2.0195 0.25391 1.4375 0 2.8867-0.36719 4.1719-1.1133 2.5703-1.4805 4.1641-4.2539 4.1719-7.2227 0-0.51172-0.27734-0.98828-0.72266-1.2461-2.582-1.4805-5.7773-1.4805-8.3359 0.011719-0.46875 0.27734-0.90625 0.59375-1.3047 0.9375v-2.4883c2.1523-1.5508 3.4609-4.0703 3.4609-6.7539 0-2.9688-1.6016-5.7344-4.1719-7.2227-0.44922-0.25391-0.98828-0.25391-1.4375 0-2.5703 1.4883-4.1719 4.2656-4.1719 7.2227 0 2.6836 1.3047 5.2031 3.4609 6.7539v2.4883c-0.39844-0.34766-0.83594-0.66406-1.3047-0.92969-2.5703-1.4805-5.7656-1.4883-8.3359-0.011718-0.44922 0.25391-0.72266 0.73437-0.72266 1.2461 0 2.9688 1.6016 5.7461 4.1719 7.2227 1.2852 0.74609 2.7344 1.1133 4.1719 1.1133 0.68359 0 1.3555-0.082031 2.0195-0.25391v3l-11.082 0.003907v-30.074h25.031v30.062zm-1.4297-16.375c-1.2656-1.0312-2.0195-2.5938-2.0195-4.2539 0-1.6523 0.75391-3.2148 2.0195-4.2539 1.2656 1.0312 2.0195 2.5938 2.0195 4.2539s-0.75391 3.2227-2.0195 4.2539zm1.5 10.406c0.26562-1.6133 1.2344-3.0508 2.6719-3.8789 1.4297-0.82812 3.1641-0.94922 4.6836-0.37891-0.26562 1.6133-1.2344 3.0508-2.6641 3.8789-1.4258 0.83984-3.1602 0.96094-4.6914 0.37891zm-3 0c-1.5195 0.58203-3.2539 0.46094-4.6953-0.37891-1.4375-0.82812-2.4062-2.2656-2.6719-3.8789 1.5312-0.58203 3.2539-0.44922 4.6953 0.37891 1.4375 0.83984 2.4062 2.2773 2.6719 3.8789zm46.824 5.9688v-21.734h16.418v21.734zm2.0938-61.508h-15.234l-9.4375-9.4375h15.234zm-59.727 3.457 8.8359 8.8359h-17.672z" fill="#70d258"/>
</svg>